G75*
%MOIN*%
%OFA0B0*%
%FSLAX25Y25*%
%IPPOS*%
%LPD*%
%AMOC8*
5,1,8,0,0,1.08239X$1,22.5*
%
%ADD10C,0.00000*%
%ADD11C,0.01600*%
%ADD12C,0.00500*%
%ADD13C,0.00010*%
%ADD14C,0.00200*%
D10*
X0015176Y0021288D02*
X0115176Y0021288D01*
X0115176Y0527194D01*
X0015176Y0527194D01*
X0015245Y0021426D01*
X0015176Y0021288D02*
X0015176Y0527194D01*
X0115176Y0527194D01*
D11*
X0032695Y0422863D02*
X0032699Y0423201D01*
X0032712Y0423539D01*
X0032732Y0423877D01*
X0032761Y0424214D01*
X0032799Y0424550D01*
X0032844Y0424885D01*
X0032898Y0425219D01*
X0032960Y0425551D01*
X0033030Y0425882D01*
X0033108Y0426211D01*
X0033194Y0426538D01*
X0033288Y0426863D01*
X0033391Y0427186D01*
X0033501Y0427505D01*
X0033618Y0427822D01*
X0033744Y0428136D01*
X0033877Y0428447D01*
X0034018Y0428755D01*
X0034166Y0429059D01*
X0034322Y0429359D01*
X0034485Y0429655D01*
X0034655Y0429947D01*
X0034833Y0430235D01*
X0035017Y0430519D01*
X0035209Y0430798D01*
X0035407Y0431072D01*
X0035612Y0431341D01*
X0035823Y0431605D01*
X0036041Y0431864D01*
X0036265Y0432117D01*
X0036495Y0432365D01*
X0036731Y0432607D01*
X0036973Y0432843D01*
X0037221Y0433073D01*
X0037474Y0433297D01*
X0037733Y0433515D01*
X0037997Y0433726D01*
X0038266Y0433931D01*
X0038540Y0434129D01*
X0038819Y0434321D01*
X0039103Y0434505D01*
X0039391Y0434683D01*
X0039683Y0434853D01*
X0039979Y0435016D01*
X0040279Y0435172D01*
X0040583Y0435320D01*
X0040891Y0435461D01*
X0041202Y0435594D01*
X0041516Y0435720D01*
X0041833Y0435837D01*
X0042152Y0435947D01*
X0042475Y0436050D01*
X0042800Y0436144D01*
X0043127Y0436230D01*
X0043456Y0436308D01*
X0043787Y0436378D01*
X0044119Y0436440D01*
X0044453Y0436494D01*
X0044788Y0436539D01*
X0045124Y0436577D01*
X0045461Y0436606D01*
X0045799Y0436626D01*
X0046137Y0436639D01*
X0046475Y0436643D01*
X0046813Y0436639D01*
X0047151Y0436626D01*
X0047489Y0436606D01*
X0047826Y0436577D01*
X0048162Y0436539D01*
X0048497Y0436494D01*
X0048831Y0436440D01*
X0049163Y0436378D01*
X0049494Y0436308D01*
X0049823Y0436230D01*
X0050150Y0436144D01*
X0050475Y0436050D01*
X0050798Y0435947D01*
X0051117Y0435837D01*
X0051434Y0435720D01*
X0051748Y0435594D01*
X0052059Y0435461D01*
X0052367Y0435320D01*
X0052671Y0435172D01*
X0052971Y0435016D01*
X0053267Y0434853D01*
X0053559Y0434683D01*
X0053847Y0434505D01*
X0054131Y0434321D01*
X0054410Y0434129D01*
X0054684Y0433931D01*
X0054953Y0433726D01*
X0055217Y0433515D01*
X0055476Y0433297D01*
X0055729Y0433073D01*
X0055977Y0432843D01*
X0056219Y0432607D01*
X0056455Y0432365D01*
X0056685Y0432117D01*
X0056909Y0431864D01*
X0057127Y0431605D01*
X0057338Y0431341D01*
X0057543Y0431072D01*
X0057741Y0430798D01*
X0057933Y0430519D01*
X0058117Y0430235D01*
X0058295Y0429947D01*
X0058465Y0429655D01*
X0058628Y0429359D01*
X0058784Y0429059D01*
X0058932Y0428755D01*
X0059073Y0428447D01*
X0059206Y0428136D01*
X0059332Y0427822D01*
X0059449Y0427505D01*
X0059559Y0427186D01*
X0059662Y0426863D01*
X0059756Y0426538D01*
X0059842Y0426211D01*
X0059920Y0425882D01*
X0059990Y0425551D01*
X0060052Y0425219D01*
X0060106Y0424885D01*
X0060151Y0424550D01*
X0060189Y0424214D01*
X0060218Y0423877D01*
X0060238Y0423539D01*
X0060251Y0423201D01*
X0060255Y0422863D01*
X0060251Y0422525D01*
X0060238Y0422187D01*
X0060218Y0421849D01*
X0060189Y0421512D01*
X0060151Y0421176D01*
X0060106Y0420841D01*
X0060052Y0420507D01*
X0059990Y0420175D01*
X0059920Y0419844D01*
X0059842Y0419515D01*
X0059756Y0419188D01*
X0059662Y0418863D01*
X0059559Y0418540D01*
X0059449Y0418221D01*
X0059332Y0417904D01*
X0059206Y0417590D01*
X0059073Y0417279D01*
X0058932Y0416971D01*
X0058784Y0416667D01*
X0058628Y0416367D01*
X0058465Y0416071D01*
X0058295Y0415779D01*
X0058117Y0415491D01*
X0057933Y0415207D01*
X0057741Y0414928D01*
X0057543Y0414654D01*
X0057338Y0414385D01*
X0057127Y0414121D01*
X0056909Y0413862D01*
X0056685Y0413609D01*
X0056455Y0413361D01*
X0056219Y0413119D01*
X0055977Y0412883D01*
X0055729Y0412653D01*
X0055476Y0412429D01*
X0055217Y0412211D01*
X0054953Y0412000D01*
X0054684Y0411795D01*
X0054410Y0411597D01*
X0054131Y0411405D01*
X0053847Y0411221D01*
X0053559Y0411043D01*
X0053267Y0410873D01*
X0052971Y0410710D01*
X0052671Y0410554D01*
X0052367Y0410406D01*
X0052059Y0410265D01*
X0051748Y0410132D01*
X0051434Y0410006D01*
X0051117Y0409889D01*
X0050798Y0409779D01*
X0050475Y0409676D01*
X0050150Y0409582D01*
X0049823Y0409496D01*
X0049494Y0409418D01*
X0049163Y0409348D01*
X0048831Y0409286D01*
X0048497Y0409232D01*
X0048162Y0409187D01*
X0047826Y0409149D01*
X0047489Y0409120D01*
X0047151Y0409100D01*
X0046813Y0409087D01*
X0046475Y0409083D01*
X0046137Y0409087D01*
X0045799Y0409100D01*
X0045461Y0409120D01*
X0045124Y0409149D01*
X0044788Y0409187D01*
X0044453Y0409232D01*
X0044119Y0409286D01*
X0043787Y0409348D01*
X0043456Y0409418D01*
X0043127Y0409496D01*
X0042800Y0409582D01*
X0042475Y0409676D01*
X0042152Y0409779D01*
X0041833Y0409889D01*
X0041516Y0410006D01*
X0041202Y0410132D01*
X0040891Y0410265D01*
X0040583Y0410406D01*
X0040279Y0410554D01*
X0039979Y0410710D01*
X0039683Y0410873D01*
X0039391Y0411043D01*
X0039103Y0411221D01*
X0038819Y0411405D01*
X0038540Y0411597D01*
X0038266Y0411795D01*
X0037997Y0412000D01*
X0037733Y0412211D01*
X0037474Y0412429D01*
X0037221Y0412653D01*
X0036973Y0412883D01*
X0036731Y0413119D01*
X0036495Y0413361D01*
X0036265Y0413609D01*
X0036041Y0413862D01*
X0035823Y0414121D01*
X0035612Y0414385D01*
X0035407Y0414654D01*
X0035209Y0414928D01*
X0035017Y0415207D01*
X0034833Y0415491D01*
X0034655Y0415779D01*
X0034485Y0416071D01*
X0034322Y0416367D01*
X0034166Y0416667D01*
X0034018Y0416971D01*
X0033877Y0417279D01*
X0033744Y0417590D01*
X0033618Y0417904D01*
X0033501Y0418221D01*
X0033391Y0418540D01*
X0033288Y0418863D01*
X0033194Y0419188D01*
X0033108Y0419515D01*
X0033030Y0419844D01*
X0032960Y0420175D01*
X0032898Y0420507D01*
X0032844Y0420841D01*
X0032799Y0421176D01*
X0032761Y0421512D01*
X0032732Y0421849D01*
X0032712Y0422187D01*
X0032699Y0422525D01*
X0032695Y0422863D01*
X0032695Y0229950D02*
X0032699Y0230288D01*
X0032712Y0230626D01*
X0032732Y0230964D01*
X0032761Y0231301D01*
X0032799Y0231637D01*
X0032844Y0231972D01*
X0032898Y0232306D01*
X0032960Y0232638D01*
X0033030Y0232969D01*
X0033108Y0233298D01*
X0033194Y0233625D01*
X0033288Y0233950D01*
X0033391Y0234273D01*
X0033501Y0234592D01*
X0033618Y0234909D01*
X0033744Y0235223D01*
X0033877Y0235534D01*
X0034018Y0235842D01*
X0034166Y0236146D01*
X0034322Y0236446D01*
X0034485Y0236742D01*
X0034655Y0237034D01*
X0034833Y0237322D01*
X0035017Y0237606D01*
X0035209Y0237885D01*
X0035407Y0238159D01*
X0035612Y0238428D01*
X0035823Y0238692D01*
X0036041Y0238951D01*
X0036265Y0239204D01*
X0036495Y0239452D01*
X0036731Y0239694D01*
X0036973Y0239930D01*
X0037221Y0240160D01*
X0037474Y0240384D01*
X0037733Y0240602D01*
X0037997Y0240813D01*
X0038266Y0241018D01*
X0038540Y0241216D01*
X0038819Y0241408D01*
X0039103Y0241592D01*
X0039391Y0241770D01*
X0039683Y0241940D01*
X0039979Y0242103D01*
X0040279Y0242259D01*
X0040583Y0242407D01*
X0040891Y0242548D01*
X0041202Y0242681D01*
X0041516Y0242807D01*
X0041833Y0242924D01*
X0042152Y0243034D01*
X0042475Y0243137D01*
X0042800Y0243231D01*
X0043127Y0243317D01*
X0043456Y0243395D01*
X0043787Y0243465D01*
X0044119Y0243527D01*
X0044453Y0243581D01*
X0044788Y0243626D01*
X0045124Y0243664D01*
X0045461Y0243693D01*
X0045799Y0243713D01*
X0046137Y0243726D01*
X0046475Y0243730D01*
X0046813Y0243726D01*
X0047151Y0243713D01*
X0047489Y0243693D01*
X0047826Y0243664D01*
X0048162Y0243626D01*
X0048497Y0243581D01*
X0048831Y0243527D01*
X0049163Y0243465D01*
X0049494Y0243395D01*
X0049823Y0243317D01*
X0050150Y0243231D01*
X0050475Y0243137D01*
X0050798Y0243034D01*
X0051117Y0242924D01*
X0051434Y0242807D01*
X0051748Y0242681D01*
X0052059Y0242548D01*
X0052367Y0242407D01*
X0052671Y0242259D01*
X0052971Y0242103D01*
X0053267Y0241940D01*
X0053559Y0241770D01*
X0053847Y0241592D01*
X0054131Y0241408D01*
X0054410Y0241216D01*
X0054684Y0241018D01*
X0054953Y0240813D01*
X0055217Y0240602D01*
X0055476Y0240384D01*
X0055729Y0240160D01*
X0055977Y0239930D01*
X0056219Y0239694D01*
X0056455Y0239452D01*
X0056685Y0239204D01*
X0056909Y0238951D01*
X0057127Y0238692D01*
X0057338Y0238428D01*
X0057543Y0238159D01*
X0057741Y0237885D01*
X0057933Y0237606D01*
X0058117Y0237322D01*
X0058295Y0237034D01*
X0058465Y0236742D01*
X0058628Y0236446D01*
X0058784Y0236146D01*
X0058932Y0235842D01*
X0059073Y0235534D01*
X0059206Y0235223D01*
X0059332Y0234909D01*
X0059449Y0234592D01*
X0059559Y0234273D01*
X0059662Y0233950D01*
X0059756Y0233625D01*
X0059842Y0233298D01*
X0059920Y0232969D01*
X0059990Y0232638D01*
X0060052Y0232306D01*
X0060106Y0231972D01*
X0060151Y0231637D01*
X0060189Y0231301D01*
X0060218Y0230964D01*
X0060238Y0230626D01*
X0060251Y0230288D01*
X0060255Y0229950D01*
X0060251Y0229612D01*
X0060238Y0229274D01*
X0060218Y0228936D01*
X0060189Y0228599D01*
X0060151Y0228263D01*
X0060106Y0227928D01*
X0060052Y0227594D01*
X0059990Y0227262D01*
X0059920Y0226931D01*
X0059842Y0226602D01*
X0059756Y0226275D01*
X0059662Y0225950D01*
X0059559Y0225627D01*
X0059449Y0225308D01*
X0059332Y0224991D01*
X0059206Y0224677D01*
X0059073Y0224366D01*
X0058932Y0224058D01*
X0058784Y0223754D01*
X0058628Y0223454D01*
X0058465Y0223158D01*
X0058295Y0222866D01*
X0058117Y0222578D01*
X0057933Y0222294D01*
X0057741Y0222015D01*
X0057543Y0221741D01*
X0057338Y0221472D01*
X0057127Y0221208D01*
X0056909Y0220949D01*
X0056685Y0220696D01*
X0056455Y0220448D01*
X0056219Y0220206D01*
X0055977Y0219970D01*
X0055729Y0219740D01*
X0055476Y0219516D01*
X0055217Y0219298D01*
X0054953Y0219087D01*
X0054684Y0218882D01*
X0054410Y0218684D01*
X0054131Y0218492D01*
X0053847Y0218308D01*
X0053559Y0218130D01*
X0053267Y0217960D01*
X0052971Y0217797D01*
X0052671Y0217641D01*
X0052367Y0217493D01*
X0052059Y0217352D01*
X0051748Y0217219D01*
X0051434Y0217093D01*
X0051117Y0216976D01*
X0050798Y0216866D01*
X0050475Y0216763D01*
X0050150Y0216669D01*
X0049823Y0216583D01*
X0049494Y0216505D01*
X0049163Y0216435D01*
X0048831Y0216373D01*
X0048497Y0216319D01*
X0048162Y0216274D01*
X0047826Y0216236D01*
X0047489Y0216207D01*
X0047151Y0216187D01*
X0046813Y0216174D01*
X0046475Y0216170D01*
X0046137Y0216174D01*
X0045799Y0216187D01*
X0045461Y0216207D01*
X0045124Y0216236D01*
X0044788Y0216274D01*
X0044453Y0216319D01*
X0044119Y0216373D01*
X0043787Y0216435D01*
X0043456Y0216505D01*
X0043127Y0216583D01*
X0042800Y0216669D01*
X0042475Y0216763D01*
X0042152Y0216866D01*
X0041833Y0216976D01*
X0041516Y0217093D01*
X0041202Y0217219D01*
X0040891Y0217352D01*
X0040583Y0217493D01*
X0040279Y0217641D01*
X0039979Y0217797D01*
X0039683Y0217960D01*
X0039391Y0218130D01*
X0039103Y0218308D01*
X0038819Y0218492D01*
X0038540Y0218684D01*
X0038266Y0218882D01*
X0037997Y0219087D01*
X0037733Y0219298D01*
X0037474Y0219516D01*
X0037221Y0219740D01*
X0036973Y0219970D01*
X0036731Y0220206D01*
X0036495Y0220448D01*
X0036265Y0220696D01*
X0036041Y0220949D01*
X0035823Y0221208D01*
X0035612Y0221472D01*
X0035407Y0221741D01*
X0035209Y0222015D01*
X0035017Y0222294D01*
X0034833Y0222578D01*
X0034655Y0222866D01*
X0034485Y0223158D01*
X0034322Y0223454D01*
X0034166Y0223754D01*
X0034018Y0224058D01*
X0033877Y0224366D01*
X0033744Y0224677D01*
X0033618Y0224991D01*
X0033501Y0225308D01*
X0033391Y0225627D01*
X0033288Y0225950D01*
X0033194Y0226275D01*
X0033108Y0226602D01*
X0033030Y0226931D01*
X0032960Y0227262D01*
X0032898Y0227594D01*
X0032844Y0227928D01*
X0032799Y0228263D01*
X0032761Y0228599D01*
X0032732Y0228936D01*
X0032712Y0229274D01*
X0032699Y0229612D01*
X0032695Y0229950D01*
X0037616Y0143335D02*
X0037620Y0143673D01*
X0037633Y0144011D01*
X0037653Y0144349D01*
X0037682Y0144686D01*
X0037720Y0145022D01*
X0037765Y0145357D01*
X0037819Y0145691D01*
X0037881Y0146023D01*
X0037951Y0146354D01*
X0038029Y0146683D01*
X0038115Y0147010D01*
X0038209Y0147335D01*
X0038312Y0147658D01*
X0038422Y0147977D01*
X0038539Y0148294D01*
X0038665Y0148608D01*
X0038798Y0148919D01*
X0038939Y0149227D01*
X0039087Y0149531D01*
X0039243Y0149831D01*
X0039406Y0150127D01*
X0039576Y0150419D01*
X0039754Y0150707D01*
X0039938Y0150991D01*
X0040130Y0151270D01*
X0040328Y0151544D01*
X0040533Y0151813D01*
X0040744Y0152077D01*
X0040962Y0152336D01*
X0041186Y0152589D01*
X0041416Y0152837D01*
X0041652Y0153079D01*
X0041894Y0153315D01*
X0042142Y0153545D01*
X0042395Y0153769D01*
X0042654Y0153987D01*
X0042918Y0154198D01*
X0043187Y0154403D01*
X0043461Y0154601D01*
X0043740Y0154793D01*
X0044024Y0154977D01*
X0044312Y0155155D01*
X0044604Y0155325D01*
X0044900Y0155488D01*
X0045200Y0155644D01*
X0045504Y0155792D01*
X0045812Y0155933D01*
X0046123Y0156066D01*
X0046437Y0156192D01*
X0046754Y0156309D01*
X0047073Y0156419D01*
X0047396Y0156522D01*
X0047721Y0156616D01*
X0048048Y0156702D01*
X0048377Y0156780D01*
X0048708Y0156850D01*
X0049040Y0156912D01*
X0049374Y0156966D01*
X0049709Y0157011D01*
X0050045Y0157049D01*
X0050382Y0157078D01*
X0050720Y0157098D01*
X0051058Y0157111D01*
X0051396Y0157115D01*
X0051734Y0157111D01*
X0052072Y0157098D01*
X0052410Y0157078D01*
X0052747Y0157049D01*
X0053083Y0157011D01*
X0053418Y0156966D01*
X0053752Y0156912D01*
X0054084Y0156850D01*
X0054415Y0156780D01*
X0054744Y0156702D01*
X0055071Y0156616D01*
X0055396Y0156522D01*
X0055719Y0156419D01*
X0056038Y0156309D01*
X0056355Y0156192D01*
X0056669Y0156066D01*
X0056980Y0155933D01*
X0057288Y0155792D01*
X0057592Y0155644D01*
X0057892Y0155488D01*
X0058188Y0155325D01*
X0058480Y0155155D01*
X0058768Y0154977D01*
X0059052Y0154793D01*
X0059331Y0154601D01*
X0059605Y0154403D01*
X0059874Y0154198D01*
X0060138Y0153987D01*
X0060397Y0153769D01*
X0060650Y0153545D01*
X0060898Y0153315D01*
X0061140Y0153079D01*
X0061376Y0152837D01*
X0061606Y0152589D01*
X0061830Y0152336D01*
X0062048Y0152077D01*
X0062259Y0151813D01*
X0062464Y0151544D01*
X0062662Y0151270D01*
X0062854Y0150991D01*
X0063038Y0150707D01*
X0063216Y0150419D01*
X0063386Y0150127D01*
X0063549Y0149831D01*
X0063705Y0149531D01*
X0063853Y0149227D01*
X0063994Y0148919D01*
X0064127Y0148608D01*
X0064253Y0148294D01*
X0064370Y0147977D01*
X0064480Y0147658D01*
X0064583Y0147335D01*
X0064677Y0147010D01*
X0064763Y0146683D01*
X0064841Y0146354D01*
X0064911Y0146023D01*
X0064973Y0145691D01*
X0065027Y0145357D01*
X0065072Y0145022D01*
X0065110Y0144686D01*
X0065139Y0144349D01*
X0065159Y0144011D01*
X0065172Y0143673D01*
X0065176Y0143335D01*
X0065172Y0142997D01*
X0065159Y0142659D01*
X0065139Y0142321D01*
X0065110Y0141984D01*
X0065072Y0141648D01*
X0065027Y0141313D01*
X0064973Y0140979D01*
X0064911Y0140647D01*
X0064841Y0140316D01*
X0064763Y0139987D01*
X0064677Y0139660D01*
X0064583Y0139335D01*
X0064480Y0139012D01*
X0064370Y0138693D01*
X0064253Y0138376D01*
X0064127Y0138062D01*
X0063994Y0137751D01*
X0063853Y0137443D01*
X0063705Y0137139D01*
X0063549Y0136839D01*
X0063386Y0136543D01*
X0063216Y0136251D01*
X0063038Y0135963D01*
X0062854Y0135679D01*
X0062662Y0135400D01*
X0062464Y0135126D01*
X0062259Y0134857D01*
X0062048Y0134593D01*
X0061830Y0134334D01*
X0061606Y0134081D01*
X0061376Y0133833D01*
X0061140Y0133591D01*
X0060898Y0133355D01*
X0060650Y0133125D01*
X0060397Y0132901D01*
X0060138Y0132683D01*
X0059874Y0132472D01*
X0059605Y0132267D01*
X0059331Y0132069D01*
X0059052Y0131877D01*
X0058768Y0131693D01*
X0058480Y0131515D01*
X0058188Y0131345D01*
X0057892Y0131182D01*
X0057592Y0131026D01*
X0057288Y0130878D01*
X0056980Y0130737D01*
X0056669Y0130604D01*
X0056355Y0130478D01*
X0056038Y0130361D01*
X0055719Y0130251D01*
X0055396Y0130148D01*
X0055071Y0130054D01*
X0054744Y0129968D01*
X0054415Y0129890D01*
X0054084Y0129820D01*
X0053752Y0129758D01*
X0053418Y0129704D01*
X0053083Y0129659D01*
X0052747Y0129621D01*
X0052410Y0129592D01*
X0052072Y0129572D01*
X0051734Y0129559D01*
X0051396Y0129555D01*
X0051058Y0129559D01*
X0050720Y0129572D01*
X0050382Y0129592D01*
X0050045Y0129621D01*
X0049709Y0129659D01*
X0049374Y0129704D01*
X0049040Y0129758D01*
X0048708Y0129820D01*
X0048377Y0129890D01*
X0048048Y0129968D01*
X0047721Y0130054D01*
X0047396Y0130148D01*
X0047073Y0130251D01*
X0046754Y0130361D01*
X0046437Y0130478D01*
X0046123Y0130604D01*
X0045812Y0130737D01*
X0045504Y0130878D01*
X0045200Y0131026D01*
X0044900Y0131182D01*
X0044604Y0131345D01*
X0044312Y0131515D01*
X0044024Y0131693D01*
X0043740Y0131877D01*
X0043461Y0132069D01*
X0043187Y0132267D01*
X0042918Y0132472D01*
X0042654Y0132683D01*
X0042395Y0132901D01*
X0042142Y0133125D01*
X0041894Y0133355D01*
X0041652Y0133591D01*
X0041416Y0133833D01*
X0041186Y0134081D01*
X0040962Y0134334D01*
X0040744Y0134593D01*
X0040533Y0134857D01*
X0040328Y0135126D01*
X0040130Y0135400D01*
X0039938Y0135679D01*
X0039754Y0135963D01*
X0039576Y0136251D01*
X0039406Y0136543D01*
X0039243Y0136839D01*
X0039087Y0137139D01*
X0038939Y0137443D01*
X0038798Y0137751D01*
X0038665Y0138062D01*
X0038539Y0138376D01*
X0038422Y0138693D01*
X0038312Y0139012D01*
X0038209Y0139335D01*
X0038115Y0139660D01*
X0038029Y0139987D01*
X0037951Y0140316D01*
X0037881Y0140647D01*
X0037819Y0140979D01*
X0037765Y0141313D01*
X0037720Y0141648D01*
X0037682Y0141984D01*
X0037653Y0142321D01*
X0037633Y0142659D01*
X0037620Y0142997D01*
X0037616Y0143335D01*
X0037616Y0100028D02*
X0037620Y0100366D01*
X0037633Y0100704D01*
X0037653Y0101042D01*
X0037682Y0101379D01*
X0037720Y0101715D01*
X0037765Y0102050D01*
X0037819Y0102384D01*
X0037881Y0102716D01*
X0037951Y0103047D01*
X0038029Y0103376D01*
X0038115Y0103703D01*
X0038209Y0104028D01*
X0038312Y0104351D01*
X0038422Y0104670D01*
X0038539Y0104987D01*
X0038665Y0105301D01*
X0038798Y0105612D01*
X0038939Y0105920D01*
X0039087Y0106224D01*
X0039243Y0106524D01*
X0039406Y0106820D01*
X0039576Y0107112D01*
X0039754Y0107400D01*
X0039938Y0107684D01*
X0040130Y0107963D01*
X0040328Y0108237D01*
X0040533Y0108506D01*
X0040744Y0108770D01*
X0040962Y0109029D01*
X0041186Y0109282D01*
X0041416Y0109530D01*
X0041652Y0109772D01*
X0041894Y0110008D01*
X0042142Y0110238D01*
X0042395Y0110462D01*
X0042654Y0110680D01*
X0042918Y0110891D01*
X0043187Y0111096D01*
X0043461Y0111294D01*
X0043740Y0111486D01*
X0044024Y0111670D01*
X0044312Y0111848D01*
X0044604Y0112018D01*
X0044900Y0112181D01*
X0045200Y0112337D01*
X0045504Y0112485D01*
X0045812Y0112626D01*
X0046123Y0112759D01*
X0046437Y0112885D01*
X0046754Y0113002D01*
X0047073Y0113112D01*
X0047396Y0113215D01*
X0047721Y0113309D01*
X0048048Y0113395D01*
X0048377Y0113473D01*
X0048708Y0113543D01*
X0049040Y0113605D01*
X0049374Y0113659D01*
X0049709Y0113704D01*
X0050045Y0113742D01*
X0050382Y0113771D01*
X0050720Y0113791D01*
X0051058Y0113804D01*
X0051396Y0113808D01*
X0051734Y0113804D01*
X0052072Y0113791D01*
X0052410Y0113771D01*
X0052747Y0113742D01*
X0053083Y0113704D01*
X0053418Y0113659D01*
X0053752Y0113605D01*
X0054084Y0113543D01*
X0054415Y0113473D01*
X0054744Y0113395D01*
X0055071Y0113309D01*
X0055396Y0113215D01*
X0055719Y0113112D01*
X0056038Y0113002D01*
X0056355Y0112885D01*
X0056669Y0112759D01*
X0056980Y0112626D01*
X0057288Y0112485D01*
X0057592Y0112337D01*
X0057892Y0112181D01*
X0058188Y0112018D01*
X0058480Y0111848D01*
X0058768Y0111670D01*
X0059052Y0111486D01*
X0059331Y0111294D01*
X0059605Y0111096D01*
X0059874Y0110891D01*
X0060138Y0110680D01*
X0060397Y0110462D01*
X0060650Y0110238D01*
X0060898Y0110008D01*
X0061140Y0109772D01*
X0061376Y0109530D01*
X0061606Y0109282D01*
X0061830Y0109029D01*
X0062048Y0108770D01*
X0062259Y0108506D01*
X0062464Y0108237D01*
X0062662Y0107963D01*
X0062854Y0107684D01*
X0063038Y0107400D01*
X0063216Y0107112D01*
X0063386Y0106820D01*
X0063549Y0106524D01*
X0063705Y0106224D01*
X0063853Y0105920D01*
X0063994Y0105612D01*
X0064127Y0105301D01*
X0064253Y0104987D01*
X0064370Y0104670D01*
X0064480Y0104351D01*
X0064583Y0104028D01*
X0064677Y0103703D01*
X0064763Y0103376D01*
X0064841Y0103047D01*
X0064911Y0102716D01*
X0064973Y0102384D01*
X0065027Y0102050D01*
X0065072Y0101715D01*
X0065110Y0101379D01*
X0065139Y0101042D01*
X0065159Y0100704D01*
X0065172Y0100366D01*
X0065176Y0100028D01*
X0065172Y0099690D01*
X0065159Y0099352D01*
X0065139Y0099014D01*
X0065110Y0098677D01*
X0065072Y0098341D01*
X0065027Y0098006D01*
X0064973Y0097672D01*
X0064911Y0097340D01*
X0064841Y0097009D01*
X0064763Y0096680D01*
X0064677Y0096353D01*
X0064583Y0096028D01*
X0064480Y0095705D01*
X0064370Y0095386D01*
X0064253Y0095069D01*
X0064127Y0094755D01*
X0063994Y0094444D01*
X0063853Y0094136D01*
X0063705Y0093832D01*
X0063549Y0093532D01*
X0063386Y0093236D01*
X0063216Y0092944D01*
X0063038Y0092656D01*
X0062854Y0092372D01*
X0062662Y0092093D01*
X0062464Y0091819D01*
X0062259Y0091550D01*
X0062048Y0091286D01*
X0061830Y0091027D01*
X0061606Y0090774D01*
X0061376Y0090526D01*
X0061140Y0090284D01*
X0060898Y0090048D01*
X0060650Y0089818D01*
X0060397Y0089594D01*
X0060138Y0089376D01*
X0059874Y0089165D01*
X0059605Y0088960D01*
X0059331Y0088762D01*
X0059052Y0088570D01*
X0058768Y0088386D01*
X0058480Y0088208D01*
X0058188Y0088038D01*
X0057892Y0087875D01*
X0057592Y0087719D01*
X0057288Y0087571D01*
X0056980Y0087430D01*
X0056669Y0087297D01*
X0056355Y0087171D01*
X0056038Y0087054D01*
X0055719Y0086944D01*
X0055396Y0086841D01*
X0055071Y0086747D01*
X0054744Y0086661D01*
X0054415Y0086583D01*
X0054084Y0086513D01*
X0053752Y0086451D01*
X0053418Y0086397D01*
X0053083Y0086352D01*
X0052747Y0086314D01*
X0052410Y0086285D01*
X0052072Y0086265D01*
X0051734Y0086252D01*
X0051396Y0086248D01*
X0051058Y0086252D01*
X0050720Y0086265D01*
X0050382Y0086285D01*
X0050045Y0086314D01*
X0049709Y0086352D01*
X0049374Y0086397D01*
X0049040Y0086451D01*
X0048708Y0086513D01*
X0048377Y0086583D01*
X0048048Y0086661D01*
X0047721Y0086747D01*
X0047396Y0086841D01*
X0047073Y0086944D01*
X0046754Y0087054D01*
X0046437Y0087171D01*
X0046123Y0087297D01*
X0045812Y0087430D01*
X0045504Y0087571D01*
X0045200Y0087719D01*
X0044900Y0087875D01*
X0044604Y0088038D01*
X0044312Y0088208D01*
X0044024Y0088386D01*
X0043740Y0088570D01*
X0043461Y0088762D01*
X0043187Y0088960D01*
X0042918Y0089165D01*
X0042654Y0089376D01*
X0042395Y0089594D01*
X0042142Y0089818D01*
X0041894Y0090048D01*
X0041652Y0090284D01*
X0041416Y0090526D01*
X0041186Y0090774D01*
X0040962Y0091027D01*
X0040744Y0091286D01*
X0040533Y0091550D01*
X0040328Y0091819D01*
X0040130Y0092093D01*
X0039938Y0092372D01*
X0039754Y0092656D01*
X0039576Y0092944D01*
X0039406Y0093236D01*
X0039243Y0093532D01*
X0039087Y0093832D01*
X0038939Y0094136D01*
X0038798Y0094444D01*
X0038665Y0094755D01*
X0038539Y0095069D01*
X0038422Y0095386D01*
X0038312Y0095705D01*
X0038209Y0096028D01*
X0038115Y0096353D01*
X0038029Y0096680D01*
X0037951Y0097009D01*
X0037881Y0097340D01*
X0037819Y0097672D01*
X0037765Y0098006D01*
X0037720Y0098341D01*
X0037682Y0098677D01*
X0037653Y0099014D01*
X0037633Y0099352D01*
X0037620Y0099690D01*
X0037616Y0100028D01*
D12*
X0041893Y0441053D02*
X0042910Y0441053D01*
X0043928Y0442070D01*
X0043928Y0447158D01*
X0040875Y0447158D01*
X0039857Y0446140D01*
X0039857Y0444105D01*
X0040875Y0443088D01*
X0043928Y0443088D01*
X0042390Y0452988D02*
X0042390Y0459093D01*
X0046460Y0459093D01*
X0044425Y0456040D02*
X0042390Y0456040D01*
X0040889Y0462888D02*
X0036819Y0462888D01*
X0036819Y0463905D01*
X0040889Y0467975D01*
X0040889Y0468993D01*
X0036819Y0468993D01*
X0037339Y0472788D02*
X0038357Y0473805D01*
X0038357Y0477875D01*
X0037339Y0478893D01*
X0034287Y0478893D01*
X0034287Y0472788D01*
X0037339Y0472788D01*
X0040364Y0473805D02*
X0040364Y0475840D01*
X0041381Y0476858D01*
X0043417Y0476858D01*
X0044434Y0475840D01*
X0044434Y0474823D01*
X0040364Y0474823D01*
X0040364Y0473805D02*
X0041381Y0472788D01*
X0043417Y0472788D01*
X0043914Y0466958D02*
X0045949Y0466958D01*
X0046966Y0465940D01*
X0046966Y0462888D01*
X0043914Y0462888D01*
X0042896Y0463905D01*
X0043914Y0464923D01*
X0046966Y0464923D01*
X0048973Y0465940D02*
X0048973Y0463905D01*
X0049991Y0462888D01*
X0053043Y0462888D01*
X0053043Y0466958D02*
X0049991Y0466958D01*
X0048973Y0465940D01*
X0049494Y0472788D02*
X0050511Y0473805D01*
X0049494Y0474823D01*
X0047459Y0474823D01*
X0046441Y0475840D01*
X0047459Y0476858D01*
X0050511Y0476858D01*
X0049494Y0472788D02*
X0046441Y0472788D01*
X0044926Y0482688D02*
X0044926Y0487775D01*
X0045944Y0488793D01*
X0045944Y0485740D02*
X0043909Y0485740D01*
X0041902Y0486758D02*
X0041902Y0482688D01*
X0038849Y0482688D01*
X0037832Y0483705D01*
X0037832Y0486758D01*
X0035825Y0486758D02*
X0034807Y0485740D01*
X0031755Y0485740D01*
X0031755Y0482688D02*
X0034807Y0482688D01*
X0035825Y0483705D01*
X0035825Y0484723D01*
X0034807Y0485740D01*
X0035825Y0486758D02*
X0035825Y0487775D01*
X0034807Y0488793D01*
X0031755Y0488793D01*
X0031755Y0482688D01*
X0027703Y0449193D02*
X0027703Y0443088D01*
X0027703Y0446140D02*
X0028721Y0447158D01*
X0030756Y0447158D01*
X0031773Y0446140D01*
X0031773Y0443088D01*
X0033780Y0444105D02*
X0034798Y0445123D01*
X0037850Y0445123D01*
X0037850Y0446140D02*
X0037850Y0443088D01*
X0034798Y0443088D01*
X0033780Y0444105D01*
X0034798Y0447158D02*
X0036833Y0447158D01*
X0037850Y0446140D01*
X0045935Y0444105D02*
X0046952Y0445123D01*
X0050005Y0445123D01*
X0050005Y0446140D02*
X0050005Y0443088D01*
X0046952Y0443088D01*
X0045935Y0444105D01*
X0046952Y0447158D02*
X0048987Y0447158D01*
X0050005Y0446140D01*
X0052012Y0447158D02*
X0055064Y0447158D01*
X0056082Y0446140D01*
X0056082Y0443088D01*
X0057597Y0452988D02*
X0054544Y0452988D01*
X0054544Y0459093D01*
X0054544Y0457058D02*
X0057597Y0457058D01*
X0058614Y0456040D01*
X0058614Y0454005D01*
X0057597Y0452988D01*
X0059107Y0449193D02*
X0058089Y0448175D01*
X0058089Y0444105D01*
X0059107Y0443088D01*
X0061142Y0443088D01*
X0062159Y0444105D01*
X0061142Y0445123D02*
X0062159Y0446140D01*
X0062159Y0448175D01*
X0061142Y0449193D01*
X0059107Y0449193D01*
X0059107Y0447158D02*
X0061142Y0447158D01*
X0061142Y0445123D01*
X0059107Y0445123D01*
X0059107Y0447158D01*
X0064166Y0446140D02*
X0064166Y0444105D01*
X0065184Y0443088D01*
X0068236Y0443088D01*
X0068236Y0442070D02*
X0068236Y0447158D01*
X0065184Y0447158D01*
X0064166Y0446140D01*
X0066201Y0441053D02*
X0067219Y0441053D01*
X0068236Y0442070D01*
X0070243Y0443088D02*
X0070243Y0447158D01*
X0071261Y0447158D01*
X0072278Y0446140D01*
X0073296Y0447158D01*
X0074314Y0446140D01*
X0074314Y0443088D01*
X0076321Y0444105D02*
X0077338Y0445123D01*
X0080391Y0445123D01*
X0080391Y0446140D02*
X0080391Y0443088D01*
X0077338Y0443088D01*
X0076321Y0444105D01*
X0077338Y0447158D02*
X0079373Y0447158D01*
X0080391Y0446140D01*
X0080888Y0452988D02*
X0080888Y0459093D01*
X0078853Y0457058D01*
X0078853Y0452988D02*
X0082923Y0452988D01*
X0084930Y0454005D02*
X0084930Y0455023D01*
X0085948Y0456040D01*
X0087983Y0456040D01*
X0089000Y0455023D01*
X0089000Y0454005D01*
X0087983Y0452988D01*
X0085948Y0452988D01*
X0084930Y0454005D01*
X0085948Y0456040D02*
X0084930Y0457058D01*
X0084930Y0458075D01*
X0085948Y0459093D01*
X0087983Y0459093D01*
X0089000Y0458075D01*
X0089000Y0457058D01*
X0087983Y0456040D01*
X0087467Y0449193D02*
X0087467Y0443088D01*
X0088484Y0443088D02*
X0086449Y0443088D01*
X0084433Y0443088D02*
X0082398Y0443088D01*
X0083415Y0443088D02*
X0083415Y0447158D01*
X0082398Y0447158D01*
X0083415Y0449193D02*
X0083415Y0450211D01*
X0086449Y0449193D02*
X0087467Y0449193D01*
X0090501Y0444105D02*
X0091518Y0444105D01*
X0091518Y0443088D01*
X0090501Y0443088D01*
X0090501Y0444105D01*
X0093539Y0444105D02*
X0094557Y0443088D01*
X0097609Y0443088D01*
X0099616Y0444105D02*
X0100634Y0443088D01*
X0102669Y0443088D01*
X0103687Y0444105D01*
X0103687Y0446140D01*
X0102669Y0447158D01*
X0100634Y0447158D01*
X0099616Y0446140D01*
X0099616Y0444105D01*
X0097609Y0447158D02*
X0094557Y0447158D01*
X0093539Y0446140D01*
X0093539Y0444105D01*
X0094571Y0462888D02*
X0094571Y0465940D01*
X0093553Y0466958D01*
X0090501Y0466958D01*
X0090501Y0462888D01*
X0088494Y0462888D02*
X0088494Y0465940D01*
X0087476Y0466958D01*
X0085441Y0466958D01*
X0085441Y0464923D02*
X0088494Y0464923D01*
X0088494Y0462888D02*
X0085441Y0462888D01*
X0084424Y0463905D01*
X0085441Y0464923D01*
X0086956Y0472788D02*
X0090008Y0472788D01*
X0091026Y0473805D01*
X0091026Y0475840D01*
X0090008Y0476858D01*
X0086956Y0476858D01*
X0086956Y0478893D02*
X0086956Y0472788D01*
X0085455Y0482688D02*
X0085455Y0488793D01*
X0083420Y0486758D01*
X0081385Y0488793D01*
X0081385Y0482688D01*
X0078871Y0478893D02*
X0078871Y0472788D01*
X0075819Y0472788D01*
X0074801Y0473805D01*
X0074801Y0475840D01*
X0075819Y0476858D01*
X0078871Y0476858D01*
X0079364Y0466958D02*
X0078346Y0465940D01*
X0078346Y0463905D01*
X0079364Y0462888D01*
X0082416Y0462888D01*
X0082416Y0461870D02*
X0082416Y0466958D01*
X0079364Y0466958D01*
X0080381Y0460853D02*
X0081399Y0460853D01*
X0082416Y0461870D01*
X0088480Y0482688D02*
X0087462Y0483705D01*
X0087462Y0486758D01*
X0088480Y0482688D02*
X0091532Y0482688D01*
X0091532Y0486758D01*
X0093539Y0488793D02*
X0094557Y0488793D01*
X0094557Y0482688D01*
X0095574Y0482688D02*
X0093539Y0482688D01*
X0093033Y0476858D02*
X0093033Y0473805D01*
X0094050Y0472788D01*
X0097103Y0472788D01*
X0097103Y0471770D02*
X0096085Y0470753D01*
X0095068Y0470753D01*
X0097103Y0471770D02*
X0097103Y0476858D01*
X0099626Y0482688D02*
X0098608Y0483705D01*
X0098608Y0487775D01*
X0097591Y0486758D02*
X0099626Y0486758D01*
X0105694Y0447158D02*
X0106711Y0447158D01*
X0107729Y0446140D01*
X0108746Y0447158D01*
X0109764Y0446140D01*
X0109764Y0443088D01*
X0107729Y0443088D02*
X0107729Y0446140D01*
X0105694Y0447158D02*
X0105694Y0443088D01*
X0076846Y0454005D02*
X0075828Y0452988D01*
X0073793Y0452988D01*
X0072776Y0454005D01*
X0076846Y0458075D01*
X0076846Y0454005D01*
X0076846Y0458075D02*
X0075828Y0459093D01*
X0073793Y0459093D01*
X0072776Y0458075D01*
X0072776Y0454005D01*
X0073287Y0462888D02*
X0072269Y0463905D01*
X0073287Y0464923D01*
X0076339Y0464923D01*
X0076339Y0465940D02*
X0076339Y0462888D01*
X0073287Y0462888D01*
X0073287Y0466958D02*
X0075322Y0466958D01*
X0076339Y0465940D01*
X0072794Y0474823D02*
X0072794Y0475840D01*
X0071777Y0476858D01*
X0069742Y0476858D01*
X0068724Y0475840D01*
X0068724Y0473805D01*
X0069742Y0472788D01*
X0071777Y0472788D01*
X0072794Y0474823D02*
X0068724Y0474823D01*
X0070262Y0468993D02*
X0070262Y0462888D01*
X0070262Y0465940D02*
X0066192Y0465940D01*
X0066192Y0462888D02*
X0066192Y0468993D01*
X0066717Y0472788D02*
X0066717Y0475840D01*
X0065700Y0476858D01*
X0062647Y0476858D01*
X0062647Y0472788D01*
X0060640Y0472788D02*
X0057587Y0472788D01*
X0056570Y0473805D01*
X0056570Y0475840D01*
X0057587Y0476858D01*
X0060640Y0476858D01*
X0060640Y0471770D01*
X0059622Y0470753D01*
X0058605Y0470753D01*
X0058103Y0466958D02*
X0055050Y0464923D01*
X0058103Y0462888D01*
X0055050Y0462888D02*
X0055050Y0468993D01*
X0054553Y0472788D02*
X0052518Y0472788D01*
X0053536Y0472788D02*
X0053536Y0476858D01*
X0052518Y0476858D01*
X0053536Y0478893D02*
X0053536Y0479911D01*
X0053029Y0482688D02*
X0052012Y0483705D01*
X0052012Y0485740D01*
X0053029Y0486758D01*
X0055064Y0486758D01*
X0056082Y0485740D01*
X0056082Y0484723D01*
X0052012Y0484723D01*
X0049995Y0485740D02*
X0047960Y0485740D01*
X0048978Y0487775D02*
X0049995Y0488793D01*
X0048978Y0487775D02*
X0048978Y0482688D01*
X0053029Y0482688D02*
X0055064Y0482688D01*
X0058089Y0482688D02*
X0058089Y0486758D01*
X0058089Y0484723D02*
X0060124Y0486758D01*
X0061142Y0486758D01*
X0063153Y0485740D02*
X0064171Y0486758D01*
X0066206Y0486758D01*
X0067223Y0485740D01*
X0067223Y0484723D01*
X0063153Y0484723D01*
X0063153Y0485740D02*
X0063153Y0483705D01*
X0064171Y0482688D01*
X0066206Y0482688D01*
X0069231Y0483705D02*
X0069231Y0485740D01*
X0070248Y0486758D01*
X0073301Y0486758D01*
X0073301Y0488793D02*
X0073301Y0482688D01*
X0070248Y0482688D01*
X0069231Y0483705D01*
X0069751Y0459093D02*
X0067716Y0459093D01*
X0066698Y0458075D01*
X0070769Y0457058D02*
X0066698Y0452988D01*
X0070769Y0452988D01*
X0070769Y0457058D02*
X0070769Y0458075D01*
X0069751Y0459093D01*
X0072278Y0446140D02*
X0072278Y0443088D01*
X0052537Y0455023D02*
X0048467Y0455023D01*
X0048467Y0456040D02*
X0049484Y0457058D01*
X0051519Y0457058D01*
X0052537Y0456040D01*
X0052537Y0455023D01*
X0051519Y0452988D02*
X0049484Y0452988D01*
X0048467Y0454005D01*
X0048467Y0456040D01*
X0052012Y0447158D02*
X0052012Y0443088D01*
X0025696Y0443088D02*
X0021626Y0443088D01*
X0025696Y0447158D01*
X0021626Y0447158D01*
D13*
X0039772Y0509221D02*
X0049772Y0509221D01*
X0049930Y0509223D01*
X0050088Y0509229D01*
X0050246Y0509239D01*
X0050404Y0509253D01*
X0050561Y0509271D01*
X0050718Y0509292D01*
X0050874Y0509318D01*
X0051030Y0509348D01*
X0051185Y0509381D01*
X0051338Y0509419D01*
X0051491Y0509460D01*
X0051643Y0509505D01*
X0051794Y0509554D01*
X0051943Y0509607D01*
X0052091Y0509663D01*
X0052237Y0509723D01*
X0052382Y0509787D01*
X0052525Y0509855D01*
X0052667Y0509926D01*
X0052807Y0510000D01*
X0052944Y0510078D01*
X0053080Y0510160D01*
X0053214Y0510244D01*
X0053345Y0510333D01*
X0053474Y0510424D01*
X0053601Y0510519D01*
X0053726Y0510616D01*
X0053848Y0510717D01*
X0053967Y0510821D01*
X0054084Y0510928D01*
X0054198Y0511038D01*
X0054309Y0511151D01*
X0054418Y0511266D01*
X0054523Y0511384D01*
X0054625Y0511505D01*
X0054725Y0511628D01*
X0054821Y0511754D01*
X0054914Y0511882D01*
X0055004Y0512012D01*
X0055090Y0512145D01*
X0055174Y0512280D01*
X0055253Y0512416D01*
X0055330Y0512555D01*
X0055402Y0512696D01*
X0055472Y0512838D01*
X0055537Y0512982D01*
X0055599Y0513128D01*
X0055657Y0513275D01*
X0055712Y0513424D01*
X0055763Y0513574D01*
X0055810Y0513725D01*
X0055853Y0513877D01*
X0055892Y0514030D01*
X0055928Y0514185D01*
X0055959Y0514340D01*
X0055987Y0514496D01*
X0056011Y0514652D01*
X0056031Y0514809D01*
X0056047Y0514967D01*
X0056059Y0515124D01*
X0056067Y0515283D01*
X0056071Y0515441D01*
X0056071Y0515599D01*
X0056067Y0515757D01*
X0056059Y0515916D01*
X0056047Y0516073D01*
X0056031Y0516231D01*
X0056011Y0516388D01*
X0055987Y0516544D01*
X0055959Y0516700D01*
X0055928Y0516855D01*
X0055892Y0517010D01*
X0055853Y0517163D01*
X0055810Y0517315D01*
X0055763Y0517466D01*
X0055712Y0517616D01*
X0055657Y0517765D01*
X0055599Y0517912D01*
X0055537Y0518058D01*
X0055472Y0518202D01*
X0055402Y0518344D01*
X0055330Y0518485D01*
X0055253Y0518624D01*
X0055174Y0518760D01*
X0055090Y0518895D01*
X0055004Y0519028D01*
X0054914Y0519158D01*
X0054821Y0519286D01*
X0054725Y0519412D01*
X0054625Y0519535D01*
X0054523Y0519656D01*
X0054418Y0519774D01*
X0054309Y0519889D01*
X0054198Y0520002D01*
X0054084Y0520112D01*
X0053967Y0520219D01*
X0053848Y0520323D01*
X0053726Y0520424D01*
X0053601Y0520521D01*
X0053474Y0520616D01*
X0053345Y0520707D01*
X0053214Y0520796D01*
X0053080Y0520880D01*
X0052944Y0520962D01*
X0052807Y0521040D01*
X0052667Y0521114D01*
X0052525Y0521185D01*
X0052382Y0521253D01*
X0052237Y0521317D01*
X0052091Y0521377D01*
X0051943Y0521433D01*
X0051794Y0521486D01*
X0051643Y0521535D01*
X0051491Y0521580D01*
X0051338Y0521621D01*
X0051185Y0521659D01*
X0051030Y0521692D01*
X0050874Y0521722D01*
X0050718Y0521748D01*
X0050561Y0521769D01*
X0050404Y0521787D01*
X0050246Y0521801D01*
X0050088Y0521811D01*
X0049930Y0521817D01*
X0049772Y0521819D01*
X0049772Y0521820D02*
X0039772Y0521820D01*
X0039772Y0521819D02*
X0039614Y0521817D01*
X0039456Y0521811D01*
X0039298Y0521801D01*
X0039140Y0521787D01*
X0038983Y0521769D01*
X0038826Y0521748D01*
X0038670Y0521722D01*
X0038514Y0521692D01*
X0038359Y0521659D01*
X0038206Y0521621D01*
X0038053Y0521580D01*
X0037901Y0521535D01*
X0037750Y0521486D01*
X0037601Y0521433D01*
X0037453Y0521377D01*
X0037307Y0521317D01*
X0037162Y0521253D01*
X0037019Y0521185D01*
X0036877Y0521114D01*
X0036737Y0521040D01*
X0036600Y0520962D01*
X0036464Y0520880D01*
X0036330Y0520796D01*
X0036199Y0520707D01*
X0036070Y0520616D01*
X0035943Y0520521D01*
X0035818Y0520424D01*
X0035696Y0520323D01*
X0035577Y0520219D01*
X0035460Y0520112D01*
X0035346Y0520002D01*
X0035235Y0519889D01*
X0035126Y0519774D01*
X0035021Y0519656D01*
X0034919Y0519535D01*
X0034819Y0519412D01*
X0034723Y0519286D01*
X0034630Y0519158D01*
X0034540Y0519028D01*
X0034454Y0518895D01*
X0034370Y0518760D01*
X0034291Y0518624D01*
X0034214Y0518485D01*
X0034142Y0518344D01*
X0034072Y0518202D01*
X0034007Y0518058D01*
X0033945Y0517912D01*
X0033887Y0517765D01*
X0033832Y0517616D01*
X0033781Y0517466D01*
X0033734Y0517315D01*
X0033691Y0517163D01*
X0033652Y0517010D01*
X0033616Y0516855D01*
X0033585Y0516700D01*
X0033557Y0516544D01*
X0033533Y0516388D01*
X0033513Y0516231D01*
X0033497Y0516073D01*
X0033485Y0515916D01*
X0033477Y0515757D01*
X0033473Y0515599D01*
X0033473Y0515441D01*
X0033477Y0515283D01*
X0033485Y0515124D01*
X0033497Y0514967D01*
X0033513Y0514809D01*
X0033533Y0514652D01*
X0033557Y0514496D01*
X0033585Y0514340D01*
X0033616Y0514185D01*
X0033652Y0514030D01*
X0033691Y0513877D01*
X0033734Y0513725D01*
X0033781Y0513574D01*
X0033832Y0513424D01*
X0033887Y0513275D01*
X0033945Y0513128D01*
X0034007Y0512982D01*
X0034072Y0512838D01*
X0034142Y0512696D01*
X0034214Y0512555D01*
X0034291Y0512416D01*
X0034370Y0512280D01*
X0034454Y0512145D01*
X0034540Y0512012D01*
X0034630Y0511882D01*
X0034723Y0511754D01*
X0034819Y0511628D01*
X0034919Y0511505D01*
X0035021Y0511384D01*
X0035126Y0511266D01*
X0035235Y0511151D01*
X0035346Y0511038D01*
X0035460Y0510928D01*
X0035577Y0510821D01*
X0035696Y0510717D01*
X0035818Y0510616D01*
X0035943Y0510519D01*
X0036070Y0510424D01*
X0036199Y0510333D01*
X0036330Y0510244D01*
X0036464Y0510160D01*
X0036600Y0510078D01*
X0036737Y0510000D01*
X0036877Y0509926D01*
X0037019Y0509855D01*
X0037162Y0509787D01*
X0037307Y0509723D01*
X0037453Y0509663D01*
X0037601Y0509607D01*
X0037750Y0509554D01*
X0037901Y0509505D01*
X0038053Y0509460D01*
X0038206Y0509419D01*
X0038359Y0509381D01*
X0038514Y0509348D01*
X0038670Y0509318D01*
X0038826Y0509292D01*
X0038983Y0509271D01*
X0039140Y0509253D01*
X0039298Y0509239D01*
X0039456Y0509229D01*
X0039614Y0509223D01*
X0039772Y0509221D01*
X0082105Y0385855D02*
X0097105Y0385855D01*
X0097263Y0385853D01*
X0097421Y0385847D01*
X0097579Y0385837D01*
X0097737Y0385823D01*
X0097894Y0385805D01*
X0098051Y0385784D01*
X0098207Y0385758D01*
X0098363Y0385728D01*
X0098518Y0385695D01*
X0098671Y0385657D01*
X0098824Y0385616D01*
X0098976Y0385571D01*
X0099127Y0385522D01*
X0099276Y0385469D01*
X0099424Y0385413D01*
X0099570Y0385353D01*
X0099715Y0385289D01*
X0099858Y0385221D01*
X0100000Y0385150D01*
X0100140Y0385076D01*
X0100277Y0384998D01*
X0100413Y0384916D01*
X0100547Y0384832D01*
X0100678Y0384743D01*
X0100807Y0384652D01*
X0100934Y0384557D01*
X0101059Y0384460D01*
X0101181Y0384359D01*
X0101300Y0384255D01*
X0101417Y0384148D01*
X0101531Y0384038D01*
X0101642Y0383925D01*
X0101751Y0383810D01*
X0101856Y0383692D01*
X0101958Y0383571D01*
X0102058Y0383448D01*
X0102154Y0383322D01*
X0102247Y0383194D01*
X0102337Y0383064D01*
X0102423Y0382931D01*
X0102507Y0382796D01*
X0102586Y0382660D01*
X0102663Y0382521D01*
X0102735Y0382380D01*
X0102805Y0382238D01*
X0102870Y0382094D01*
X0102932Y0381948D01*
X0102990Y0381801D01*
X0103045Y0381652D01*
X0103096Y0381502D01*
X0103143Y0381351D01*
X0103186Y0381199D01*
X0103225Y0381046D01*
X0103261Y0380891D01*
X0103292Y0380736D01*
X0103320Y0380580D01*
X0103344Y0380424D01*
X0103364Y0380267D01*
X0103380Y0380109D01*
X0103392Y0379952D01*
X0103400Y0379793D01*
X0103404Y0379635D01*
X0103404Y0379477D01*
X0103400Y0379319D01*
X0103392Y0379160D01*
X0103380Y0379003D01*
X0103364Y0378845D01*
X0103344Y0378688D01*
X0103320Y0378532D01*
X0103292Y0378376D01*
X0103261Y0378221D01*
X0103225Y0378066D01*
X0103186Y0377913D01*
X0103143Y0377761D01*
X0103096Y0377610D01*
X0103045Y0377460D01*
X0102990Y0377311D01*
X0102932Y0377164D01*
X0102870Y0377018D01*
X0102805Y0376874D01*
X0102735Y0376732D01*
X0102663Y0376591D01*
X0102586Y0376452D01*
X0102507Y0376316D01*
X0102423Y0376181D01*
X0102337Y0376048D01*
X0102247Y0375918D01*
X0102154Y0375790D01*
X0102058Y0375664D01*
X0101958Y0375541D01*
X0101856Y0375420D01*
X0101751Y0375302D01*
X0101642Y0375187D01*
X0101531Y0375074D01*
X0101417Y0374964D01*
X0101300Y0374857D01*
X0101181Y0374753D01*
X0101059Y0374652D01*
X0100934Y0374555D01*
X0100807Y0374460D01*
X0100678Y0374369D01*
X0100547Y0374280D01*
X0100413Y0374196D01*
X0100277Y0374114D01*
X0100140Y0374036D01*
X0100000Y0373962D01*
X0099858Y0373891D01*
X0099715Y0373823D01*
X0099570Y0373759D01*
X0099424Y0373699D01*
X0099276Y0373643D01*
X0099127Y0373590D01*
X0098976Y0373541D01*
X0098824Y0373496D01*
X0098671Y0373455D01*
X0098518Y0373417D01*
X0098363Y0373384D01*
X0098207Y0373354D01*
X0098051Y0373328D01*
X0097894Y0373307D01*
X0097737Y0373289D01*
X0097579Y0373275D01*
X0097421Y0373265D01*
X0097263Y0373259D01*
X0097105Y0373257D01*
X0082105Y0373257D01*
X0081947Y0373259D01*
X0081789Y0373265D01*
X0081631Y0373275D01*
X0081473Y0373289D01*
X0081316Y0373307D01*
X0081159Y0373328D01*
X0081003Y0373354D01*
X0080847Y0373384D01*
X0080692Y0373417D01*
X0080539Y0373455D01*
X0080386Y0373496D01*
X0080234Y0373541D01*
X0080083Y0373590D01*
X0079934Y0373643D01*
X0079786Y0373699D01*
X0079640Y0373759D01*
X0079495Y0373823D01*
X0079352Y0373891D01*
X0079210Y0373962D01*
X0079070Y0374036D01*
X0078933Y0374114D01*
X0078797Y0374196D01*
X0078663Y0374280D01*
X0078532Y0374369D01*
X0078403Y0374460D01*
X0078276Y0374555D01*
X0078151Y0374652D01*
X0078029Y0374753D01*
X0077910Y0374857D01*
X0077793Y0374964D01*
X0077679Y0375074D01*
X0077568Y0375187D01*
X0077459Y0375302D01*
X0077354Y0375420D01*
X0077252Y0375541D01*
X0077152Y0375664D01*
X0077056Y0375790D01*
X0076963Y0375918D01*
X0076873Y0376048D01*
X0076787Y0376181D01*
X0076703Y0376316D01*
X0076624Y0376452D01*
X0076547Y0376591D01*
X0076475Y0376732D01*
X0076405Y0376874D01*
X0076340Y0377018D01*
X0076278Y0377164D01*
X0076220Y0377311D01*
X0076165Y0377460D01*
X0076114Y0377610D01*
X0076067Y0377761D01*
X0076024Y0377913D01*
X0075985Y0378066D01*
X0075949Y0378221D01*
X0075918Y0378376D01*
X0075890Y0378532D01*
X0075866Y0378688D01*
X0075846Y0378845D01*
X0075830Y0379003D01*
X0075818Y0379160D01*
X0075810Y0379319D01*
X0075806Y0379477D01*
X0075806Y0379635D01*
X0075810Y0379793D01*
X0075818Y0379952D01*
X0075830Y0380109D01*
X0075846Y0380267D01*
X0075866Y0380424D01*
X0075890Y0380580D01*
X0075918Y0380736D01*
X0075949Y0380891D01*
X0075985Y0381046D01*
X0076024Y0381199D01*
X0076067Y0381351D01*
X0076114Y0381502D01*
X0076165Y0381652D01*
X0076220Y0381801D01*
X0076278Y0381948D01*
X0076340Y0382094D01*
X0076405Y0382238D01*
X0076475Y0382380D01*
X0076547Y0382521D01*
X0076624Y0382660D01*
X0076703Y0382796D01*
X0076787Y0382931D01*
X0076873Y0383064D01*
X0076963Y0383194D01*
X0077056Y0383322D01*
X0077152Y0383448D01*
X0077252Y0383571D01*
X0077354Y0383692D01*
X0077459Y0383810D01*
X0077568Y0383925D01*
X0077679Y0384038D01*
X0077793Y0384148D01*
X0077910Y0384255D01*
X0078029Y0384359D01*
X0078151Y0384460D01*
X0078276Y0384557D01*
X0078403Y0384652D01*
X0078532Y0384743D01*
X0078663Y0384832D01*
X0078797Y0384916D01*
X0078933Y0384998D01*
X0079070Y0385076D01*
X0079210Y0385150D01*
X0079352Y0385221D01*
X0079495Y0385289D01*
X0079640Y0385353D01*
X0079786Y0385413D01*
X0079934Y0385469D01*
X0080083Y0385522D01*
X0080234Y0385571D01*
X0080386Y0385616D01*
X0080539Y0385657D01*
X0080692Y0385695D01*
X0080847Y0385728D01*
X0081003Y0385758D01*
X0081159Y0385784D01*
X0081316Y0385805D01*
X0081473Y0385823D01*
X0081631Y0385837D01*
X0081789Y0385847D01*
X0081947Y0385853D01*
X0082105Y0385855D01*
X0082105Y0342548D02*
X0097105Y0342548D01*
X0097263Y0342546D01*
X0097421Y0342540D01*
X0097579Y0342530D01*
X0097737Y0342516D01*
X0097894Y0342498D01*
X0098051Y0342477D01*
X0098207Y0342451D01*
X0098363Y0342421D01*
X0098518Y0342388D01*
X0098671Y0342350D01*
X0098824Y0342309D01*
X0098976Y0342264D01*
X0099127Y0342215D01*
X0099276Y0342162D01*
X0099424Y0342106D01*
X0099570Y0342046D01*
X0099715Y0341982D01*
X0099858Y0341914D01*
X0100000Y0341843D01*
X0100140Y0341769D01*
X0100277Y0341691D01*
X0100413Y0341609D01*
X0100547Y0341525D01*
X0100678Y0341436D01*
X0100807Y0341345D01*
X0100934Y0341250D01*
X0101059Y0341153D01*
X0101181Y0341052D01*
X0101300Y0340948D01*
X0101417Y0340841D01*
X0101531Y0340731D01*
X0101642Y0340618D01*
X0101751Y0340503D01*
X0101856Y0340385D01*
X0101958Y0340264D01*
X0102058Y0340141D01*
X0102154Y0340015D01*
X0102247Y0339887D01*
X0102337Y0339757D01*
X0102423Y0339624D01*
X0102507Y0339489D01*
X0102586Y0339353D01*
X0102663Y0339214D01*
X0102735Y0339073D01*
X0102805Y0338931D01*
X0102870Y0338787D01*
X0102932Y0338641D01*
X0102990Y0338494D01*
X0103045Y0338345D01*
X0103096Y0338195D01*
X0103143Y0338044D01*
X0103186Y0337892D01*
X0103225Y0337739D01*
X0103261Y0337584D01*
X0103292Y0337429D01*
X0103320Y0337273D01*
X0103344Y0337117D01*
X0103364Y0336960D01*
X0103380Y0336802D01*
X0103392Y0336645D01*
X0103400Y0336486D01*
X0103404Y0336328D01*
X0103404Y0336170D01*
X0103400Y0336012D01*
X0103392Y0335853D01*
X0103380Y0335696D01*
X0103364Y0335538D01*
X0103344Y0335381D01*
X0103320Y0335225D01*
X0103292Y0335069D01*
X0103261Y0334914D01*
X0103225Y0334759D01*
X0103186Y0334606D01*
X0103143Y0334454D01*
X0103096Y0334303D01*
X0103045Y0334153D01*
X0102990Y0334004D01*
X0102932Y0333857D01*
X0102870Y0333711D01*
X0102805Y0333567D01*
X0102735Y0333425D01*
X0102663Y0333284D01*
X0102586Y0333145D01*
X0102507Y0333009D01*
X0102423Y0332874D01*
X0102337Y0332741D01*
X0102247Y0332611D01*
X0102154Y0332483D01*
X0102058Y0332357D01*
X0101958Y0332234D01*
X0101856Y0332113D01*
X0101751Y0331995D01*
X0101642Y0331880D01*
X0101531Y0331767D01*
X0101417Y0331657D01*
X0101300Y0331550D01*
X0101181Y0331446D01*
X0101059Y0331345D01*
X0100934Y0331248D01*
X0100807Y0331153D01*
X0100678Y0331062D01*
X0100547Y0330973D01*
X0100413Y0330889D01*
X0100277Y0330807D01*
X0100140Y0330729D01*
X0100000Y0330655D01*
X0099858Y0330584D01*
X0099715Y0330516D01*
X0099570Y0330452D01*
X0099424Y0330392D01*
X0099276Y0330336D01*
X0099127Y0330283D01*
X0098976Y0330234D01*
X0098824Y0330189D01*
X0098671Y0330148D01*
X0098518Y0330110D01*
X0098363Y0330077D01*
X0098207Y0330047D01*
X0098051Y0330021D01*
X0097894Y0330000D01*
X0097737Y0329982D01*
X0097579Y0329968D01*
X0097421Y0329958D01*
X0097263Y0329952D01*
X0097105Y0329950D01*
X0082105Y0329950D01*
X0081947Y0329952D01*
X0081789Y0329958D01*
X0081631Y0329968D01*
X0081473Y0329982D01*
X0081316Y0330000D01*
X0081159Y0330021D01*
X0081003Y0330047D01*
X0080847Y0330077D01*
X0080692Y0330110D01*
X0080539Y0330148D01*
X0080386Y0330189D01*
X0080234Y0330234D01*
X0080083Y0330283D01*
X0079934Y0330336D01*
X0079786Y0330392D01*
X0079640Y0330452D01*
X0079495Y0330516D01*
X0079352Y0330584D01*
X0079210Y0330655D01*
X0079070Y0330729D01*
X0078933Y0330807D01*
X0078797Y0330889D01*
X0078663Y0330973D01*
X0078532Y0331062D01*
X0078403Y0331153D01*
X0078276Y0331248D01*
X0078151Y0331345D01*
X0078029Y0331446D01*
X0077910Y0331550D01*
X0077793Y0331657D01*
X0077679Y0331767D01*
X0077568Y0331880D01*
X0077459Y0331995D01*
X0077354Y0332113D01*
X0077252Y0332234D01*
X0077152Y0332357D01*
X0077056Y0332483D01*
X0076963Y0332611D01*
X0076873Y0332741D01*
X0076787Y0332874D01*
X0076703Y0333009D01*
X0076624Y0333145D01*
X0076547Y0333284D01*
X0076475Y0333425D01*
X0076405Y0333567D01*
X0076340Y0333711D01*
X0076278Y0333857D01*
X0076220Y0334004D01*
X0076165Y0334153D01*
X0076114Y0334303D01*
X0076067Y0334454D01*
X0076024Y0334606D01*
X0075985Y0334759D01*
X0075949Y0334914D01*
X0075918Y0335069D01*
X0075890Y0335225D01*
X0075866Y0335381D01*
X0075846Y0335538D01*
X0075830Y0335696D01*
X0075818Y0335853D01*
X0075810Y0336012D01*
X0075806Y0336170D01*
X0075806Y0336328D01*
X0075810Y0336486D01*
X0075818Y0336645D01*
X0075830Y0336802D01*
X0075846Y0336960D01*
X0075866Y0337117D01*
X0075890Y0337273D01*
X0075918Y0337429D01*
X0075949Y0337584D01*
X0075985Y0337739D01*
X0076024Y0337892D01*
X0076067Y0338044D01*
X0076114Y0338195D01*
X0076165Y0338345D01*
X0076220Y0338494D01*
X0076278Y0338641D01*
X0076340Y0338787D01*
X0076405Y0338931D01*
X0076475Y0339073D01*
X0076547Y0339214D01*
X0076624Y0339353D01*
X0076703Y0339489D01*
X0076787Y0339624D01*
X0076873Y0339757D01*
X0076963Y0339887D01*
X0077056Y0340015D01*
X0077152Y0340141D01*
X0077252Y0340264D01*
X0077354Y0340385D01*
X0077459Y0340503D01*
X0077568Y0340618D01*
X0077679Y0340731D01*
X0077793Y0340841D01*
X0077910Y0340948D01*
X0078029Y0341052D01*
X0078151Y0341153D01*
X0078276Y0341250D01*
X0078403Y0341345D01*
X0078532Y0341436D01*
X0078663Y0341525D01*
X0078797Y0341609D01*
X0078933Y0341691D01*
X0079070Y0341769D01*
X0079210Y0341843D01*
X0079352Y0341914D01*
X0079495Y0341982D01*
X0079640Y0342046D01*
X0079786Y0342106D01*
X0079934Y0342162D01*
X0080083Y0342215D01*
X0080234Y0342264D01*
X0080386Y0342309D01*
X0080539Y0342350D01*
X0080692Y0342388D01*
X0080847Y0342421D01*
X0081003Y0342451D01*
X0081159Y0342477D01*
X0081316Y0342498D01*
X0081473Y0342516D01*
X0081631Y0342530D01*
X0081789Y0342540D01*
X0081947Y0342546D01*
X0082105Y0342548D01*
X0082105Y0299241D02*
X0097105Y0299241D01*
X0097263Y0299239D01*
X0097421Y0299233D01*
X0097579Y0299223D01*
X0097737Y0299209D01*
X0097894Y0299191D01*
X0098051Y0299170D01*
X0098207Y0299144D01*
X0098363Y0299114D01*
X0098518Y0299081D01*
X0098671Y0299043D01*
X0098824Y0299002D01*
X0098976Y0298957D01*
X0099127Y0298908D01*
X0099276Y0298855D01*
X0099424Y0298799D01*
X0099570Y0298739D01*
X0099715Y0298675D01*
X0099858Y0298607D01*
X0100000Y0298536D01*
X0100140Y0298462D01*
X0100277Y0298384D01*
X0100413Y0298302D01*
X0100547Y0298218D01*
X0100678Y0298129D01*
X0100807Y0298038D01*
X0100934Y0297943D01*
X0101059Y0297846D01*
X0101181Y0297745D01*
X0101300Y0297641D01*
X0101417Y0297534D01*
X0101531Y0297424D01*
X0101642Y0297311D01*
X0101751Y0297196D01*
X0101856Y0297078D01*
X0101958Y0296957D01*
X0102058Y0296834D01*
X0102154Y0296708D01*
X0102247Y0296580D01*
X0102337Y0296450D01*
X0102423Y0296317D01*
X0102507Y0296182D01*
X0102586Y0296046D01*
X0102663Y0295907D01*
X0102735Y0295766D01*
X0102805Y0295624D01*
X0102870Y0295480D01*
X0102932Y0295334D01*
X0102990Y0295187D01*
X0103045Y0295038D01*
X0103096Y0294888D01*
X0103143Y0294737D01*
X0103186Y0294585D01*
X0103225Y0294432D01*
X0103261Y0294277D01*
X0103292Y0294122D01*
X0103320Y0293966D01*
X0103344Y0293810D01*
X0103364Y0293653D01*
X0103380Y0293495D01*
X0103392Y0293338D01*
X0103400Y0293179D01*
X0103404Y0293021D01*
X0103404Y0292863D01*
X0103400Y0292705D01*
X0103392Y0292546D01*
X0103380Y0292389D01*
X0103364Y0292231D01*
X0103344Y0292074D01*
X0103320Y0291918D01*
X0103292Y0291762D01*
X0103261Y0291607D01*
X0103225Y0291452D01*
X0103186Y0291299D01*
X0103143Y0291147D01*
X0103096Y0290996D01*
X0103045Y0290846D01*
X0102990Y0290697D01*
X0102932Y0290550D01*
X0102870Y0290404D01*
X0102805Y0290260D01*
X0102735Y0290118D01*
X0102663Y0289977D01*
X0102586Y0289838D01*
X0102507Y0289702D01*
X0102423Y0289567D01*
X0102337Y0289434D01*
X0102247Y0289304D01*
X0102154Y0289176D01*
X0102058Y0289050D01*
X0101958Y0288927D01*
X0101856Y0288806D01*
X0101751Y0288688D01*
X0101642Y0288573D01*
X0101531Y0288460D01*
X0101417Y0288350D01*
X0101300Y0288243D01*
X0101181Y0288139D01*
X0101059Y0288038D01*
X0100934Y0287941D01*
X0100807Y0287846D01*
X0100678Y0287755D01*
X0100547Y0287666D01*
X0100413Y0287582D01*
X0100277Y0287500D01*
X0100140Y0287422D01*
X0100000Y0287348D01*
X0099858Y0287277D01*
X0099715Y0287209D01*
X0099570Y0287145D01*
X0099424Y0287085D01*
X0099276Y0287029D01*
X0099127Y0286976D01*
X0098976Y0286927D01*
X0098824Y0286882D01*
X0098671Y0286841D01*
X0098518Y0286803D01*
X0098363Y0286770D01*
X0098207Y0286740D01*
X0098051Y0286714D01*
X0097894Y0286693D01*
X0097737Y0286675D01*
X0097579Y0286661D01*
X0097421Y0286651D01*
X0097263Y0286645D01*
X0097105Y0286643D01*
X0082105Y0286643D01*
X0081947Y0286645D01*
X0081789Y0286651D01*
X0081631Y0286661D01*
X0081473Y0286675D01*
X0081316Y0286693D01*
X0081159Y0286714D01*
X0081003Y0286740D01*
X0080847Y0286770D01*
X0080692Y0286803D01*
X0080539Y0286841D01*
X0080386Y0286882D01*
X0080234Y0286927D01*
X0080083Y0286976D01*
X0079934Y0287029D01*
X0079786Y0287085D01*
X0079640Y0287145D01*
X0079495Y0287209D01*
X0079352Y0287277D01*
X0079210Y0287348D01*
X0079070Y0287422D01*
X0078933Y0287500D01*
X0078797Y0287582D01*
X0078663Y0287666D01*
X0078532Y0287755D01*
X0078403Y0287846D01*
X0078276Y0287941D01*
X0078151Y0288038D01*
X0078029Y0288139D01*
X0077910Y0288243D01*
X0077793Y0288350D01*
X0077679Y0288460D01*
X0077568Y0288573D01*
X0077459Y0288688D01*
X0077354Y0288806D01*
X0077252Y0288927D01*
X0077152Y0289050D01*
X0077056Y0289176D01*
X0076963Y0289304D01*
X0076873Y0289434D01*
X0076787Y0289567D01*
X0076703Y0289702D01*
X0076624Y0289838D01*
X0076547Y0289977D01*
X0076475Y0290118D01*
X0076405Y0290260D01*
X0076340Y0290404D01*
X0076278Y0290550D01*
X0076220Y0290697D01*
X0076165Y0290846D01*
X0076114Y0290996D01*
X0076067Y0291147D01*
X0076024Y0291299D01*
X0075985Y0291452D01*
X0075949Y0291607D01*
X0075918Y0291762D01*
X0075890Y0291918D01*
X0075866Y0292074D01*
X0075846Y0292231D01*
X0075830Y0292389D01*
X0075818Y0292546D01*
X0075810Y0292705D01*
X0075806Y0292863D01*
X0075806Y0293021D01*
X0075810Y0293179D01*
X0075818Y0293338D01*
X0075830Y0293495D01*
X0075846Y0293653D01*
X0075866Y0293810D01*
X0075890Y0293966D01*
X0075918Y0294122D01*
X0075949Y0294277D01*
X0075985Y0294432D01*
X0076024Y0294585D01*
X0076067Y0294737D01*
X0076114Y0294888D01*
X0076165Y0295038D01*
X0076220Y0295187D01*
X0076278Y0295334D01*
X0076340Y0295480D01*
X0076405Y0295624D01*
X0076475Y0295766D01*
X0076547Y0295907D01*
X0076624Y0296046D01*
X0076703Y0296182D01*
X0076787Y0296317D01*
X0076873Y0296450D01*
X0076963Y0296580D01*
X0077056Y0296708D01*
X0077152Y0296834D01*
X0077252Y0296957D01*
X0077354Y0297078D01*
X0077459Y0297196D01*
X0077568Y0297311D01*
X0077679Y0297424D01*
X0077793Y0297534D01*
X0077910Y0297641D01*
X0078029Y0297745D01*
X0078151Y0297846D01*
X0078276Y0297943D01*
X0078403Y0298038D01*
X0078532Y0298129D01*
X0078663Y0298218D01*
X0078797Y0298302D01*
X0078933Y0298384D01*
X0079070Y0298462D01*
X0079210Y0298536D01*
X0079352Y0298607D01*
X0079495Y0298675D01*
X0079640Y0298739D01*
X0079786Y0298799D01*
X0079934Y0298855D01*
X0080083Y0298908D01*
X0080234Y0298957D01*
X0080386Y0299002D01*
X0080539Y0299043D01*
X0080692Y0299081D01*
X0080847Y0299114D01*
X0081003Y0299144D01*
X0081159Y0299170D01*
X0081316Y0299191D01*
X0081473Y0299209D01*
X0081631Y0299223D01*
X0081789Y0299233D01*
X0081947Y0299239D01*
X0082105Y0299241D01*
X0082105Y0192942D02*
X0097105Y0192942D01*
X0097263Y0192940D01*
X0097421Y0192934D01*
X0097579Y0192924D01*
X0097737Y0192910D01*
X0097894Y0192892D01*
X0098051Y0192871D01*
X0098207Y0192845D01*
X0098363Y0192815D01*
X0098518Y0192782D01*
X0098671Y0192744D01*
X0098824Y0192703D01*
X0098976Y0192658D01*
X0099127Y0192609D01*
X0099276Y0192556D01*
X0099424Y0192500D01*
X0099570Y0192440D01*
X0099715Y0192376D01*
X0099858Y0192308D01*
X0100000Y0192237D01*
X0100140Y0192163D01*
X0100277Y0192085D01*
X0100413Y0192003D01*
X0100547Y0191919D01*
X0100678Y0191830D01*
X0100807Y0191739D01*
X0100934Y0191644D01*
X0101059Y0191547D01*
X0101181Y0191446D01*
X0101300Y0191342D01*
X0101417Y0191235D01*
X0101531Y0191125D01*
X0101642Y0191012D01*
X0101751Y0190897D01*
X0101856Y0190779D01*
X0101958Y0190658D01*
X0102058Y0190535D01*
X0102154Y0190409D01*
X0102247Y0190281D01*
X0102337Y0190151D01*
X0102423Y0190018D01*
X0102507Y0189883D01*
X0102586Y0189747D01*
X0102663Y0189608D01*
X0102735Y0189467D01*
X0102805Y0189325D01*
X0102870Y0189181D01*
X0102932Y0189035D01*
X0102990Y0188888D01*
X0103045Y0188739D01*
X0103096Y0188589D01*
X0103143Y0188438D01*
X0103186Y0188286D01*
X0103225Y0188133D01*
X0103261Y0187978D01*
X0103292Y0187823D01*
X0103320Y0187667D01*
X0103344Y0187511D01*
X0103364Y0187354D01*
X0103380Y0187196D01*
X0103392Y0187039D01*
X0103400Y0186880D01*
X0103404Y0186722D01*
X0103404Y0186564D01*
X0103400Y0186406D01*
X0103392Y0186247D01*
X0103380Y0186090D01*
X0103364Y0185932D01*
X0103344Y0185775D01*
X0103320Y0185619D01*
X0103292Y0185463D01*
X0103261Y0185308D01*
X0103225Y0185153D01*
X0103186Y0185000D01*
X0103143Y0184848D01*
X0103096Y0184697D01*
X0103045Y0184547D01*
X0102990Y0184398D01*
X0102932Y0184251D01*
X0102870Y0184105D01*
X0102805Y0183961D01*
X0102735Y0183819D01*
X0102663Y0183678D01*
X0102586Y0183539D01*
X0102507Y0183403D01*
X0102423Y0183268D01*
X0102337Y0183135D01*
X0102247Y0183005D01*
X0102154Y0182877D01*
X0102058Y0182751D01*
X0101958Y0182628D01*
X0101856Y0182507D01*
X0101751Y0182389D01*
X0101642Y0182274D01*
X0101531Y0182161D01*
X0101417Y0182051D01*
X0101300Y0181944D01*
X0101181Y0181840D01*
X0101059Y0181739D01*
X0100934Y0181642D01*
X0100807Y0181547D01*
X0100678Y0181456D01*
X0100547Y0181367D01*
X0100413Y0181283D01*
X0100277Y0181201D01*
X0100140Y0181123D01*
X0100000Y0181049D01*
X0099858Y0180978D01*
X0099715Y0180910D01*
X0099570Y0180846D01*
X0099424Y0180786D01*
X0099276Y0180730D01*
X0099127Y0180677D01*
X0098976Y0180628D01*
X0098824Y0180583D01*
X0098671Y0180542D01*
X0098518Y0180504D01*
X0098363Y0180471D01*
X0098207Y0180441D01*
X0098051Y0180415D01*
X0097894Y0180394D01*
X0097737Y0180376D01*
X0097579Y0180362D01*
X0097421Y0180352D01*
X0097263Y0180346D01*
X0097105Y0180344D01*
X0097105Y0180343D02*
X0082105Y0180343D01*
X0082105Y0180344D02*
X0081947Y0180346D01*
X0081789Y0180352D01*
X0081631Y0180362D01*
X0081473Y0180376D01*
X0081316Y0180394D01*
X0081159Y0180415D01*
X0081003Y0180441D01*
X0080847Y0180471D01*
X0080692Y0180504D01*
X0080539Y0180542D01*
X0080386Y0180583D01*
X0080234Y0180628D01*
X0080083Y0180677D01*
X0079934Y0180730D01*
X0079786Y0180786D01*
X0079640Y0180846D01*
X0079495Y0180910D01*
X0079352Y0180978D01*
X0079210Y0181049D01*
X0079070Y0181123D01*
X0078933Y0181201D01*
X0078797Y0181283D01*
X0078663Y0181367D01*
X0078532Y0181456D01*
X0078403Y0181547D01*
X0078276Y0181642D01*
X0078151Y0181739D01*
X0078029Y0181840D01*
X0077910Y0181944D01*
X0077793Y0182051D01*
X0077679Y0182161D01*
X0077568Y0182274D01*
X0077459Y0182389D01*
X0077354Y0182507D01*
X0077252Y0182628D01*
X0077152Y0182751D01*
X0077056Y0182877D01*
X0076963Y0183005D01*
X0076873Y0183135D01*
X0076787Y0183268D01*
X0076703Y0183403D01*
X0076624Y0183539D01*
X0076547Y0183678D01*
X0076475Y0183819D01*
X0076405Y0183961D01*
X0076340Y0184105D01*
X0076278Y0184251D01*
X0076220Y0184398D01*
X0076165Y0184547D01*
X0076114Y0184697D01*
X0076067Y0184848D01*
X0076024Y0185000D01*
X0075985Y0185153D01*
X0075949Y0185308D01*
X0075918Y0185463D01*
X0075890Y0185619D01*
X0075866Y0185775D01*
X0075846Y0185932D01*
X0075830Y0186090D01*
X0075818Y0186247D01*
X0075810Y0186406D01*
X0075806Y0186564D01*
X0075806Y0186722D01*
X0075810Y0186880D01*
X0075818Y0187039D01*
X0075830Y0187196D01*
X0075846Y0187354D01*
X0075866Y0187511D01*
X0075890Y0187667D01*
X0075918Y0187823D01*
X0075949Y0187978D01*
X0075985Y0188133D01*
X0076024Y0188286D01*
X0076067Y0188438D01*
X0076114Y0188589D01*
X0076165Y0188739D01*
X0076220Y0188888D01*
X0076278Y0189035D01*
X0076340Y0189181D01*
X0076405Y0189325D01*
X0076475Y0189467D01*
X0076547Y0189608D01*
X0076624Y0189747D01*
X0076703Y0189883D01*
X0076787Y0190018D01*
X0076873Y0190151D01*
X0076963Y0190281D01*
X0077056Y0190409D01*
X0077152Y0190535D01*
X0077252Y0190658D01*
X0077354Y0190779D01*
X0077459Y0190897D01*
X0077568Y0191012D01*
X0077679Y0191125D01*
X0077793Y0191235D01*
X0077910Y0191342D01*
X0078029Y0191446D01*
X0078151Y0191547D01*
X0078276Y0191644D01*
X0078403Y0191739D01*
X0078532Y0191830D01*
X0078663Y0191919D01*
X0078797Y0192003D01*
X0078933Y0192085D01*
X0079070Y0192163D01*
X0079210Y0192237D01*
X0079352Y0192308D01*
X0079495Y0192376D01*
X0079640Y0192440D01*
X0079786Y0192500D01*
X0079934Y0192556D01*
X0080083Y0192609D01*
X0080234Y0192658D01*
X0080386Y0192703D01*
X0080539Y0192744D01*
X0080692Y0192782D01*
X0080847Y0192815D01*
X0081003Y0192845D01*
X0081159Y0192871D01*
X0081316Y0192892D01*
X0081473Y0192910D01*
X0081631Y0192924D01*
X0081789Y0192934D01*
X0081947Y0192940D01*
X0082105Y0192942D01*
X0082105Y0149635D02*
X0097105Y0149635D01*
X0097105Y0149634D02*
X0097263Y0149632D01*
X0097421Y0149626D01*
X0097579Y0149616D01*
X0097737Y0149602D01*
X0097894Y0149584D01*
X0098051Y0149563D01*
X0098207Y0149537D01*
X0098363Y0149507D01*
X0098518Y0149474D01*
X0098671Y0149436D01*
X0098824Y0149395D01*
X0098976Y0149350D01*
X0099127Y0149301D01*
X0099276Y0149248D01*
X0099424Y0149192D01*
X0099570Y0149132D01*
X0099715Y0149068D01*
X0099858Y0149000D01*
X0100000Y0148929D01*
X0100140Y0148855D01*
X0100277Y0148777D01*
X0100413Y0148695D01*
X0100547Y0148611D01*
X0100678Y0148522D01*
X0100807Y0148431D01*
X0100934Y0148336D01*
X0101059Y0148239D01*
X0101181Y0148138D01*
X0101300Y0148034D01*
X0101417Y0147927D01*
X0101531Y0147817D01*
X0101642Y0147704D01*
X0101751Y0147589D01*
X0101856Y0147471D01*
X0101958Y0147350D01*
X0102058Y0147227D01*
X0102154Y0147101D01*
X0102247Y0146973D01*
X0102337Y0146843D01*
X0102423Y0146710D01*
X0102507Y0146575D01*
X0102586Y0146439D01*
X0102663Y0146300D01*
X0102735Y0146159D01*
X0102805Y0146017D01*
X0102870Y0145873D01*
X0102932Y0145727D01*
X0102990Y0145580D01*
X0103045Y0145431D01*
X0103096Y0145281D01*
X0103143Y0145130D01*
X0103186Y0144978D01*
X0103225Y0144825D01*
X0103261Y0144670D01*
X0103292Y0144515D01*
X0103320Y0144359D01*
X0103344Y0144203D01*
X0103364Y0144046D01*
X0103380Y0143888D01*
X0103392Y0143731D01*
X0103400Y0143572D01*
X0103404Y0143414D01*
X0103404Y0143256D01*
X0103400Y0143098D01*
X0103392Y0142939D01*
X0103380Y0142782D01*
X0103364Y0142624D01*
X0103344Y0142467D01*
X0103320Y0142311D01*
X0103292Y0142155D01*
X0103261Y0142000D01*
X0103225Y0141845D01*
X0103186Y0141692D01*
X0103143Y0141540D01*
X0103096Y0141389D01*
X0103045Y0141239D01*
X0102990Y0141090D01*
X0102932Y0140943D01*
X0102870Y0140797D01*
X0102805Y0140653D01*
X0102735Y0140511D01*
X0102663Y0140370D01*
X0102586Y0140231D01*
X0102507Y0140095D01*
X0102423Y0139960D01*
X0102337Y0139827D01*
X0102247Y0139697D01*
X0102154Y0139569D01*
X0102058Y0139443D01*
X0101958Y0139320D01*
X0101856Y0139199D01*
X0101751Y0139081D01*
X0101642Y0138966D01*
X0101531Y0138853D01*
X0101417Y0138743D01*
X0101300Y0138636D01*
X0101181Y0138532D01*
X0101059Y0138431D01*
X0100934Y0138334D01*
X0100807Y0138239D01*
X0100678Y0138148D01*
X0100547Y0138059D01*
X0100413Y0137975D01*
X0100277Y0137893D01*
X0100140Y0137815D01*
X0100000Y0137741D01*
X0099858Y0137670D01*
X0099715Y0137602D01*
X0099570Y0137538D01*
X0099424Y0137478D01*
X0099276Y0137422D01*
X0099127Y0137369D01*
X0098976Y0137320D01*
X0098824Y0137275D01*
X0098671Y0137234D01*
X0098518Y0137196D01*
X0098363Y0137163D01*
X0098207Y0137133D01*
X0098051Y0137107D01*
X0097894Y0137086D01*
X0097737Y0137068D01*
X0097579Y0137054D01*
X0097421Y0137044D01*
X0097263Y0137038D01*
X0097105Y0137036D01*
X0082105Y0137036D01*
X0081947Y0137038D01*
X0081789Y0137044D01*
X0081631Y0137054D01*
X0081473Y0137068D01*
X0081316Y0137086D01*
X0081159Y0137107D01*
X0081003Y0137133D01*
X0080847Y0137163D01*
X0080692Y0137196D01*
X0080539Y0137234D01*
X0080386Y0137275D01*
X0080234Y0137320D01*
X0080083Y0137369D01*
X0079934Y0137422D01*
X0079786Y0137478D01*
X0079640Y0137538D01*
X0079495Y0137602D01*
X0079352Y0137670D01*
X0079210Y0137741D01*
X0079070Y0137815D01*
X0078933Y0137893D01*
X0078797Y0137975D01*
X0078663Y0138059D01*
X0078532Y0138148D01*
X0078403Y0138239D01*
X0078276Y0138334D01*
X0078151Y0138431D01*
X0078029Y0138532D01*
X0077910Y0138636D01*
X0077793Y0138743D01*
X0077679Y0138853D01*
X0077568Y0138966D01*
X0077459Y0139081D01*
X0077354Y0139199D01*
X0077252Y0139320D01*
X0077152Y0139443D01*
X0077056Y0139569D01*
X0076963Y0139697D01*
X0076873Y0139827D01*
X0076787Y0139960D01*
X0076703Y0140095D01*
X0076624Y0140231D01*
X0076547Y0140370D01*
X0076475Y0140511D01*
X0076405Y0140653D01*
X0076340Y0140797D01*
X0076278Y0140943D01*
X0076220Y0141090D01*
X0076165Y0141239D01*
X0076114Y0141389D01*
X0076067Y0141540D01*
X0076024Y0141692D01*
X0075985Y0141845D01*
X0075949Y0142000D01*
X0075918Y0142155D01*
X0075890Y0142311D01*
X0075866Y0142467D01*
X0075846Y0142624D01*
X0075830Y0142782D01*
X0075818Y0142939D01*
X0075810Y0143098D01*
X0075806Y0143256D01*
X0075806Y0143414D01*
X0075810Y0143572D01*
X0075818Y0143731D01*
X0075830Y0143888D01*
X0075846Y0144046D01*
X0075866Y0144203D01*
X0075890Y0144359D01*
X0075918Y0144515D01*
X0075949Y0144670D01*
X0075985Y0144825D01*
X0076024Y0144978D01*
X0076067Y0145130D01*
X0076114Y0145281D01*
X0076165Y0145431D01*
X0076220Y0145580D01*
X0076278Y0145727D01*
X0076340Y0145873D01*
X0076405Y0146017D01*
X0076475Y0146159D01*
X0076547Y0146300D01*
X0076624Y0146439D01*
X0076703Y0146575D01*
X0076787Y0146710D01*
X0076873Y0146843D01*
X0076963Y0146973D01*
X0077056Y0147101D01*
X0077152Y0147227D01*
X0077252Y0147350D01*
X0077354Y0147471D01*
X0077459Y0147589D01*
X0077568Y0147704D01*
X0077679Y0147817D01*
X0077793Y0147927D01*
X0077910Y0148034D01*
X0078029Y0148138D01*
X0078151Y0148239D01*
X0078276Y0148336D01*
X0078403Y0148431D01*
X0078532Y0148522D01*
X0078663Y0148611D01*
X0078797Y0148695D01*
X0078933Y0148777D01*
X0079070Y0148855D01*
X0079210Y0148929D01*
X0079352Y0149000D01*
X0079495Y0149068D01*
X0079640Y0149132D01*
X0079786Y0149192D01*
X0079934Y0149248D01*
X0080083Y0149301D01*
X0080234Y0149350D01*
X0080386Y0149395D01*
X0080539Y0149436D01*
X0080692Y0149474D01*
X0080847Y0149507D01*
X0081003Y0149537D01*
X0081159Y0149563D01*
X0081316Y0149584D01*
X0081473Y0149602D01*
X0081631Y0149616D01*
X0081789Y0149626D01*
X0081947Y0149632D01*
X0082105Y0149634D01*
X0082105Y0106328D02*
X0097105Y0106328D01*
X0097105Y0106327D02*
X0097263Y0106325D01*
X0097421Y0106319D01*
X0097579Y0106309D01*
X0097737Y0106295D01*
X0097894Y0106277D01*
X0098051Y0106256D01*
X0098207Y0106230D01*
X0098363Y0106200D01*
X0098518Y0106167D01*
X0098671Y0106129D01*
X0098824Y0106088D01*
X0098976Y0106043D01*
X0099127Y0105994D01*
X0099276Y0105941D01*
X0099424Y0105885D01*
X0099570Y0105825D01*
X0099715Y0105761D01*
X0099858Y0105693D01*
X0100000Y0105622D01*
X0100140Y0105548D01*
X0100277Y0105470D01*
X0100413Y0105388D01*
X0100547Y0105304D01*
X0100678Y0105215D01*
X0100807Y0105124D01*
X0100934Y0105029D01*
X0101059Y0104932D01*
X0101181Y0104831D01*
X0101300Y0104727D01*
X0101417Y0104620D01*
X0101531Y0104510D01*
X0101642Y0104397D01*
X0101751Y0104282D01*
X0101856Y0104164D01*
X0101958Y0104043D01*
X0102058Y0103920D01*
X0102154Y0103794D01*
X0102247Y0103666D01*
X0102337Y0103536D01*
X0102423Y0103403D01*
X0102507Y0103268D01*
X0102586Y0103132D01*
X0102663Y0102993D01*
X0102735Y0102852D01*
X0102805Y0102710D01*
X0102870Y0102566D01*
X0102932Y0102420D01*
X0102990Y0102273D01*
X0103045Y0102124D01*
X0103096Y0101974D01*
X0103143Y0101823D01*
X0103186Y0101671D01*
X0103225Y0101518D01*
X0103261Y0101363D01*
X0103292Y0101208D01*
X0103320Y0101052D01*
X0103344Y0100896D01*
X0103364Y0100739D01*
X0103380Y0100581D01*
X0103392Y0100424D01*
X0103400Y0100265D01*
X0103404Y0100107D01*
X0103404Y0099949D01*
X0103400Y0099791D01*
X0103392Y0099632D01*
X0103380Y0099475D01*
X0103364Y0099317D01*
X0103344Y0099160D01*
X0103320Y0099004D01*
X0103292Y0098848D01*
X0103261Y0098693D01*
X0103225Y0098538D01*
X0103186Y0098385D01*
X0103143Y0098233D01*
X0103096Y0098082D01*
X0103045Y0097932D01*
X0102990Y0097783D01*
X0102932Y0097636D01*
X0102870Y0097490D01*
X0102805Y0097346D01*
X0102735Y0097204D01*
X0102663Y0097063D01*
X0102586Y0096924D01*
X0102507Y0096788D01*
X0102423Y0096653D01*
X0102337Y0096520D01*
X0102247Y0096390D01*
X0102154Y0096262D01*
X0102058Y0096136D01*
X0101958Y0096013D01*
X0101856Y0095892D01*
X0101751Y0095774D01*
X0101642Y0095659D01*
X0101531Y0095546D01*
X0101417Y0095436D01*
X0101300Y0095329D01*
X0101181Y0095225D01*
X0101059Y0095124D01*
X0100934Y0095027D01*
X0100807Y0094932D01*
X0100678Y0094841D01*
X0100547Y0094752D01*
X0100413Y0094668D01*
X0100277Y0094586D01*
X0100140Y0094508D01*
X0100000Y0094434D01*
X0099858Y0094363D01*
X0099715Y0094295D01*
X0099570Y0094231D01*
X0099424Y0094171D01*
X0099276Y0094115D01*
X0099127Y0094062D01*
X0098976Y0094013D01*
X0098824Y0093968D01*
X0098671Y0093927D01*
X0098518Y0093889D01*
X0098363Y0093856D01*
X0098207Y0093826D01*
X0098051Y0093800D01*
X0097894Y0093779D01*
X0097737Y0093761D01*
X0097579Y0093747D01*
X0097421Y0093737D01*
X0097263Y0093731D01*
X0097105Y0093729D01*
X0082105Y0093729D01*
X0081947Y0093731D01*
X0081789Y0093737D01*
X0081631Y0093747D01*
X0081473Y0093761D01*
X0081316Y0093779D01*
X0081159Y0093800D01*
X0081003Y0093826D01*
X0080847Y0093856D01*
X0080692Y0093889D01*
X0080539Y0093927D01*
X0080386Y0093968D01*
X0080234Y0094013D01*
X0080083Y0094062D01*
X0079934Y0094115D01*
X0079786Y0094171D01*
X0079640Y0094231D01*
X0079495Y0094295D01*
X0079352Y0094363D01*
X0079210Y0094434D01*
X0079070Y0094508D01*
X0078933Y0094586D01*
X0078797Y0094668D01*
X0078663Y0094752D01*
X0078532Y0094841D01*
X0078403Y0094932D01*
X0078276Y0095027D01*
X0078151Y0095124D01*
X0078029Y0095225D01*
X0077910Y0095329D01*
X0077793Y0095436D01*
X0077679Y0095546D01*
X0077568Y0095659D01*
X0077459Y0095774D01*
X0077354Y0095892D01*
X0077252Y0096013D01*
X0077152Y0096136D01*
X0077056Y0096262D01*
X0076963Y0096390D01*
X0076873Y0096520D01*
X0076787Y0096653D01*
X0076703Y0096788D01*
X0076624Y0096924D01*
X0076547Y0097063D01*
X0076475Y0097204D01*
X0076405Y0097346D01*
X0076340Y0097490D01*
X0076278Y0097636D01*
X0076220Y0097783D01*
X0076165Y0097932D01*
X0076114Y0098082D01*
X0076067Y0098233D01*
X0076024Y0098385D01*
X0075985Y0098538D01*
X0075949Y0098693D01*
X0075918Y0098848D01*
X0075890Y0099004D01*
X0075866Y0099160D01*
X0075846Y0099317D01*
X0075830Y0099475D01*
X0075818Y0099632D01*
X0075810Y0099791D01*
X0075806Y0099949D01*
X0075806Y0100107D01*
X0075810Y0100265D01*
X0075818Y0100424D01*
X0075830Y0100581D01*
X0075846Y0100739D01*
X0075866Y0100896D01*
X0075890Y0101052D01*
X0075918Y0101208D01*
X0075949Y0101363D01*
X0075985Y0101518D01*
X0076024Y0101671D01*
X0076067Y0101823D01*
X0076114Y0101974D01*
X0076165Y0102124D01*
X0076220Y0102273D01*
X0076278Y0102420D01*
X0076340Y0102566D01*
X0076405Y0102710D01*
X0076475Y0102852D01*
X0076547Y0102993D01*
X0076624Y0103132D01*
X0076703Y0103268D01*
X0076787Y0103403D01*
X0076873Y0103536D01*
X0076963Y0103666D01*
X0077056Y0103794D01*
X0077152Y0103920D01*
X0077252Y0104043D01*
X0077354Y0104164D01*
X0077459Y0104282D01*
X0077568Y0104397D01*
X0077679Y0104510D01*
X0077793Y0104620D01*
X0077910Y0104727D01*
X0078029Y0104831D01*
X0078151Y0104932D01*
X0078276Y0105029D01*
X0078403Y0105124D01*
X0078532Y0105215D01*
X0078663Y0105304D01*
X0078797Y0105388D01*
X0078933Y0105470D01*
X0079070Y0105548D01*
X0079210Y0105622D01*
X0079352Y0105693D01*
X0079495Y0105761D01*
X0079640Y0105825D01*
X0079786Y0105885D01*
X0079934Y0105941D01*
X0080083Y0105994D01*
X0080234Y0106043D01*
X0080386Y0106088D01*
X0080539Y0106129D01*
X0080692Y0106167D01*
X0080847Y0106200D01*
X0081003Y0106230D01*
X0081159Y0106256D01*
X0081316Y0106277D01*
X0081473Y0106295D01*
X0081631Y0106309D01*
X0081789Y0106319D01*
X0081947Y0106325D01*
X0082105Y0106327D01*
X0049772Y0039536D02*
X0039772Y0039536D01*
X0039614Y0039534D01*
X0039456Y0039528D01*
X0039298Y0039518D01*
X0039140Y0039504D01*
X0038983Y0039486D01*
X0038826Y0039465D01*
X0038670Y0039439D01*
X0038514Y0039409D01*
X0038359Y0039376D01*
X0038206Y0039338D01*
X0038053Y0039297D01*
X0037901Y0039252D01*
X0037750Y0039203D01*
X0037601Y0039150D01*
X0037453Y0039094D01*
X0037307Y0039034D01*
X0037162Y0038970D01*
X0037019Y0038902D01*
X0036877Y0038831D01*
X0036737Y0038757D01*
X0036600Y0038679D01*
X0036464Y0038597D01*
X0036330Y0038513D01*
X0036199Y0038424D01*
X0036070Y0038333D01*
X0035943Y0038238D01*
X0035818Y0038141D01*
X0035696Y0038040D01*
X0035577Y0037936D01*
X0035460Y0037829D01*
X0035346Y0037719D01*
X0035235Y0037606D01*
X0035126Y0037491D01*
X0035021Y0037373D01*
X0034919Y0037252D01*
X0034819Y0037129D01*
X0034723Y0037003D01*
X0034630Y0036875D01*
X0034540Y0036745D01*
X0034454Y0036612D01*
X0034370Y0036477D01*
X0034291Y0036341D01*
X0034214Y0036202D01*
X0034142Y0036061D01*
X0034072Y0035919D01*
X0034007Y0035775D01*
X0033945Y0035629D01*
X0033887Y0035482D01*
X0033832Y0035333D01*
X0033781Y0035183D01*
X0033734Y0035032D01*
X0033691Y0034880D01*
X0033652Y0034727D01*
X0033616Y0034572D01*
X0033585Y0034417D01*
X0033557Y0034261D01*
X0033533Y0034105D01*
X0033513Y0033948D01*
X0033497Y0033790D01*
X0033485Y0033633D01*
X0033477Y0033474D01*
X0033473Y0033316D01*
X0033473Y0033158D01*
X0033477Y0033000D01*
X0033485Y0032841D01*
X0033497Y0032684D01*
X0033513Y0032526D01*
X0033533Y0032369D01*
X0033557Y0032213D01*
X0033585Y0032057D01*
X0033616Y0031902D01*
X0033652Y0031747D01*
X0033691Y0031594D01*
X0033734Y0031442D01*
X0033781Y0031291D01*
X0033832Y0031141D01*
X0033887Y0030992D01*
X0033945Y0030845D01*
X0034007Y0030699D01*
X0034072Y0030555D01*
X0034142Y0030413D01*
X0034214Y0030272D01*
X0034291Y0030133D01*
X0034370Y0029997D01*
X0034454Y0029862D01*
X0034540Y0029729D01*
X0034630Y0029599D01*
X0034723Y0029471D01*
X0034819Y0029345D01*
X0034919Y0029222D01*
X0035021Y0029101D01*
X0035126Y0028983D01*
X0035235Y0028868D01*
X0035346Y0028755D01*
X0035460Y0028645D01*
X0035577Y0028538D01*
X0035696Y0028434D01*
X0035818Y0028333D01*
X0035943Y0028236D01*
X0036070Y0028141D01*
X0036199Y0028050D01*
X0036330Y0027961D01*
X0036464Y0027877D01*
X0036600Y0027795D01*
X0036737Y0027717D01*
X0036877Y0027643D01*
X0037019Y0027572D01*
X0037162Y0027504D01*
X0037307Y0027440D01*
X0037453Y0027380D01*
X0037601Y0027324D01*
X0037750Y0027271D01*
X0037901Y0027222D01*
X0038053Y0027177D01*
X0038206Y0027136D01*
X0038359Y0027098D01*
X0038514Y0027065D01*
X0038670Y0027035D01*
X0038826Y0027009D01*
X0038983Y0026988D01*
X0039140Y0026970D01*
X0039298Y0026956D01*
X0039456Y0026946D01*
X0039614Y0026940D01*
X0039772Y0026938D01*
X0049772Y0026938D01*
X0049930Y0026940D01*
X0050088Y0026946D01*
X0050246Y0026956D01*
X0050404Y0026970D01*
X0050561Y0026988D01*
X0050718Y0027009D01*
X0050874Y0027035D01*
X0051030Y0027065D01*
X0051185Y0027098D01*
X0051338Y0027136D01*
X0051491Y0027177D01*
X0051643Y0027222D01*
X0051794Y0027271D01*
X0051943Y0027324D01*
X0052091Y0027380D01*
X0052237Y0027440D01*
X0052382Y0027504D01*
X0052525Y0027572D01*
X0052667Y0027643D01*
X0052807Y0027717D01*
X0052944Y0027795D01*
X0053080Y0027877D01*
X0053214Y0027961D01*
X0053345Y0028050D01*
X0053474Y0028141D01*
X0053601Y0028236D01*
X0053726Y0028333D01*
X0053848Y0028434D01*
X0053967Y0028538D01*
X0054084Y0028645D01*
X0054198Y0028755D01*
X0054309Y0028868D01*
X0054418Y0028983D01*
X0054523Y0029101D01*
X0054625Y0029222D01*
X0054725Y0029345D01*
X0054821Y0029471D01*
X0054914Y0029599D01*
X0055004Y0029729D01*
X0055090Y0029862D01*
X0055174Y0029997D01*
X0055253Y0030133D01*
X0055330Y0030272D01*
X0055402Y0030413D01*
X0055472Y0030555D01*
X0055537Y0030699D01*
X0055599Y0030845D01*
X0055657Y0030992D01*
X0055712Y0031141D01*
X0055763Y0031291D01*
X0055810Y0031442D01*
X0055853Y0031594D01*
X0055892Y0031747D01*
X0055928Y0031902D01*
X0055959Y0032057D01*
X0055987Y0032213D01*
X0056011Y0032369D01*
X0056031Y0032526D01*
X0056047Y0032684D01*
X0056059Y0032841D01*
X0056067Y0033000D01*
X0056071Y0033158D01*
X0056071Y0033316D01*
X0056067Y0033474D01*
X0056059Y0033633D01*
X0056047Y0033790D01*
X0056031Y0033948D01*
X0056011Y0034105D01*
X0055987Y0034261D01*
X0055959Y0034417D01*
X0055928Y0034572D01*
X0055892Y0034727D01*
X0055853Y0034880D01*
X0055810Y0035032D01*
X0055763Y0035183D01*
X0055712Y0035333D01*
X0055657Y0035482D01*
X0055599Y0035629D01*
X0055537Y0035775D01*
X0055472Y0035919D01*
X0055402Y0036061D01*
X0055330Y0036202D01*
X0055253Y0036341D01*
X0055174Y0036477D01*
X0055090Y0036612D01*
X0055004Y0036745D01*
X0054914Y0036875D01*
X0054821Y0037003D01*
X0054725Y0037129D01*
X0054625Y0037252D01*
X0054523Y0037373D01*
X0054418Y0037491D01*
X0054309Y0037606D01*
X0054198Y0037719D01*
X0054084Y0037829D01*
X0053967Y0037936D01*
X0053848Y0038040D01*
X0053726Y0038141D01*
X0053601Y0038238D01*
X0053474Y0038333D01*
X0053345Y0038424D01*
X0053214Y0038513D01*
X0053080Y0038597D01*
X0052944Y0038679D01*
X0052807Y0038757D01*
X0052667Y0038831D01*
X0052525Y0038902D01*
X0052382Y0038970D01*
X0052237Y0039034D01*
X0052091Y0039094D01*
X0051943Y0039150D01*
X0051794Y0039203D01*
X0051643Y0039252D01*
X0051491Y0039297D01*
X0051338Y0039338D01*
X0051185Y0039376D01*
X0051030Y0039409D01*
X0050874Y0039439D01*
X0050718Y0039465D01*
X0050561Y0039486D01*
X0050404Y0039504D01*
X0050246Y0039518D01*
X0050088Y0039528D01*
X0049930Y0039534D01*
X0049772Y0039536D01*
D14*
X0049016Y0034639D02*
X0049016Y0032304D01*
X0049483Y0031837D01*
X0050417Y0031837D01*
X0050884Y0032304D01*
X0050884Y0034639D01*
X0051778Y0034639D02*
X0053647Y0034639D01*
X0052712Y0034639D02*
X0052712Y0031837D01*
X0048122Y0032304D02*
X0048122Y0034172D01*
X0047655Y0034639D01*
X0046721Y0034639D01*
X0046254Y0034172D01*
X0046254Y0032304D01*
X0046721Y0031837D01*
X0047655Y0031837D01*
X0048122Y0032304D01*
X0042597Y0034639D02*
X0040729Y0034639D01*
X0039835Y0034639D02*
X0039835Y0032304D01*
X0039368Y0031837D01*
X0038434Y0031837D01*
X0037967Y0032304D01*
X0037967Y0034639D01*
X0037072Y0034172D02*
X0036605Y0034639D01*
X0035671Y0034639D01*
X0035204Y0034172D01*
X0035204Y0032304D01*
X0035671Y0031837D01*
X0036605Y0031837D01*
X0037072Y0032304D01*
X0041663Y0031837D02*
X0041663Y0034639D01*
X0083004Y0098628D02*
X0083938Y0098628D01*
X0084405Y0099095D01*
X0085299Y0099095D02*
X0085766Y0098628D01*
X0086700Y0098628D01*
X0087167Y0099095D01*
X0087167Y0101431D01*
X0088062Y0101431D02*
X0089930Y0101431D01*
X0088996Y0101431D02*
X0088996Y0098628D01*
X0085299Y0099095D02*
X0085299Y0101431D01*
X0084405Y0100964D02*
X0083938Y0101431D01*
X0083004Y0101431D01*
X0082537Y0100964D01*
X0082537Y0099095D01*
X0083004Y0098628D01*
X0093586Y0099095D02*
X0094053Y0098628D01*
X0094987Y0098628D01*
X0095455Y0099095D01*
X0095455Y0100964D01*
X0094987Y0101431D01*
X0094053Y0101431D01*
X0093586Y0100964D01*
X0093586Y0099095D01*
X0096349Y0099095D02*
X0096816Y0098628D01*
X0097750Y0098628D01*
X0098217Y0099095D01*
X0098217Y0101431D01*
X0099111Y0101431D02*
X0100979Y0101431D01*
X0100045Y0101431D02*
X0100045Y0098628D01*
X0096349Y0099095D02*
X0096349Y0101431D01*
X0096816Y0141935D02*
X0097750Y0141935D01*
X0098217Y0142402D01*
X0098217Y0144738D01*
X0099111Y0144738D02*
X0100979Y0144738D01*
X0100045Y0144738D02*
X0100045Y0141935D01*
X0096816Y0141935D02*
X0096349Y0142402D01*
X0096349Y0144738D01*
X0095455Y0144271D02*
X0094987Y0144738D01*
X0094053Y0144738D01*
X0093586Y0144271D01*
X0093586Y0142402D01*
X0094053Y0141935D01*
X0094987Y0141935D01*
X0095455Y0142402D01*
X0095455Y0144271D01*
X0089930Y0144738D02*
X0088062Y0144738D01*
X0087167Y0144738D02*
X0087167Y0142402D01*
X0086700Y0141935D01*
X0085766Y0141935D01*
X0085299Y0142402D01*
X0085299Y0144738D01*
X0084405Y0144271D02*
X0083938Y0144738D01*
X0083004Y0144738D01*
X0082537Y0144271D01*
X0082537Y0142402D01*
X0083004Y0141935D01*
X0083938Y0141935D01*
X0084405Y0142402D01*
X0088996Y0141935D02*
X0088996Y0144738D01*
X0088996Y0185243D02*
X0088996Y0188045D01*
X0088062Y0188045D02*
X0089930Y0188045D01*
X0087167Y0188045D02*
X0087167Y0185710D01*
X0086700Y0185243D01*
X0085766Y0185243D01*
X0085299Y0185710D01*
X0085299Y0188045D01*
X0084405Y0187578D02*
X0083938Y0188045D01*
X0083004Y0188045D01*
X0082537Y0187578D01*
X0082537Y0185710D01*
X0083004Y0185243D01*
X0083938Y0185243D01*
X0084405Y0185710D01*
X0093586Y0185710D02*
X0094053Y0185243D01*
X0094987Y0185243D01*
X0095455Y0185710D01*
X0095455Y0187578D01*
X0094987Y0188045D01*
X0094053Y0188045D01*
X0093586Y0187578D01*
X0093586Y0185710D01*
X0096349Y0185710D02*
X0096816Y0185243D01*
X0097750Y0185243D01*
X0098217Y0185710D01*
X0098217Y0188045D01*
X0099111Y0188045D02*
X0100979Y0188045D01*
X0100045Y0188045D02*
X0100045Y0185243D01*
X0096349Y0185710D02*
X0096349Y0188045D01*
X0096816Y0291542D02*
X0097750Y0291542D01*
X0098217Y0292009D01*
X0098217Y0294344D01*
X0099111Y0294344D02*
X0100979Y0294344D01*
X0100045Y0294344D02*
X0100045Y0291542D01*
X0096816Y0291542D02*
X0096349Y0292009D01*
X0096349Y0294344D01*
X0095455Y0293877D02*
X0094987Y0294344D01*
X0094053Y0294344D01*
X0093586Y0293877D01*
X0093586Y0292009D01*
X0094053Y0291542D01*
X0094987Y0291542D01*
X0095455Y0292009D01*
X0095455Y0293877D01*
X0089930Y0294344D02*
X0088062Y0294344D01*
X0087167Y0294344D02*
X0087167Y0292009D01*
X0086700Y0291542D01*
X0085766Y0291542D01*
X0085299Y0292009D01*
X0085299Y0294344D01*
X0084405Y0293877D02*
X0083938Y0294344D01*
X0083004Y0294344D01*
X0082537Y0293877D01*
X0082537Y0292009D01*
X0083004Y0291542D01*
X0083938Y0291542D01*
X0084405Y0292009D01*
X0088996Y0291542D02*
X0088996Y0294344D01*
X0088996Y0334849D02*
X0088996Y0337651D01*
X0088062Y0337651D02*
X0089930Y0337651D01*
X0087167Y0337651D02*
X0087167Y0335316D01*
X0086700Y0334849D01*
X0085766Y0334849D01*
X0085299Y0335316D01*
X0085299Y0337651D01*
X0084405Y0337184D02*
X0083938Y0337651D01*
X0083004Y0337651D01*
X0082537Y0337184D01*
X0082537Y0335316D01*
X0083004Y0334849D01*
X0083938Y0334849D01*
X0084405Y0335316D01*
X0093586Y0335316D02*
X0094053Y0334849D01*
X0094987Y0334849D01*
X0095455Y0335316D01*
X0095455Y0337184D01*
X0094987Y0337651D01*
X0094053Y0337651D01*
X0093586Y0337184D01*
X0093586Y0335316D01*
X0096349Y0335316D02*
X0096816Y0334849D01*
X0097750Y0334849D01*
X0098217Y0335316D01*
X0098217Y0337651D01*
X0099111Y0337651D02*
X0100979Y0337651D01*
X0100045Y0337651D02*
X0100045Y0334849D01*
X0096349Y0335316D02*
X0096349Y0337651D01*
X0096816Y0378156D02*
X0097750Y0378156D01*
X0098217Y0378623D01*
X0098217Y0380958D01*
X0099111Y0380958D02*
X0100979Y0380958D01*
X0100045Y0380958D02*
X0100045Y0378156D01*
X0096816Y0378156D02*
X0096349Y0378623D01*
X0096349Y0380958D01*
X0095455Y0380491D02*
X0094987Y0380958D01*
X0094053Y0380958D01*
X0093586Y0380491D01*
X0093586Y0378623D01*
X0094053Y0378156D01*
X0094987Y0378156D01*
X0095455Y0378623D01*
X0095455Y0380491D01*
X0089930Y0380958D02*
X0088062Y0380958D01*
X0087167Y0380958D02*
X0087167Y0378623D01*
X0086700Y0378156D01*
X0085766Y0378156D01*
X0085299Y0378623D01*
X0085299Y0380958D01*
X0084405Y0380491D02*
X0083938Y0380958D01*
X0083004Y0380958D01*
X0082537Y0380491D01*
X0082537Y0378623D01*
X0083004Y0378156D01*
X0083938Y0378156D01*
X0084405Y0378623D01*
X0088996Y0378156D02*
X0088996Y0380958D01*
X0053647Y0516923D02*
X0051778Y0516923D01*
X0050884Y0516923D02*
X0050884Y0514588D01*
X0050417Y0514120D01*
X0049483Y0514120D01*
X0049016Y0514588D01*
X0049016Y0516923D01*
X0048122Y0516456D02*
X0047655Y0516923D01*
X0046721Y0516923D01*
X0046254Y0516456D01*
X0046254Y0514588D01*
X0046721Y0514120D01*
X0047655Y0514120D01*
X0048122Y0514588D01*
X0048122Y0516456D01*
X0052712Y0516923D02*
X0052712Y0514120D01*
X0042597Y0516923D02*
X0040729Y0516923D01*
X0039835Y0516923D02*
X0039835Y0514588D01*
X0039368Y0514120D01*
X0038434Y0514120D01*
X0037967Y0514588D01*
X0037967Y0516923D01*
X0037072Y0516456D02*
X0036605Y0516923D01*
X0035671Y0516923D01*
X0035204Y0516456D01*
X0035204Y0514588D01*
X0035671Y0514120D01*
X0036605Y0514120D01*
X0037072Y0514588D01*
X0041663Y0514120D02*
X0041663Y0516923D01*
M02*
