  0
SECTION
  2
HEADER
  9
$ACADVER
  1
AC1009
  9
$FILLMODE
 70
1
  9
$EXTMIN
 10
-5.7882
 20
-1.9732
 30
0.0000
  9
$EXTMAX
 10
147.0000
 20
132.6882
 30
0.0000
  0
ENDSEC
  0
SECTION
  2
TABLES
  0
TABLE
  2
LTYPE
 70
1
  0
LTYPE
  2
CONTINUOUS
 70
64
  3
Solid line
 72
65
 73
0
 40
0
  0
ENDTAB
  0
TABLE
  2
LAYER
 70
255
  0
LAYER
  2
1
 70
64
 62
22
  6
CONTINUOUS
  0
LAYER
  2
2
 70
64
 62
175
  6
CONTINUOUS
  0
LAYER
  2
15
 70
64
 62
22
  6
CONTINUOUS
  0
LAYER
  2
16
 70
64
 62
175
  6
CONTINUOUS
  0
LAYER
  2
17
 70
64
 62
82
  6
CONTINUOUS
  0
LAYER
  2
18
 70
64
 62
82
  6
CONTINUOUS
  0
LAYER
  2
19
 70
64
 62
53
  6
CONTINUOUS
  0
LAYER
  2
20
 70
64
 62
7
  6
CONTINUOUS
  0
LAYER
  2
21
 70
64
 62
253
  6
CONTINUOUS
  0
LAYER
  2
22
 70
64
 62
253
  6
CONTINUOUS
  0
LAYER
  2
23
 70
64
 62
7
  6
CONTINUOUS
  0
LAYER
  2
24
 70
64
 62
7
  6
CONTINUOUS
  0
LAYER
  2
25
 70
64
 62
253
  6
CONTINUOUS
  0
LAYER
  2
26
 70
64
 62
253
  6
CONTINUOUS
  0
LAYER
  2
27
 70
64
 62
253
  6
CONTINUOUS
  0
LAYER
  2
28
 70
64
 62
253
  6
CONTINUOUS
  0
LAYER
  2
29
 70
64
 62
253
  6
CONTINUOUS
  0
LAYER
  2
30
 70
64
 62
253
  6
CONTINUOUS
  0
LAYER
  2
31
 70
64
 62
253
  6
CONTINUOUS
  0
LAYER
  2
32
 70
64
 62
253
  6
CONTINUOUS
  0
LAYER
  2
33
 70
64
 62
53
  6
CONTINUOUS
  0
LAYER
  2
34
 70
64
 62
53
  6
CONTINUOUS
  0
LAYER
  2
35
 70
64
 62
253
  6
CONTINUOUS
  0
LAYER
  2
36
 70
64
 62
253
  6
CONTINUOUS
  0
LAYER
  2
37
 70
64
 62
253
  6
CONTINUOUS
  0
LAYER
  2
38
 70
64
 62
253
  6
CONTINUOUS
  0
LAYER
  2
39
 70
64
 62
22
  6
CONTINUOUS
  0
LAYER
  2
40
 70
64
 62
175
  6
CONTINUOUS
  0
LAYER
  2
41
 70
64
 62
22
  6
CONTINUOUS
  0
LAYER
  2
42
 70
64
 62
175
  6
CONTINUOUS
  0
LAYER
  2
43
 70
64
 62
82
  6
CONTINUOUS
  0
LAYER
  2
44
 70
64
 62
253
  6
CONTINUOUS
  0
LAYER
  2
45
 70
64
 62
253
  6
CONTINUOUS
  0
LAYER
  2
46
 70
64
 62
140
  6
CONTINUOUS
  0
LAYER
  2
47
 70
64
 62
253
  6
CONTINUOUS
  0
LAYER
  2
48
 70
64
 62
253
  6
CONTINUOUS
  0
LAYER
  2
49
 70
64
 62
253
  6
CONTINUOUS
  0
LAYER
  2
51
 70
64
 62
253
  6
CONTINUOUS
  0
LAYER
  2
52
 70
64
 62
253
  6
CONTINUOUS
  0
LAYER
  2
101
 70
64
 62
1
  6
CONTINUOUS
  0
LAYER
  2
102
 70
64
 62
253
  6
CONTINUOUS
  0
LAYER
  2
103
 70
64
 62
253
  6
CONTINUOUS
  0
LAYER
  2
104
 70
64
 62
251
  6
CONTINUOUS
  0
LAYER
  2
105
 70
64
 62
253
  6
CONTINUOUS
  0
LAYER
  2
106
 70
64
 62
253
  6
CONTINUOUS
  0
LAYER
  2
107
 70
64
 62
253
  6
CONTINUOUS
  0
LAYER
  2
108
 70
64
 62
3
  6
CONTINUOUS
  0
LAYER
  2
109
 70
64
 62
4
  6
CONTINUOUS
  0
LAYER
  2
116
 70
64
 62
5
  6
CONTINUOUS
  0
LAYER
  2
121
 70
64
 62
253
  6
CONTINUOUS
  0
LAYER
  2
122
 70
64
 62
253
  6
CONTINUOUS
  0
LAYER
  2
125
 70
64
 62
253
  6
CONTINUOUS
  0
LAYER
  2
131
 70
64
 62
253
  6
CONTINUOUS
  0
LAYER
  2
132
 70
64
 62
253
  6
CONTINUOUS
  0
LAYER
  2
144
 70
64
 62
253
  6
CONTINUOUS
  0
LAYER
  2
150
 70
64
 62
253
  6
CONTINUOUS
  0
LAYER
  2
151
 70
64
 62
253
  6
CONTINUOUS
  0
LAYER
  2
199
 70
64
 62
253
  6
CONTINUOUS
  0
LAYER
  2
200
 70
64
 62
175
  6
CONTINUOUS
  0
LAYER
  2
201
 70
64
 62
82
  6
CONTINUOUS
  0
LAYER
  2
202
 70
64
 62
140
  6
CONTINUOUS
  0
LAYER
  2
203
 70
64
 62
22
  6
CONTINUOUS
  0
LAYER
  2
204
 70
64
 62
213
  6
CONTINUOUS
  0
LAYER
  2
205
 70
64
 62
53
  6
CONTINUOUS
  0
LAYER
  2
206
 70
64
 62
253
  6
CONTINUOUS
  0
LAYER
  2
207
 70
64
 62
250
  6
CONTINUOUS
  0
LAYER
  2
208
 70
64
 62
5
  6
CONTINUOUS
  0
LAYER
  2
209
 70
64
 62
253
  6
CONTINUOUS
  0
LAYER
  2
210
 70
64
 62
253
  6
CONTINUOUS
  0
LAYER
  2
211
 70
64
 62
253
  6
CONTINUOUS
  0
LAYER
  2
212
 70
64
 62
253
  6
CONTINUOUS
  0
LAYER
  2
213
 70
64
 62
253
  6
CONTINUOUS
  0
LAYER
  2
214
 70
64
 62
253
  6
CONTINUOUS
  0
LAYER
  2
215
 70
64
 62
253
  6
CONTINUOUS
  0
LAYER
  2
216
 70
64
 62
253
  6
CONTINUOUS
  0
LAYER
  2
254
 70
64
 62
253
  6
CONTINUOUS
  0
ENDTAB
  0
ENDSEC
  0
SECTION
  2
BLOCKS
  0
BLOCK
  8
0
  2
RECT
 70
64
 10
0.0000
 20
0.0000
 30
0.0000
  3
RECT
  0
SOLID
  8
0
 10
-0.5000
 20
-0.5000
 30
0.0000
 11
0.5000
 21
-0.5000
 31
0.0000
 12
-0.5000
 22
0.5000
 32
0.0000
 13
0.5000
 23
0.5000
 33
0.0000
  0
ENDBLK
  8
0
  0
BLOCK
  8
0
  2
PIE
 70
64
 10
0.0000
 20
0.0000
 30
0.0000
  3
PIE
  0
POLYLINE
  8
0
 66
1
 10
0.0000
 20
0.0000
 30
0.0000
 40
0.5000
 41
0.5000
 70
0
  0
VERTEX
  8
0
 10
0.0000
 20
-0.2500
 30
0.0000
 42
1.0000
  0
VERTEX
  8
0
 10
0.0000
 20
0.2500
 30
0.0000
 42
1.0000
  0
VERTEX
  8
0
 10
0.0000
 20
-0.2500
 30
0.0000
  0
SEQEND
  8
0
  0
ENDBLK
  8
0
  0
BLOCK
  8
0
  2
OCTAGONP
 70
64
 10
0.0000
 20
0.0000
 30
0.0000
  3
OCTAGONP
  0
POLYLINE
  8
0
 66
1
 10
0.0000
 20
0.0000
 30
0.0000
 40
0.5000
 41
0.5000
 70
0
  0
VERTEX
  8
0
 10
-0.2500
 20
-0.1036
 30
0.0000
  0
VERTEX
  8
0
 10
-0.2500
 20
0.1036
 30
0.0000
  0
VERTEX
  8
0
 10
-0.1036
 20
0.2500
 30
0.0000
  0
VERTEX
  8
0
 10
0.1036
 20
0.2500
 30
0.0000
  0
VERTEX
  8
0
 10
0.2500
 20
0.1036
 30
0.0000
  0
VERTEX
  8
0
 10
0.2500
 20
-0.1036
 30
0.0000
  0
VERTEX
  8
0
 10
0.1036
 20
-0.2500
 30
0.0000
  0
VERTEX
  8
0
 10
-0.1036
 20
-0.2500
 30
0.0000
  0
VERTEX
  8
0
 10
-0.2500
 20
-0.1036
 30
0.0000
  0
VERTEX
  8
0
 10
-0.2500
 20
0.1036
 30
0.0000
  0
SEQEND
  8
0
  0
ENDBLK
  8
0
  0
BLOCK
  8
0
  2
SQUAREP
 70
64
 10
0.0000
 20
0.0000
 30
0.0000
  3
SQUAREP
  0
SOLID
  8
0
 10
-0.5000
 20
-0.5000
 30
0.0000
 11
0.5000
 21
-0.5000
 31
0.0000
 12
-0.5000
 22
0.5000
 32
0.0000
 13
0.5000
 23
0.5000
 33
0.0000
  0
ENDBLK
  8
0
  0
BLOCK
  8
0
  2
ROUNDP
 70
64
 10
0.0000
 20
0.0000
 30
0.0000
  3
ROUNDP
  0
POLYLINE
  8
0
 66
1
 10
0.0000
 20
0.0000
 30
0.0000
 40
0.5000
 41
0.5000
 70
0
  0
VERTEX
  8
0
 10
0.0000
 20
-0.2500
 30
0.0000
 42
1.0000
  0
VERTEX
  8
0
 10
0.0000
 20
0.2500
 30
0.0000
 42
1.0000
  0
VERTEX
  8
0
 10
0.0000
 20
-0.2500
 30
0.0000
  0
SEQEND
  8
0
  0
ENDBLK
  8
0
  0
BLOCK
  8
0
  2
ANNULUSP
 70
64
 10
0.0000
 20
0.0000
 30
0.0000
  3
ANNULUSP
  0
POLYLINE
  8
0
 66
1
 10
0.0000
 20
0.0000
 30
0.0000
 40
0.5000
 41
0.5000
 70
0
  0
VERTEX
  8
0
 10
0.0000
 20
-0.2500
 30
0.0000
 42
1.0000
  0
VERTEX
  8
0
 10
0.0000
 20
0.2500
 30
0.0000
 42
1.0000
  0
VERTEX
  8
0
 10
0.0000
 20
-0.2500
 30
0.0000
  0
SEQEND
  8
0
  0
ENDBLK
  8
0
  0
BLOCK
  8
0
  2
THERMALP
 70
64
 10
0.0000
 20
0.0000
 30
0.0000
  3
THERMALP
  0
POLYLINE
  8
0
 66
1
 10
0.0000
 20
0.0000
 30
0.0000
 40
0.1000
 41
0.1000
 70
0
  0
VERTEX
  8
0
 10
-0.2379
 20
0.4500
 30
0.0000
  0
VERTEX
  8
0
 10
0.2379
 20
0.4500
 30
0.0000
  0
SEQEND
  8
0
  0
POLYLINE
  8
0
 66
1
 10
0.0000
 20
0.0000
 30
0.0000
 40
0.0500
 41
0.0500
 70
0
  0
VERTEX
  8
0
 10
0.2379
 20
0.4250
 30
0.0000
 42
1.0000
  0
VERTEX
  8
0
 10
0.2379
 20
0.4750
 30
0.0000
  0
SEQEND
  8
0
  0
POLYLINE
  8
0
 66
1
 10
0.0000
 20
0.0000
 30
0.0000
 40
0.0500
 41
0.0500
 70
0
  0
VERTEX
  8
0
 10
-0.2379
 20
0.4750
 30
0.0000
 42
1.0000
  0
VERTEX
  8
0
 10
-0.2379
 20
0.4250
 30
0.0000
  0
SEQEND
  8
0
  0
POLYLINE
  8
0
 66
1
 10
0.0000
 20
0.0000
 30
0.0000
 40
0.1000
 41
0.1000
 70
0
  0
VERTEX
  8
0
 10
0.4500
 20
0.2379
 30
0.0000
  0
VERTEX
  8
0
 10
0.4500
 20
-0.2379
 30
0.0000
  0
SEQEND
  8
0
  0
POLYLINE
  8
0
 66
1
 10
0.0000
 20
0.0000
 30
0.0000
 40
0.0500
 41
0.0500
 70
0
  0
VERTEX
  8
0
 10
0.4250
 20
-0.2379
 30
0.0000
 42
1.0000
  0
VERTEX
  8
0
 10
0.4750
 20
-0.2379
 30
0.0000
  0
SEQEND
  8
0
  0
POLYLINE
  8
0
 66
1
 10
0.0000
 20
0.0000
 30
0.0000
 40
0.0500
 41
0.0500
 70
0
  0
VERTEX
  8
0
 10
0.4750
 20
0.2379
 30
0.0000
 42
1.0000
  0
VERTEX
  8
0
 10
0.4250
 20
0.2379
 30
0.0000
  0
SEQEND
  8
0
  0
POLYLINE
  8
0
 66
1
 10
0.0000
 20
0.0000
 30
0.0000
 40
0.1000
 41
0.1000
 70
0
  0
VERTEX
  8
0
 10
0.2379
 20
-0.4500
 30
0.0000
  0
VERTEX
  8
0
 10
-0.2379
 20
-0.4500
 30
0.0000
  0
SEQEND
  8
0
  0
POLYLINE
  8
0
 66
1
 10
0.0000
 20
0.0000
 30
0.0000
 40
0.0500
 41
0.0500
 70
0
  0
VERTEX
  8
0
 10
-0.2379
 20
-0.4250
 30
0.0000
 42
1.0000
  0
VERTEX
  8
0
 10
-0.2379
 20
-0.4750
 30
0.0000
  0
SEQEND
  8
0
  0
POLYLINE
  8
0
 66
1
 10
0.0000
 20
0.0000
 30
0.0000
 40
0.0500
 41
0.0500
 70
0
  0
VERTEX
  8
0
 10
0.2379
 20
-0.4750
 30
0.0000
 42
1.0000
  0
VERTEX
  8
0
 10
0.2379
 20
-0.4250
 30
0.0000
  0
SEQEND
  8
0
  0
POLYLINE
  8
0
 66
1
 10
0.0000
 20
0.0000
 30
0.0000
 40
0.1000
 41
0.1000
 70
0
  0
VERTEX
  8
0
 10
-0.4500
 20
-0.2379
 30
0.0000
  0
VERTEX
  8
0
 10
-0.4500
 20
0.2379
 30
0.0000
  0
SEQEND
  8
0
  0
POLYLINE
  8
0
 66
1
 10
0.0000
 20
0.0000
 30
0.0000
 40
0.0500
 41
0.0500
 70
0
  0
VERTEX
  8
0
 10
-0.4250
 20
0.2379
 30
0.0000
 42
1.0000
  0
VERTEX
  8
0
 10
-0.4750
 20
0.2379
 30
0.0000
  0
SEQEND
  8
0
  0
POLYLINE
  8
0
 66
1
 10
0.0000
 20
0.0000
 30
0.0000
 40
0.0500
 41
0.0500
 70
0
  0
VERTEX
  8
0
 10
-0.4750
 20
-0.2379
 30
0.0000
 42
1.0000
  0
VERTEX
  8
0
 10
-0.4250
 20
-0.2379
 30
0.0000
  0
SEQEND
  8
0
  0
ENDBLK
  8
0
  0
BLOCK
  8
0
  2
OCTAGONV
 70
64
 10
0.0000
 20
0.0000
 30
0.0000
  3
OCTAGONV
  0
POLYLINE
  8
0
 66
1
 10
0.0000
 20
0.0000
 30
0.0000
 40
0.5000
 41
0.5000
 70
0
  0
VERTEX
  8
0
 10
-0.2500
 20
-0.1036
 30
0.0000
  0
VERTEX
  8
0
 10
-0.2500
 20
0.1036
 30
0.0000
  0
VERTEX
  8
0
 10
-0.1036
 20
0.2500
 30
0.0000
  0
VERTEX
  8
0
 10
0.1036
 20
0.2500
 30
0.0000
  0
VERTEX
  8
0
 10
0.2500
 20
0.1036
 30
0.0000
  0
VERTEX
  8
0
 10
0.2500
 20
-0.1036
 30
0.0000
  0
VERTEX
  8
0
 10
0.1036
 20
-0.2500
 30
0.0000
  0
VERTEX
  8
0
 10
-0.1036
 20
-0.2500
 30
0.0000
  0
VERTEX
  8
0
 10
-0.2500
 20
-0.1036
 30
0.0000
  0
VERTEX
  8
0
 10
-0.2500
 20
0.1036
 30
0.0000
  0
SEQEND
  8
0
  0
ENDBLK
  8
0
  0
BLOCK
  8
0
  2
SQUAREV
 70
64
 10
0.0000
 20
0.0000
 30
0.0000
  3
SQUAREV
  0
SOLID
  8
0
 10
-0.5000
 20
-0.5000
 30
0.0000
 11
0.5000
 21
-0.5000
 31
0.0000
 12
-0.5000
 22
0.5000
 32
0.0000
 13
0.5000
 23
0.5000
 33
0.0000
  0
ENDBLK
  8
0
  0
BLOCK
  8
0
  2
ROUNDV
 70
64
 10
0.0000
 20
0.0000
 30
0.0000
  3
ROUNDV
  0
POLYLINE
  8
0
 66
1
 10
0.0000
 20
0.0000
 30
0.0000
 40
0.5000
 41
0.5000
 70
0
  0
VERTEX
  8
0
 10
0.0000
 20
-0.2500
 30
0.0000
 42
1.0000
  0
VERTEX
  8
0
 10
0.0000
 20
0.2500
 30
0.0000
 42
1.0000
  0
VERTEX
  8
0
 10
0.0000
 20
-0.2500
 30
0.0000
  0
SEQEND
  8
0
  0
ENDBLK
  8
0
  0
BLOCK
  8
0
  2
ANNULUSV
 70
64
 10
0.0000
 20
0.0000
 30
0.0000
  3
ANNULUSV
  0
POLYLINE
  8
0
 66
1
 10
0.0000
 20
0.0000
 30
0.0000
 40
0.5000
 41
0.5000
 70
0
  0
VERTEX
  8
0
 10
0.0000
 20
-0.2500
 30
0.0000
 42
1.0000
  0
VERTEX
  8
0
 10
0.0000
 20
0.2500
 30
0.0000
 42
1.0000
  0
VERTEX
  8
0
 10
0.0000
 20
-0.2500
 30
0.0000
  0
SEQEND
  8
0
  0
ENDBLK
  8
0
  0
BLOCK
  8
0
  2
THERMALV
 70
64
 10
0.0000
 20
0.0000
 30
0.0000
  3
THERMALV
  0
POLYLINE
  8
0
 66
1
 10
0.0000
 20
0.0000
 30
0.0000
 40
0.1000
 41
0.1000
 70
0
  0
VERTEX
  8
0
 10
-0.2379
 20
0.4500
 30
0.0000
  0
VERTEX
  8
0
 10
0.2379
 20
0.4500
 30
0.0000
  0
SEQEND
  8
0
  0
POLYLINE
  8
0
 66
1
 10
0.0000
 20
0.0000
 30
0.0000
 40
0.0500
 41
0.0500
 70
0
  0
VERTEX
  8
0
 10
0.2379
 20
0.4250
 30
0.0000
 42
1.0000
  0
VERTEX
  8
0
 10
0.2379
 20
0.4750
 30
0.0000
  0
SEQEND
  8
0
  0
POLYLINE
  8
0
 66
1
 10
0.0000
 20
0.0000
 30
0.0000
 40
0.0500
 41
0.0500
 70
0
  0
VERTEX
  8
0
 10
-0.2379
 20
0.4750
 30
0.0000
 42
1.0000
  0
VERTEX
  8
0
 10
-0.2379
 20
0.4250
 30
0.0000
  0
SEQEND
  8
0
  0
POLYLINE
  8
0
 66
1
 10
0.0000
 20
0.0000
 30
0.0000
 40
0.1000
 41
0.1000
 70
0
  0
VERTEX
  8
0
 10
0.4500
 20
0.2379
 30
0.0000
  0
VERTEX
  8
0
 10
0.4500
 20
-0.2379
 30
0.0000
  0
SEQEND
  8
0
  0
POLYLINE
  8
0
 66
1
 10
0.0000
 20
0.0000
 30
0.0000
 40
0.0500
 41
0.0500
 70
0
  0
VERTEX
  8
0
 10
0.4250
 20
-0.2379
 30
0.0000
 42
1.0000
  0
VERTEX
  8
0
 10
0.4750
 20
-0.2379
 30
0.0000
  0
SEQEND
  8
0
  0
POLYLINE
  8
0
 66
1
 10
0.0000
 20
0.0000
 30
0.0000
 40
0.0500
 41
0.0500
 70
0
  0
VERTEX
  8
0
 10
0.4750
 20
0.2379
 30
0.0000
 42
1.0000
  0
VERTEX
  8
0
 10
0.4250
 20
0.2379
 30
0.0000
  0
SEQEND
  8
0
  0
POLYLINE
  8
0
 66
1
 10
0.0000
 20
0.0000
 30
0.0000
 40
0.1000
 41
0.1000
 70
0
  0
VERTEX
  8
0
 10
0.2379
 20
-0.4500
 30
0.0000
  0
VERTEX
  8
0
 10
-0.2379
 20
-0.4500
 30
0.0000
  0
SEQEND
  8
0
  0
POLYLINE
  8
0
 66
1
 10
0.0000
 20
0.0000
 30
0.0000
 40
0.0500
 41
0.0500
 70
0
  0
VERTEX
  8
0
 10
-0.2379
 20
-0.4250
 30
0.0000
 42
1.0000
  0
VERTEX
  8
0
 10
-0.2379
 20
-0.4750
 30
0.0000
  0
SEQEND
  8
0
  0
POLYLINE
  8
0
 66
1
 10
0.0000
 20
0.0000
 30
0.0000
 40
0.0500
 41
0.0500
 70
0
  0
VERTEX
  8
0
 10
0.2379
 20
-0.4750
 30
0.0000
 42
1.0000
  0
VERTEX
  8
0
 10
0.2379
 20
-0.4250
 30
0.0000
  0
SEQEND
  8
0
  0
POLYLINE
  8
0
 66
1
 10
0.0000
 20
0.0000
 30
0.0000
 40
0.1000
 41
0.1000
 70
0
  0
VERTEX
  8
0
 10
-0.4500
 20
-0.2379
 30
0.0000
  0
VERTEX
  8
0
 10
-0.4500
 20
0.2379
 30
0.0000
  0
SEQEND
  8
0
  0
POLYLINE
  8
0
 66
1
 10
0.0000
 20
0.0000
 30
0.0000
 40
0.0500
 41
0.0500
 70
0
  0
VERTEX
  8
0
 10
-0.4250
 20
0.2379
 30
0.0000
 42
1.0000
  0
VERTEX
  8
0
 10
-0.4750
 20
0.2379
 30
0.0000
  0
SEQEND
  8
0
  0
POLYLINE
  8
0
 66
1
 10
0.0000
 20
0.0000
 30
0.0000
 40
0.0500
 41
0.0500
 70
0
  0
VERTEX
  8
0
 10
-0.4750
 20
-0.2379
 30
0.0000
 42
1.0000
  0
VERTEX
  8
0
 10
-0.4250
 20
-0.2379
 30
0.0000
  0
SEQEND
  8
0
  0
ENDBLK
  8
0
  0
ENDSEC
  0
SECTION
  2
ENTITIES
  0
LINE
  8
21
 10
137.1600
 20
0.0000
 30
0.0000
 11
137.1600
 21
128.5000
 31
0.0000
  0
LINE
  8
21
 10
137.1600
 20
128.5000
 30
0.0000
 11
0.0000
 21
128.5000
 31
0.0000
  0
LINE
  8
21
 10
0.0000
 20
128.5000
 30
0.0000
 11
0.0000
 21
0.0000
 31
0.0000
  0
LINE
  8
20
 10
137.1600
 20
0.0000
 30
0.0000
 11
137.1600
 21
128.5000
 31
0.0000
  0
LINE
  8
20
 10
137.1600
 20
128.5000
 30
0.0000
 11
0.0000
 21
128.5000
 31
0.0000
  0
LINE
  8
20
 10
0.0000
 20
128.5000
 30
0.0000
 11
0.0000
 21
0.0000
 31
0.0000
  0
LINE
  8
20
 10
0.0000
 20
0.0000
 30
0.0000
 11
137.1600
 21
0.0000
 31
0.0000
  0
POLYLINE
  8
21
 66
1
 10
0.0000
 20
0.0000
 30
0.0000
 40
0.4064
 41
0.4064
 70
0
  0
VERTEX
  8
21
 10
79.0000
 20
84.5000
 30
0.0000
 42
1.0000
  0
VERTEX
  8
21
 10
79.0000
 20
91.5000
 30
0.0000
 42
1.0000
  0
VERTEX
  8
21
 10
79.0000
 20
84.5000
 30
0.0000
  0
SEQEND
  8
0
  0
POLYLINE
  8
21
 66
1
 10
0.0000
 20
0.0000
 30
0.0000
 40
0.4064
 41
0.4064
 70
0
  0
VERTEX
  8
21
 10
39.0000
 20
36.5000
 30
0.0000
 42
1.0000
  0
VERTEX
  8
21
 10
39.0000
 20
43.5000
 30
0.0000
 42
1.0000
  0
VERTEX
  8
21
 10
39.0000
 20
36.5000
 30
0.0000
  0
SEQEND
  8
0
  0
POLYLINE
  8
21
 66
1
 10
0.0000
 20
0.0000
 30
0.0000
 40
0.4064
 41
0.4064
 70
0
  0
VERTEX
  8
21
 10
79.0000
 20
99.5000
 30
0.0000
 42
1.0000
  0
VERTEX
  8
21
 10
79.0000
 20
106.5000
 30
0.0000
 42
1.0000
  0
VERTEX
  8
21
 10
79.0000
 20
99.5000
 30
0.0000
  0
SEQEND
  8
0
  0
POLYLINE
  8
21
 66
1
 10
0.0000
 20
0.0000
 30
0.0000
 40
0.4064
 41
0.4064
 70
0
  0
VERTEX
  8
21
 10
62.0000
 20
83.5000
 30
0.0000
 42
1.0000
  0
VERTEX
  8
21
 10
62.0000
 20
90.5000
 30
0.0000
 42
1.0000
  0
VERTEX
  8
21
 10
62.0000
 20
83.5000
 30
0.0000
  0
SEQEND
  8
0
  0
POLYLINE
  8
21
 66
1
 10
0.0000
 20
0.0000
 30
0.0000
 40
0.4064
 41
0.4064
 70
0
  0
VERTEX
  8
21
 10
19.0000
 20
19.5000
 30
0.0000
 42
1.0000
  0
VERTEX
  8
21
 10
19.0000
 20
26.5000
 30
0.0000
 42
1.0000
  0
VERTEX
  8
21
 10
19.0000
 20
19.5000
 30
0.0000
  0
SEQEND
  8
0
  0
POLYLINE
  8
21
 66
1
 10
0.0000
 20
0.0000
 30
0.0000
 40
0.4064
 41
0.4064
 70
0
  0
VERTEX
  8
21
 10
59.0000
 20
99.5000
 30
0.0000
 42
1.0000
  0
VERTEX
  8
21
 10
59.0000
 20
106.5000
 30
0.0000
 42
1.0000
  0
VERTEX
  8
21
 10
59.0000
 20
99.5000
 30
0.0000
  0
SEQEND
  8
0
  0
POLYLINE
  8
21
 66
1
 10
0.0000
 20
0.0000
 30
0.0000
 40
0.4064
 41
0.4064
 70
0
  0
VERTEX
  8
21
 10
39.0000
 20
99.5000
 30
0.0000
 42
1.0000
  0
VERTEX
  8
21
 10
39.0000
 20
106.5000
 30
0.0000
 42
1.0000
  0
VERTEX
  8
21
 10
39.0000
 20
99.5000
 30
0.0000
  0
SEQEND
  8
0
  0
POLYLINE
  8
21
 66
1
 10
0.0000
 20
0.0000
 30
0.0000
 40
0.4064
 41
0.4064
 70
0
  0
VERTEX
  8
21
 10
39.0000
 20
59.5000
 30
0.0000
 42
1.0000
  0
VERTEX
  8
21
 10
39.0000
 20
66.5000
 30
0.0000
 42
1.0000
  0
VERTEX
  8
21
 10
39.0000
 20
59.5000
 30
0.0000
  0
SEQEND
  8
0
  0
POLYLINE
  8
21
 66
1
 10
0.0000
 20
0.0000
 30
0.0000
 40
0.4064
 41
0.4064
 70
0
  0
VERTEX
  8
21
 10
39.0000
 20
79.5000
 30
0.0000
 42
1.0000
  0
VERTEX
  8
21
 10
39.0000
 20
86.5000
 30
0.0000
 42
1.0000
  0
VERTEX
  8
21
 10
39.0000
 20
79.5000
 30
0.0000
  0
SEQEND
  8
0
  0
POLYLINE
  8
21
 66
1
 10
0.0000
 20
0.0000
 30
0.0000
 40
0.4064
 41
0.4064
 70
0
  0
VERTEX
  8
21
 10
97.0000
 20
87.5000
 30
0.0000
 42
1.0000
  0
VERTEX
  8
21
 10
97.0000
 20
94.5000
 30
0.0000
 42
1.0000
  0
VERTEX
  8
21
 10
97.0000
 20
87.5000
 30
0.0000
  0
SEQEND
  8
0
  0
POLYLINE
  8
21
 66
1
 10
0.0000
 20
0.0000
 30
0.0000
 40
0.4064
 41
0.4064
 70
0
  0
VERTEX
  8
21
 10
59.0000
 20
60.5000
 30
0.0000
 42
1.0000
  0
VERTEX
  8
21
 10
59.0000
 20
67.5000
 30
0.0000
 42
1.0000
  0
VERTEX
  8
21
 10
59.0000
 20
60.5000
 30
0.0000
  0
SEQEND
  8
0
  0
POLYLINE
  8
21
 66
1
 10
0.0000
 20
0.0000
 30
0.0000
 40
0.4064
 41
0.4064
 70
0
  0
VERTEX
  8
21
 10
97.0000
 20
63.5000
 30
0.0000
 42
1.0000
  0
VERTEX
  8
21
 10
97.0000
 20
70.5000
 30
0.0000
 42
1.0000
  0
VERTEX
  8
21
 10
97.0000
 20
63.5000
 30
0.0000
  0
SEQEND
  8
0
  0
POLYLINE
  8
21
 66
1
 10
0.0000
 20
0.0000
 30
0.0000
 40
0.4064
 41
0.4064
 70
0
  0
VERTEX
  8
21
 10
97.0000
 20
36.5000
 30
0.0000
 42
1.0000
  0
VERTEX
  8
21
 10
97.0000
 20
43.5000
 30
0.0000
 42
1.0000
  0
VERTEX
  8
21
 10
97.0000
 20
36.5000
 30
0.0000
  0
SEQEND
  8
0
  0
POLYLINE
  8
21
 66
1
 10
0.0000
 20
0.0000
 30
0.0000
 40
0.4064
 41
0.4064
 70
0
  0
VERTEX
  8
21
 10
79.0000
 20
59.5000
 30
0.0000
 42
1.0000
  0
VERTEX
  8
21
 10
79.0000
 20
66.5000
 30
0.0000
 42
1.0000
  0
VERTEX
  8
21
 10
79.0000
 20
59.5000
 30
0.0000
  0
SEQEND
  8
0
  0
POLYLINE
  8
21
 66
1
 10
0.0000
 20
0.0000
 30
0.0000
 40
0.4064
 41
0.4064
 70
0
  0
VERTEX
  8
21
 10
59.0000
 20
36.5000
 30
0.0000
 42
1.0000
  0
VERTEX
  8
21
 10
59.0000
 20
43.5000
 30
0.0000
 42
1.0000
  0
VERTEX
  8
21
 10
59.0000
 20
36.5000
 30
0.0000
  0
SEQEND
  8
0
  0
POLYLINE
  8
21
 66
1
 10
0.0000
 20
0.0000
 30
0.0000
 40
0.4064
 41
0.4064
 70
0
  0
VERTEX
  8
21
 10
79.0000
 20
36.5000
 30
0.0000
 42
1.0000
  0
VERTEX
  8
21
 10
79.0000
 20
43.5000
 30
0.0000
 42
1.0000
  0
VERTEX
  8
21
 10
79.0000
 20
36.5000
 30
0.0000
  0
SEQEND
  8
0
  0
POLYLINE
  8
21
 66
1
 10
0.0000
 20
0.0000
 30
0.0000
 40
0.4064
 41
0.4064
 70
0
  0
VERTEX
  8
21
 10
128.0000
 20
30.5000
 30
0.0000
 42
1.0000
  0
VERTEX
  8
21
 10
128.0000
 20
37.5000
 30
0.0000
 42
1.0000
  0
VERTEX
  8
21
 10
128.0000
 20
30.5000
 30
0.0000
  0
SEQEND
  8
0
  0
POLYLINE
  8
21
 66
1
 10
0.0000
 20
0.0000
 30
0.0000
 40
0.4064
 41
0.4064
 70
0
  0
VERTEX
  8
21
 10
114.0000
 20
30.5000
 30
0.0000
 42
1.0000
  0
VERTEX
  8
21
 10
114.0000
 20
37.5000
 30
0.0000
 42
1.0000
  0
VERTEX
  8
21
 10
114.0000
 20
30.5000
 30
0.0000
  0
SEQEND
  8
0
  0
POLYLINE
  8
21
 66
1
 10
0.0000
 20
0.0000
 30
0.0000
 40
0.4064
 41
0.4064
 70
0
  0
VERTEX
  8
21
 10
114.0000
 20
41.5000
 30
0.0000
 42
1.0000
  0
VERTEX
  8
21
 10
114.0000
 20
48.5000
 30
0.0000
 42
1.0000
  0
VERTEX
  8
21
 10
114.0000
 20
41.5000
 30
0.0000
  0
SEQEND
  8
0
  0
POLYLINE
  8
21
 66
1
 10
0.0000
 20
0.0000
 30
0.0000
 40
0.4064
 41
0.4064
 70
0
  0
VERTEX
  8
21
 10
114.0000
 20
56.5000
 30
0.0000
 42
1.0000
  0
VERTEX
  8
21
 10
114.0000
 20
63.5000
 30
0.0000
 42
1.0000
  0
VERTEX
  8
21
 10
114.0000
 20
56.5000
 30
0.0000
  0
SEQEND
  8
0
  0
POLYLINE
  8
21
 66
1
 10
0.0000
 20
0.0000
 30
0.0000
 40
0.4064
 41
0.4064
 70
0
  0
VERTEX
  8
21
 10
114.0000
 20
56.5000
 30
0.0000
 42
1.0000
  0
VERTEX
  8
21
 10
114.0000
 20
63.5000
 30
0.0000
 42
1.0000
  0
VERTEX
  8
21
 10
114.0000
 20
56.5000
 30
0.0000
  0
SEQEND
  8
0
  0
INSERT
  8
30
  2
RECT
 10
73.0000
 20
125.5000
 30
0.0000
 41
148.0000
 42
9.0000
 43
1.0000
 50
0.0000
  0
INSERT
  8
30
  2
RECT
 10
72.3000
 20
4.6000
 30
0.0000
 41
146.0000
 42
10.0000
 43
1.0000
 50
0.0000
  0
POINT
  8
23
 10
7.5000
 20
3.0000
 30
0.0000
  0
POLYLINE
  8
20
 66
1
 10
0.0000
 20
0.0000
 30
0.0000
 40
0.0025
 41
0.0025
 70
0
  0
VERTEX
  8
20
 10
8.7700
 20
1.4000
 30
0.0000
  0
VERTEX
  8
20
 10
6.2300
 20
1.4000
 30
0.0000
  0
SEQEND
  8
0
  0
POLYLINE
  8
20
 66
1
 10
0.0000
 20
0.0000
 30
0.0000
 40
0.0013
 41
0.0013
 70
0
  0
VERTEX
  8
20
 10
6.2300
 20
1.4006
 30
0.0000
 42
1.0000
  0
VERTEX
  8
20
 10
6.2300
 20
1.3994
 30
0.0000
  0
SEQEND
  8
0
  0
POLYLINE
  8
20
 66
1
 10
0.0000
 20
0.0000
 30
0.0000
 40
0.0013
 41
0.0013
 70
0
  0
VERTEX
  8
20
 10
8.7700
 20
1.3994
 30
0.0000
 42
1.0000
  0
VERTEX
  8
20
 10
8.7700
 20
1.4006
 30
0.0000
  0
SEQEND
  8
0
  0
POLYLINE
  8
20
 66
1
 10
0.0000
 20
0.0000
 30
0.0000
 40
0.0025
 41
0.0025
 70
0
  0
VERTEX
  8
20
 10
8.7700
 20
4.6000
 30
0.0000
  0
VERTEX
  8
20
 10
6.2300
 20
4.6000
 30
0.0000
  0
SEQEND
  8
0
  0
POLYLINE
  8
20
 66
1
 10
0.0000
 20
0.0000
 30
0.0000
 40
0.0013
 41
0.0013
 70
0
  0
VERTEX
  8
20
 10
6.2300
 20
4.6006
 30
0.0000
 42
1.0000
  0
VERTEX
  8
20
 10
6.2300
 20
4.5994
 30
0.0000
  0
SEQEND
  8
0
  0
POLYLINE
  8
20
 66
1
 10
0.0000
 20
0.0000
 30
0.0000
 40
0.0013
 41
0.0013
 70
0
  0
VERTEX
  8
20
 10
8.7700
 20
4.5994
 30
0.0000
 42
1.0000
  0
VERTEX
  8
20
 10
8.7700
 20
4.6006
 30
0.0000
  0
SEQEND
  8
0
  0
POLYLINE
  8
20
 66
1
 10
0.0000
 20
0.0000
 30
0.0000
 40
0.0025
 41
0.0025
 70
0
  0
VERTEX
  8
20
 10
6.2300
 20
4.6000
 30
0.0000
 42
1.0000
  0
VERTEX
  8
20
 10
6.2300
 20
1.4000
 30
0.0000
  0
SEQEND
  8
0
  0
POLYLINE
  8
20
 66
1
 10
0.0000
 20
0.0000
 30
0.0000
 40
0.0013
 41
0.0013
 70
0
  0
VERTEX
  8
20
 10
6.2300
 20
4.5994
 30
0.0000
 42
1.0000
  0
VERTEX
  8
20
 10
6.2300
 20
4.6006
 30
0.0000
  0
SEQEND
  8
0
  0
POLYLINE
  8
20
 66
1
 10
0.0000
 20
0.0000
 30
0.0000
 40
0.0013
 41
0.0013
 70
0
  0
VERTEX
  8
20
 10
6.2300
 20
1.3994
 30
0.0000
 42
1.0000
  0
VERTEX
  8
20
 10
6.2300
 20
1.4006
 30
0.0000
  0
SEQEND
  8
0
  0
POLYLINE
  8
20
 66
1
 10
0.0000
 20
0.0000
 30
0.0000
 40
0.0025
 41
0.0025
 70
0
  0
VERTEX
  8
20
 10
8.7700
 20
1.4000
 30
0.0000
 42
1.0000
  0
VERTEX
  8
20
 10
8.7700
 20
4.6000
 30
0.0000
  0
SEQEND
  8
0
  0
POLYLINE
  8
20
 66
1
 10
0.0000
 20
0.0000
 30
0.0000
 40
0.0013
 41
0.0013
 70
0
  0
VERTEX
  8
20
 10
8.7700
 20
1.4006
 30
0.0000
 42
1.0000
  0
VERTEX
  8
20
 10
8.7700
 20
1.3994
 30
0.0000
  0
SEQEND
  8
0
  0
POLYLINE
  8
20
 66
1
 10
0.0000
 20
0.0000
 30
0.0000
 40
0.0013
 41
0.0013
 70
0
  0
VERTEX
  8
20
 10
8.7700
 20
4.6006
 30
0.0000
 42
1.0000
  0
VERTEX
  8
20
 10
8.7700
 20
4.5994
 30
0.0000
  0
SEQEND
  8
0
  0
POLYLINE
  8
46
 66
1
 10
0.0000
 20
0.0000
 30
0.0000
 40
3.2000
 41
3.2000
 70
0
  0
VERTEX
  8
46
 10
8.7700
 20
3.0000
 30
0.0000
  0
VERTEX
  8
46
 10
6.2300
 20
3.0000
 30
0.0000
  0
SEQEND
  8
0
  0
POLYLINE
  8
46
 66
1
 10
0.0000
 20
0.0000
 30
0.0000
 40
1.6000
 41
1.6000
 70
0
  0
VERTEX
  8
46
 10
6.2300
 20
3.8000
 30
0.0000
 42
1.0000
  0
VERTEX
  8
46
 10
6.2300
 20
2.2000
 30
0.0000
  0
SEQEND
  8
0
  0
POLYLINE
  8
46
 66
1
 10
0.0000
 20
0.0000
 30
0.0000
 40
1.6000
 41
1.6000
 70
0
  0
VERTEX
  8
46
 10
8.7700
 20
2.2000
 30
0.0000
 42
1.0000
  0
VERTEX
  8
46
 10
8.7700
 20
3.8000
 30
0.0000
  0
SEQEND
  8
0
  0
POLYLINE
  8
20
 66
1
 10
0.0000
 20
0.0000
 30
0.0000
 40
0.0508
 41
0.0508
 70
0
  0
VERTEX
  8
20
 10
5.5442
 20
3.2376
 30
0.0000
  0
VERTEX
  8
20
 10
5.4256
 20
3.3562
 30
0.0000
  0
SEQEND
  8
0
  0
POLYLINE
  8
20
 66
1
 10
0.0000
 20
0.0000
 30
0.0000
 40
0.0254
 41
0.0254
 70
0
  0
VERTEX
  8
20
 10
5.4345
 20
3.3652
 30
0.0000
 42
1.0000
  0
VERTEX
  8
20
 10
5.4166
 20
3.3472
 30
0.0000
  0
SEQEND
  8
0
  0
POLYLINE
  8
20
 66
1
 10
0.0000
 20
0.0000
 30
0.0000
 40
0.0254
 41
0.0254
 70
0
  0
VERTEX
  8
20
 10
5.5352
 20
3.2286
 30
0.0000
 42
1.0000
  0
VERTEX
  8
20
 10
5.5532
 20
3.2466
 30
0.0000
  0
SEQEND
  8
0
  0
POLYLINE
  8
20
 66
1
 10
0.0000
 20
0.0000
 30
0.0000
 40
0.0508
 41
0.0508
 70
0
  0
VERTEX
  8
20
 10
5.4256
 20
3.3562
 30
0.0000
  0
VERTEX
  8
20
 10
5.1883
 20
3.3562
 30
0.0000
  0
SEQEND
  8
0
  0
POLYLINE
  8
20
 66
1
 10
0.0000
 20
0.0000
 30
0.0000
 40
0.0254
 41
0.0254
 70
0
  0
VERTEX
  8
20
 10
5.1883
 20
3.3689
 30
0.0000
 42
1.0000
  0
VERTEX
  8
20
 10
5.1883
 20
3.3435
 30
0.0000
  0
SEQEND
  8
0
  0
POLYLINE
  8
20
 66
1
 10
0.0000
 20
0.0000
 30
0.0000
 40
0.0254
 41
0.0254
 70
0
  0
VERTEX
  8
20
 10
5.4256
 20
3.3435
 30
0.0000
 42
1.0000
  0
VERTEX
  8
20
 10
5.4256
 20
3.3689
 30
0.0000
  0
SEQEND
  8
0
  0
POLYLINE
  8
20
 66
1
 10
0.0000
 20
0.0000
 30
0.0000
 40
0.0508
 41
0.0508
 70
0
  0
VERTEX
  8
20
 10
5.1883
 20
3.3562
 30
0.0000
  0
VERTEX
  8
20
 10
5.0697
 20
3.2376
 30
0.0000
  0
SEQEND
  8
0
  0
POLYLINE
  8
20
 66
1
 10
0.0000
 20
0.0000
 30
0.0000
 40
0.0254
 41
0.0254
 70
0
  0
VERTEX
  8
20
 10
5.0607
 20
3.2466
 30
0.0000
 42
1.0000
  0
VERTEX
  8
20
 10
5.0786
 20
3.2286
 30
0.0000
  0
SEQEND
  8
0
  0
POLYLINE
  8
20
 66
1
 10
0.0000
 20
0.0000
 30
0.0000
 40
0.0254
 41
0.0254
 70
0
  0
VERTEX
  8
20
 10
5.1973
 20
3.3472
 30
0.0000
 42
1.0000
  0
VERTEX
  8
20
 10
5.1793
 20
3.3652
 30
0.0000
  0
SEQEND
  8
0
  0
POLYLINE
  8
20
 66
1
 10
0.0000
 20
0.0000
 30
0.0000
 40
0.0508
 41
0.0508
 70
0
  0
VERTEX
  8
20
 10
5.0697
 20
3.2376
 30
0.0000
  0
VERTEX
  8
20
 10
5.0697
 20
2.7630
 30
0.0000
  0
SEQEND
  8
0
  0
POLYLINE
  8
20
 66
1
 10
0.0000
 20
0.0000
 30
0.0000
 40
0.0254
 41
0.0254
 70
0
  0
VERTEX
  8
20
 10
5.0570
 20
2.7630
 30
0.0000
 42
1.0000
  0
VERTEX
  8
20
 10
5.0824
 20
2.7630
 30
0.0000
  0
SEQEND
  8
0
  0
POLYLINE
  8
20
 66
1
 10
0.0000
 20
0.0000
 30
0.0000
 40
0.0254
 41
0.0254
 70
0
  0
VERTEX
  8
20
 10
5.0824
 20
3.2376
 30
0.0000
 42
1.0000
  0
VERTEX
  8
20
 10
5.0570
 20
3.2376
 30
0.0000
  0
SEQEND
  8
0
  0
POLYLINE
  8
20
 66
1
 10
0.0000
 20
0.0000
 30
0.0000
 40
0.0508
 41
0.0508
 70
0
  0
VERTEX
  8
20
 10
5.0697
 20
2.7630
 30
0.0000
  0
VERTEX
  8
20
 10
5.1883
 20
2.6444
 30
0.0000
  0
SEQEND
  8
0
  0
POLYLINE
  8
20
 66
1
 10
0.0000
 20
0.0000
 30
0.0000
 40
0.0254
 41
0.0254
 70
0
  0
VERTEX
  8
20
 10
5.1793
 20
2.6354
 30
0.0000
 42
1.0000
  0
VERTEX
  8
20
 10
5.1973
 20
2.6534
 30
0.0000
  0
SEQEND
  8
0
  0
POLYLINE
  8
20
 66
1
 10
0.0000
 20
0.0000
 30
0.0000
 40
0.0254
 41
0.0254
 70
0
  0
VERTEX
  8
20
 10
5.0786
 20
2.7720
 30
0.0000
 42
1.0000
  0
VERTEX
  8
20
 10
5.0607
 20
2.7541
 30
0.0000
  0
SEQEND
  8
0
  0
POLYLINE
  8
20
 66
1
 10
0.0000
 20
0.0000
 30
0.0000
 40
0.0508
 41
0.0508
 70
0
  0
VERTEX
  8
20
 10
5.1883
 20
2.6444
 30
0.0000
  0
VERTEX
  8
20
 10
5.4256
 20
2.6444
 30
0.0000
  0
SEQEND
  8
0
  0
POLYLINE
  8
20
 66
1
 10
0.0000
 20
0.0000
 30
0.0000
 40
0.0254
 41
0.0254
 70
0
  0
VERTEX
  8
20
 10
5.4256
 20
2.6317
 30
0.0000
 42
1.0000
  0
VERTEX
  8
20
 10
5.4256
 20
2.6571
 30
0.0000
  0
SEQEND
  8
0
  0
POLYLINE
  8
20
 66
1
 10
0.0000
 20
0.0000
 30
0.0000
 40
0.0254
 41
0.0254
 70
0
  0
VERTEX
  8
20
 10
5.1883
 20
2.6571
 30
0.0000
 42
1.0000
  0
VERTEX
  8
20
 10
5.1883
 20
2.6317
 30
0.0000
  0
SEQEND
  8
0
  0
POLYLINE
  8
20
 66
1
 10
0.0000
 20
0.0000
 30
0.0000
 40
0.0508
 41
0.0508
 70
0
  0
VERTEX
  8
20
 10
5.4256
 20
2.6444
 30
0.0000
  0
VERTEX
  8
20
 10
5.5442
 20
2.7630
 30
0.0000
  0
SEQEND
  8
0
  0
POLYLINE
  8
20
 66
1
 10
0.0000
 20
0.0000
 30
0.0000
 40
0.0254
 41
0.0254
 70
0
  0
VERTEX
  8
20
 10
5.5532
 20
2.7541
 30
0.0000
 42
1.0000
  0
VERTEX
  8
20
 10
5.5352
 20
2.7720
 30
0.0000
  0
SEQEND
  8
0
  0
POLYLINE
  8
20
 66
1
 10
0.0000
 20
0.0000
 30
0.0000
 40
0.0254
 41
0.0254
 70
0
  0
VERTEX
  8
20
 10
5.4166
 20
2.6534
 30
0.0000
 42
1.0000
  0
VERTEX
  8
20
 10
5.4345
 20
2.6354
 30
0.0000
  0
SEQEND
  8
0
  0
POLYLINE
  8
20
 66
1
 10
0.0000
 20
0.0000
 30
0.0000
 40
0.0508
 41
0.0508
 70
0
  0
VERTEX
  8
20
 10
5.7713
 20
3.3562
 30
0.0000
  0
VERTEX
  8
20
 10
5.7713
 20
2.7630
 30
0.0000
  0
SEQEND
  8
0
  0
POLYLINE
  8
20
 66
1
 10
0.0000
 20
0.0000
 30
0.0000
 40
0.0254
 41
0.0254
 70
0
  0
VERTEX
  8
20
 10
5.7586
 20
2.7630
 30
0.0000
 42
1.0000
  0
VERTEX
  8
20
 10
5.7840
 20
2.7630
 30
0.0000
  0
SEQEND
  8
0
  0
POLYLINE
  8
20
 66
1
 10
0.0000
 20
0.0000
 30
0.0000
 40
0.0254
 41
0.0254
 70
0
  0
VERTEX
  8
20
 10
5.7840
 20
3.3562
 30
0.0000
 42
1.0000
  0
VERTEX
  8
20
 10
5.7586
 20
3.3562
 30
0.0000
  0
SEQEND
  8
0
  0
POLYLINE
  8
20
 66
1
 10
0.0000
 20
0.0000
 30
0.0000
 40
0.0508
 41
0.0508
 70
0
  0
VERTEX
  8
20
 10
5.7713
 20
2.7630
 30
0.0000
  0
VERTEX
  8
20
 10
5.8899
 20
2.6444
 30
0.0000
  0
SEQEND
  8
0
  0
POLYLINE
  8
20
 66
1
 10
0.0000
 20
0.0000
 30
0.0000
 40
0.0254
 41
0.0254
 70
0
  0
VERTEX
  8
20
 10
5.8810
 20
2.6354
 30
0.0000
 42
1.0000
  0
VERTEX
  8
20
 10
5.8989
 20
2.6534
 30
0.0000
  0
SEQEND
  8
0
  0
POLYLINE
  8
20
 66
1
 10
0.0000
 20
0.0000
 30
0.0000
 40
0.0254
 41
0.0254
 70
0
  0
VERTEX
  8
20
 10
5.7803
 20
2.7720
 30
0.0000
 42
1.0000
  0
VERTEX
  8
20
 10
5.7623
 20
2.7541
 30
0.0000
  0
SEQEND
  8
0
  0
POLYLINE
  8
20
 66
1
 10
0.0000
 20
0.0000
 30
0.0000
 40
0.0508
 41
0.0508
 70
0
  0
VERTEX
  8
20
 10
5.8899
 20
2.6444
 30
0.0000
  0
VERTEX
  8
20
 10
6.1272
 20
2.6444
 30
0.0000
  0
SEQEND
  8
0
  0
POLYLINE
  8
20
 66
1
 10
0.0000
 20
0.0000
 30
0.0000
 40
0.0254
 41
0.0254
 70
0
  0
VERTEX
  8
20
 10
6.1272
 20
2.6317
 30
0.0000
 42
1.0000
  0
VERTEX
  8
20
 10
6.1272
 20
2.6571
 30
0.0000
  0
SEQEND
  8
0
  0
POLYLINE
  8
20
 66
1
 10
0.0000
 20
0.0000
 30
0.0000
 40
0.0254
 41
0.0254
 70
0
  0
VERTEX
  8
20
 10
5.8899
 20
2.6571
 30
0.0000
 42
1.0000
  0
VERTEX
  8
20
 10
5.8899
 20
2.6317
 30
0.0000
  0
SEQEND
  8
0
  0
POLYLINE
  8
20
 66
1
 10
0.0000
 20
0.0000
 30
0.0000
 40
0.0508
 41
0.0508
 70
0
  0
VERTEX
  8
20
 10
6.1272
 20
2.6444
 30
0.0000
  0
VERTEX
  8
20
 10
6.2458
 20
2.7630
 30
0.0000
  0
SEQEND
  8
0
  0
POLYLINE
  8
20
 66
1
 10
0.0000
 20
0.0000
 30
0.0000
 40
0.0254
 41
0.0254
 70
0
  0
VERTEX
  8
20
 10
6.2548
 20
2.7541
 30
0.0000
 42
1.0000
  0
VERTEX
  8
20
 10
6.2369
 20
2.7720
 30
0.0000
  0
SEQEND
  8
0
  0
POLYLINE
  8
20
 66
1
 10
0.0000
 20
0.0000
 30
0.0000
 40
0.0254
 41
0.0254
 70
0
  0
VERTEX
  8
20
 10
6.1182
 20
2.6534
 30
0.0000
 42
1.0000
  0
VERTEX
  8
20
 10
6.1362
 20
2.6354
 30
0.0000
  0
SEQEND
  8
0
  0
POLYLINE
  8
20
 66
1
 10
0.0000
 20
0.0000
 30
0.0000
 40
0.0508
 41
0.0508
 70
0
  0
VERTEX
  8
20
 10
6.2458
 20
2.7630
 30
0.0000
  0
VERTEX
  8
20
 10
6.2458
 20
3.3562
 30
0.0000
  0
SEQEND
  8
0
  0
POLYLINE
  8
20
 66
1
 10
0.0000
 20
0.0000
 30
0.0000
 40
0.0254
 41
0.0254
 70
0
  0
VERTEX
  8
20
 10
6.2585
 20
3.3562
 30
0.0000
 42
1.0000
  0
VERTEX
  8
20
 10
6.2331
 20
3.3562
 30
0.0000
  0
SEQEND
  8
0
  0
POLYLINE
  8
20
 66
1
 10
0.0000
 20
0.0000
 30
0.0000
 40
0.0254
 41
0.0254
 70
0
  0
VERTEX
  8
20
 10
6.2331
 20
2.7630
 30
0.0000
 42
1.0000
  0
VERTEX
  8
20
 10
6.2585
 20
2.7630
 30
0.0000
  0
SEQEND
  8
0
  0
POLYLINE
  8
20
 66
1
 10
0.0000
 20
0.0000
 30
0.0000
 40
0.0508
 41
0.0508
 70
0
  0
VERTEX
  8
20
 10
6.7102
 20
2.6444
 30
0.0000
  0
VERTEX
  8
20
 10
6.7102
 20
3.3562
 30
0.0000
  0
SEQEND
  8
0
  0
POLYLINE
  8
20
 66
1
 10
0.0000
 20
0.0000
 30
0.0000
 40
0.0254
 41
0.0254
 70
0
  0
VERTEX
  8
20
 10
6.7229
 20
3.3562
 30
0.0000
 42
1.0000
  0
VERTEX
  8
20
 10
6.6975
 20
3.3562
 30
0.0000
  0
SEQEND
  8
0
  0
POLYLINE
  8
20
 66
1
 10
0.0000
 20
0.0000
 30
0.0000
 40
0.0254
 41
0.0254
 70
0
  0
VERTEX
  8
20
 10
6.6975
 20
2.6444
 30
0.0000
 42
1.0000
  0
VERTEX
  8
20
 10
6.7229
 20
2.6444
 30
0.0000
  0
SEQEND
  8
0
  0
POLYLINE
  8
20
 66
1
 10
0.0000
 20
0.0000
 30
0.0000
 40
0.0508
 41
0.0508
 70
0
  0
VERTEX
  8
20
 10
6.4729
 20
3.3562
 30
0.0000
  0
VERTEX
  8
20
 10
6.9475
 20
3.3562
 30
0.0000
  0
SEQEND
  8
0
  0
POLYLINE
  8
20
 66
1
 10
0.0000
 20
0.0000
 30
0.0000
 40
0.0254
 41
0.0254
 70
0
  0
VERTEX
  8
20
 10
6.9475
 20
3.3435
 30
0.0000
 42
1.0000
  0
VERTEX
  8
20
 10
6.9475
 20
3.3689
 30
0.0000
  0
SEQEND
  8
0
  0
POLYLINE
  8
20
 66
1
 10
0.0000
 20
0.0000
 30
0.0000
 40
0.0254
 41
0.0254
 70
0
  0
VERTEX
  8
20
 10
6.4729
 20
3.3689
 30
0.0000
 42
1.0000
  0
VERTEX
  8
20
 10
6.4729
 20
3.3435
 30
0.0000
  0
SEQEND
  8
0
  0
POLYLINE
  8
20
 66
1
 10
0.0000
 20
0.0000
 30
0.0000
 40
0.0508
 41
0.0508
 70
0
  0
VERTEX
  8
20
 10
8.2321
 20
3.3562
 30
0.0000
  0
VERTEX
  8
20
 10
7.9948
 20
3.3562
 30
0.0000
  0
SEQEND
  8
0
  0
POLYLINE
  8
20
 66
1
 10
0.0000
 20
0.0000
 30
0.0000
 40
0.0254
 41
0.0254
 70
0
  0
VERTEX
  8
20
 10
7.9948
 20
3.3689
 30
0.0000
 42
1.0000
  0
VERTEX
  8
20
 10
7.9948
 20
3.3435
 30
0.0000
  0
SEQEND
  8
0
  0
POLYLINE
  8
20
 66
1
 10
0.0000
 20
0.0000
 30
0.0000
 40
0.0254
 41
0.0254
 70
0
  0
VERTEX
  8
20
 10
8.2321
 20
3.3435
 30
0.0000
 42
1.0000
  0
VERTEX
  8
20
 10
8.2321
 20
3.3689
 30
0.0000
  0
SEQEND
  8
0
  0
POLYLINE
  8
20
 66
1
 10
0.0000
 20
0.0000
 30
0.0000
 40
0.0508
 41
0.0508
 70
0
  0
VERTEX
  8
20
 10
7.9948
 20
3.3562
 30
0.0000
  0
VERTEX
  8
20
 10
7.8762
 20
3.2376
 30
0.0000
  0
SEQEND
  8
0
  0
POLYLINE
  8
20
 66
1
 10
0.0000
 20
0.0000
 30
0.0000
 40
0.0254
 41
0.0254
 70
0
  0
VERTEX
  8
20
 10
7.8672
 20
3.2466
 30
0.0000
 42
1.0000
  0
VERTEX
  8
20
 10
7.8852
 20
3.2286
 30
0.0000
  0
SEQEND
  8
0
  0
POLYLINE
  8
20
 66
1
 10
0.0000
 20
0.0000
 30
0.0000
 40
0.0254
 41
0.0254
 70
0
  0
VERTEX
  8
20
 10
8.0038
 20
3.3472
 30
0.0000
 42
1.0000
  0
VERTEX
  8
20
 10
7.9859
 20
3.3652
 30
0.0000
  0
SEQEND
  8
0
  0
POLYLINE
  8
20
 66
1
 10
0.0000
 20
0.0000
 30
0.0000
 40
0.0508
 41
0.0508
 70
0
  0
VERTEX
  8
20
 10
7.8762
 20
3.2376
 30
0.0000
  0
VERTEX
  8
20
 10
7.8762
 20
2.7630
 30
0.0000
  0
SEQEND
  8
0
  0
POLYLINE
  8
20
 66
1
 10
0.0000
 20
0.0000
 30
0.0000
 40
0.0254
 41
0.0254
 70
0
  0
VERTEX
  8
20
 10
7.8635
 20
2.7630
 30
0.0000
 42
1.0000
  0
VERTEX
  8
20
 10
7.8889
 20
2.7630
 30
0.0000
  0
SEQEND
  8
0
  0
POLYLINE
  8
20
 66
1
 10
0.0000
 20
0.0000
 30
0.0000
 40
0.0254
 41
0.0254
 70
0
  0
VERTEX
  8
20
 10
7.8889
 20
3.2376
 30
0.0000
 42
1.0000
  0
VERTEX
  8
20
 10
7.8635
 20
3.2376
 30
0.0000
  0
SEQEND
  8
0
  0
POLYLINE
  8
20
 66
1
 10
0.0000
 20
0.0000
 30
0.0000
 40
0.0508
 41
0.0508
 70
0
  0
VERTEX
  8
20
 10
7.8762
 20
2.7630
 30
0.0000
  0
VERTEX
  8
20
 10
7.9948
 20
2.6444
 30
0.0000
  0
SEQEND
  8
0
  0
POLYLINE
  8
20
 66
1
 10
0.0000
 20
0.0000
 30
0.0000
 40
0.0254
 41
0.0254
 70
0
  0
VERTEX
  8
20
 10
7.9859
 20
2.6354
 30
0.0000
 42
1.0000
  0
VERTEX
  8
20
 10
8.0038
 20
2.6534
 30
0.0000
  0
SEQEND
  8
0
  0
POLYLINE
  8
20
 66
1
 10
0.0000
 20
0.0000
 30
0.0000
 40
0.0254
 41
0.0254
 70
0
  0
VERTEX
  8
20
 10
7.8852
 20
2.7720
 30
0.0000
 42
1.0000
  0
VERTEX
  8
20
 10
7.8672
 20
2.7541
 30
0.0000
  0
SEQEND
  8
0
  0
POLYLINE
  8
20
 66
1
 10
0.0000
 20
0.0000
 30
0.0000
 40
0.0508
 41
0.0508
 70
0
  0
VERTEX
  8
20
 10
7.9948
 20
2.6444
 30
0.0000
  0
VERTEX
  8
20
 10
8.2321
 20
2.6444
 30
0.0000
  0
SEQEND
  8
0
  0
POLYLINE
  8
20
 66
1
 10
0.0000
 20
0.0000
 30
0.0000
 40
0.0254
 41
0.0254
 70
0
  0
VERTEX
  8
20
 10
8.2321
 20
2.6317
 30
0.0000
 42
1.0000
  0
VERTEX
  8
20
 10
8.2321
 20
2.6571
 30
0.0000
  0
SEQEND
  8
0
  0
POLYLINE
  8
20
 66
1
 10
0.0000
 20
0.0000
 30
0.0000
 40
0.0254
 41
0.0254
 70
0
  0
VERTEX
  8
20
 10
7.9948
 20
2.6571
 30
0.0000
 42
1.0000
  0
VERTEX
  8
20
 10
7.9948
 20
2.6317
 30
0.0000
  0
SEQEND
  8
0
  0
POLYLINE
  8
20
 66
1
 10
0.0000
 20
0.0000
 30
0.0000
 40
0.0508
 41
0.0508
 70
0
  0
VERTEX
  8
20
 10
8.2321
 20
2.6444
 30
0.0000
  0
VERTEX
  8
20
 10
8.3507
 20
2.7630
 30
0.0000
  0
SEQEND
  8
0
  0
POLYLINE
  8
20
 66
1
 10
0.0000
 20
0.0000
 30
0.0000
 40
0.0254
 41
0.0254
 70
0
  0
VERTEX
  8
20
 10
8.3597
 20
2.7541
 30
0.0000
 42
1.0000
  0
VERTEX
  8
20
 10
8.3418
 20
2.7720
 30
0.0000
  0
SEQEND
  8
0
  0
POLYLINE
  8
20
 66
1
 10
0.0000
 20
0.0000
 30
0.0000
 40
0.0254
 41
0.0254
 70
0
  0
VERTEX
  8
20
 10
8.2231
 20
2.6534
 30
0.0000
 42
1.0000
  0
VERTEX
  8
20
 10
8.2411
 20
2.6354
 30
0.0000
  0
SEQEND
  8
0
  0
POLYLINE
  8
20
 66
1
 10
0.0000
 20
0.0000
 30
0.0000
 40
0.0508
 41
0.0508
 70
0
  0
VERTEX
  8
20
 10
8.3507
 20
2.7630
 30
0.0000
  0
VERTEX
  8
20
 10
8.3507
 20
3.2376
 30
0.0000
  0
SEQEND
  8
0
  0
POLYLINE
  8
20
 66
1
 10
0.0000
 20
0.0000
 30
0.0000
 40
0.0254
 41
0.0254
 70
0
  0
VERTEX
  8
20
 10
8.3635
 20
3.2376
 30
0.0000
 42
1.0000
  0
VERTEX
  8
20
 10
8.3380
 20
3.2376
 30
0.0000
  0
SEQEND
  8
0
  0
POLYLINE
  8
20
 66
1
 10
0.0000
 20
0.0000
 30
0.0000
 40
0.0254
 41
0.0254
 70
0
  0
VERTEX
  8
20
 10
8.3380
 20
2.7630
 30
0.0000
 42
1.0000
  0
VERTEX
  8
20
 10
8.3635
 20
2.7630
 30
0.0000
  0
SEQEND
  8
0
  0
POLYLINE
  8
20
 66
1
 10
0.0000
 20
0.0000
 30
0.0000
 40
0.0508
 41
0.0508
 70
0
  0
VERTEX
  8
20
 10
8.3507
 20
3.2376
 30
0.0000
  0
VERTEX
  8
20
 10
8.2321
 20
3.3562
 30
0.0000
  0
SEQEND
  8
0
  0
POLYLINE
  8
20
 66
1
 10
0.0000
 20
0.0000
 30
0.0000
 40
0.0254
 41
0.0254
 70
0
  0
VERTEX
  8
20
 10
8.2411
 20
3.3652
 30
0.0000
 42
1.0000
  0
VERTEX
  8
20
 10
8.2231
 20
3.3472
 30
0.0000
  0
SEQEND
  8
0
  0
POLYLINE
  8
20
 66
1
 10
0.0000
 20
0.0000
 30
0.0000
 40
0.0254
 41
0.0254
 70
0
  0
VERTEX
  8
20
 10
8.3418
 20
3.2286
 30
0.0000
 42
1.0000
  0
VERTEX
  8
20
 10
8.3597
 20
3.2466
 30
0.0000
  0
SEQEND
  8
0
  0
POLYLINE
  8
20
 66
1
 10
0.0000
 20
0.0000
 30
0.0000
 40
0.0508
 41
0.0508
 70
0
  0
VERTEX
  8
20
 10
8.5778
 20
3.3562
 30
0.0000
  0
VERTEX
  8
20
 10
8.5778
 20
2.7630
 30
0.0000
  0
SEQEND
  8
0
  0
POLYLINE
  8
20
 66
1
 10
0.0000
 20
0.0000
 30
0.0000
 40
0.0254
 41
0.0254
 70
0
  0
VERTEX
  8
20
 10
8.5651
 20
2.7630
 30
0.0000
 42
1.0000
  0
VERTEX
  8
20
 10
8.5906
 20
2.7630
 30
0.0000
  0
SEQEND
  8
0
  0
POLYLINE
  8
20
 66
1
 10
0.0000
 20
0.0000
 30
0.0000
 40
0.0254
 41
0.0254
 70
0
  0
VERTEX
  8
20
 10
8.5906
 20
3.3562
 30
0.0000
 42
1.0000
  0
VERTEX
  8
20
 10
8.5651
 20
3.3562
 30
0.0000
  0
SEQEND
  8
0
  0
POLYLINE
  8
20
 66
1
 10
0.0000
 20
0.0000
 30
0.0000
 40
0.0508
 41
0.0508
 70
0
  0
VERTEX
  8
20
 10
8.5778
 20
2.7630
 30
0.0000
  0
VERTEX
  8
20
 10
8.6965
 20
2.6444
 30
0.0000
  0
SEQEND
  8
0
  0
POLYLINE
  8
20
 66
1
 10
0.0000
 20
0.0000
 30
0.0000
 40
0.0254
 41
0.0254
 70
0
  0
VERTEX
  8
20
 10
8.6875
 20
2.6354
 30
0.0000
 42
1.0000
  0
VERTEX
  8
20
 10
8.7055
 20
2.6534
 30
0.0000
  0
SEQEND
  8
0
  0
POLYLINE
  8
20
 66
1
 10
0.0000
 20
0.0000
 30
0.0000
 40
0.0254
 41
0.0254
 70
0
  0
VERTEX
  8
20
 10
8.5868
 20
2.7720
 30
0.0000
 42
1.0000
  0
VERTEX
  8
20
 10
8.5689
 20
2.7541
 30
0.0000
  0
SEQEND
  8
0
  0
POLYLINE
  8
20
 66
1
 10
0.0000
 20
0.0000
 30
0.0000
 40
0.0508
 41
0.0508
 70
0
  0
VERTEX
  8
20
 10
8.6965
 20
2.6444
 30
0.0000
  0
VERTEX
  8
20
 10
8.9338
 20
2.6444
 30
0.0000
  0
SEQEND
  8
0
  0
POLYLINE
  8
20
 66
1
 10
0.0000
 20
0.0000
 30
0.0000
 40
0.0254
 41
0.0254
 70
0
  0
VERTEX
  8
20
 10
8.9338
 20
2.6317
 30
0.0000
 42
1.0000
  0
VERTEX
  8
20
 10
8.9338
 20
2.6571
 30
0.0000
  0
SEQEND
  8
0
  0
POLYLINE
  8
20
 66
1
 10
0.0000
 20
0.0000
 30
0.0000
 40
0.0254
 41
0.0254
 70
0
  0
VERTEX
  8
20
 10
8.6965
 20
2.6571
 30
0.0000
 42
1.0000
  0
VERTEX
  8
20
 10
8.6965
 20
2.6317
 30
0.0000
  0
SEQEND
  8
0
  0
POLYLINE
  8
20
 66
1
 10
0.0000
 20
0.0000
 30
0.0000
 40
0.0508
 41
0.0508
 70
0
  0
VERTEX
  8
20
 10
8.9338
 20
2.6444
 30
0.0000
  0
VERTEX
  8
20
 10
9.0524
 20
2.7630
 30
0.0000
  0
SEQEND
  8
0
  0
POLYLINE
  8
20
 66
1
 10
0.0000
 20
0.0000
 30
0.0000
 40
0.0254
 41
0.0254
 70
0
  0
VERTEX
  8
20
 10
9.0614
 20
2.7541
 30
0.0000
 42
1.0000
  0
VERTEX
  8
20
 10
9.0434
 20
2.7720
 30
0.0000
  0
SEQEND
  8
0
  0
POLYLINE
  8
20
 66
1
 10
0.0000
 20
0.0000
 30
0.0000
 40
0.0254
 41
0.0254
 70
0
  0
VERTEX
  8
20
 10
8.9248
 20
2.6534
 30
0.0000
 42
1.0000
  0
VERTEX
  8
20
 10
8.9427
 20
2.6354
 30
0.0000
  0
SEQEND
  8
0
  0
POLYLINE
  8
20
 66
1
 10
0.0000
 20
0.0000
 30
0.0000
 40
0.0508
 41
0.0508
 70
0
  0
VERTEX
  8
20
 10
9.0524
 20
2.7630
 30
0.0000
  0
VERTEX
  8
20
 10
9.0524
 20
3.3562
 30
0.0000
  0
SEQEND
  8
0
  0
POLYLINE
  8
20
 66
1
 10
0.0000
 20
0.0000
 30
0.0000
 40
0.0254
 41
0.0254
 70
0
  0
VERTEX
  8
20
 10
9.0651
 20
3.3562
 30
0.0000
 42
1.0000
  0
VERTEX
  8
20
 10
9.0397
 20
3.3562
 30
0.0000
  0
SEQEND
  8
0
  0
POLYLINE
  8
20
 66
1
 10
0.0000
 20
0.0000
 30
0.0000
 40
0.0254
 41
0.0254
 70
0
  0
VERTEX
  8
20
 10
9.0397
 20
2.7630
 30
0.0000
 42
1.0000
  0
VERTEX
  8
20
 10
9.0651
 20
2.7630
 30
0.0000
  0
SEQEND
  8
0
  0
POLYLINE
  8
20
 66
1
 10
0.0000
 20
0.0000
 30
0.0000
 40
0.0508
 41
0.0508
 70
0
  0
VERTEX
  8
20
 10
9.5168
 20
2.6444
 30
0.0000
  0
VERTEX
  8
20
 10
9.5168
 20
3.3562
 30
0.0000
  0
SEQEND
  8
0
  0
POLYLINE
  8
20
 66
1
 10
0.0000
 20
0.0000
 30
0.0000
 40
0.0254
 41
0.0254
 70
0
  0
VERTEX
  8
20
 10
9.5295
 20
3.3562
 30
0.0000
 42
1.0000
  0
VERTEX
  8
20
 10
9.5041
 20
3.3562
 30
0.0000
  0
SEQEND
  8
0
  0
POLYLINE
  8
20
 66
1
 10
0.0000
 20
0.0000
 30
0.0000
 40
0.0254
 41
0.0254
 70
0
  0
VERTEX
  8
20
 10
9.5041
 20
2.6444
 30
0.0000
 42
1.0000
  0
VERTEX
  8
20
 10
9.5295
 20
2.6444
 30
0.0000
  0
SEQEND
  8
0
  0
POLYLINE
  8
20
 66
1
 10
0.0000
 20
0.0000
 30
0.0000
 40
0.0508
 41
0.0508
 70
0
  0
VERTEX
  8
20
 10
9.2795
 20
3.3562
 30
0.0000
  0
VERTEX
  8
20
 10
9.7540
 20
3.3562
 30
0.0000
  0
SEQEND
  8
0
  0
POLYLINE
  8
20
 66
1
 10
0.0000
 20
0.0000
 30
0.0000
 40
0.0254
 41
0.0254
 70
0
  0
VERTEX
  8
20
 10
9.7540
 20
3.3435
 30
0.0000
 42
1.0000
  0
VERTEX
  8
20
 10
9.7540
 20
3.3689
 30
0.0000
  0
SEQEND
  8
0
  0
POLYLINE
  8
20
 66
1
 10
0.0000
 20
0.0000
 30
0.0000
 40
0.0254
 41
0.0254
 70
0
  0
VERTEX
  8
20
 10
9.2795
 20
3.3689
 30
0.0000
 42
1.0000
  0
VERTEX
  8
20
 10
9.2795
 20
3.3435
 30
0.0000
  0
SEQEND
  8
0
  0
POINT
  8
23
 10
7.5000
 20
125.5000
 30
0.0000
  0
POLYLINE
  8
20
 66
1
 10
0.0000
 20
0.0000
 30
0.0000
 40
0.0025
 41
0.0025
 70
0
  0
VERTEX
  8
20
 10
8.7700
 20
123.9000
 30
0.0000
  0
VERTEX
  8
20
 10
6.2300
 20
123.9000
 30
0.0000
  0
SEQEND
  8
0
  0
POLYLINE
  8
20
 66
1
 10
0.0000
 20
0.0000
 30
0.0000
 40
0.0013
 41
0.0013
 70
0
  0
VERTEX
  8
20
 10
6.2300
 20
123.9006
 30
0.0000
 42
1.0000
  0
VERTEX
  8
20
 10
6.2300
 20
123.8994
 30
0.0000
  0
SEQEND
  8
0
  0
POLYLINE
  8
20
 66
1
 10
0.0000
 20
0.0000
 30
0.0000
 40
0.0013
 41
0.0013
 70
0
  0
VERTEX
  8
20
 10
8.7700
 20
123.8994
 30
0.0000
 42
1.0000
  0
VERTEX
  8
20
 10
8.7700
 20
123.9006
 30
0.0000
  0
SEQEND
  8
0
  0
POLYLINE
  8
20
 66
1
 10
0.0000
 20
0.0000
 30
0.0000
 40
0.0025
 41
0.0025
 70
0
  0
VERTEX
  8
20
 10
8.7700
 20
127.1000
 30
0.0000
  0
VERTEX
  8
20
 10
6.2300
 20
127.1000
 30
0.0000
  0
SEQEND
  8
0
  0
POLYLINE
  8
20
 66
1
 10
0.0000
 20
0.0000
 30
0.0000
 40
0.0013
 41
0.0013
 70
0
  0
VERTEX
  8
20
 10
6.2300
 20
127.1006
 30
0.0000
 42
1.0000
  0
VERTEX
  8
20
 10
6.2300
 20
127.0994
 30
0.0000
  0
SEQEND
  8
0
  0
POLYLINE
  8
20
 66
1
 10
0.0000
 20
0.0000
 30
0.0000
 40
0.0013
 41
0.0013
 70
0
  0
VERTEX
  8
20
 10
8.7700
 20
127.0994
 30
0.0000
 42
1.0000
  0
VERTEX
  8
20
 10
8.7700
 20
127.1006
 30
0.0000
  0
SEQEND
  8
0
  0
POLYLINE
  8
20
 66
1
 10
0.0000
 20
0.0000
 30
0.0000
 40
0.0025
 41
0.0025
 70
0
  0
VERTEX
  8
20
 10
6.2300
 20
127.1000
 30
0.0000
 42
1.0000
  0
VERTEX
  8
20
 10
6.2300
 20
123.9000
 30
0.0000
  0
SEQEND
  8
0
  0
POLYLINE
  8
20
 66
1
 10
0.0000
 20
0.0000
 30
0.0000
 40
0.0013
 41
0.0013
 70
0
  0
VERTEX
  8
20
 10
6.2300
 20
127.0994
 30
0.0000
 42
1.0000
  0
VERTEX
  8
20
 10
6.2300
 20
127.1006
 30
0.0000
  0
SEQEND
  8
0
  0
POLYLINE
  8
20
 66
1
 10
0.0000
 20
0.0000
 30
0.0000
 40
0.0013
 41
0.0013
 70
0
  0
VERTEX
  8
20
 10
6.2300
 20
123.8994
 30
0.0000
 42
1.0000
  0
VERTEX
  8
20
 10
6.2300
 20
123.9006
 30
0.0000
  0
SEQEND
  8
0
  0
POLYLINE
  8
20
 66
1
 10
0.0000
 20
0.0000
 30
0.0000
 40
0.0025
 41
0.0025
 70
0
  0
VERTEX
  8
20
 10
8.7700
 20
123.9000
 30
0.0000
 42
1.0000
  0
VERTEX
  8
20
 10
8.7700
 20
127.1000
 30
0.0000
  0
SEQEND
  8
0
  0
POLYLINE
  8
20
 66
1
 10
0.0000
 20
0.0000
 30
0.0000
 40
0.0013
 41
0.0013
 70
0
  0
VERTEX
  8
20
 10
8.7700
 20
123.9006
 30
0.0000
 42
1.0000
  0
VERTEX
  8
20
 10
8.7700
 20
123.8994
 30
0.0000
  0
SEQEND
  8
0
  0
POLYLINE
  8
20
 66
1
 10
0.0000
 20
0.0000
 30
0.0000
 40
0.0013
 41
0.0013
 70
0
  0
VERTEX
  8
20
 10
8.7700
 20
127.1006
 30
0.0000
 42
1.0000
  0
VERTEX
  8
20
 10
8.7700
 20
127.0994
 30
0.0000
  0
SEQEND
  8
0
  0
POLYLINE
  8
46
 66
1
 10
0.0000
 20
0.0000
 30
0.0000
 40
3.2000
 41
3.2000
 70
0
  0
VERTEX
  8
46
 10
8.7700
 20
125.5000
 30
0.0000
  0
VERTEX
  8
46
 10
6.2300
 20
125.5000
 30
0.0000
  0
SEQEND
  8
0
  0
POLYLINE
  8
46
 66
1
 10
0.0000
 20
0.0000
 30
0.0000
 40
1.6000
 41
1.6000
 70
0
  0
VERTEX
  8
46
 10
6.2300
 20
126.3000
 30
0.0000
 42
1.0000
  0
VERTEX
  8
46
 10
6.2300
 20
124.7000
 30
0.0000
  0
SEQEND
  8
0
  0
POLYLINE
  8
46
 66
1
 10
0.0000
 20
0.0000
 30
0.0000
 40
1.6000
 41
1.6000
 70
0
  0
VERTEX
  8
46
 10
8.7700
 20
124.7000
 30
0.0000
 42
1.0000
  0
VERTEX
  8
46
 10
8.7700
 20
126.3000
 30
0.0000
  0
SEQEND
  8
0
  0
POLYLINE
  8
20
 66
1
 10
0.0000
 20
0.0000
 30
0.0000
 40
0.0508
 41
0.0508
 70
0
  0
VERTEX
  8
20
 10
5.5442
 20
125.7376
 30
0.0000
  0
VERTEX
  8
20
 10
5.4256
 20
125.8562
 30
0.0000
  0
SEQEND
  8
0
  0
POLYLINE
  8
20
 66
1
 10
0.0000
 20
0.0000
 30
0.0000
 40
0.0254
 41
0.0254
 70
0
  0
VERTEX
  8
20
 10
5.4345
 20
125.8652
 30
0.0000
 42
1.0000
  0
VERTEX
  8
20
 10
5.4166
 20
125.8472
 30
0.0000
  0
SEQEND
  8
0
  0
POLYLINE
  8
20
 66
1
 10
0.0000
 20
0.0000
 30
0.0000
 40
0.0254
 41
0.0254
 70
0
  0
VERTEX
  8
20
 10
5.5352
 20
125.7286
 30
0.0000
 42
1.0000
  0
VERTEX
  8
20
 10
5.5532
 20
125.7466
 30
0.0000
  0
SEQEND
  8
0
  0
POLYLINE
  8
20
 66
1
 10
0.0000
 20
0.0000
 30
0.0000
 40
0.0508
 41
0.0508
 70
0
  0
VERTEX
  8
20
 10
5.4256
 20
125.8562
 30
0.0000
  0
VERTEX
  8
20
 10
5.1883
 20
125.8562
 30
0.0000
  0
SEQEND
  8
0
  0
POLYLINE
  8
20
 66
1
 10
0.0000
 20
0.0000
 30
0.0000
 40
0.0254
 41
0.0254
 70
0
  0
VERTEX
  8
20
 10
5.1883
 20
125.8689
 30
0.0000
 42
1.0000
  0
VERTEX
  8
20
 10
5.1883
 20
125.8435
 30
0.0000
  0
SEQEND
  8
0
  0
POLYLINE
  8
20
 66
1
 10
0.0000
 20
0.0000
 30
0.0000
 40
0.0254
 41
0.0254
 70
0
  0
VERTEX
  8
20
 10
5.4256
 20
125.8435
 30
0.0000
 42
1.0000
  0
VERTEX
  8
20
 10
5.4256
 20
125.8689
 30
0.0000
  0
SEQEND
  8
0
  0
POLYLINE
  8
20
 66
1
 10
0.0000
 20
0.0000
 30
0.0000
 40
0.0508
 41
0.0508
 70
0
  0
VERTEX
  8
20
 10
5.1883
 20
125.8562
 30
0.0000
  0
VERTEX
  8
20
 10
5.0697
 20
125.7376
 30
0.0000
  0
SEQEND
  8
0
  0
POLYLINE
  8
20
 66
1
 10
0.0000
 20
0.0000
 30
0.0000
 40
0.0254
 41
0.0254
 70
0
  0
VERTEX
  8
20
 10
5.0607
 20
125.7466
 30
0.0000
 42
1.0000
  0
VERTEX
  8
20
 10
5.0786
 20
125.7286
 30
0.0000
  0
SEQEND
  8
0
  0
POLYLINE
  8
20
 66
1
 10
0.0000
 20
0.0000
 30
0.0000
 40
0.0254
 41
0.0254
 70
0
  0
VERTEX
  8
20
 10
5.1973
 20
125.8472
 30
0.0000
 42
1.0000
  0
VERTEX
  8
20
 10
5.1793
 20
125.8652
 30
0.0000
  0
SEQEND
  8
0
  0
POLYLINE
  8
20
 66
1
 10
0.0000
 20
0.0000
 30
0.0000
 40
0.0508
 41
0.0508
 70
0
  0
VERTEX
  8
20
 10
5.0697
 20
125.7376
 30
0.0000
  0
VERTEX
  8
20
 10
5.0697
 20
125.2630
 30
0.0000
  0
SEQEND
  8
0
  0
POLYLINE
  8
20
 66
1
 10
0.0000
 20
0.0000
 30
0.0000
 40
0.0254
 41
0.0254
 70
0
  0
VERTEX
  8
20
 10
5.0570
 20
125.2630
 30
0.0000
 42
1.0000
  0
VERTEX
  8
20
 10
5.0824
 20
125.2630
 30
0.0000
  0
SEQEND
  8
0
  0
POLYLINE
  8
20
 66
1
 10
0.0000
 20
0.0000
 30
0.0000
 40
0.0254
 41
0.0254
 70
0
  0
VERTEX
  8
20
 10
5.0824
 20
125.7376
 30
0.0000
 42
1.0000
  0
VERTEX
  8
20
 10
5.0570
 20
125.7376
 30
0.0000
  0
SEQEND
  8
0
  0
POLYLINE
  8
20
 66
1
 10
0.0000
 20
0.0000
 30
0.0000
 40
0.0508
 41
0.0508
 70
0
  0
VERTEX
  8
20
 10
5.0697
 20
125.2630
 30
0.0000
  0
VERTEX
  8
20
 10
5.1883
 20
125.1444
 30
0.0000
  0
SEQEND
  8
0
  0
POLYLINE
  8
20
 66
1
 10
0.0000
 20
0.0000
 30
0.0000
 40
0.0254
 41
0.0254
 70
0
  0
VERTEX
  8
20
 10
5.1793
 20
125.1354
 30
0.0000
 42
1.0000
  0
VERTEX
  8
20
 10
5.1973
 20
125.1534
 30
0.0000
  0
SEQEND
  8
0
  0
POLYLINE
  8
20
 66
1
 10
0.0000
 20
0.0000
 30
0.0000
 40
0.0254
 41
0.0254
 70
0
  0
VERTEX
  8
20
 10
5.0786
 20
125.2720
 30
0.0000
 42
1.0000
  0
VERTEX
  8
20
 10
5.0607
 20
125.2541
 30
0.0000
  0
SEQEND
  8
0
  0
POLYLINE
  8
20
 66
1
 10
0.0000
 20
0.0000
 30
0.0000
 40
0.0508
 41
0.0508
 70
0
  0
VERTEX
  8
20
 10
5.1883
 20
125.1444
 30
0.0000
  0
VERTEX
  8
20
 10
5.4256
 20
125.1444
 30
0.0000
  0
SEQEND
  8
0
  0
POLYLINE
  8
20
 66
1
 10
0.0000
 20
0.0000
 30
0.0000
 40
0.0254
 41
0.0254
 70
0
  0
VERTEX
  8
20
 10
5.4256
 20
125.1317
 30
0.0000
 42
1.0000
  0
VERTEX
  8
20
 10
5.4256
 20
125.1571
 30
0.0000
  0
SEQEND
  8
0
  0
POLYLINE
  8
20
 66
1
 10
0.0000
 20
0.0000
 30
0.0000
 40
0.0254
 41
0.0254
 70
0
  0
VERTEX
  8
20
 10
5.1883
 20
125.1571
 30
0.0000
 42
1.0000
  0
VERTEX
  8
20
 10
5.1883
 20
125.1317
 30
0.0000
  0
SEQEND
  8
0
  0
POLYLINE
  8
20
 66
1
 10
0.0000
 20
0.0000
 30
0.0000
 40
0.0508
 41
0.0508
 70
0
  0
VERTEX
  8
20
 10
5.4256
 20
125.1444
 30
0.0000
  0
VERTEX
  8
20
 10
5.5442
 20
125.2630
 30
0.0000
  0
SEQEND
  8
0
  0
POLYLINE
  8
20
 66
1
 10
0.0000
 20
0.0000
 30
0.0000
 40
0.0254
 41
0.0254
 70
0
  0
VERTEX
  8
20
 10
5.5532
 20
125.2541
 30
0.0000
 42
1.0000
  0
VERTEX
  8
20
 10
5.5352
 20
125.2720
 30
0.0000
  0
SEQEND
  8
0
  0
POLYLINE
  8
20
 66
1
 10
0.0000
 20
0.0000
 30
0.0000
 40
0.0254
 41
0.0254
 70
0
  0
VERTEX
  8
20
 10
5.4166
 20
125.1534
 30
0.0000
 42
1.0000
  0
VERTEX
  8
20
 10
5.4345
 20
125.1354
 30
0.0000
  0
SEQEND
  8
0
  0
POLYLINE
  8
20
 66
1
 10
0.0000
 20
0.0000
 30
0.0000
 40
0.0508
 41
0.0508
 70
0
  0
VERTEX
  8
20
 10
5.7713
 20
125.8562
 30
0.0000
  0
VERTEX
  8
20
 10
5.7713
 20
125.2630
 30
0.0000
  0
SEQEND
  8
0
  0
POLYLINE
  8
20
 66
1
 10
0.0000
 20
0.0000
 30
0.0000
 40
0.0254
 41
0.0254
 70
0
  0
VERTEX
  8
20
 10
5.7586
 20
125.2630
 30
0.0000
 42
1.0000
  0
VERTEX
  8
20
 10
5.7840
 20
125.2630
 30
0.0000
  0
SEQEND
  8
0
  0
POLYLINE
  8
20
 66
1
 10
0.0000
 20
0.0000
 30
0.0000
 40
0.0254
 41
0.0254
 70
0
  0
VERTEX
  8
20
 10
5.7840
 20
125.8562
 30
0.0000
 42
1.0000
  0
VERTEX
  8
20
 10
5.7586
 20
125.8562
 30
0.0000
  0
SEQEND
  8
0
  0
POLYLINE
  8
20
 66
1
 10
0.0000
 20
0.0000
 30
0.0000
 40
0.0508
 41
0.0508
 70
0
  0
VERTEX
  8
20
 10
5.7713
 20
125.2630
 30
0.0000
  0
VERTEX
  8
20
 10
5.8899
 20
125.1444
 30
0.0000
  0
SEQEND
  8
0
  0
POLYLINE
  8
20
 66
1
 10
0.0000
 20
0.0000
 30
0.0000
 40
0.0254
 41
0.0254
 70
0
  0
VERTEX
  8
20
 10
5.8810
 20
125.1354
 30
0.0000
 42
1.0000
  0
VERTEX
  8
20
 10
5.8989
 20
125.1534
 30
0.0000
  0
SEQEND
  8
0
  0
POLYLINE
  8
20
 66
1
 10
0.0000
 20
0.0000
 30
0.0000
 40
0.0254
 41
0.0254
 70
0
  0
VERTEX
  8
20
 10
5.7803
 20
125.2720
 30
0.0000
 42
1.0000
  0
VERTEX
  8
20
 10
5.7623
 20
125.2541
 30
0.0000
  0
SEQEND
  8
0
  0
POLYLINE
  8
20
 66
1
 10
0.0000
 20
0.0000
 30
0.0000
 40
0.0508
 41
0.0508
 70
0
  0
VERTEX
  8
20
 10
5.8899
 20
125.1444
 30
0.0000
  0
VERTEX
  8
20
 10
6.1272
 20
125.1444
 30
0.0000
  0
SEQEND
  8
0
  0
POLYLINE
  8
20
 66
1
 10
0.0000
 20
0.0000
 30
0.0000
 40
0.0254
 41
0.0254
 70
0
  0
VERTEX
  8
20
 10
6.1272
 20
125.1317
 30
0.0000
 42
1.0000
  0
VERTEX
  8
20
 10
6.1272
 20
125.1571
 30
0.0000
  0
SEQEND
  8
0
  0
POLYLINE
  8
20
 66
1
 10
0.0000
 20
0.0000
 30
0.0000
 40
0.0254
 41
0.0254
 70
0
  0
VERTEX
  8
20
 10
5.8899
 20
125.1571
 30
0.0000
 42
1.0000
  0
VERTEX
  8
20
 10
5.8899
 20
125.1317
 30
0.0000
  0
SEQEND
  8
0
  0
POLYLINE
  8
20
 66
1
 10
0.0000
 20
0.0000
 30
0.0000
 40
0.0508
 41
0.0508
 70
0
  0
VERTEX
  8
20
 10
6.1272
 20
125.1444
 30
0.0000
  0
VERTEX
  8
20
 10
6.2458
 20
125.2630
 30
0.0000
  0
SEQEND
  8
0
  0
POLYLINE
  8
20
 66
1
 10
0.0000
 20
0.0000
 30
0.0000
 40
0.0254
 41
0.0254
 70
0
  0
VERTEX
  8
20
 10
6.2548
 20
125.2541
 30
0.0000
 42
1.0000
  0
VERTEX
  8
20
 10
6.2369
 20
125.2720
 30
0.0000
  0
SEQEND
  8
0
  0
POLYLINE
  8
20
 66
1
 10
0.0000
 20
0.0000
 30
0.0000
 40
0.0254
 41
0.0254
 70
0
  0
VERTEX
  8
20
 10
6.1182
 20
125.1534
 30
0.0000
 42
1.0000
  0
VERTEX
  8
20
 10
6.1362
 20
125.1354
 30
0.0000
  0
SEQEND
  8
0
  0
POLYLINE
  8
20
 66
1
 10
0.0000
 20
0.0000
 30
0.0000
 40
0.0508
 41
0.0508
 70
0
  0
VERTEX
  8
20
 10
6.2458
 20
125.2630
 30
0.0000
  0
VERTEX
  8
20
 10
6.2458
 20
125.8562
 30
0.0000
  0
SEQEND
  8
0
  0
POLYLINE
  8
20
 66
1
 10
0.0000
 20
0.0000
 30
0.0000
 40
0.0254
 41
0.0254
 70
0
  0
VERTEX
  8
20
 10
6.2585
 20
125.8562
 30
0.0000
 42
1.0000
  0
VERTEX
  8
20
 10
6.2331
 20
125.8562
 30
0.0000
  0
SEQEND
  8
0
  0
POLYLINE
  8
20
 66
1
 10
0.0000
 20
0.0000
 30
0.0000
 40
0.0254
 41
0.0254
 70
0
  0
VERTEX
  8
20
 10
6.2331
 20
125.2630
 30
0.0000
 42
1.0000
  0
VERTEX
  8
20
 10
6.2585
 20
125.2630
 30
0.0000
  0
SEQEND
  8
0
  0
POLYLINE
  8
20
 66
1
 10
0.0000
 20
0.0000
 30
0.0000
 40
0.0508
 41
0.0508
 70
0
  0
VERTEX
  8
20
 10
6.7102
 20
125.1444
 30
0.0000
  0
VERTEX
  8
20
 10
6.7102
 20
125.8562
 30
0.0000
  0
SEQEND
  8
0
  0
POLYLINE
  8
20
 66
1
 10
0.0000
 20
0.0000
 30
0.0000
 40
0.0254
 41
0.0254
 70
0
  0
VERTEX
  8
20
 10
6.7229
 20
125.8562
 30
0.0000
 42
1.0000
  0
VERTEX
  8
20
 10
6.6975
 20
125.8562
 30
0.0000
  0
SEQEND
  8
0
  0
POLYLINE
  8
20
 66
1
 10
0.0000
 20
0.0000
 30
0.0000
 40
0.0254
 41
0.0254
 70
0
  0
VERTEX
  8
20
 10
6.6975
 20
125.1444
 30
0.0000
 42
1.0000
  0
VERTEX
  8
20
 10
6.7229
 20
125.1444
 30
0.0000
  0
SEQEND
  8
0
  0
POLYLINE
  8
20
 66
1
 10
0.0000
 20
0.0000
 30
0.0000
 40
0.0508
 41
0.0508
 70
0
  0
VERTEX
  8
20
 10
6.4729
 20
125.8562
 30
0.0000
  0
VERTEX
  8
20
 10
6.9475
 20
125.8562
 30
0.0000
  0
SEQEND
  8
0
  0
POLYLINE
  8
20
 66
1
 10
0.0000
 20
0.0000
 30
0.0000
 40
0.0254
 41
0.0254
 70
0
  0
VERTEX
  8
20
 10
6.9475
 20
125.8435
 30
0.0000
 42
1.0000
  0
VERTEX
  8
20
 10
6.9475
 20
125.8689
 30
0.0000
  0
SEQEND
  8
0
  0
POLYLINE
  8
20
 66
1
 10
0.0000
 20
0.0000
 30
0.0000
 40
0.0254
 41
0.0254
 70
0
  0
VERTEX
  8
20
 10
6.4729
 20
125.8689
 30
0.0000
 42
1.0000
  0
VERTEX
  8
20
 10
6.4729
 20
125.8435
 30
0.0000
  0
SEQEND
  8
0
  0
POLYLINE
  8
20
 66
1
 10
0.0000
 20
0.0000
 30
0.0000
 40
0.0508
 41
0.0508
 70
0
  0
VERTEX
  8
20
 10
8.2321
 20
125.8562
 30
0.0000
  0
VERTEX
  8
20
 10
7.9948
 20
125.8562
 30
0.0000
  0
SEQEND
  8
0
  0
POLYLINE
  8
20
 66
1
 10
0.0000
 20
0.0000
 30
0.0000
 40
0.0254
 41
0.0254
 70
0
  0
VERTEX
  8
20
 10
7.9948
 20
125.8689
 30
0.0000
 42
1.0000
  0
VERTEX
  8
20
 10
7.9948
 20
125.8435
 30
0.0000
  0
SEQEND
  8
0
  0
POLYLINE
  8
20
 66
1
 10
0.0000
 20
0.0000
 30
0.0000
 40
0.0254
 41
0.0254
 70
0
  0
VERTEX
  8
20
 10
8.2321
 20
125.8435
 30
0.0000
 42
1.0000
  0
VERTEX
  8
20
 10
8.2321
 20
125.8689
 30
0.0000
  0
SEQEND
  8
0
  0
POLYLINE
  8
20
 66
1
 10
0.0000
 20
0.0000
 30
0.0000
 40
0.0508
 41
0.0508
 70
0
  0
VERTEX
  8
20
 10
7.9948
 20
125.8562
 30
0.0000
  0
VERTEX
  8
20
 10
7.8762
 20
125.7376
 30
0.0000
  0
SEQEND
  8
0
  0
POLYLINE
  8
20
 66
1
 10
0.0000
 20
0.0000
 30
0.0000
 40
0.0254
 41
0.0254
 70
0
  0
VERTEX
  8
20
 10
7.8672
 20
125.7466
 30
0.0000
 42
1.0000
  0
VERTEX
  8
20
 10
7.8852
 20
125.7286
 30
0.0000
  0
SEQEND
  8
0
  0
POLYLINE
  8
20
 66
1
 10
0.0000
 20
0.0000
 30
0.0000
 40
0.0254
 41
0.0254
 70
0
  0
VERTEX
  8
20
 10
8.0038
 20
125.8472
 30
0.0000
 42
1.0000
  0
VERTEX
  8
20
 10
7.9859
 20
125.8652
 30
0.0000
  0
SEQEND
  8
0
  0
POLYLINE
  8
20
 66
1
 10
0.0000
 20
0.0000
 30
0.0000
 40
0.0508
 41
0.0508
 70
0
  0
VERTEX
  8
20
 10
7.8762
 20
125.7376
 30
0.0000
  0
VERTEX
  8
20
 10
7.8762
 20
125.2630
 30
0.0000
  0
SEQEND
  8
0
  0
POLYLINE
  8
20
 66
1
 10
0.0000
 20
0.0000
 30
0.0000
 40
0.0254
 41
0.0254
 70
0
  0
VERTEX
  8
20
 10
7.8635
 20
125.2630
 30
0.0000
 42
1.0000
  0
VERTEX
  8
20
 10
7.8889
 20
125.2630
 30
0.0000
  0
SEQEND
  8
0
  0
POLYLINE
  8
20
 66
1
 10
0.0000
 20
0.0000
 30
0.0000
 40
0.0254
 41
0.0254
 70
0
  0
VERTEX
  8
20
 10
7.8889
 20
125.7376
 30
0.0000
 42
1.0000
  0
VERTEX
  8
20
 10
7.8635
 20
125.7376
 30
0.0000
  0
SEQEND
  8
0
  0
POLYLINE
  8
20
 66
1
 10
0.0000
 20
0.0000
 30
0.0000
 40
0.0508
 41
0.0508
 70
0
  0
VERTEX
  8
20
 10
7.8762
 20
125.2630
 30
0.0000
  0
VERTEX
  8
20
 10
7.9948
 20
125.1444
 30
0.0000
  0
SEQEND
  8
0
  0
POLYLINE
  8
20
 66
1
 10
0.0000
 20
0.0000
 30
0.0000
 40
0.0254
 41
0.0254
 70
0
  0
VERTEX
  8
20
 10
7.9859
 20
125.1354
 30
0.0000
 42
1.0000
  0
VERTEX
  8
20
 10
8.0038
 20
125.1534
 30
0.0000
  0
SEQEND
  8
0
  0
POLYLINE
  8
20
 66
1
 10
0.0000
 20
0.0000
 30
0.0000
 40
0.0254
 41
0.0254
 70
0
  0
VERTEX
  8
20
 10
7.8852
 20
125.2720
 30
0.0000
 42
1.0000
  0
VERTEX
  8
20
 10
7.8672
 20
125.2541
 30
0.0000
  0
SEQEND
  8
0
  0
POLYLINE
  8
20
 66
1
 10
0.0000
 20
0.0000
 30
0.0000
 40
0.0508
 41
0.0508
 70
0
  0
VERTEX
  8
20
 10
7.9948
 20
125.1444
 30
0.0000
  0
VERTEX
  8
20
 10
8.2321
 20
125.1444
 30
0.0000
  0
SEQEND
  8
0
  0
POLYLINE
  8
20
 66
1
 10
0.0000
 20
0.0000
 30
0.0000
 40
0.0254
 41
0.0254
 70
0
  0
VERTEX
  8
20
 10
8.2321
 20
125.1317
 30
0.0000
 42
1.0000
  0
VERTEX
  8
20
 10
8.2321
 20
125.1571
 30
0.0000
  0
SEQEND
  8
0
  0
POLYLINE
  8
20
 66
1
 10
0.0000
 20
0.0000
 30
0.0000
 40
0.0254
 41
0.0254
 70
0
  0
VERTEX
  8
20
 10
7.9948
 20
125.1571
 30
0.0000
 42
1.0000
  0
VERTEX
  8
20
 10
7.9948
 20
125.1317
 30
0.0000
  0
SEQEND
  8
0
  0
POLYLINE
  8
20
 66
1
 10
0.0000
 20
0.0000
 30
0.0000
 40
0.0508
 41
0.0508
 70
0
  0
VERTEX
  8
20
 10
8.2321
 20
125.1444
 30
0.0000
  0
VERTEX
  8
20
 10
8.3507
 20
125.2630
 30
0.0000
  0
SEQEND
  8
0
  0
POLYLINE
  8
20
 66
1
 10
0.0000
 20
0.0000
 30
0.0000
 40
0.0254
 41
0.0254
 70
0
  0
VERTEX
  8
20
 10
8.3597
 20
125.2541
 30
0.0000
 42
1.0000
  0
VERTEX
  8
20
 10
8.3418
 20
125.2720
 30
0.0000
  0
SEQEND
  8
0
  0
POLYLINE
  8
20
 66
1
 10
0.0000
 20
0.0000
 30
0.0000
 40
0.0254
 41
0.0254
 70
0
  0
VERTEX
  8
20
 10
8.2231
 20
125.1534
 30
0.0000
 42
1.0000
  0
VERTEX
  8
20
 10
8.2411
 20
125.1354
 30
0.0000
  0
SEQEND
  8
0
  0
POLYLINE
  8
20
 66
1
 10
0.0000
 20
0.0000
 30
0.0000
 40
0.0508
 41
0.0508
 70
0
  0
VERTEX
  8
20
 10
8.3507
 20
125.2630
 30
0.0000
  0
VERTEX
  8
20
 10
8.3507
 20
125.7376
 30
0.0000
  0
SEQEND
  8
0
  0
POLYLINE
  8
20
 66
1
 10
0.0000
 20
0.0000
 30
0.0000
 40
0.0254
 41
0.0254
 70
0
  0
VERTEX
  8
20
 10
8.3635
 20
125.7376
 30
0.0000
 42
1.0000
  0
VERTEX
  8
20
 10
8.3380
 20
125.7376
 30
0.0000
  0
SEQEND
  8
0
  0
POLYLINE
  8
20
 66
1
 10
0.0000
 20
0.0000
 30
0.0000
 40
0.0254
 41
0.0254
 70
0
  0
VERTEX
  8
20
 10
8.3380
 20
125.2630
 30
0.0000
 42
1.0000
  0
VERTEX
  8
20
 10
8.3635
 20
125.2630
 30
0.0000
  0
SEQEND
  8
0
  0
POLYLINE
  8
20
 66
1
 10
0.0000
 20
0.0000
 30
0.0000
 40
0.0508
 41
0.0508
 70
0
  0
VERTEX
  8
20
 10
8.3507
 20
125.7376
 30
0.0000
  0
VERTEX
  8
20
 10
8.2321
 20
125.8562
 30
0.0000
  0
SEQEND
  8
0
  0
POLYLINE
  8
20
 66
1
 10
0.0000
 20
0.0000
 30
0.0000
 40
0.0254
 41
0.0254
 70
0
  0
VERTEX
  8
20
 10
8.2411
 20
125.8652
 30
0.0000
 42
1.0000
  0
VERTEX
  8
20
 10
8.2231
 20
125.8472
 30
0.0000
  0
SEQEND
  8
0
  0
POLYLINE
  8
20
 66
1
 10
0.0000
 20
0.0000
 30
0.0000
 40
0.0254
 41
0.0254
 70
0
  0
VERTEX
  8
20
 10
8.3418
 20
125.7286
 30
0.0000
 42
1.0000
  0
VERTEX
  8
20
 10
8.3597
 20
125.7466
 30
0.0000
  0
SEQEND
  8
0
  0
POLYLINE
  8
20
 66
1
 10
0.0000
 20
0.0000
 30
0.0000
 40
0.0508
 41
0.0508
 70
0
  0
VERTEX
  8
20
 10
8.5778
 20
125.8562
 30
0.0000
  0
VERTEX
  8
20
 10
8.5778
 20
125.2630
 30
0.0000
  0
SEQEND
  8
0
  0
POLYLINE
  8
20
 66
1
 10
0.0000
 20
0.0000
 30
0.0000
 40
0.0254
 41
0.0254
 70
0
  0
VERTEX
  8
20
 10
8.5651
 20
125.2630
 30
0.0000
 42
1.0000
  0
VERTEX
  8
20
 10
8.5906
 20
125.2630
 30
0.0000
  0
SEQEND
  8
0
  0
POLYLINE
  8
20
 66
1
 10
0.0000
 20
0.0000
 30
0.0000
 40
0.0254
 41
0.0254
 70
0
  0
VERTEX
  8
20
 10
8.5906
 20
125.8562
 30
0.0000
 42
1.0000
  0
VERTEX
  8
20
 10
8.5651
 20
125.8562
 30
0.0000
  0
SEQEND
  8
0
  0
POLYLINE
  8
20
 66
1
 10
0.0000
 20
0.0000
 30
0.0000
 40
0.0508
 41
0.0508
 70
0
  0
VERTEX
  8
20
 10
8.5778
 20
125.2630
 30
0.0000
  0
VERTEX
  8
20
 10
8.6965
 20
125.1444
 30
0.0000
  0
SEQEND
  8
0
  0
POLYLINE
  8
20
 66
1
 10
0.0000
 20
0.0000
 30
0.0000
 40
0.0254
 41
0.0254
 70
0
  0
VERTEX
  8
20
 10
8.6875
 20
125.1354
 30
0.0000
 42
1.0000
  0
VERTEX
  8
20
 10
8.7055
 20
125.1534
 30
0.0000
  0
SEQEND
  8
0
  0
POLYLINE
  8
20
 66
1
 10
0.0000
 20
0.0000
 30
0.0000
 40
0.0254
 41
0.0254
 70
0
  0
VERTEX
  8
20
 10
8.5868
 20
125.2720
 30
0.0000
 42
1.0000
  0
VERTEX
  8
20
 10
8.5689
 20
125.2541
 30
0.0000
  0
SEQEND
  8
0
  0
POLYLINE
  8
20
 66
1
 10
0.0000
 20
0.0000
 30
0.0000
 40
0.0508
 41
0.0508
 70
0
  0
VERTEX
  8
20
 10
8.6965
 20
125.1444
 30
0.0000
  0
VERTEX
  8
20
 10
8.9338
 20
125.1444
 30
0.0000
  0
SEQEND
  8
0
  0
POLYLINE
  8
20
 66
1
 10
0.0000
 20
0.0000
 30
0.0000
 40
0.0254
 41
0.0254
 70
0
  0
VERTEX
  8
20
 10
8.9338
 20
125.1317
 30
0.0000
 42
1.0000
  0
VERTEX
  8
20
 10
8.9338
 20
125.1571
 30
0.0000
  0
SEQEND
  8
0
  0
POLYLINE
  8
20
 66
1
 10
0.0000
 20
0.0000
 30
0.0000
 40
0.0254
 41
0.0254
 70
0
  0
VERTEX
  8
20
 10
8.6965
 20
125.1571
 30
0.0000
 42
1.0000
  0
VERTEX
  8
20
 10
8.6965
 20
125.1317
 30
0.0000
  0
SEQEND
  8
0
  0
POLYLINE
  8
20
 66
1
 10
0.0000
 20
0.0000
 30
0.0000
 40
0.0508
 41
0.0508
 70
0
  0
VERTEX
  8
20
 10
8.9338
 20
125.1444
 30
0.0000
  0
VERTEX
  8
20
 10
9.0524
 20
125.2630
 30
0.0000
  0
SEQEND
  8
0
  0
POLYLINE
  8
20
 66
1
 10
0.0000
 20
0.0000
 30
0.0000
 40
0.0254
 41
0.0254
 70
0
  0
VERTEX
  8
20
 10
9.0614
 20
125.2541
 30
0.0000
 42
1.0000
  0
VERTEX
  8
20
 10
9.0434
 20
125.2720
 30
0.0000
  0
SEQEND
  8
0
  0
POLYLINE
  8
20
 66
1
 10
0.0000
 20
0.0000
 30
0.0000
 40
0.0254
 41
0.0254
 70
0
  0
VERTEX
  8
20
 10
8.9248
 20
125.1534
 30
0.0000
 42
1.0000
  0
VERTEX
  8
20
 10
8.9427
 20
125.1354
 30
0.0000
  0
SEQEND
  8
0
  0
POLYLINE
  8
20
 66
1
 10
0.0000
 20
0.0000
 30
0.0000
 40
0.0508
 41
0.0508
 70
0
  0
VERTEX
  8
20
 10
9.0524
 20
125.2630
 30
0.0000
  0
VERTEX
  8
20
 10
9.0524
 20
125.8562
 30
0.0000
  0
SEQEND
  8
0
  0
POLYLINE
  8
20
 66
1
 10
0.0000
 20
0.0000
 30
0.0000
 40
0.0254
 41
0.0254
 70
0
  0
VERTEX
  8
20
 10
9.0651
 20
125.8562
 30
0.0000
 42
1.0000
  0
VERTEX
  8
20
 10
9.0397
 20
125.8562
 30
0.0000
  0
SEQEND
  8
0
  0
POLYLINE
  8
20
 66
1
 10
0.0000
 20
0.0000
 30
0.0000
 40
0.0254
 41
0.0254
 70
0
  0
VERTEX
  8
20
 10
9.0397
 20
125.2630
 30
0.0000
 42
1.0000
  0
VERTEX
  8
20
 10
9.0651
 20
125.2630
 30
0.0000
  0
SEQEND
  8
0
  0
POLYLINE
  8
20
 66
1
 10
0.0000
 20
0.0000
 30
0.0000
 40
0.0508
 41
0.0508
 70
0
  0
VERTEX
  8
20
 10
9.5168
 20
125.1444
 30
0.0000
  0
VERTEX
  8
20
 10
9.5168
 20
125.8562
 30
0.0000
  0
SEQEND
  8
0
  0
POLYLINE
  8
20
 66
1
 10
0.0000
 20
0.0000
 30
0.0000
 40
0.0254
 41
0.0254
 70
0
  0
VERTEX
  8
20
 10
9.5295
 20
125.8562
 30
0.0000
 42
1.0000
  0
VERTEX
  8
20
 10
9.5041
 20
125.8562
 30
0.0000
  0
SEQEND
  8
0
  0
POLYLINE
  8
20
 66
1
 10
0.0000
 20
0.0000
 30
0.0000
 40
0.0254
 41
0.0254
 70
0
  0
VERTEX
  8
20
 10
9.5041
 20
125.1444
 30
0.0000
 42
1.0000
  0
VERTEX
  8
20
 10
9.5295
 20
125.1444
 30
0.0000
  0
SEQEND
  8
0
  0
POLYLINE
  8
20
 66
1
 10
0.0000
 20
0.0000
 30
0.0000
 40
0.0508
 41
0.0508
 70
0
  0
VERTEX
  8
20
 10
9.2795
 20
125.8562
 30
0.0000
  0
VERTEX
  8
20
 10
9.7540
 20
125.8562
 30
0.0000
  0
SEQEND
  8
0
  0
POLYLINE
  8
20
 66
1
 10
0.0000
 20
0.0000
 30
0.0000
 40
0.0254
 41
0.0254
 70
0
  0
VERTEX
  8
20
 10
9.7540
 20
125.8435
 30
0.0000
 42
1.0000
  0
VERTEX
  8
20
 10
9.7540
 20
125.8689
 30
0.0000
  0
SEQEND
  8
0
  0
POLYLINE
  8
20
 66
1
 10
0.0000
 20
0.0000
 30
0.0000
 40
0.0254
 41
0.0254
 70
0
  0
VERTEX
  8
20
 10
9.2795
 20
125.8689
 30
0.0000
 42
1.0000
  0
VERTEX
  8
20
 10
9.2795
 20
125.8435
 30
0.0000
  0
SEQEND
  8
0
  0
POINT
  8
23
 10
130.0000
 20
3.0000
 30
0.0000
  0
POLYLINE
  8
20
 66
1
 10
0.0000
 20
0.0000
 30
0.0000
 40
0.0025
 41
0.0025
 70
0
  0
VERTEX
  8
20
 10
131.2700
 20
1.4000
 30
0.0000
  0
VERTEX
  8
20
 10
128.7300
 20
1.4000
 30
0.0000
  0
SEQEND
  8
0
  0
POLYLINE
  8
20
 66
1
 10
0.0000
 20
0.0000
 30
0.0000
 40
0.0013
 41
0.0013
 70
0
  0
VERTEX
  8
20
 10
128.7300
 20
1.4006
 30
0.0000
 42
1.0000
  0
VERTEX
  8
20
 10
128.7300
 20
1.3994
 30
0.0000
  0
SEQEND
  8
0
  0
POLYLINE
  8
20
 66
1
 10
0.0000
 20
0.0000
 30
0.0000
 40
0.0013
 41
0.0013
 70
0
  0
VERTEX
  8
20
 10
131.2700
 20
1.3994
 30
0.0000
 42
1.0000
  0
VERTEX
  8
20
 10
131.2700
 20
1.4006
 30
0.0000
  0
SEQEND
  8
0
  0
POLYLINE
  8
20
 66
1
 10
0.0000
 20
0.0000
 30
0.0000
 40
0.0025
 41
0.0025
 70
0
  0
VERTEX
  8
20
 10
131.2700
 20
4.6000
 30
0.0000
  0
VERTEX
  8
20
 10
128.7300
 20
4.6000
 30
0.0000
  0
SEQEND
  8
0
  0
POLYLINE
  8
20
 66
1
 10
0.0000
 20
0.0000
 30
0.0000
 40
0.0013
 41
0.0013
 70
0
  0
VERTEX
  8
20
 10
128.7300
 20
4.6006
 30
0.0000
 42
1.0000
  0
VERTEX
  8
20
 10
128.7300
 20
4.5994
 30
0.0000
  0
SEQEND
  8
0
  0
POLYLINE
  8
20
 66
1
 10
0.0000
 20
0.0000
 30
0.0000
 40
0.0013
 41
0.0013
 70
0
  0
VERTEX
  8
20
 10
131.2700
 20
4.5994
 30
0.0000
 42
1.0000
  0
VERTEX
  8
20
 10
131.2700
 20
4.6006
 30
0.0000
  0
SEQEND
  8
0
  0
POLYLINE
  8
20
 66
1
 10
0.0000
 20
0.0000
 30
0.0000
 40
0.0025
 41
0.0025
 70
0
  0
VERTEX
  8
20
 10
128.7300
 20
4.6000
 30
0.0000
 42
1.0000
  0
VERTEX
  8
20
 10
128.7300
 20
1.4000
 30
0.0000
  0
SEQEND
  8
0
  0
POLYLINE
  8
20
 66
1
 10
0.0000
 20
0.0000
 30
0.0000
 40
0.0013
 41
0.0013
 70
0
  0
VERTEX
  8
20
 10
128.7300
 20
4.5994
 30
0.0000
 42
1.0000
  0
VERTEX
  8
20
 10
128.7300
 20
4.6006
 30
0.0000
  0
SEQEND
  8
0
  0
POLYLINE
  8
20
 66
1
 10
0.0000
 20
0.0000
 30
0.0000
 40
0.0013
 41
0.0013
 70
0
  0
VERTEX
  8
20
 10
128.7300
 20
1.3994
 30
0.0000
 42
1.0000
  0
VERTEX
  8
20
 10
128.7300
 20
1.4006
 30
0.0000
  0
SEQEND
  8
0
  0
POLYLINE
  8
20
 66
1
 10
0.0000
 20
0.0000
 30
0.0000
 40
0.0025
 41
0.0025
 70
0
  0
VERTEX
  8
20
 10
131.2700
 20
1.4000
 30
0.0000
 42
1.0000
  0
VERTEX
  8
20
 10
131.2700
 20
4.6000
 30
0.0000
  0
SEQEND
  8
0
  0
POLYLINE
  8
20
 66
1
 10
0.0000
 20
0.0000
 30
0.0000
 40
0.0013
 41
0.0013
 70
0
  0
VERTEX
  8
20
 10
131.2700
 20
1.4006
 30
0.0000
 42
1.0000
  0
VERTEX
  8
20
 10
131.2700
 20
1.3994
 30
0.0000
  0
SEQEND
  8
0
  0
POLYLINE
  8
20
 66
1
 10
0.0000
 20
0.0000
 30
0.0000
 40
0.0013
 41
0.0013
 70
0
  0
VERTEX
  8
20
 10
131.2700
 20
4.6006
 30
0.0000
 42
1.0000
  0
VERTEX
  8
20
 10
131.2700
 20
4.5994
 30
0.0000
  0
SEQEND
  8
0
  0
POLYLINE
  8
46
 66
1
 10
0.0000
 20
0.0000
 30
0.0000
 40
3.2000
 41
3.2000
 70
0
  0
VERTEX
  8
46
 10
131.2700
 20
3.0000
 30
0.0000
  0
VERTEX
  8
46
 10
128.7300
 20
3.0000
 30
0.0000
  0
SEQEND
  8
0
  0
POLYLINE
  8
46
 66
1
 10
0.0000
 20
0.0000
 30
0.0000
 40
1.6000
 41
1.6000
 70
0
  0
VERTEX
  8
46
 10
128.7300
 20
3.8000
 30
0.0000
 42
1.0000
  0
VERTEX
  8
46
 10
128.7300
 20
2.2000
 30
0.0000
  0
SEQEND
  8
0
  0
POLYLINE
  8
46
 66
1
 10
0.0000
 20
0.0000
 30
0.0000
 40
1.6000
 41
1.6000
 70
0
  0
VERTEX
  8
46
 10
131.2700
 20
2.2000
 30
0.0000
 42
1.0000
  0
VERTEX
  8
46
 10
131.2700
 20
3.8000
 30
0.0000
  0
SEQEND
  8
0
  0
POLYLINE
  8
20
 66
1
 10
0.0000
 20
0.0000
 30
0.0000
 40
0.0508
 41
0.0508
 70
0
  0
VERTEX
  8
20
 10
128.0442
 20
3.2376
 30
0.0000
  0
VERTEX
  8
20
 10
127.9256
 20
3.3562
 30
0.0000
  0
SEQEND
  8
0
  0
POLYLINE
  8
20
 66
1
 10
0.0000
 20
0.0000
 30
0.0000
 40
0.0254
 41
0.0254
 70
0
  0
VERTEX
  8
20
 10
127.9345
 20
3.3652
 30
0.0000
 42
1.0000
  0
VERTEX
  8
20
 10
127.9166
 20
3.3472
 30
0.0000
  0
SEQEND
  8
0
  0
POLYLINE
  8
20
 66
1
 10
0.0000
 20
0.0000
 30
0.0000
 40
0.0254
 41
0.0254
 70
0
  0
VERTEX
  8
20
 10
128.0352
 20
3.2286
 30
0.0000
 42
1.0000
  0
VERTEX
  8
20
 10
128.0532
 20
3.2466
 30
0.0000
  0
SEQEND
  8
0
  0
POLYLINE
  8
20
 66
1
 10
0.0000
 20
0.0000
 30
0.0000
 40
0.0508
 41
0.0508
 70
0
  0
VERTEX
  8
20
 10
127.9256
 20
3.3562
 30
0.0000
  0
VERTEX
  8
20
 10
127.6883
 20
3.3562
 30
0.0000
  0
SEQEND
  8
0
  0
POLYLINE
  8
20
 66
1
 10
0.0000
 20
0.0000
 30
0.0000
 40
0.0254
 41
0.0254
 70
0
  0
VERTEX
  8
20
 10
127.6883
 20
3.3689
 30
0.0000
 42
1.0000
  0
VERTEX
  8
20
 10
127.6883
 20
3.3435
 30
0.0000
  0
SEQEND
  8
0
  0
POLYLINE
  8
20
 66
1
 10
0.0000
 20
0.0000
 30
0.0000
 40
0.0254
 41
0.0254
 70
0
  0
VERTEX
  8
20
 10
127.9256
 20
3.3435
 30
0.0000
 42
1.0000
  0
VERTEX
  8
20
 10
127.9256
 20
3.3689
 30
0.0000
  0
SEQEND
  8
0
  0
POLYLINE
  8
20
 66
1
 10
0.0000
 20
0.0000
 30
0.0000
 40
0.0508
 41
0.0508
 70
0
  0
VERTEX
  8
20
 10
127.6883
 20
3.3562
 30
0.0000
  0
VERTEX
  8
20
 10
127.5697
 20
3.2376
 30
0.0000
  0
SEQEND
  8
0
  0
POLYLINE
  8
20
 66
1
 10
0.0000
 20
0.0000
 30
0.0000
 40
0.0254
 41
0.0254
 70
0
  0
VERTEX
  8
20
 10
127.5607
 20
3.2466
 30
0.0000
 42
1.0000
  0
VERTEX
  8
20
 10
127.5786
 20
3.2286
 30
0.0000
  0
SEQEND
  8
0
  0
POLYLINE
  8
20
 66
1
 10
0.0000
 20
0.0000
 30
0.0000
 40
0.0254
 41
0.0254
 70
0
  0
VERTEX
  8
20
 10
127.6973
 20
3.3472
 30
0.0000
 42
1.0000
  0
VERTEX
  8
20
 10
127.6793
 20
3.3652
 30
0.0000
  0
SEQEND
  8
0
  0
POLYLINE
  8
20
 66
1
 10
0.0000
 20
0.0000
 30
0.0000
 40
0.0508
 41
0.0508
 70
0
  0
VERTEX
  8
20
 10
127.5697
 20
3.2376
 30
0.0000
  0
VERTEX
  8
20
 10
127.5697
 20
2.7630
 30
0.0000
  0
SEQEND
  8
0
  0
POLYLINE
  8
20
 66
1
 10
0.0000
 20
0.0000
 30
0.0000
 40
0.0254
 41
0.0254
 70
0
  0
VERTEX
  8
20
 10
127.5570
 20
2.7630
 30
0.0000
 42
1.0000
  0
VERTEX
  8
20
 10
127.5824
 20
2.7630
 30
0.0000
  0
SEQEND
  8
0
  0
POLYLINE
  8
20
 66
1
 10
0.0000
 20
0.0000
 30
0.0000
 40
0.0254
 41
0.0254
 70
0
  0
VERTEX
  8
20
 10
127.5824
 20
3.2376
 30
0.0000
 42
1.0000
  0
VERTEX
  8
20
 10
127.5570
 20
3.2376
 30
0.0000
  0
SEQEND
  8
0
  0
POLYLINE
  8
20
 66
1
 10
0.0000
 20
0.0000
 30
0.0000
 40
0.0508
 41
0.0508
 70
0
  0
VERTEX
  8
20
 10
127.5697
 20
2.7630
 30
0.0000
  0
VERTEX
  8
20
 10
127.6883
 20
2.6444
 30
0.0000
  0
SEQEND
  8
0
  0
POLYLINE
  8
20
 66
1
 10
0.0000
 20
0.0000
 30
0.0000
 40
0.0254
 41
0.0254
 70
0
  0
VERTEX
  8
20
 10
127.6793
 20
2.6354
 30
0.0000
 42
1.0000
  0
VERTEX
  8
20
 10
127.6973
 20
2.6534
 30
0.0000
  0
SEQEND
  8
0
  0
POLYLINE
  8
20
 66
1
 10
0.0000
 20
0.0000
 30
0.0000
 40
0.0254
 41
0.0254
 70
0
  0
VERTEX
  8
20
 10
127.5786
 20
2.7720
 30
0.0000
 42
1.0000
  0
VERTEX
  8
20
 10
127.5607
 20
2.7541
 30
0.0000
  0
SEQEND
  8
0
  0
POLYLINE
  8
20
 66
1
 10
0.0000
 20
0.0000
 30
0.0000
 40
0.0508
 41
0.0508
 70
0
  0
VERTEX
  8
20
 10
127.6883
 20
2.6444
 30
0.0000
  0
VERTEX
  8
20
 10
127.9256
 20
2.6444
 30
0.0000
  0
SEQEND
  8
0
  0
POLYLINE
  8
20
 66
1
 10
0.0000
 20
0.0000
 30
0.0000
 40
0.0254
 41
0.0254
 70
0
  0
VERTEX
  8
20
 10
127.9256
 20
2.6317
 30
0.0000
 42
1.0000
  0
VERTEX
  8
20
 10
127.9256
 20
2.6571
 30
0.0000
  0
SEQEND
  8
0
  0
POLYLINE
  8
20
 66
1
 10
0.0000
 20
0.0000
 30
0.0000
 40
0.0254
 41
0.0254
 70
0
  0
VERTEX
  8
20
 10
127.6883
 20
2.6571
 30
0.0000
 42
1.0000
  0
VERTEX
  8
20
 10
127.6883
 20
2.6317
 30
0.0000
  0
SEQEND
  8
0
  0
POLYLINE
  8
20
 66
1
 10
0.0000
 20
0.0000
 30
0.0000
 40
0.0508
 41
0.0508
 70
0
  0
VERTEX
  8
20
 10
127.9256
 20
2.6444
 30
0.0000
  0
VERTEX
  8
20
 10
128.0442
 20
2.7630
 30
0.0000
  0
SEQEND
  8
0
  0
POLYLINE
  8
20
 66
1
 10
0.0000
 20
0.0000
 30
0.0000
 40
0.0254
 41
0.0254
 70
0
  0
VERTEX
  8
20
 10
128.0532
 20
2.7541
 30
0.0000
 42
1.0000
  0
VERTEX
  8
20
 10
128.0352
 20
2.7720
 30
0.0000
  0
SEQEND
  8
0
  0
POLYLINE
  8
20
 66
1
 10
0.0000
 20
0.0000
 30
0.0000
 40
0.0254
 41
0.0254
 70
0
  0
VERTEX
  8
20
 10
127.9166
 20
2.6534
 30
0.0000
 42
1.0000
  0
VERTEX
  8
20
 10
127.9345
 20
2.6354
 30
0.0000
  0
SEQEND
  8
0
  0
POLYLINE
  8
20
 66
1
 10
0.0000
 20
0.0000
 30
0.0000
 40
0.0508
 41
0.0508
 70
0
  0
VERTEX
  8
20
 10
128.2713
 20
3.3562
 30
0.0000
  0
VERTEX
  8
20
 10
128.2713
 20
2.7630
 30
0.0000
  0
SEQEND
  8
0
  0
POLYLINE
  8
20
 66
1
 10
0.0000
 20
0.0000
 30
0.0000
 40
0.0254
 41
0.0254
 70
0
  0
VERTEX
  8
20
 10
128.2586
 20
2.7630
 30
0.0000
 42
1.0000
  0
VERTEX
  8
20
 10
128.2840
 20
2.7630
 30
0.0000
  0
SEQEND
  8
0
  0
POLYLINE
  8
20
 66
1
 10
0.0000
 20
0.0000
 30
0.0000
 40
0.0254
 41
0.0254
 70
0
  0
VERTEX
  8
20
 10
128.2840
 20
3.3562
 30
0.0000
 42
1.0000
  0
VERTEX
  8
20
 10
128.2586
 20
3.3562
 30
0.0000
  0
SEQEND
  8
0
  0
POLYLINE
  8
20
 66
1
 10
0.0000
 20
0.0000
 30
0.0000
 40
0.0508
 41
0.0508
 70
0
  0
VERTEX
  8
20
 10
128.2713
 20
2.7630
 30
0.0000
  0
VERTEX
  8
20
 10
128.3899
 20
2.6444
 30
0.0000
  0
SEQEND
  8
0
  0
POLYLINE
  8
20
 66
1
 10
0.0000
 20
0.0000
 30
0.0000
 40
0.0254
 41
0.0254
 70
0
  0
VERTEX
  8
20
 10
128.3810
 20
2.6354
 30
0.0000
 42
1.0000
  0
VERTEX
  8
20
 10
128.3989
 20
2.6534
 30
0.0000
  0
SEQEND
  8
0
  0
POLYLINE
  8
20
 66
1
 10
0.0000
 20
0.0000
 30
0.0000
 40
0.0254
 41
0.0254
 70
0
  0
VERTEX
  8
20
 10
128.2803
 20
2.7720
 30
0.0000
 42
1.0000
  0
VERTEX
  8
20
 10
128.2623
 20
2.7541
 30
0.0000
  0
SEQEND
  8
0
  0
POLYLINE
  8
20
 66
1
 10
0.0000
 20
0.0000
 30
0.0000
 40
0.0508
 41
0.0508
 70
0
  0
VERTEX
  8
20
 10
128.3899
 20
2.6444
 30
0.0000
  0
VERTEX
  8
20
 10
128.6272
 20
2.6444
 30
0.0000
  0
SEQEND
  8
0
  0
POLYLINE
  8
20
 66
1
 10
0.0000
 20
0.0000
 30
0.0000
 40
0.0254
 41
0.0254
 70
0
  0
VERTEX
  8
20
 10
128.6272
 20
2.6317
 30
0.0000
 42
1.0000
  0
VERTEX
  8
20
 10
128.6272
 20
2.6571
 30
0.0000
  0
SEQEND
  8
0
  0
POLYLINE
  8
20
 66
1
 10
0.0000
 20
0.0000
 30
0.0000
 40
0.0254
 41
0.0254
 70
0
  0
VERTEX
  8
20
 10
128.3899
 20
2.6571
 30
0.0000
 42
1.0000
  0
VERTEX
  8
20
 10
128.3899
 20
2.6317
 30
0.0000
  0
SEQEND
  8
0
  0
POLYLINE
  8
20
 66
1
 10
0.0000
 20
0.0000
 30
0.0000
 40
0.0508
 41
0.0508
 70
0
  0
VERTEX
  8
20
 10
128.6272
 20
2.6444
 30
0.0000
  0
VERTEX
  8
20
 10
128.7458
 20
2.7630
 30
0.0000
  0
SEQEND
  8
0
  0
POLYLINE
  8
20
 66
1
 10
0.0000
 20
0.0000
 30
0.0000
 40
0.0254
 41
0.0254
 70
0
  0
VERTEX
  8
20
 10
128.7548
 20
2.7541
 30
0.0000
 42
1.0000
  0
VERTEX
  8
20
 10
128.7369
 20
2.7720
 30
0.0000
  0
SEQEND
  8
0
  0
POLYLINE
  8
20
 66
1
 10
0.0000
 20
0.0000
 30
0.0000
 40
0.0254
 41
0.0254
 70
0
  0
VERTEX
  8
20
 10
128.6182
 20
2.6534
 30
0.0000
 42
1.0000
  0
VERTEX
  8
20
 10
128.6362
 20
2.6354
 30
0.0000
  0
SEQEND
  8
0
  0
POLYLINE
  8
20
 66
1
 10
0.0000
 20
0.0000
 30
0.0000
 40
0.0508
 41
0.0508
 70
0
  0
VERTEX
  8
20
 10
128.7458
 20
2.7630
 30
0.0000
  0
VERTEX
  8
20
 10
128.7458
 20
3.3562
 30
0.0000
  0
SEQEND
  8
0
  0
POLYLINE
  8
20
 66
1
 10
0.0000
 20
0.0000
 30
0.0000
 40
0.0254
 41
0.0254
 70
0
  0
VERTEX
  8
20
 10
128.7585
 20
3.3562
 30
0.0000
 42
1.0000
  0
VERTEX
  8
20
 10
128.7331
 20
3.3562
 30
0.0000
  0
SEQEND
  8
0
  0
POLYLINE
  8
20
 66
1
 10
0.0000
 20
0.0000
 30
0.0000
 40
0.0254
 41
0.0254
 70
0
  0
VERTEX
  8
20
 10
128.7331
 20
2.7630
 30
0.0000
 42
1.0000
  0
VERTEX
  8
20
 10
128.7585
 20
2.7630
 30
0.0000
  0
SEQEND
  8
0
  0
POLYLINE
  8
20
 66
1
 10
0.0000
 20
0.0000
 30
0.0000
 40
0.0508
 41
0.0508
 70
0
  0
VERTEX
  8
20
 10
129.2102
 20
2.6444
 30
0.0000
  0
VERTEX
  8
20
 10
129.2102
 20
3.3562
 30
0.0000
  0
SEQEND
  8
0
  0
POLYLINE
  8
20
 66
1
 10
0.0000
 20
0.0000
 30
0.0000
 40
0.0254
 41
0.0254
 70
0
  0
VERTEX
  8
20
 10
129.2229
 20
3.3562
 30
0.0000
 42
1.0000
  0
VERTEX
  8
20
 10
129.1975
 20
3.3562
 30
0.0000
  0
SEQEND
  8
0
  0
POLYLINE
  8
20
 66
1
 10
0.0000
 20
0.0000
 30
0.0000
 40
0.0254
 41
0.0254
 70
0
  0
VERTEX
  8
20
 10
129.1975
 20
2.6444
 30
0.0000
 42
1.0000
  0
VERTEX
  8
20
 10
129.2229
 20
2.6444
 30
0.0000
  0
SEQEND
  8
0
  0
POLYLINE
  8
20
 66
1
 10
0.0000
 20
0.0000
 30
0.0000
 40
0.0508
 41
0.0508
 70
0
  0
VERTEX
  8
20
 10
128.9729
 20
3.3562
 30
0.0000
  0
VERTEX
  8
20
 10
129.4475
 20
3.3562
 30
0.0000
  0
SEQEND
  8
0
  0
POLYLINE
  8
20
 66
1
 10
0.0000
 20
0.0000
 30
0.0000
 40
0.0254
 41
0.0254
 70
0
  0
VERTEX
  8
20
 10
129.4475
 20
3.3435
 30
0.0000
 42
1.0000
  0
VERTEX
  8
20
 10
129.4475
 20
3.3689
 30
0.0000
  0
SEQEND
  8
0
  0
POLYLINE
  8
20
 66
1
 10
0.0000
 20
0.0000
 30
0.0000
 40
0.0254
 41
0.0254
 70
0
  0
VERTEX
  8
20
 10
128.9729
 20
3.3689
 30
0.0000
 42
1.0000
  0
VERTEX
  8
20
 10
128.9729
 20
3.3435
 30
0.0000
  0
SEQEND
  8
0
  0
POLYLINE
  8
20
 66
1
 10
0.0000
 20
0.0000
 30
0.0000
 40
0.0508
 41
0.0508
 70
0
  0
VERTEX
  8
20
 10
130.7321
 20
3.3562
 30
0.0000
  0
VERTEX
  8
20
 10
130.4948
 20
3.3562
 30
0.0000
  0
SEQEND
  8
0
  0
POLYLINE
  8
20
 66
1
 10
0.0000
 20
0.0000
 30
0.0000
 40
0.0254
 41
0.0254
 70
0
  0
VERTEX
  8
20
 10
130.4948
 20
3.3689
 30
0.0000
 42
1.0000
  0
VERTEX
  8
20
 10
130.4948
 20
3.3435
 30
0.0000
  0
SEQEND
  8
0
  0
POLYLINE
  8
20
 66
1
 10
0.0000
 20
0.0000
 30
0.0000
 40
0.0254
 41
0.0254
 70
0
  0
VERTEX
  8
20
 10
130.7321
 20
3.3435
 30
0.0000
 42
1.0000
  0
VERTEX
  8
20
 10
130.7321
 20
3.3689
 30
0.0000
  0
SEQEND
  8
0
  0
POLYLINE
  8
20
 66
1
 10
0.0000
 20
0.0000
 30
0.0000
 40
0.0508
 41
0.0508
 70
0
  0
VERTEX
  8
20
 10
130.4948
 20
3.3562
 30
0.0000
  0
VERTEX
  8
20
 10
130.3762
 20
3.2376
 30
0.0000
  0
SEQEND
  8
0
  0
POLYLINE
  8
20
 66
1
 10
0.0000
 20
0.0000
 30
0.0000
 40
0.0254
 41
0.0254
 70
0
  0
VERTEX
  8
20
 10
130.3672
 20
3.2466
 30
0.0000
 42
1.0000
  0
VERTEX
  8
20
 10
130.3852
 20
3.2286
 30
0.0000
  0
SEQEND
  8
0
  0
POLYLINE
  8
20
 66
1
 10
0.0000
 20
0.0000
 30
0.0000
 40
0.0254
 41
0.0254
 70
0
  0
VERTEX
  8
20
 10
130.5038
 20
3.3472
 30
0.0000
 42
1.0000
  0
VERTEX
  8
20
 10
130.4859
 20
3.3652
 30
0.0000
  0
SEQEND
  8
0
  0
POLYLINE
  8
20
 66
1
 10
0.0000
 20
0.0000
 30
0.0000
 40
0.0508
 41
0.0508
 70
0
  0
VERTEX
  8
20
 10
130.3762
 20
3.2376
 30
0.0000
  0
VERTEX
  8
20
 10
130.3762
 20
2.7630
 30
0.0000
  0
SEQEND
  8
0
  0
POLYLINE
  8
20
 66
1
 10
0.0000
 20
0.0000
 30
0.0000
 40
0.0254
 41
0.0254
 70
0
  0
VERTEX
  8
20
 10
130.3635
 20
2.7630
 30
0.0000
 42
1.0000
  0
VERTEX
  8
20
 10
130.3889
 20
2.7630
 30
0.0000
  0
SEQEND
  8
0
  0
POLYLINE
  8
20
 66
1
 10
0.0000
 20
0.0000
 30
0.0000
 40
0.0254
 41
0.0254
 70
0
  0
VERTEX
  8
20
 10
130.3889
 20
3.2376
 30
0.0000
 42
1.0000
  0
VERTEX
  8
20
 10
130.3635
 20
3.2376
 30
0.0000
  0
SEQEND
  8
0
  0
POLYLINE
  8
20
 66
1
 10
0.0000
 20
0.0000
 30
0.0000
 40
0.0508
 41
0.0508
 70
0
  0
VERTEX
  8
20
 10
130.3762
 20
2.7630
 30
0.0000
  0
VERTEX
  8
20
 10
130.4948
 20
2.6444
 30
0.0000
  0
SEQEND
  8
0
  0
POLYLINE
  8
20
 66
1
 10
0.0000
 20
0.0000
 30
0.0000
 40
0.0254
 41
0.0254
 70
0
  0
VERTEX
  8
20
 10
130.4859
 20
2.6354
 30
0.0000
 42
1.0000
  0
VERTEX
  8
20
 10
130.5038
 20
2.6534
 30
0.0000
  0
SEQEND
  8
0
  0
POLYLINE
  8
20
 66
1
 10
0.0000
 20
0.0000
 30
0.0000
 40
0.0254
 41
0.0254
 70
0
  0
VERTEX
  8
20
 10
130.3852
 20
2.7720
 30
0.0000
 42
1.0000
  0
VERTEX
  8
20
 10
130.3672
 20
2.7541
 30
0.0000
  0
SEQEND
  8
0
  0
POLYLINE
  8
20
 66
1
 10
0.0000
 20
0.0000
 30
0.0000
 40
0.0508
 41
0.0508
 70
0
  0
VERTEX
  8
20
 10
130.4948
 20
2.6444
 30
0.0000
  0
VERTEX
  8
20
 10
130.7321
 20
2.6444
 30
0.0000
  0
SEQEND
  8
0
  0
POLYLINE
  8
20
 66
1
 10
0.0000
 20
0.0000
 30
0.0000
 40
0.0254
 41
0.0254
 70
0
  0
VERTEX
  8
20
 10
130.7321
 20
2.6317
 30
0.0000
 42
1.0000
  0
VERTEX
  8
20
 10
130.7321
 20
2.6571
 30
0.0000
  0
SEQEND
  8
0
  0
POLYLINE
  8
20
 66
1
 10
0.0000
 20
0.0000
 30
0.0000
 40
0.0254
 41
0.0254
 70
0
  0
VERTEX
  8
20
 10
130.4948
 20
2.6571
 30
0.0000
 42
1.0000
  0
VERTEX
  8
20
 10
130.4948
 20
2.6317
 30
0.0000
  0
SEQEND
  8
0
  0
POLYLINE
  8
20
 66
1
 10
0.0000
 20
0.0000
 30
0.0000
 40
0.0508
 41
0.0508
 70
0
  0
VERTEX
  8
20
 10
130.7321
 20
2.6444
 30
0.0000
  0
VERTEX
  8
20
 10
130.8508
 20
2.7630
 30
0.0000
  0
SEQEND
  8
0
  0
POLYLINE
  8
20
 66
1
 10
0.0000
 20
0.0000
 30
0.0000
 40
0.0254
 41
0.0254
 70
0
  0
VERTEX
  8
20
 10
130.8597
 20
2.7541
 30
0.0000
 42
1.0000
  0
VERTEX
  8
20
 10
130.8418
 20
2.7720
 30
0.0000
  0
SEQEND
  8
0
  0
POLYLINE
  8
20
 66
1
 10
0.0000
 20
0.0000
 30
0.0000
 40
0.0254
 41
0.0254
 70
0
  0
VERTEX
  8
20
 10
130.7231
 20
2.6534
 30
0.0000
 42
1.0000
  0
VERTEX
  8
20
 10
130.7411
 20
2.6354
 30
0.0000
  0
SEQEND
  8
0
  0
POLYLINE
  8
20
 66
1
 10
0.0000
 20
0.0000
 30
0.0000
 40
0.0508
 41
0.0508
 70
0
  0
VERTEX
  8
20
 10
130.8508
 20
2.7630
 30
0.0000
  0
VERTEX
  8
20
 10
130.8508
 20
3.2376
 30
0.0000
  0
SEQEND
  8
0
  0
POLYLINE
  8
20
 66
1
 10
0.0000
 20
0.0000
 30
0.0000
 40
0.0254
 41
0.0254
 70
0
  0
VERTEX
  8
20
 10
130.8635
 20
3.2376
 30
0.0000
 42
1.0000
  0
VERTEX
  8
20
 10
130.8381
 20
3.2376
 30
0.0000
  0
SEQEND
  8
0
  0
POLYLINE
  8
20
 66
1
 10
0.0000
 20
0.0000
 30
0.0000
 40
0.0254
 41
0.0254
 70
0
  0
VERTEX
  8
20
 10
130.8381
 20
2.7630
 30
0.0000
 42
1.0000
  0
VERTEX
  8
20
 10
130.8635
 20
2.7630
 30
0.0000
  0
SEQEND
  8
0
  0
POLYLINE
  8
20
 66
1
 10
0.0000
 20
0.0000
 30
0.0000
 40
0.0508
 41
0.0508
 70
0
  0
VERTEX
  8
20
 10
130.8508
 20
3.2376
 30
0.0000
  0
VERTEX
  8
20
 10
130.7321
 20
3.3562
 30
0.0000
  0
SEQEND
  8
0
  0
POLYLINE
  8
20
 66
1
 10
0.0000
 20
0.0000
 30
0.0000
 40
0.0254
 41
0.0254
 70
0
  0
VERTEX
  8
20
 10
130.7411
 20
3.3652
 30
0.0000
 42
1.0000
  0
VERTEX
  8
20
 10
130.7231
 20
3.3472
 30
0.0000
  0
SEQEND
  8
0
  0
POLYLINE
  8
20
 66
1
 10
0.0000
 20
0.0000
 30
0.0000
 40
0.0254
 41
0.0254
 70
0
  0
VERTEX
  8
20
 10
130.8418
 20
3.2286
 30
0.0000
 42
1.0000
  0
VERTEX
  8
20
 10
130.8597
 20
3.2466
 30
0.0000
  0
SEQEND
  8
0
  0
POLYLINE
  8
20
 66
1
 10
0.0000
 20
0.0000
 30
0.0000
 40
0.0508
 41
0.0508
 70
0
  0
VERTEX
  8
20
 10
131.0779
 20
3.3562
 30
0.0000
  0
VERTEX
  8
20
 10
131.0779
 20
2.7630
 30
0.0000
  0
SEQEND
  8
0
  0
POLYLINE
  8
20
 66
1
 10
0.0000
 20
0.0000
 30
0.0000
 40
0.0254
 41
0.0254
 70
0
  0
VERTEX
  8
20
 10
131.0652
 20
2.7630
 30
0.0000
 42
1.0000
  0
VERTEX
  8
20
 10
131.0906
 20
2.7630
 30
0.0000
  0
SEQEND
  8
0
  0
POLYLINE
  8
20
 66
1
 10
0.0000
 20
0.0000
 30
0.0000
 40
0.0254
 41
0.0254
 70
0
  0
VERTEX
  8
20
 10
131.0906
 20
3.3562
 30
0.0000
 42
1.0000
  0
VERTEX
  8
20
 10
131.0652
 20
3.3562
 30
0.0000
  0
SEQEND
  8
0
  0
POLYLINE
  8
20
 66
1
 10
0.0000
 20
0.0000
 30
0.0000
 40
0.0508
 41
0.0508
 70
0
  0
VERTEX
  8
20
 10
131.0779
 20
2.7630
 30
0.0000
  0
VERTEX
  8
20
 10
131.1965
 20
2.6444
 30
0.0000
  0
SEQEND
  8
0
  0
POLYLINE
  8
20
 66
1
 10
0.0000
 20
0.0000
 30
0.0000
 40
0.0254
 41
0.0254
 70
0
  0
VERTEX
  8
20
 10
131.1875
 20
2.6354
 30
0.0000
 42
1.0000
  0
VERTEX
  8
20
 10
131.2055
 20
2.6534
 30
0.0000
  0
SEQEND
  8
0
  0
POLYLINE
  8
20
 66
1
 10
0.0000
 20
0.0000
 30
0.0000
 40
0.0254
 41
0.0254
 70
0
  0
VERTEX
  8
20
 10
131.0868
 20
2.7720
 30
0.0000
 42
1.0000
  0
VERTEX
  8
20
 10
131.0689
 20
2.7541
 30
0.0000
  0
SEQEND
  8
0
  0
POLYLINE
  8
20
 66
1
 10
0.0000
 20
0.0000
 30
0.0000
 40
0.0508
 41
0.0508
 70
0
  0
VERTEX
  8
20
 10
131.1965
 20
2.6444
 30
0.0000
  0
VERTEX
  8
20
 10
131.4338
 20
2.6444
 30
0.0000
  0
SEQEND
  8
0
  0
POLYLINE
  8
20
 66
1
 10
0.0000
 20
0.0000
 30
0.0000
 40
0.0254
 41
0.0254
 70
0
  0
VERTEX
  8
20
 10
131.4338
 20
2.6317
 30
0.0000
 42
1.0000
  0
VERTEX
  8
20
 10
131.4338
 20
2.6571
 30
0.0000
  0
SEQEND
  8
0
  0
POLYLINE
  8
20
 66
1
 10
0.0000
 20
0.0000
 30
0.0000
 40
0.0254
 41
0.0254
 70
0
  0
VERTEX
  8
20
 10
131.1965
 20
2.6571
 30
0.0000
 42
1.0000
  0
VERTEX
  8
20
 10
131.1965
 20
2.6317
 30
0.0000
  0
SEQEND
  8
0
  0
POLYLINE
  8
20
 66
1
 10
0.0000
 20
0.0000
 30
0.0000
 40
0.0508
 41
0.0508
 70
0
  0
VERTEX
  8
20
 10
131.4338
 20
2.6444
 30
0.0000
  0
VERTEX
  8
20
 10
131.5524
 20
2.7630
 30
0.0000
  0
SEQEND
  8
0
  0
POLYLINE
  8
20
 66
1
 10
0.0000
 20
0.0000
 30
0.0000
 40
0.0254
 41
0.0254
 70
0
  0
VERTEX
  8
20
 10
131.5614
 20
2.7541
 30
0.0000
 42
1.0000
  0
VERTEX
  8
20
 10
131.5434
 20
2.7720
 30
0.0000
  0
SEQEND
  8
0
  0
POLYLINE
  8
20
 66
1
 10
0.0000
 20
0.0000
 30
0.0000
 40
0.0254
 41
0.0254
 70
0
  0
VERTEX
  8
20
 10
131.4248
 20
2.6534
 30
0.0000
 42
1.0000
  0
VERTEX
  8
20
 10
131.4427
 20
2.6354
 30
0.0000
  0
SEQEND
  8
0
  0
POLYLINE
  8
20
 66
1
 10
0.0000
 20
0.0000
 30
0.0000
 40
0.0508
 41
0.0508
 70
0
  0
VERTEX
  8
20
 10
131.5524
 20
2.7630
 30
0.0000
  0
VERTEX
  8
20
 10
131.5524
 20
3.3562
 30
0.0000
  0
SEQEND
  8
0
  0
POLYLINE
  8
20
 66
1
 10
0.0000
 20
0.0000
 30
0.0000
 40
0.0254
 41
0.0254
 70
0
  0
VERTEX
  8
20
 10
131.5651
 20
3.3562
 30
0.0000
 42
1.0000
  0
VERTEX
  8
20
 10
131.5397
 20
3.3562
 30
0.0000
  0
SEQEND
  8
0
  0
POLYLINE
  8
20
 66
1
 10
0.0000
 20
0.0000
 30
0.0000
 40
0.0254
 41
0.0254
 70
0
  0
VERTEX
  8
20
 10
131.5397
 20
2.7630
 30
0.0000
 42
1.0000
  0
VERTEX
  8
20
 10
131.5651
 20
2.7630
 30
0.0000
  0
SEQEND
  8
0
  0
POLYLINE
  8
20
 66
1
 10
0.0000
 20
0.0000
 30
0.0000
 40
0.0508
 41
0.0508
 70
0
  0
VERTEX
  8
20
 10
132.0168
 20
2.6444
 30
0.0000
  0
VERTEX
  8
20
 10
132.0168
 20
3.3562
 30
0.0000
  0
SEQEND
  8
0
  0
POLYLINE
  8
20
 66
1
 10
0.0000
 20
0.0000
 30
0.0000
 40
0.0254
 41
0.0254
 70
0
  0
VERTEX
  8
20
 10
132.0295
 20
3.3562
 30
0.0000
 42
1.0000
  0
VERTEX
  8
20
 10
132.0041
 20
3.3562
 30
0.0000
  0
SEQEND
  8
0
  0
POLYLINE
  8
20
 66
1
 10
0.0000
 20
0.0000
 30
0.0000
 40
0.0254
 41
0.0254
 70
0
  0
VERTEX
  8
20
 10
132.0041
 20
2.6444
 30
0.0000
 42
1.0000
  0
VERTEX
  8
20
 10
132.0295
 20
2.6444
 30
0.0000
  0
SEQEND
  8
0
  0
POLYLINE
  8
20
 66
1
 10
0.0000
 20
0.0000
 30
0.0000
 40
0.0508
 41
0.0508
 70
0
  0
VERTEX
  8
20
 10
131.7795
 20
3.3562
 30
0.0000
  0
VERTEX
  8
20
 10
132.2540
 20
3.3562
 30
0.0000
  0
SEQEND
  8
0
  0
POLYLINE
  8
20
 66
1
 10
0.0000
 20
0.0000
 30
0.0000
 40
0.0254
 41
0.0254
 70
0
  0
VERTEX
  8
20
 10
132.2540
 20
3.3435
 30
0.0000
 42
1.0000
  0
VERTEX
  8
20
 10
132.2540
 20
3.3689
 30
0.0000
  0
SEQEND
  8
0
  0
POLYLINE
  8
20
 66
1
 10
0.0000
 20
0.0000
 30
0.0000
 40
0.0254
 41
0.0254
 70
0
  0
VERTEX
  8
20
 10
131.7795
 20
3.3689
 30
0.0000
 42
1.0000
  0
VERTEX
  8
20
 10
131.7795
 20
3.3435
 30
0.0000
  0
SEQEND
  8
0
  0
POINT
  8
23
 10
130.0000
 20
125.5000
 30
0.0000
  0
POLYLINE
  8
20
 66
1
 10
0.0000
 20
0.0000
 30
0.0000
 40
0.0025
 41
0.0025
 70
0
  0
VERTEX
  8
20
 10
131.2700
 20
123.9000
 30
0.0000
  0
VERTEX
  8
20
 10
128.7300
 20
123.9000
 30
0.0000
  0
SEQEND
  8
0
  0
POLYLINE
  8
20
 66
1
 10
0.0000
 20
0.0000
 30
0.0000
 40
0.0013
 41
0.0013
 70
0
  0
VERTEX
  8
20
 10
128.7300
 20
123.9006
 30
0.0000
 42
1.0000
  0
VERTEX
  8
20
 10
128.7300
 20
123.8994
 30
0.0000
  0
SEQEND
  8
0
  0
POLYLINE
  8
20
 66
1
 10
0.0000
 20
0.0000
 30
0.0000
 40
0.0013
 41
0.0013
 70
0
  0
VERTEX
  8
20
 10
131.2700
 20
123.8994
 30
0.0000
 42
1.0000
  0
VERTEX
  8
20
 10
131.2700
 20
123.9006
 30
0.0000
  0
SEQEND
  8
0
  0
POLYLINE
  8
20
 66
1
 10
0.0000
 20
0.0000
 30
0.0000
 40
0.0025
 41
0.0025
 70
0
  0
VERTEX
  8
20
 10
131.2700
 20
127.1000
 30
0.0000
  0
VERTEX
  8
20
 10
128.7300
 20
127.1000
 30
0.0000
  0
SEQEND
  8
0
  0
POLYLINE
  8
20
 66
1
 10
0.0000
 20
0.0000
 30
0.0000
 40
0.0013
 41
0.0013
 70
0
  0
VERTEX
  8
20
 10
128.7300
 20
127.1006
 30
0.0000
 42
1.0000
  0
VERTEX
  8
20
 10
128.7300
 20
127.0994
 30
0.0000
  0
SEQEND
  8
0
  0
POLYLINE
  8
20
 66
1
 10
0.0000
 20
0.0000
 30
0.0000
 40
0.0013
 41
0.0013
 70
0
  0
VERTEX
  8
20
 10
131.2700
 20
127.0994
 30
0.0000
 42
1.0000
  0
VERTEX
  8
20
 10
131.2700
 20
127.1006
 30
0.0000
  0
SEQEND
  8
0
  0
POLYLINE
  8
20
 66
1
 10
0.0000
 20
0.0000
 30
0.0000
 40
0.0025
 41
0.0025
 70
0
  0
VERTEX
  8
20
 10
128.7300
 20
127.1000
 30
0.0000
 42
1.0000
  0
VERTEX
  8
20
 10
128.7300
 20
123.9000
 30
0.0000
  0
SEQEND
  8
0
  0
POLYLINE
  8
20
 66
1
 10
0.0000
 20
0.0000
 30
0.0000
 40
0.0013
 41
0.0013
 70
0
  0
VERTEX
  8
20
 10
128.7300
 20
127.0994
 30
0.0000
 42
1.0000
  0
VERTEX
  8
20
 10
128.7300
 20
127.1006
 30
0.0000
  0
SEQEND
  8
0
  0
POLYLINE
  8
20
 66
1
 10
0.0000
 20
0.0000
 30
0.0000
 40
0.0013
 41
0.0013
 70
0
  0
VERTEX
  8
20
 10
128.7300
 20
123.8994
 30
0.0000
 42
1.0000
  0
VERTEX
  8
20
 10
128.7300
 20
123.9006
 30
0.0000
  0
SEQEND
  8
0
  0
POLYLINE
  8
20
 66
1
 10
0.0000
 20
0.0000
 30
0.0000
 40
0.0025
 41
0.0025
 70
0
  0
VERTEX
  8
20
 10
131.2700
 20
123.9000
 30
0.0000
 42
1.0000
  0
VERTEX
  8
20
 10
131.2700
 20
127.1000
 30
0.0000
  0
SEQEND
  8
0
  0
POLYLINE
  8
20
 66
1
 10
0.0000
 20
0.0000
 30
0.0000
 40
0.0013
 41
0.0013
 70
0
  0
VERTEX
  8
20
 10
131.2700
 20
123.9006
 30
0.0000
 42
1.0000
  0
VERTEX
  8
20
 10
131.2700
 20
123.8994
 30
0.0000
  0
SEQEND
  8
0
  0
POLYLINE
  8
20
 66
1
 10
0.0000
 20
0.0000
 30
0.0000
 40
0.0013
 41
0.0013
 70
0
  0
VERTEX
  8
20
 10
131.2700
 20
127.1006
 30
0.0000
 42
1.0000
  0
VERTEX
  8
20
 10
131.2700
 20
127.0994
 30
0.0000
  0
SEQEND
  8
0
  0
POLYLINE
  8
46
 66
1
 10
0.0000
 20
0.0000
 30
0.0000
 40
3.2000
 41
3.2000
 70
0
  0
VERTEX
  8
46
 10
131.2700
 20
125.5000
 30
0.0000
  0
VERTEX
  8
46
 10
128.7300
 20
125.5000
 30
0.0000
  0
SEQEND
  8
0
  0
POLYLINE
  8
46
 66
1
 10
0.0000
 20
0.0000
 30
0.0000
 40
1.6000
 41
1.6000
 70
0
  0
VERTEX
  8
46
 10
128.7300
 20
126.3000
 30
0.0000
 42
1.0000
  0
VERTEX
  8
46
 10
128.7300
 20
124.7000
 30
0.0000
  0
SEQEND
  8
0
  0
POLYLINE
  8
46
 66
1
 10
0.0000
 20
0.0000
 30
0.0000
 40
1.6000
 41
1.6000
 70
0
  0
VERTEX
  8
46
 10
131.2700
 20
124.7000
 30
0.0000
 42
1.0000
  0
VERTEX
  8
46
 10
131.2700
 20
126.3000
 30
0.0000
  0
SEQEND
  8
0
  0
POLYLINE
  8
20
 66
1
 10
0.0000
 20
0.0000
 30
0.0000
 40
0.0508
 41
0.0508
 70
0
  0
VERTEX
  8
20
 10
128.0442
 20
125.7376
 30
0.0000
  0
VERTEX
  8
20
 10
127.9256
 20
125.8562
 30
0.0000
  0
SEQEND
  8
0
  0
POLYLINE
  8
20
 66
1
 10
0.0000
 20
0.0000
 30
0.0000
 40
0.0254
 41
0.0254
 70
0
  0
VERTEX
  8
20
 10
127.9345
 20
125.8652
 30
0.0000
 42
1.0000
  0
VERTEX
  8
20
 10
127.9166
 20
125.8472
 30
0.0000
  0
SEQEND
  8
0
  0
POLYLINE
  8
20
 66
1
 10
0.0000
 20
0.0000
 30
0.0000
 40
0.0254
 41
0.0254
 70
0
  0
VERTEX
  8
20
 10
128.0352
 20
125.7286
 30
0.0000
 42
1.0000
  0
VERTEX
  8
20
 10
128.0532
 20
125.7466
 30
0.0000
  0
SEQEND
  8
0
  0
POLYLINE
  8
20
 66
1
 10
0.0000
 20
0.0000
 30
0.0000
 40
0.0508
 41
0.0508
 70
0
  0
VERTEX
  8
20
 10
127.9256
 20
125.8562
 30
0.0000
  0
VERTEX
  8
20
 10
127.6883
 20
125.8562
 30
0.0000
  0
SEQEND
  8
0
  0
POLYLINE
  8
20
 66
1
 10
0.0000
 20
0.0000
 30
0.0000
 40
0.0254
 41
0.0254
 70
0
  0
VERTEX
  8
20
 10
127.6883
 20
125.8689
 30
0.0000
 42
1.0000
  0
VERTEX
  8
20
 10
127.6883
 20
125.8435
 30
0.0000
  0
SEQEND
  8
0
  0
POLYLINE
  8
20
 66
1
 10
0.0000
 20
0.0000
 30
0.0000
 40
0.0254
 41
0.0254
 70
0
  0
VERTEX
  8
20
 10
127.9256
 20
125.8435
 30
0.0000
 42
1.0000
  0
VERTEX
  8
20
 10
127.9256
 20
125.8689
 30
0.0000
  0
SEQEND
  8
0
  0
POLYLINE
  8
20
 66
1
 10
0.0000
 20
0.0000
 30
0.0000
 40
0.0508
 41
0.0508
 70
0
  0
VERTEX
  8
20
 10
127.6883
 20
125.8562
 30
0.0000
  0
VERTEX
  8
20
 10
127.5697
 20
125.7376
 30
0.0000
  0
SEQEND
  8
0
  0
POLYLINE
  8
20
 66
1
 10
0.0000
 20
0.0000
 30
0.0000
 40
0.0254
 41
0.0254
 70
0
  0
VERTEX
  8
20
 10
127.5607
 20
125.7466
 30
0.0000
 42
1.0000
  0
VERTEX
  8
20
 10
127.5786
 20
125.7286
 30
0.0000
  0
SEQEND
  8
0
  0
POLYLINE
  8
20
 66
1
 10
0.0000
 20
0.0000
 30
0.0000
 40
0.0254
 41
0.0254
 70
0
  0
VERTEX
  8
20
 10
127.6973
 20
125.8472
 30
0.0000
 42
1.0000
  0
VERTEX
  8
20
 10
127.6793
 20
125.8652
 30
0.0000
  0
SEQEND
  8
0
  0
POLYLINE
  8
20
 66
1
 10
0.0000
 20
0.0000
 30
0.0000
 40
0.0508
 41
0.0508
 70
0
  0
VERTEX
  8
20
 10
127.5697
 20
125.7376
 30
0.0000
  0
VERTEX
  8
20
 10
127.5697
 20
125.2630
 30
0.0000
  0
SEQEND
  8
0
  0
POLYLINE
  8
20
 66
1
 10
0.0000
 20
0.0000
 30
0.0000
 40
0.0254
 41
0.0254
 70
0
  0
VERTEX
  8
20
 10
127.5570
 20
125.2630
 30
0.0000
 42
1.0000
  0
VERTEX
  8
20
 10
127.5824
 20
125.2630
 30
0.0000
  0
SEQEND
  8
0
  0
POLYLINE
  8
20
 66
1
 10
0.0000
 20
0.0000
 30
0.0000
 40
0.0254
 41
0.0254
 70
0
  0
VERTEX
  8
20
 10
127.5824
 20
125.7376
 30
0.0000
 42
1.0000
  0
VERTEX
  8
20
 10
127.5570
 20
125.7376
 30
0.0000
  0
SEQEND
  8
0
  0
POLYLINE
  8
20
 66
1
 10
0.0000
 20
0.0000
 30
0.0000
 40
0.0508
 41
0.0508
 70
0
  0
VERTEX
  8
20
 10
127.5697
 20
125.2630
 30
0.0000
  0
VERTEX
  8
20
 10
127.6883
 20
125.1444
 30
0.0000
  0
SEQEND
  8
0
  0
POLYLINE
  8
20
 66
1
 10
0.0000
 20
0.0000
 30
0.0000
 40
0.0254
 41
0.0254
 70
0
  0
VERTEX
  8
20
 10
127.6793
 20
125.1354
 30
0.0000
 42
1.0000
  0
VERTEX
  8
20
 10
127.6973
 20
125.1534
 30
0.0000
  0
SEQEND
  8
0
  0
POLYLINE
  8
20
 66
1
 10
0.0000
 20
0.0000
 30
0.0000
 40
0.0254
 41
0.0254
 70
0
  0
VERTEX
  8
20
 10
127.5786
 20
125.2720
 30
0.0000
 42
1.0000
  0
VERTEX
  8
20
 10
127.5607
 20
125.2541
 30
0.0000
  0
SEQEND
  8
0
  0
POLYLINE
  8
20
 66
1
 10
0.0000
 20
0.0000
 30
0.0000
 40
0.0508
 41
0.0508
 70
0
  0
VERTEX
  8
20
 10
127.6883
 20
125.1444
 30
0.0000
  0
VERTEX
  8
20
 10
127.9256
 20
125.1444
 30
0.0000
  0
SEQEND
  8
0
  0
POLYLINE
  8
20
 66
1
 10
0.0000
 20
0.0000
 30
0.0000
 40
0.0254
 41
0.0254
 70
0
  0
VERTEX
  8
20
 10
127.9256
 20
125.1317
 30
0.0000
 42
1.0000
  0
VERTEX
  8
20
 10
127.9256
 20
125.1571
 30
0.0000
  0
SEQEND
  8
0
  0
POLYLINE
  8
20
 66
1
 10
0.0000
 20
0.0000
 30
0.0000
 40
0.0254
 41
0.0254
 70
0
  0
VERTEX
  8
20
 10
127.6883
 20
125.1571
 30
0.0000
 42
1.0000
  0
VERTEX
  8
20
 10
127.6883
 20
125.1317
 30
0.0000
  0
SEQEND
  8
0
  0
POLYLINE
  8
20
 66
1
 10
0.0000
 20
0.0000
 30
0.0000
 40
0.0508
 41
0.0508
 70
0
  0
VERTEX
  8
20
 10
127.9256
 20
125.1444
 30
0.0000
  0
VERTEX
  8
20
 10
128.0442
 20
125.2630
 30
0.0000
  0
SEQEND
  8
0
  0
POLYLINE
  8
20
 66
1
 10
0.0000
 20
0.0000
 30
0.0000
 40
0.0254
 41
0.0254
 70
0
  0
VERTEX
  8
20
 10
128.0532
 20
125.2541
 30
0.0000
 42
1.0000
  0
VERTEX
  8
20
 10
128.0352
 20
125.2720
 30
0.0000
  0
SEQEND
  8
0
  0
POLYLINE
  8
20
 66
1
 10
0.0000
 20
0.0000
 30
0.0000
 40
0.0254
 41
0.0254
 70
0
  0
VERTEX
  8
20
 10
127.9166
 20
125.1534
 30
0.0000
 42
1.0000
  0
VERTEX
  8
20
 10
127.9345
 20
125.1354
 30
0.0000
  0
SEQEND
  8
0
  0
POLYLINE
  8
20
 66
1
 10
0.0000
 20
0.0000
 30
0.0000
 40
0.0508
 41
0.0508
 70
0
  0
VERTEX
  8
20
 10
128.2713
 20
125.8562
 30
0.0000
  0
VERTEX
  8
20
 10
128.2713
 20
125.2630
 30
0.0000
  0
SEQEND
  8
0
  0
POLYLINE
  8
20
 66
1
 10
0.0000
 20
0.0000
 30
0.0000
 40
0.0254
 41
0.0254
 70
0
  0
VERTEX
  8
20
 10
128.2586
 20
125.2630
 30
0.0000
 42
1.0000
  0
VERTEX
  8
20
 10
128.2840
 20
125.2630
 30
0.0000
  0
SEQEND
  8
0
  0
POLYLINE
  8
20
 66
1
 10
0.0000
 20
0.0000
 30
0.0000
 40
0.0254
 41
0.0254
 70
0
  0
VERTEX
  8
20
 10
128.2840
 20
125.8562
 30
0.0000
 42
1.0000
  0
VERTEX
  8
20
 10
128.2586
 20
125.8562
 30
0.0000
  0
SEQEND
  8
0
  0
POLYLINE
  8
20
 66
1
 10
0.0000
 20
0.0000
 30
0.0000
 40
0.0508
 41
0.0508
 70
0
  0
VERTEX
  8
20
 10
128.2713
 20
125.2630
 30
0.0000
  0
VERTEX
  8
20
 10
128.3899
 20
125.1444
 30
0.0000
  0
SEQEND
  8
0
  0
POLYLINE
  8
20
 66
1
 10
0.0000
 20
0.0000
 30
0.0000
 40
0.0254
 41
0.0254
 70
0
  0
VERTEX
  8
20
 10
128.3810
 20
125.1354
 30
0.0000
 42
1.0000
  0
VERTEX
  8
20
 10
128.3989
 20
125.1534
 30
0.0000
  0
SEQEND
  8
0
  0
POLYLINE
  8
20
 66
1
 10
0.0000
 20
0.0000
 30
0.0000
 40
0.0254
 41
0.0254
 70
0
  0
VERTEX
  8
20
 10
128.2803
 20
125.2720
 30
0.0000
 42
1.0000
  0
VERTEX
  8
20
 10
128.2623
 20
125.2541
 30
0.0000
  0
SEQEND
  8
0
  0
POLYLINE
  8
20
 66
1
 10
0.0000
 20
0.0000
 30
0.0000
 40
0.0508
 41
0.0508
 70
0
  0
VERTEX
  8
20
 10
128.3899
 20
125.1444
 30
0.0000
  0
VERTEX
  8
20
 10
128.6272
 20
125.1444
 30
0.0000
  0
SEQEND
  8
0
  0
POLYLINE
  8
20
 66
1
 10
0.0000
 20
0.0000
 30
0.0000
 40
0.0254
 41
0.0254
 70
0
  0
VERTEX
  8
20
 10
128.6272
 20
125.1317
 30
0.0000
 42
1.0000
  0
VERTEX
  8
20
 10
128.6272
 20
125.1571
 30
0.0000
  0
SEQEND
  8
0
  0
POLYLINE
  8
20
 66
1
 10
0.0000
 20
0.0000
 30
0.0000
 40
0.0254
 41
0.0254
 70
0
  0
VERTEX
  8
20
 10
128.3899
 20
125.1571
 30
0.0000
 42
1.0000
  0
VERTEX
  8
20
 10
128.3899
 20
125.1317
 30
0.0000
  0
SEQEND
  8
0
  0
POLYLINE
  8
20
 66
1
 10
0.0000
 20
0.0000
 30
0.0000
 40
0.0508
 41
0.0508
 70
0
  0
VERTEX
  8
20
 10
128.6272
 20
125.1444
 30
0.0000
  0
VERTEX
  8
20
 10
128.7458
 20
125.2630
 30
0.0000
  0
SEQEND
  8
0
  0
POLYLINE
  8
20
 66
1
 10
0.0000
 20
0.0000
 30
0.0000
 40
0.0254
 41
0.0254
 70
0
  0
VERTEX
  8
20
 10
128.7548
 20
125.2541
 30
0.0000
 42
1.0000
  0
VERTEX
  8
20
 10
128.7369
 20
125.2720
 30
0.0000
  0
SEQEND
  8
0
  0
POLYLINE
  8
20
 66
1
 10
0.0000
 20
0.0000
 30
0.0000
 40
0.0254
 41
0.0254
 70
0
  0
VERTEX
  8
20
 10
128.6182
 20
125.1534
 30
0.0000
 42
1.0000
  0
VERTEX
  8
20
 10
128.6362
 20
125.1354
 30
0.0000
  0
SEQEND
  8
0
  0
POLYLINE
  8
20
 66
1
 10
0.0000
 20
0.0000
 30
0.0000
 40
0.0508
 41
0.0508
 70
0
  0
VERTEX
  8
20
 10
128.7458
 20
125.2630
 30
0.0000
  0
VERTEX
  8
20
 10
128.7458
 20
125.8562
 30
0.0000
  0
SEQEND
  8
0
  0
POLYLINE
  8
20
 66
1
 10
0.0000
 20
0.0000
 30
0.0000
 40
0.0254
 41
0.0254
 70
0
  0
VERTEX
  8
20
 10
128.7585
 20
125.8562
 30
0.0000
 42
1.0000
  0
VERTEX
  8
20
 10
128.7331
 20
125.8562
 30
0.0000
  0
SEQEND
  8
0
  0
POLYLINE
  8
20
 66
1
 10
0.0000
 20
0.0000
 30
0.0000
 40
0.0254
 41
0.0254
 70
0
  0
VERTEX
  8
20
 10
128.7331
 20
125.2630
 30
0.0000
 42
1.0000
  0
VERTEX
  8
20
 10
128.7585
 20
125.2630
 30
0.0000
  0
SEQEND
  8
0
  0
POLYLINE
  8
20
 66
1
 10
0.0000
 20
0.0000
 30
0.0000
 40
0.0508
 41
0.0508
 70
0
  0
VERTEX
  8
20
 10
129.2102
 20
125.1444
 30
0.0000
  0
VERTEX
  8
20
 10
129.2102
 20
125.8562
 30
0.0000
  0
SEQEND
  8
0
  0
POLYLINE
  8
20
 66
1
 10
0.0000
 20
0.0000
 30
0.0000
 40
0.0254
 41
0.0254
 70
0
  0
VERTEX
  8
20
 10
129.2229
 20
125.8562
 30
0.0000
 42
1.0000
  0
VERTEX
  8
20
 10
129.1975
 20
125.8562
 30
0.0000
  0
SEQEND
  8
0
  0
POLYLINE
  8
20
 66
1
 10
0.0000
 20
0.0000
 30
0.0000
 40
0.0254
 41
0.0254
 70
0
  0
VERTEX
  8
20
 10
129.1975
 20
125.1444
 30
0.0000
 42
1.0000
  0
VERTEX
  8
20
 10
129.2229
 20
125.1444
 30
0.0000
  0
SEQEND
  8
0
  0
POLYLINE
  8
20
 66
1
 10
0.0000
 20
0.0000
 30
0.0000
 40
0.0508
 41
0.0508
 70
0
  0
VERTEX
  8
20
 10
128.9729
 20
125.8562
 30
0.0000
  0
VERTEX
  8
20
 10
129.4475
 20
125.8562
 30
0.0000
  0
SEQEND
  8
0
  0
POLYLINE
  8
20
 66
1
 10
0.0000
 20
0.0000
 30
0.0000
 40
0.0254
 41
0.0254
 70
0
  0
VERTEX
  8
20
 10
129.4475
 20
125.8435
 30
0.0000
 42
1.0000
  0
VERTEX
  8
20
 10
129.4475
 20
125.8689
 30
0.0000
  0
SEQEND
  8
0
  0
POLYLINE
  8
20
 66
1
 10
0.0000
 20
0.0000
 30
0.0000
 40
0.0254
 41
0.0254
 70
0
  0
VERTEX
  8
20
 10
128.9729
 20
125.8689
 30
0.0000
 42
1.0000
  0
VERTEX
  8
20
 10
128.9729
 20
125.8435
 30
0.0000
  0
SEQEND
  8
0
  0
POLYLINE
  8
20
 66
1
 10
0.0000
 20
0.0000
 30
0.0000
 40
0.0508
 41
0.0508
 70
0
  0
VERTEX
  8
20
 10
130.7321
 20
125.8562
 30
0.0000
  0
VERTEX
  8
20
 10
130.4948
 20
125.8562
 30
0.0000
  0
SEQEND
  8
0
  0
POLYLINE
  8
20
 66
1
 10
0.0000
 20
0.0000
 30
0.0000
 40
0.0254
 41
0.0254
 70
0
  0
VERTEX
  8
20
 10
130.4948
 20
125.8689
 30
0.0000
 42
1.0000
  0
VERTEX
  8
20
 10
130.4948
 20
125.8435
 30
0.0000
  0
SEQEND
  8
0
  0
POLYLINE
  8
20
 66
1
 10
0.0000
 20
0.0000
 30
0.0000
 40
0.0254
 41
0.0254
 70
0
  0
VERTEX
  8
20
 10
130.7321
 20
125.8435
 30
0.0000
 42
1.0000
  0
VERTEX
  8
20
 10
130.7321
 20
125.8689
 30
0.0000
  0
SEQEND
  8
0
  0
POLYLINE
  8
20
 66
1
 10
0.0000
 20
0.0000
 30
0.0000
 40
0.0508
 41
0.0508
 70
0
  0
VERTEX
  8
20
 10
130.4948
 20
125.8562
 30
0.0000
  0
VERTEX
  8
20
 10
130.3762
 20
125.7376
 30
0.0000
  0
SEQEND
  8
0
  0
POLYLINE
  8
20
 66
1
 10
0.0000
 20
0.0000
 30
0.0000
 40
0.0254
 41
0.0254
 70
0
  0
VERTEX
  8
20
 10
130.3672
 20
125.7466
 30
0.0000
 42
1.0000
  0
VERTEX
  8
20
 10
130.3852
 20
125.7286
 30
0.0000
  0
SEQEND
  8
0
  0
POLYLINE
  8
20
 66
1
 10
0.0000
 20
0.0000
 30
0.0000
 40
0.0254
 41
0.0254
 70
0
  0
VERTEX
  8
20
 10
130.5038
 20
125.8472
 30
0.0000
 42
1.0000
  0
VERTEX
  8
20
 10
130.4859
 20
125.8652
 30
0.0000
  0
SEQEND
  8
0
  0
POLYLINE
  8
20
 66
1
 10
0.0000
 20
0.0000
 30
0.0000
 40
0.0508
 41
0.0508
 70
0
  0
VERTEX
  8
20
 10
130.3762
 20
125.7376
 30
0.0000
  0
VERTEX
  8
20
 10
130.3762
 20
125.2630
 30
0.0000
  0
SEQEND
  8
0
  0
POLYLINE
  8
20
 66
1
 10
0.0000
 20
0.0000
 30
0.0000
 40
0.0254
 41
0.0254
 70
0
  0
VERTEX
  8
20
 10
130.3635
 20
125.2630
 30
0.0000
 42
1.0000
  0
VERTEX
  8
20
 10
130.3889
 20
125.2630
 30
0.0000
  0
SEQEND
  8
0
  0
POLYLINE
  8
20
 66
1
 10
0.0000
 20
0.0000
 30
0.0000
 40
0.0254
 41
0.0254
 70
0
  0
VERTEX
  8
20
 10
130.3889
 20
125.7376
 30
0.0000
 42
1.0000
  0
VERTEX
  8
20
 10
130.3635
 20
125.7376
 30
0.0000
  0
SEQEND
  8
0
  0
POLYLINE
  8
20
 66
1
 10
0.0000
 20
0.0000
 30
0.0000
 40
0.0508
 41
0.0508
 70
0
  0
VERTEX
  8
20
 10
130.3762
 20
125.2630
 30
0.0000
  0
VERTEX
  8
20
 10
130.4948
 20
125.1444
 30
0.0000
  0
SEQEND
  8
0
  0
POLYLINE
  8
20
 66
1
 10
0.0000
 20
0.0000
 30
0.0000
 40
0.0254
 41
0.0254
 70
0
  0
VERTEX
  8
20
 10
130.4859
 20
125.1354
 30
0.0000
 42
1.0000
  0
VERTEX
  8
20
 10
130.5038
 20
125.1534
 30
0.0000
  0
SEQEND
  8
0
  0
POLYLINE
  8
20
 66
1
 10
0.0000
 20
0.0000
 30
0.0000
 40
0.0254
 41
0.0254
 70
0
  0
VERTEX
  8
20
 10
130.3852
 20
125.2720
 30
0.0000
 42
1.0000
  0
VERTEX
  8
20
 10
130.3672
 20
125.2541
 30
0.0000
  0
SEQEND
  8
0
  0
POLYLINE
  8
20
 66
1
 10
0.0000
 20
0.0000
 30
0.0000
 40
0.0508
 41
0.0508
 70
0
  0
VERTEX
  8
20
 10
130.4948
 20
125.1444
 30
0.0000
  0
VERTEX
  8
20
 10
130.7321
 20
125.1444
 30
0.0000
  0
SEQEND
  8
0
  0
POLYLINE
  8
20
 66
1
 10
0.0000
 20
0.0000
 30
0.0000
 40
0.0254
 41
0.0254
 70
0
  0
VERTEX
  8
20
 10
130.7321
 20
125.1317
 30
0.0000
 42
1.0000
  0
VERTEX
  8
20
 10
130.7321
 20
125.1571
 30
0.0000
  0
SEQEND
  8
0
  0
POLYLINE
  8
20
 66
1
 10
0.0000
 20
0.0000
 30
0.0000
 40
0.0254
 41
0.0254
 70
0
  0
VERTEX
  8
20
 10
130.4948
 20
125.1571
 30
0.0000
 42
1.0000
  0
VERTEX
  8
20
 10
130.4948
 20
125.1317
 30
0.0000
  0
SEQEND
  8
0
  0
POLYLINE
  8
20
 66
1
 10
0.0000
 20
0.0000
 30
0.0000
 40
0.0508
 41
0.0508
 70
0
  0
VERTEX
  8
20
 10
130.7321
 20
125.1444
 30
0.0000
  0
VERTEX
  8
20
 10
130.8508
 20
125.2630
 30
0.0000
  0
SEQEND
  8
0
  0
POLYLINE
  8
20
 66
1
 10
0.0000
 20
0.0000
 30
0.0000
 40
0.0254
 41
0.0254
 70
0
  0
VERTEX
  8
20
 10
130.8597
 20
125.2541
 30
0.0000
 42
1.0000
  0
VERTEX
  8
20
 10
130.8418
 20
125.2720
 30
0.0000
  0
SEQEND
  8
0
  0
POLYLINE
  8
20
 66
1
 10
0.0000
 20
0.0000
 30
0.0000
 40
0.0254
 41
0.0254
 70
0
  0
VERTEX
  8
20
 10
130.7231
 20
125.1534
 30
0.0000
 42
1.0000
  0
VERTEX
  8
20
 10
130.7411
 20
125.1354
 30
0.0000
  0
SEQEND
  8
0
  0
POLYLINE
  8
20
 66
1
 10
0.0000
 20
0.0000
 30
0.0000
 40
0.0508
 41
0.0508
 70
0
  0
VERTEX
  8
20
 10
130.8508
 20
125.2630
 30
0.0000
  0
VERTEX
  8
20
 10
130.8508
 20
125.7376
 30
0.0000
  0
SEQEND
  8
0
  0
POLYLINE
  8
20
 66
1
 10
0.0000
 20
0.0000
 30
0.0000
 40
0.0254
 41
0.0254
 70
0
  0
VERTEX
  8
20
 10
130.8635
 20
125.7376
 30
0.0000
 42
1.0000
  0
VERTEX
  8
20
 10
130.8381
 20
125.7376
 30
0.0000
  0
SEQEND
  8
0
  0
POLYLINE
  8
20
 66
1
 10
0.0000
 20
0.0000
 30
0.0000
 40
0.0254
 41
0.0254
 70
0
  0
VERTEX
  8
20
 10
130.8381
 20
125.2630
 30
0.0000
 42
1.0000
  0
VERTEX
  8
20
 10
130.8635
 20
125.2630
 30
0.0000
  0
SEQEND
  8
0
  0
POLYLINE
  8
20
 66
1
 10
0.0000
 20
0.0000
 30
0.0000
 40
0.0508
 41
0.0508
 70
0
  0
VERTEX
  8
20
 10
130.8508
 20
125.7376
 30
0.0000
  0
VERTEX
  8
20
 10
130.7321
 20
125.8562
 30
0.0000
  0
SEQEND
  8
0
  0
POLYLINE
  8
20
 66
1
 10
0.0000
 20
0.0000
 30
0.0000
 40
0.0254
 41
0.0254
 70
0
  0
VERTEX
  8
20
 10
130.7411
 20
125.8652
 30
0.0000
 42
1.0000
  0
VERTEX
  8
20
 10
130.7231
 20
125.8472
 30
0.0000
  0
SEQEND
  8
0
  0
POLYLINE
  8
20
 66
1
 10
0.0000
 20
0.0000
 30
0.0000
 40
0.0254
 41
0.0254
 70
0
  0
VERTEX
  8
20
 10
130.8418
 20
125.7286
 30
0.0000
 42
1.0000
  0
VERTEX
  8
20
 10
130.8597
 20
125.7466
 30
0.0000
  0
SEQEND
  8
0
  0
POLYLINE
  8
20
 66
1
 10
0.0000
 20
0.0000
 30
0.0000
 40
0.0508
 41
0.0508
 70
0
  0
VERTEX
  8
20
 10
131.0779
 20
125.8562
 30
0.0000
  0
VERTEX
  8
20
 10
131.0779
 20
125.2630
 30
0.0000
  0
SEQEND
  8
0
  0
POLYLINE
  8
20
 66
1
 10
0.0000
 20
0.0000
 30
0.0000
 40
0.0254
 41
0.0254
 70
0
  0
VERTEX
  8
20
 10
131.0652
 20
125.2630
 30
0.0000
 42
1.0000
  0
VERTEX
  8
20
 10
131.0906
 20
125.2630
 30
0.0000
  0
SEQEND
  8
0
  0
POLYLINE
  8
20
 66
1
 10
0.0000
 20
0.0000
 30
0.0000
 40
0.0254
 41
0.0254
 70
0
  0
VERTEX
  8
20
 10
131.0906
 20
125.8562
 30
0.0000
 42
1.0000
  0
VERTEX
  8
20
 10
131.0652
 20
125.8562
 30
0.0000
  0
SEQEND
  8
0
  0
POLYLINE
  8
20
 66
1
 10
0.0000
 20
0.0000
 30
0.0000
 40
0.0508
 41
0.0508
 70
0
  0
VERTEX
  8
20
 10
131.0779
 20
125.2630
 30
0.0000
  0
VERTEX
  8
20
 10
131.1965
 20
125.1444
 30
0.0000
  0
SEQEND
  8
0
  0
POLYLINE
  8
20
 66
1
 10
0.0000
 20
0.0000
 30
0.0000
 40
0.0254
 41
0.0254
 70
0
  0
VERTEX
  8
20
 10
131.1875
 20
125.1354
 30
0.0000
 42
1.0000
  0
VERTEX
  8
20
 10
131.2055
 20
125.1534
 30
0.0000
  0
SEQEND
  8
0
  0
POLYLINE
  8
20
 66
1
 10
0.0000
 20
0.0000
 30
0.0000
 40
0.0254
 41
0.0254
 70
0
  0
VERTEX
  8
20
 10
131.0868
 20
125.2720
 30
0.0000
 42
1.0000
  0
VERTEX
  8
20
 10
131.0689
 20
125.2541
 30
0.0000
  0
SEQEND
  8
0
  0
POLYLINE
  8
20
 66
1
 10
0.0000
 20
0.0000
 30
0.0000
 40
0.0508
 41
0.0508
 70
0
  0
VERTEX
  8
20
 10
131.1965
 20
125.1444
 30
0.0000
  0
VERTEX
  8
20
 10
131.4338
 20
125.1444
 30
0.0000
  0
SEQEND
  8
0
  0
POLYLINE
  8
20
 66
1
 10
0.0000
 20
0.0000
 30
0.0000
 40
0.0254
 41
0.0254
 70
0
  0
VERTEX
  8
20
 10
131.4338
 20
125.1317
 30
0.0000
 42
1.0000
  0
VERTEX
  8
20
 10
131.4338
 20
125.1571
 30
0.0000
  0
SEQEND
  8
0
  0
POLYLINE
  8
20
 66
1
 10
0.0000
 20
0.0000
 30
0.0000
 40
0.0254
 41
0.0254
 70
0
  0
VERTEX
  8
20
 10
131.1965
 20
125.1571
 30
0.0000
 42
1.0000
  0
VERTEX
  8
20
 10
131.1965
 20
125.1317
 30
0.0000
  0
SEQEND
  8
0
  0
POLYLINE
  8
20
 66
1
 10
0.0000
 20
0.0000
 30
0.0000
 40
0.0508
 41
0.0508
 70
0
  0
VERTEX
  8
20
 10
131.4338
 20
125.1444
 30
0.0000
  0
VERTEX
  8
20
 10
131.5524
 20
125.2630
 30
0.0000
  0
SEQEND
  8
0
  0
POLYLINE
  8
20
 66
1
 10
0.0000
 20
0.0000
 30
0.0000
 40
0.0254
 41
0.0254
 70
0
  0
VERTEX
  8
20
 10
131.5614
 20
125.2541
 30
0.0000
 42
1.0000
  0
VERTEX
  8
20
 10
131.5434
 20
125.2720
 30
0.0000
  0
SEQEND
  8
0
  0
POLYLINE
  8
20
 66
1
 10
0.0000
 20
0.0000
 30
0.0000
 40
0.0254
 41
0.0254
 70
0
  0
VERTEX
  8
20
 10
131.4248
 20
125.1534
 30
0.0000
 42
1.0000
  0
VERTEX
  8
20
 10
131.4427
 20
125.1354
 30
0.0000
  0
SEQEND
  8
0
  0
POLYLINE
  8
20
 66
1
 10
0.0000
 20
0.0000
 30
0.0000
 40
0.0508
 41
0.0508
 70
0
  0
VERTEX
  8
20
 10
131.5524
 20
125.2630
 30
0.0000
  0
VERTEX
  8
20
 10
131.5524
 20
125.8562
 30
0.0000
  0
SEQEND
  8
0
  0
POLYLINE
  8
20
 66
1
 10
0.0000
 20
0.0000
 30
0.0000
 40
0.0254
 41
0.0254
 70
0
  0
VERTEX
  8
20
 10
131.5651
 20
125.8562
 30
0.0000
 42
1.0000
  0
VERTEX
  8
20
 10
131.5397
 20
125.8562
 30
0.0000
  0
SEQEND
  8
0
  0
POLYLINE
  8
20
 66
1
 10
0.0000
 20
0.0000
 30
0.0000
 40
0.0254
 41
0.0254
 70
0
  0
VERTEX
  8
20
 10
131.5397
 20
125.2630
 30
0.0000
 42
1.0000
  0
VERTEX
  8
20
 10
131.5651
 20
125.2630
 30
0.0000
  0
SEQEND
  8
0
  0
POLYLINE
  8
20
 66
1
 10
0.0000
 20
0.0000
 30
0.0000
 40
0.0508
 41
0.0508
 70
0
  0
VERTEX
  8
20
 10
132.0168
 20
125.1444
 30
0.0000
  0
VERTEX
  8
20
 10
132.0168
 20
125.8562
 30
0.0000
  0
SEQEND
  8
0
  0
POLYLINE
  8
20
 66
1
 10
0.0000
 20
0.0000
 30
0.0000
 40
0.0254
 41
0.0254
 70
0
  0
VERTEX
  8
20
 10
132.0295
 20
125.8562
 30
0.0000
 42
1.0000
  0
VERTEX
  8
20
 10
132.0041
 20
125.8562
 30
0.0000
  0
SEQEND
  8
0
  0
POLYLINE
  8
20
 66
1
 10
0.0000
 20
0.0000
 30
0.0000
 40
0.0254
 41
0.0254
 70
0
  0
VERTEX
  8
20
 10
132.0041
 20
125.1444
 30
0.0000
 42
1.0000
  0
VERTEX
  8
20
 10
132.0295
 20
125.1444
 30
0.0000
  0
SEQEND
  8
0
  0
POLYLINE
  8
20
 66
1
 10
0.0000
 20
0.0000
 30
0.0000
 40
0.0508
 41
0.0508
 70
0
  0
VERTEX
  8
20
 10
131.7795
 20
125.8562
 30
0.0000
  0
VERTEX
  8
20
 10
132.2540
 20
125.8562
 30
0.0000
  0
SEQEND
  8
0
  0
POLYLINE
  8
20
 66
1
 10
0.0000
 20
0.0000
 30
0.0000
 40
0.0254
 41
0.0254
 70
0
  0
VERTEX
  8
20
 10
132.2540
 20
125.8435
 30
0.0000
 42
1.0000
  0
VERTEX
  8
20
 10
132.2540
 20
125.8689
 30
0.0000
  0
SEQEND
  8
0
  0
POLYLINE
  8
20
 66
1
 10
0.0000
 20
0.0000
 30
0.0000
 40
0.0254
 41
0.0254
 70
0
  0
VERTEX
  8
20
 10
131.7795
 20
125.8689
 30
0.0000
 42
1.0000
  0
VERTEX
  8
20
 10
131.7795
 20
125.8435
 30
0.0000
  0
SEQEND
  8
0
  0
POLYLINE
  8
16
 66
1
 10
0.0000
 20
0.0000
 30
0.0000
 40
0.4064
 41
0.4064
 70
0
  0
VERTEX
  8
16
 10
-5.0450
 20
-1.7700
 30
0.0000
  0
VERTEX
  8
16
 10
-5.5850
 20
132.4850
 30
0.0000
  0
SEQEND
  8
0
  0
POLYLINE
  8
16
 66
1
 10
0.0000
 20
0.0000
 30
0.0000
 40
0.2032
 41
0.2032
 70
0
  0
VERTEX
  8
16
 10
-5.4834
 20
132.4854
 30
0.0000
 42
1.0000
  0
VERTEX
  8
16
 10
-5.6866
 20
132.4846
 30
0.0000
  0
SEQEND
  8
0
  0
POLYLINE
  8
16
 66
1
 10
0.0000
 20
0.0000
 30
0.0000
 40
0.2032
 41
0.2032
 70
0
  0
VERTEX
  8
16
 10
-5.1466
 20
-1.7704
 30
0.0000
 42
1.0000
  0
VERTEX
  8
16
 10
-4.9434
 20
-1.7696
 30
0.0000
  0
SEQEND
  8
0
  0
POLYLINE
  8
16
 66
1
 10
0.0000
 20
0.0000
 30
0.0000
 40
0.4064
 41
0.4064
 70
0
  0
VERTEX
  8
16
 10
-5.5850
 20
132.4850
 30
0.0000
  0
VERTEX
  8
16
 10
141.3750
 20
131.4850
 30
0.0000
  0
SEQEND
  8
0
  0
POLYLINE
  8
16
 66
1
 10
0.0000
 20
0.0000
 30
0.0000
 40
0.2032
 41
0.2032
 70
0
  0
VERTEX
  8
16
 10
141.3743
 20
131.3834
 30
0.0000
 42
1.0000
  0
VERTEX
  8
16
 10
141.3757
 20
131.5866
 30
0.0000
  0
SEQEND
  8
0
  0
POLYLINE
  8
16
 66
1
 10
0.0000
 20
0.0000
 30
0.0000
 40
0.2032
 41
0.2032
 70
0
  0
VERTEX
  8
16
 10
-5.5843
 20
132.5866
 30
0.0000
 42
1.0000
  0
VERTEX
  8
16
 10
-5.5857
 20
132.3834
 30
0.0000
  0
SEQEND
  8
0
  0
POLYLINE
  8
16
 66
1
 10
0.0000
 20
0.0000
 30
0.0000
 40
0.4064
 41
0.4064
 70
0
  0
VERTEX
  8
16
 10
141.3750
 20
131.4850
 30
0.0000
  0
VERTEX
  8
16
 10
140.9150
 20
-1.7700
 30
0.0000
  0
SEQEND
  8
0
  0
POLYLINE
  8
16
 66
1
 10
0.0000
 20
0.0000
 30
0.0000
 40
0.2032
 41
0.2032
 70
0
  0
VERTEX
  8
16
 10
140.8134
 20
-1.7696
 30
0.0000
 42
1.0000
  0
VERTEX
  8
16
 10
141.0166
 20
-1.7704
 30
0.0000
  0
SEQEND
  8
0
  0
POLYLINE
  8
16
 66
1
 10
0.0000
 20
0.0000
 30
0.0000
 40
0.2032
 41
0.2032
 70
0
  0
VERTEX
  8
16
 10
141.4766
 20
131.4846
 30
0.0000
 42
1.0000
  0
VERTEX
  8
16
 10
141.2734
 20
131.4854
 30
0.0000
  0
SEQEND
  8
0
  0
POLYLINE
  8
16
 66
1
 10
0.0000
 20
0.0000
 30
0.0000
 40
0.4064
 41
0.4064
 70
0
  0
VERTEX
  8
16
 10
140.9150
 20
-1.7700
 30
0.0000
  0
VERTEX
  8
16
 10
-5.0450
 20
-1.7700
 30
0.0000
  0
SEQEND
  8
0
  0
POLYLINE
  8
16
 66
1
 10
0.0000
 20
0.0000
 30
0.0000
 40
0.2032
 41
0.2032
 70
0
  0
VERTEX
  8
16
 10
-5.0450
 20
-1.6684
 30
0.0000
 42
1.0000
  0
VERTEX
  8
16
 10
-5.0450
 20
-1.8716
 30
0.0000
  0
SEQEND
  8
0
  0
POLYLINE
  8
16
 66
1
 10
0.0000
 20
0.0000
 30
0.0000
 40
0.2032
 41
0.2032
 70
0
  0
VERTEX
  8
16
 10
140.9150
 20
-1.8716
 30
0.0000
 42
1.0000
  0
VERTEX
  8
16
 10
140.9150
 20
-1.6684
 30
0.0000
  0
SEQEND
  8
0
  0
INSERT
  8
18
  2
ROUNDV
 10
39.0000
 20
63.0000
 30
0.0000
 41
7.0160
 42
7.0160
 43
1.0000
 50
0.0000
  0
INSERT
  8
18
  2
ROUNDV
 10
39.0000
 20
63.0000
 30
0.0000
 41
7.0160
 42
7.0160
 43
1.0000
 50
0.0000
  0
INSERT
  8
18
  2
ROUNDV
 10
39.0000
 20
63.0000
 30
0.0000
 41
7.0160
 42
7.0160
 43
1.0000
 50
0.0000
  0
INSERT
  8
18
  2
ROUNDV
 10
39.0000
 20
63.0000
 30
0.0000
 41
7.0160
 42
7.0160
 43
1.0000
 50
0.0000
  0
INSERT
  8
29
  2
ROUNDV
 10
39.0000
 20
63.0000
 30
0.0000
 41
7.1176
 42
7.1176
 43
1.0000
 50
0.0000
  0
INSERT
  8
30
  2
ROUNDV
 10
39.0000
 20
63.0000
 30
0.0000
 41
7.1176
 42
7.1176
 43
1.0000
 50
0.0000
  0
CIRCLE
  8
44
 10
39.0000
 20
63.0000
 30
0.0000
 40
3.0000
  0
INSERT
  8
18
  2
ROUNDV
 10
39.0000
 20
83.0000
 30
0.0000
 41
7.0160
 42
7.0160
 43
1.0000
 50
0.0000
  0
INSERT
  8
18
  2
ROUNDV
 10
39.0000
 20
83.0000
 30
0.0000
 41
7.0160
 42
7.0160
 43
1.0000
 50
0.0000
  0
INSERT
  8
18
  2
ROUNDV
 10
39.0000
 20
83.0000
 30
0.0000
 41
7.0160
 42
7.0160
 43
1.0000
 50
0.0000
  0
INSERT
  8
18
  2
ROUNDV
 10
39.0000
 20
83.0000
 30
0.0000
 41
7.0160
 42
7.0160
 43
1.0000
 50
0.0000
  0
INSERT
  8
29
  2
ROUNDV
 10
39.0000
 20
83.0000
 30
0.0000
 41
7.1176
 42
7.1176
 43
1.0000
 50
0.0000
  0
INSERT
  8
30
  2
ROUNDV
 10
39.0000
 20
83.0000
 30
0.0000
 41
7.1176
 42
7.1176
 43
1.0000
 50
0.0000
  0
CIRCLE
  8
44
 10
39.0000
 20
83.0000
 30
0.0000
 40
3.0000
  0
INSERT
  8
18
  2
ROUNDV
 10
39.0000
 20
40.0000
 30
0.0000
 41
7.0160
 42
7.0160
 43
1.0000
 50
0.0000
  0
INSERT
  8
18
  2
ROUNDV
 10
39.0000
 20
40.0000
 30
0.0000
 41
7.0160
 42
7.0160
 43
1.0000
 50
0.0000
  0
INSERT
  8
18
  2
ROUNDV
 10
39.0000
 20
40.0000
 30
0.0000
 41
7.0160
 42
7.0160
 43
1.0000
 50
0.0000
  0
INSERT
  8
18
  2
ROUNDV
 10
39.0000
 20
40.0000
 30
0.0000
 41
7.0160
 42
7.0160
 43
1.0000
 50
0.0000
  0
INSERT
  8
29
  2
ROUNDV
 10
39.0000
 20
40.0000
 30
0.0000
 41
7.1176
 42
7.1176
 43
1.0000
 50
0.0000
  0
INSERT
  8
30
  2
ROUNDV
 10
39.0000
 20
40.0000
 30
0.0000
 41
7.1176
 42
7.1176
 43
1.0000
 50
0.0000
  0
CIRCLE
  8
44
 10
39.0000
 20
40.0000
 30
0.0000
 40
3.0000
  0
INSERT
  8
18
  2
ROUNDV
 10
79.0000
 20
103.0000
 30
0.0000
 41
7.0160
 42
7.0160
 43
1.0000
 50
0.0000
  0
INSERT
  8
18
  2
ROUNDV
 10
79.0000
 20
103.0000
 30
0.0000
 41
7.0160
 42
7.0160
 43
1.0000
 50
0.0000
  0
INSERT
  8
18
  2
ROUNDV
 10
79.0000
 20
103.0000
 30
0.0000
 41
7.0160
 42
7.0160
 43
1.0000
 50
0.0000
  0
INSERT
  8
18
  2
ROUNDV
 10
79.0000
 20
103.0000
 30
0.0000
 41
7.0160
 42
7.0160
 43
1.0000
 50
0.0000
  0
INSERT
  8
29
  2
ROUNDV
 10
79.0000
 20
103.0000
 30
0.0000
 41
7.1176
 42
7.1176
 43
1.0000
 50
0.0000
  0
INSERT
  8
30
  2
ROUNDV
 10
79.0000
 20
103.0000
 30
0.0000
 41
7.1176
 42
7.1176
 43
1.0000
 50
0.0000
  0
CIRCLE
  8
44
 10
79.0000
 20
103.0000
 30
0.0000
 40
3.0000
  0
INSERT
  8
18
  2
ROUNDV
 10
59.0000
 20
103.0000
 30
0.0000
 41
7.0160
 42
7.0160
 43
1.0000
 50
0.0000
  0
INSERT
  8
18
  2
ROUNDV
 10
59.0000
 20
103.0000
 30
0.0000
 41
7.0160
 42
7.0160
 43
1.0000
 50
0.0000
  0
INSERT
  8
18
  2
ROUNDV
 10
59.0000
 20
103.0000
 30
0.0000
 41
7.0160
 42
7.0160
 43
1.0000
 50
0.0000
  0
INSERT
  8
18
  2
ROUNDV
 10
59.0000
 20
103.0000
 30
0.0000
 41
7.0160
 42
7.0160
 43
1.0000
 50
0.0000
  0
INSERT
  8
29
  2
ROUNDV
 10
59.0000
 20
103.0000
 30
0.0000
 41
7.1176
 42
7.1176
 43
1.0000
 50
0.0000
  0
INSERT
  8
30
  2
ROUNDV
 10
59.0000
 20
103.0000
 30
0.0000
 41
7.1176
 42
7.1176
 43
1.0000
 50
0.0000
  0
CIRCLE
  8
44
 10
59.0000
 20
103.0000
 30
0.0000
 40
3.0000
  0
INSERT
  8
18
  2
ROUNDV
 10
19.0000
 20
23.0000
 30
0.0000
 41
7.0160
 42
7.0160
 43
1.0000
 50
0.0000
  0
INSERT
  8
18
  2
ROUNDV
 10
19.0000
 20
23.0000
 30
0.0000
 41
7.0160
 42
7.0160
 43
1.0000
 50
0.0000
  0
INSERT
  8
18
  2
ROUNDV
 10
19.0000
 20
23.0000
 30
0.0000
 41
7.0160
 42
7.0160
 43
1.0000
 50
0.0000
  0
INSERT
  8
18
  2
ROUNDV
 10
19.0000
 20
23.0000
 30
0.0000
 41
7.0160
 42
7.0160
 43
1.0000
 50
0.0000
  0
INSERT
  8
29
  2
ROUNDV
 10
19.0000
 20
23.0000
 30
0.0000
 41
7.1176
 42
7.1176
 43
1.0000
 50
0.0000
  0
INSERT
  8
30
  2
ROUNDV
 10
19.0000
 20
23.0000
 30
0.0000
 41
7.1176
 42
7.1176
 43
1.0000
 50
0.0000
  0
CIRCLE
  8
44
 10
19.0000
 20
23.0000
 30
0.0000
 40
3.0000
  0
INSERT
  8
18
  2
ROUNDV
 10
79.0000
 20
88.0000
 30
0.0000
 41
8.1160
 42
8.1160
 43
1.0000
 50
0.0000
  0
INSERT
  8
18
  2
ROUNDV
 10
79.0000
 20
88.0000
 30
0.0000
 41
8.1160
 42
8.1160
 43
1.0000
 50
0.0000
  0
INSERT
  8
18
  2
ROUNDV
 10
79.0000
 20
88.0000
 30
0.0000
 41
8.1160
 42
8.1160
 43
1.0000
 50
0.0000
  0
INSERT
  8
18
  2
ROUNDV
 10
79.0000
 20
88.0000
 30
0.0000
 41
8.1160
 42
8.1160
 43
1.0000
 50
0.0000
  0
INSERT
  8
29
  2
ROUNDV
 10
79.0000
 20
88.0000
 30
0.0000
 41
8.2176
 42
8.2176
 43
1.0000
 50
0.0000
  0
INSERT
  8
30
  2
ROUNDV
 10
79.0000
 20
88.0000
 30
0.0000
 41
8.2176
 42
8.2176
 43
1.0000
 50
0.0000
  0
CIRCLE
  8
44
 10
79.0000
 20
88.0000
 30
0.0000
 40
3.5500
  0
INSERT
  8
18
  2
ROUNDV
 10
39.0000
 20
103.0000
 30
0.0000
 41
7.0160
 42
7.0160
 43
1.0000
 50
0.0000
  0
INSERT
  8
18
  2
ROUNDV
 10
39.0000
 20
103.0000
 30
0.0000
 41
7.0160
 42
7.0160
 43
1.0000
 50
0.0000
  0
INSERT
  8
18
  2
ROUNDV
 10
39.0000
 20
103.0000
 30
0.0000
 41
7.0160
 42
7.0160
 43
1.0000
 50
0.0000
  0
INSERT
  8
18
  2
ROUNDV
 10
39.0000
 20
103.0000
 30
0.0000
 41
7.0160
 42
7.0160
 43
1.0000
 50
0.0000
  0
INSERT
  8
29
  2
ROUNDV
 10
39.0000
 20
103.0000
 30
0.0000
 41
7.1176
 42
7.1176
 43
1.0000
 50
0.0000
  0
INSERT
  8
30
  2
ROUNDV
 10
39.0000
 20
103.0000
 30
0.0000
 41
7.1176
 42
7.1176
 43
1.0000
 50
0.0000
  0
CIRCLE
  8
44
 10
39.0000
 20
103.0000
 30
0.0000
 40
3.0000
  0
INSERT
  8
18
  2
ROUNDV
 10
19.0000
 20
84.0000
 30
0.0000
 41
8.1160
 42
8.1160
 43
1.0000
 50
0.0000
  0
INSERT
  8
18
  2
ROUNDV
 10
19.0000
 20
84.0000
 30
0.0000
 41
8.1160
 42
8.1160
 43
1.0000
 50
0.0000
  0
INSERT
  8
18
  2
ROUNDV
 10
19.0000
 20
84.0000
 30
0.0000
 41
8.1160
 42
8.1160
 43
1.0000
 50
0.0000
  0
INSERT
  8
18
  2
ROUNDV
 10
19.0000
 20
84.0000
 30
0.0000
 41
8.1160
 42
8.1160
 43
1.0000
 50
0.0000
  0
INSERT
  8
29
  2
ROUNDV
 10
19.0000
 20
84.0000
 30
0.0000
 41
8.2176
 42
8.2176
 43
1.0000
 50
0.0000
  0
INSERT
  8
30
  2
ROUNDV
 10
19.0000
 20
84.0000
 30
0.0000
 41
8.2176
 42
8.2176
 43
1.0000
 50
0.0000
  0
CIRCLE
  8
44
 10
19.0000
 20
84.0000
 30
0.0000
 40
3.5500
  0
INSERT
  8
18
  2
ROUNDV
 10
19.0000
 20
103.0000
 30
0.0000
 41
8.1160
 42
8.1160
 43
1.0000
 50
0.0000
  0
INSERT
  8
18
  2
ROUNDV
 10
19.0000
 20
103.0000
 30
0.0000
 41
8.1160
 42
8.1160
 43
1.0000
 50
0.0000
  0
INSERT
  8
18
  2
ROUNDV
 10
19.0000
 20
103.0000
 30
0.0000
 41
8.1160
 42
8.1160
 43
1.0000
 50
0.0000
  0
INSERT
  8
18
  2
ROUNDV
 10
19.0000
 20
103.0000
 30
0.0000
 41
8.1160
 42
8.1160
 43
1.0000
 50
0.0000
  0
INSERT
  8
29
  2
ROUNDV
 10
19.0000
 20
103.0000
 30
0.0000
 41
8.2176
 42
8.2176
 43
1.0000
 50
0.0000
  0
INSERT
  8
30
  2
ROUNDV
 10
19.0000
 20
103.0000
 30
0.0000
 41
8.2176
 42
8.2176
 43
1.0000
 50
0.0000
  0
CIRCLE
  8
44
 10
19.0000
 20
103.0000
 30
0.0000
 40
3.5500
  0
INSERT
  8
18
  2
ROUNDV
 10
62.0000
 20
87.0000
 30
0.0000
 41
8.1160
 42
8.1160
 43
1.0000
 50
0.0000
  0
INSERT
  8
18
  2
ROUNDV
 10
62.0000
 20
87.0000
 30
0.0000
 41
8.1160
 42
8.1160
 43
1.0000
 50
0.0000
  0
INSERT
  8
18
  2
ROUNDV
 10
62.0000
 20
87.0000
 30
0.0000
 41
8.1160
 42
8.1160
 43
1.0000
 50
0.0000
  0
INSERT
  8
18
  2
ROUNDV
 10
62.0000
 20
87.0000
 30
0.0000
 41
8.1160
 42
8.1160
 43
1.0000
 50
0.0000
  0
INSERT
  8
29
  2
ROUNDV
 10
62.0000
 20
87.0000
 30
0.0000
 41
8.2176
 42
8.2176
 43
1.0000
 50
0.0000
  0
INSERT
  8
30
  2
ROUNDV
 10
62.0000
 20
87.0000
 30
0.0000
 41
8.2176
 42
8.2176
 43
1.0000
 50
0.0000
  0
CIRCLE
  8
44
 10
62.0000
 20
87.0000
 30
0.0000
 40
3.5500
  0
INSERT
  8
18
  2
ROUNDV
 10
19.0000
 20
40.0000
 30
0.0000
 41
7.0160
 42
7.0160
 43
1.0000
 50
0.0000
  0
INSERT
  8
18
  2
ROUNDV
 10
19.0000
 20
40.0000
 30
0.0000
 41
7.0160
 42
7.0160
 43
1.0000
 50
0.0000
  0
INSERT
  8
18
  2
ROUNDV
 10
19.0000
 20
40.0000
 30
0.0000
 41
7.0160
 42
7.0160
 43
1.0000
 50
0.0000
  0
INSERT
  8
18
  2
ROUNDV
 10
19.0000
 20
40.0000
 30
0.0000
 41
7.0160
 42
7.0160
 43
1.0000
 50
0.0000
  0
INSERT
  8
29
  2
ROUNDV
 10
19.0000
 20
40.0000
 30
0.0000
 41
7.1176
 42
7.1176
 43
1.0000
 50
0.0000
  0
INSERT
  8
30
  2
ROUNDV
 10
19.0000
 20
40.0000
 30
0.0000
 41
7.1176
 42
7.1176
 43
1.0000
 50
0.0000
  0
CIRCLE
  8
44
 10
19.0000
 20
40.0000
 30
0.0000
 40
3.0000
  0
INSERT
  8
18
  2
ROUNDV
 10
97.0000
 20
91.0000
 30
0.0000
 41
8.1160
 42
8.1160
 43
1.0000
 50
0.0000
  0
INSERT
  8
18
  2
ROUNDV
 10
97.0000
 20
91.0000
 30
0.0000
 41
8.1160
 42
8.1160
 43
1.0000
 50
0.0000
  0
INSERT
  8
18
  2
ROUNDV
 10
97.0000
 20
91.0000
 30
0.0000
 41
8.1160
 42
8.1160
 43
1.0000
 50
0.0000
  0
INSERT
  8
18
  2
ROUNDV
 10
97.0000
 20
91.0000
 30
0.0000
 41
8.1160
 42
8.1160
 43
1.0000
 50
0.0000
  0
INSERT
  8
29
  2
ROUNDV
 10
97.0000
 20
91.0000
 30
0.0000
 41
8.2176
 42
8.2176
 43
1.0000
 50
0.0000
  0
INSERT
  8
30
  2
ROUNDV
 10
97.0000
 20
91.0000
 30
0.0000
 41
8.2176
 42
8.2176
 43
1.0000
 50
0.0000
  0
CIRCLE
  8
44
 10
97.0000
 20
91.0000
 30
0.0000
 40
3.5500
  0
INSERT
  8
18
  2
ROUNDV
 10
59.0000
 20
64.0000
 30
0.0000
 41
8.1160
 42
8.1160
 43
1.0000
 50
0.0000
  0
INSERT
  8
18
  2
ROUNDV
 10
59.0000
 20
64.0000
 30
0.0000
 41
8.1160
 42
8.1160
 43
1.0000
 50
0.0000
  0
INSERT
  8
18
  2
ROUNDV
 10
59.0000
 20
64.0000
 30
0.0000
 41
8.1160
 42
8.1160
 43
1.0000
 50
0.0000
  0
INSERT
  8
18
  2
ROUNDV
 10
59.0000
 20
64.0000
 30
0.0000
 41
8.1160
 42
8.1160
 43
1.0000
 50
0.0000
  0
INSERT
  8
29
  2
ROUNDV
 10
59.0000
 20
64.0000
 30
0.0000
 41
8.2176
 42
8.2176
 43
1.0000
 50
0.0000
  0
INSERT
  8
30
  2
ROUNDV
 10
59.0000
 20
64.0000
 30
0.0000
 41
8.2176
 42
8.2176
 43
1.0000
 50
0.0000
  0
CIRCLE
  8
44
 10
59.0000
 20
64.0000
 30
0.0000
 40
3.5500
  0
INSERT
  8
18
  2
ROUNDV
 10
97.0000
 20
67.0000
 30
0.0000
 41
8.1160
 42
8.1160
 43
1.0000
 50
0.0000
  0
INSERT
  8
18
  2
ROUNDV
 10
97.0000
 20
67.0000
 30
0.0000
 41
8.1160
 42
8.1160
 43
1.0000
 50
0.0000
  0
INSERT
  8
18
  2
ROUNDV
 10
97.0000
 20
67.0000
 30
0.0000
 41
8.1160
 42
8.1160
 43
1.0000
 50
0.0000
  0
INSERT
  8
18
  2
ROUNDV
 10
97.0000
 20
67.0000
 30
0.0000
 41
8.1160
 42
8.1160
 43
1.0000
 50
0.0000
  0
INSERT
  8
29
  2
ROUNDV
 10
97.0000
 20
67.0000
 30
0.0000
 41
8.2176
 42
8.2176
 43
1.0000
 50
0.0000
  0
INSERT
  8
30
  2
ROUNDV
 10
97.0000
 20
67.0000
 30
0.0000
 41
8.2176
 42
8.2176
 43
1.0000
 50
0.0000
  0
CIRCLE
  8
44
 10
97.0000
 20
67.0000
 30
0.0000
 40
3.5500
  0
INSERT
  8
18
  2
ROUNDV
 10
97.0000
 20
40.0000
 30
0.0000
 41
8.1160
 42
8.1160
 43
1.0000
 50
0.0000
  0
INSERT
  8
18
  2
ROUNDV
 10
97.0000
 20
40.0000
 30
0.0000
 41
8.1160
 42
8.1160
 43
1.0000
 50
0.0000
  0
INSERT
  8
18
  2
ROUNDV
 10
97.0000
 20
40.0000
 30
0.0000
 41
8.1160
 42
8.1160
 43
1.0000
 50
0.0000
  0
INSERT
  8
18
  2
ROUNDV
 10
97.0000
 20
40.0000
 30
0.0000
 41
8.1160
 42
8.1160
 43
1.0000
 50
0.0000
  0
INSERT
  8
29
  2
ROUNDV
 10
97.0000
 20
40.0000
 30
0.0000
 41
8.2176
 42
8.2176
 43
1.0000
 50
0.0000
  0
INSERT
  8
30
  2
ROUNDV
 10
97.0000
 20
40.0000
 30
0.0000
 41
8.2176
 42
8.2176
 43
1.0000
 50
0.0000
  0
CIRCLE
  8
44
 10
97.0000
 20
40.0000
 30
0.0000
 40
3.5500
  0
INSERT
  8
18
  2
ROUNDV
 10
19.0000
 20
63.0000
 30
0.0000
 41
8.1160
 42
8.1160
 43
1.0000
 50
0.0000
  0
INSERT
  8
18
  2
ROUNDV
 10
19.0000
 20
63.0000
 30
0.0000
 41
8.1160
 42
8.1160
 43
1.0000
 50
0.0000
  0
INSERT
  8
18
  2
ROUNDV
 10
19.0000
 20
63.0000
 30
0.0000
 41
8.1160
 42
8.1160
 43
1.0000
 50
0.0000
  0
INSERT
  8
18
  2
ROUNDV
 10
19.0000
 20
63.0000
 30
0.0000
 41
8.1160
 42
8.1160
 43
1.0000
 50
0.0000
  0
INSERT
  8
29
  2
ROUNDV
 10
19.0000
 20
63.0000
 30
0.0000
 41
8.2176
 42
8.2176
 43
1.0000
 50
0.0000
  0
INSERT
  8
30
  2
ROUNDV
 10
19.0000
 20
63.0000
 30
0.0000
 41
8.2176
 42
8.2176
 43
1.0000
 50
0.0000
  0
CIRCLE
  8
44
 10
19.0000
 20
63.0000
 30
0.0000
 40
3.5500
  0
INSERT
  8
18
  2
ROUNDV
 10
79.0000
 20
63.0000
 30
0.0000
 41
7.0160
 42
7.0160
 43
1.0000
 50
0.0000
  0
INSERT
  8
18
  2
ROUNDV
 10
79.0000
 20
63.0000
 30
0.0000
 41
7.0160
 42
7.0160
 43
1.0000
 50
0.0000
  0
INSERT
  8
18
  2
ROUNDV
 10
79.0000
 20
63.0000
 30
0.0000
 41
7.0160
 42
7.0160
 43
1.0000
 50
0.0000
  0
INSERT
  8
18
  2
ROUNDV
 10
79.0000
 20
63.0000
 30
0.0000
 41
7.0160
 42
7.0160
 43
1.0000
 50
0.0000
  0
INSERT
  8
29
  2
ROUNDV
 10
79.0000
 20
63.0000
 30
0.0000
 41
7.1176
 42
7.1176
 43
1.0000
 50
0.0000
  0
INSERT
  8
30
  2
ROUNDV
 10
79.0000
 20
63.0000
 30
0.0000
 41
7.1176
 42
7.1176
 43
1.0000
 50
0.0000
  0
CIRCLE
  8
44
 10
79.0000
 20
63.0000
 30
0.0000
 40
3.0000
  0
INSERT
  8
18
  2
ROUNDV
 10
79.0000
 20
40.0000
 30
0.0000
 41
7.0160
 42
7.0160
 43
1.0000
 50
0.0000
  0
INSERT
  8
18
  2
ROUNDV
 10
79.0000
 20
40.0000
 30
0.0000
 41
7.0160
 42
7.0160
 43
1.0000
 50
0.0000
  0
INSERT
  8
18
  2
ROUNDV
 10
79.0000
 20
40.0000
 30
0.0000
 41
7.0160
 42
7.0160
 43
1.0000
 50
0.0000
  0
INSERT
  8
18
  2
ROUNDV
 10
79.0000
 20
40.0000
 30
0.0000
 41
7.0160
 42
7.0160
 43
1.0000
 50
0.0000
  0
INSERT
  8
29
  2
ROUNDV
 10
79.0000
 20
40.0000
 30
0.0000
 41
7.1176
 42
7.1176
 43
1.0000
 50
0.0000
  0
INSERT
  8
30
  2
ROUNDV
 10
79.0000
 20
40.0000
 30
0.0000
 41
7.1176
 42
7.1176
 43
1.0000
 50
0.0000
  0
CIRCLE
  8
44
 10
79.0000
 20
40.0000
 30
0.0000
 40
3.0000
  0
INSERT
  8
18
  2
ROUNDV
 10
59.0000
 20
40.0000
 30
0.0000
 41
7.0160
 42
7.0160
 43
1.0000
 50
0.0000
  0
INSERT
  8
18
  2
ROUNDV
 10
59.0000
 20
40.0000
 30
0.0000
 41
7.0160
 42
7.0160
 43
1.0000
 50
0.0000
  0
INSERT
  8
18
  2
ROUNDV
 10
59.0000
 20
40.0000
 30
0.0000
 41
7.0160
 42
7.0160
 43
1.0000
 50
0.0000
  0
INSERT
  8
18
  2
ROUNDV
 10
59.0000
 20
40.0000
 30
0.0000
 41
7.0160
 42
7.0160
 43
1.0000
 50
0.0000
  0
INSERT
  8
29
  2
ROUNDV
 10
59.0000
 20
40.0000
 30
0.0000
 41
7.1176
 42
7.1176
 43
1.0000
 50
0.0000
  0
INSERT
  8
30
  2
ROUNDV
 10
59.0000
 20
40.0000
 30
0.0000
 41
7.1176
 42
7.1176
 43
1.0000
 50
0.0000
  0
CIRCLE
  8
44
 10
59.0000
 20
40.0000
 30
0.0000
 40
3.0000
  0
INSERT
  8
18
  2
ROUNDV
 10
114.0000
 20
34.0000
 30
0.0000
 41
7.0160
 42
7.0160
 43
1.0000
 50
0.0000
  0
INSERT
  8
18
  2
ROUNDV
 10
114.0000
 20
34.0000
 30
0.0000
 41
7.0160
 42
7.0160
 43
1.0000
 50
0.0000
  0
INSERT
  8
18
  2
ROUNDV
 10
114.0000
 20
34.0000
 30
0.0000
 41
7.0160
 42
7.0160
 43
1.0000
 50
0.0000
  0
INSERT
  8
18
  2
ROUNDV
 10
114.0000
 20
34.0000
 30
0.0000
 41
7.0160
 42
7.0160
 43
1.0000
 50
0.0000
  0
INSERT
  8
29
  2
ROUNDV
 10
114.0000
 20
34.0000
 30
0.0000
 41
7.1176
 42
7.1176
 43
1.0000
 50
0.0000
  0
INSERT
  8
30
  2
ROUNDV
 10
114.0000
 20
34.0000
 30
0.0000
 41
7.1176
 42
7.1176
 43
1.0000
 50
0.0000
  0
CIRCLE
  8
44
 10
114.0000
 20
34.0000
 30
0.0000
 40
3.0000
  0
INSERT
  8
18
  2
ROUNDV
 10
114.0000
 20
45.0000
 30
0.0000
 41
7.0160
 42
7.0160
 43
1.0000
 50
0.0000
  0
INSERT
  8
18
  2
ROUNDV
 10
114.0000
 20
45.0000
 30
0.0000
 41
7.0160
 42
7.0160
 43
1.0000
 50
0.0000
  0
INSERT
  8
18
  2
ROUNDV
 10
114.0000
 20
45.0000
 30
0.0000
 41
7.0160
 42
7.0160
 43
1.0000
 50
0.0000
  0
INSERT
  8
18
  2
ROUNDV
 10
114.0000
 20
45.0000
 30
0.0000
 41
7.0160
 42
7.0160
 43
1.0000
 50
0.0000
  0
INSERT
  8
29
  2
ROUNDV
 10
114.0000
 20
45.0000
 30
0.0000
 41
7.1176
 42
7.1176
 43
1.0000
 50
0.0000
  0
INSERT
  8
30
  2
ROUNDV
 10
114.0000
 20
45.0000
 30
0.0000
 41
7.1176
 42
7.1176
 43
1.0000
 50
0.0000
  0
CIRCLE
  8
44
 10
114.0000
 20
45.0000
 30
0.0000
 40
3.0000
  0
INSERT
  8
18
  2
ROUNDV
 10
128.0000
 20
34.0000
 30
0.0000
 41
7.0160
 42
7.0160
 43
1.0000
 50
0.0000
  0
INSERT
  8
18
  2
ROUNDV
 10
128.0000
 20
34.0000
 30
0.0000
 41
7.0160
 42
7.0160
 43
1.0000
 50
0.0000
  0
INSERT
  8
18
  2
ROUNDV
 10
128.0000
 20
34.0000
 30
0.0000
 41
7.0160
 42
7.0160
 43
1.0000
 50
0.0000
  0
INSERT
  8
18
  2
ROUNDV
 10
128.0000
 20
34.0000
 30
0.0000
 41
7.0160
 42
7.0160
 43
1.0000
 50
0.0000
  0
INSERT
  8
29
  2
ROUNDV
 10
128.0000
 20
34.0000
 30
0.0000
 41
7.1176
 42
7.1176
 43
1.0000
 50
0.0000
  0
INSERT
  8
30
  2
ROUNDV
 10
128.0000
 20
34.0000
 30
0.0000
 41
7.1176
 42
7.1176
 43
1.0000
 50
0.0000
  0
CIRCLE
  8
44
 10
128.0000
 20
34.0000
 30
0.0000
 40
3.0000
  0
INSERT
  8
18
  2
ROUNDV
 10
114.0000
 20
60.0000
 30
0.0000
 41
7.0160
 42
7.0160
 43
1.0000
 50
0.0000
  0
INSERT
  8
18
  2
ROUNDV
 10
114.0000
 20
60.0000
 30
0.0000
 41
7.0160
 42
7.0160
 43
1.0000
 50
0.0000
  0
INSERT
  8
18
  2
ROUNDV
 10
114.0000
 20
60.0000
 30
0.0000
 41
7.0160
 42
7.0160
 43
1.0000
 50
0.0000
  0
INSERT
  8
18
  2
ROUNDV
 10
114.0000
 20
60.0000
 30
0.0000
 41
7.0160
 42
7.0160
 43
1.0000
 50
0.0000
  0
INSERT
  8
29
  2
ROUNDV
 10
114.0000
 20
60.0000
 30
0.0000
 41
7.1176
 42
7.1176
 43
1.0000
 50
0.0000
  0
INSERT
  8
30
  2
ROUNDV
 10
114.0000
 20
60.0000
 30
0.0000
 41
7.1176
 42
7.1176
 43
1.0000
 50
0.0000
  0
CIRCLE
  8
44
 10
114.0000
 20
60.0000
 30
0.0000
 40
3.0000
  0
INSERT
  8
18
  2
ROUNDV
 10
114.0000
 20
77.0000
 30
0.0000
 41
7.0160
 42
7.0160
 43
1.0000
 50
0.0000
  0
INSERT
  8
18
  2
ROUNDV
 10
114.0000
 20
77.0000
 30
0.0000
 41
7.0160
 42
7.0160
 43
1.0000
 50
0.0000
  0
INSERT
  8
18
  2
ROUNDV
 10
114.0000
 20
77.0000
 30
0.0000
 41
7.0160
 42
7.0160
 43
1.0000
 50
0.0000
  0
INSERT
  8
18
  2
ROUNDV
 10
114.0000
 20
77.0000
 30
0.0000
 41
7.0160
 42
7.0160
 43
1.0000
 50
0.0000
  0
INSERT
  8
29
  2
ROUNDV
 10
114.0000
 20
77.0000
 30
0.0000
 41
7.1176
 42
7.1176
 43
1.0000
 50
0.0000
  0
INSERT
  8
30
  2
ROUNDV
 10
114.0000
 20
77.0000
 30
0.0000
 41
7.1176
 42
7.1176
 43
1.0000
 50
0.0000
  0
CIRCLE
  8
44
 10
114.0000
 20
77.0000
 30
0.0000
 40
3.0000
  0
INSERT
  8
18
  2
ROUNDV
 10
97.0000
 20
52.0000
 30
0.0000
 41
4.2160
 42
4.2160
 43
1.0000
 50
0.0000
  0
INSERT
  8
18
  2
ROUNDV
 10
97.0000
 20
52.0000
 30
0.0000
 41
4.2160
 42
4.2160
 43
1.0000
 50
0.0000
  0
INSERT
  8
18
  2
ROUNDV
 10
97.0000
 20
52.0000
 30
0.0000
 41
4.2160
 42
4.2160
 43
1.0000
 50
0.0000
  0
INSERT
  8
18
  2
ROUNDV
 10
97.0000
 20
52.0000
 30
0.0000
 41
4.2160
 42
4.2160
 43
1.0000
 50
0.0000
  0
INSERT
  8
29
  2
ROUNDV
 10
97.0000
 20
52.0000
 30
0.0000
 41
4.3176
 42
4.3176
 43
1.0000
 50
0.0000
  0
INSERT
  8
30
  2
ROUNDV
 10
97.0000
 20
52.0000
 30
0.0000
 41
4.3176
 42
4.3176
 43
1.0000
 50
0.0000
  0
CIRCLE
  8
44
 10
97.0000
 20
52.0000
 30
0.0000
 40
1.6000
  0
INSERT
  8
18
  2
ROUNDV
 10
127.0000
 20
94.0000
 30
0.0000
 41
10.0160
 42
10.0160
 43
1.0000
 50
0.0000
  0
INSERT
  8
18
  2
ROUNDV
 10
127.0000
 20
94.0000
 30
0.0000
 41
10.0160
 42
10.0160
 43
1.0000
 50
0.0000
  0
INSERT
  8
18
  2
ROUNDV
 10
127.0000
 20
94.0000
 30
0.0000
 41
10.0160
 42
10.0160
 43
1.0000
 50
0.0000
  0
INSERT
  8
18
  2
ROUNDV
 10
127.0000
 20
94.0000
 30
0.0000
 41
10.0160
 42
10.0160
 43
1.0000
 50
0.0000
  0
INSERT
  8
29
  2
ROUNDV
 10
127.0000
 20
94.0000
 30
0.0000
 41
10.1176
 42
10.1176
 43
1.0000
 50
0.0000
  0
INSERT
  8
30
  2
ROUNDV
 10
127.0000
 20
94.0000
 30
0.0000
 41
10.1176
 42
10.1176
 43
1.0000
 50
0.0000
  0
CIRCLE
  8
44
 10
127.0000
 20
94.0000
 30
0.0000
 40
4.5000
  0
INSERT
  8
18
  2
ROUNDV
 10
57.0000
 20
23.0000
 30
0.0000
 41
6.0160
 42
6.0160
 43
1.0000
 50
0.0000
  0
INSERT
  8
18
  2
ROUNDV
 10
57.0000
 20
23.0000
 30
0.0000
 41
6.0160
 42
6.0160
 43
1.0000
 50
0.0000
  0
INSERT
  8
18
  2
ROUNDV
 10
57.0000
 20
23.0000
 30
0.0000
 41
6.0160
 42
6.0160
 43
1.0000
 50
0.0000
  0
INSERT
  8
18
  2
ROUNDV
 10
57.0000
 20
23.0000
 30
0.0000
 41
6.0160
 42
6.0160
 43
1.0000
 50
0.0000
  0
INSERT
  8
29
  2
ROUNDV
 10
57.0000
 20
23.0000
 30
0.0000
 41
6.1176
 42
6.1176
 43
1.0000
 50
0.0000
  0
INSERT
  8
30
  2
ROUNDV
 10
57.0000
 20
23.0000
 30
0.0000
 41
6.1176
 42
6.1176
 43
1.0000
 50
0.0000
  0
CIRCLE
  8
44
 10
57.0000
 20
23.0000
 30
0.0000
 40
2.5000
  0
INSERT
  8
18
  2
ROUNDV
 10
109.0000
 20
101.0000
 30
0.0000
 41
6.0160
 42
6.0160
 43
1.0000
 50
0.0000
  0
INSERT
  8
18
  2
ROUNDV
 10
109.0000
 20
101.0000
 30
0.0000
 41
6.0160
 42
6.0160
 43
1.0000
 50
0.0000
  0
INSERT
  8
18
  2
ROUNDV
 10
109.0000
 20
101.0000
 30
0.0000
 41
6.0160
 42
6.0160
 43
1.0000
 50
0.0000
  0
INSERT
  8
18
  2
ROUNDV
 10
109.0000
 20
101.0000
 30
0.0000
 41
6.0160
 42
6.0160
 43
1.0000
 50
0.0000
  0
INSERT
  8
29
  2
ROUNDV
 10
109.0000
 20
101.0000
 30
0.0000
 41
6.1176
 42
6.1176
 43
1.0000
 50
0.0000
  0
INSERT
  8
30
  2
ROUNDV
 10
109.0000
 20
101.0000
 30
0.0000
 41
6.1176
 42
6.1176
 43
1.0000
 50
0.0000
  0
CIRCLE
  8
44
 10
109.0000
 20
101.0000
 30
0.0000
 40
2.5000
  0
ENDSEC
  0
EOF
