%
M48
M72
T01C0.23622
T02C0.27953
%
T01
X123444Y88217
X168719Y135461
X241554Y135461
X288798Y88217
X361633Y229950
X361633Y285068
X361633Y340186
X314389Y340186
X314389Y285068
X243522Y289005
X168719Y289005
X101790Y285068
X101790Y340186
X52578Y340186
X52578Y285068
X52578Y229950
T02
X58483Y129556
X117538Y163020
X170688Y212233
X170688Y212233
X241554Y212233
X241554Y212233
X290767Y163020
X349822Y129556
X241554Y357902
X239585Y428769
X172656Y428769
X170688Y357902
X88011Y458296
X324231Y458296
M30
