G75*
%MOIN*%
%OFA0B0*%
%FSLAX25Y25*%
%IPPOS*%
%LPD*%
%AMOC8*
5,1,8,0,0,1.08239X$1,22.5*
%
%ADD10C,0.01600*%
%ADD11C,0.28022*%
%ADD12C,0.32353*%
D10*
X0110672Y0496340D02*
X0119880Y0496340D01*
X0122949Y0499409D01*
X0122949Y0511687D01*
X0119880Y0514756D01*
X0110672Y0514756D01*
X0110672Y0496340D01*
X0129088Y0499409D02*
X0132157Y0496340D01*
X0141365Y0496340D01*
X0141365Y0508617D01*
X0147504Y0499409D02*
X0150573Y0502479D01*
X0159781Y0502479D01*
X0159781Y0505548D02*
X0156711Y0508617D01*
X0150573Y0508617D01*
X0147504Y0499409D02*
X0150573Y0496340D01*
X0159781Y0496340D01*
X0159781Y0505548D01*
X0165919Y0496340D02*
X0172058Y0496340D01*
X0168989Y0496340D02*
X0168989Y0514756D01*
X0165919Y0514756D01*
X0196612Y0514756D02*
X0208889Y0496340D01*
X0215028Y0496340D02*
X0215028Y0514756D01*
X0224236Y0514756D01*
X0227305Y0511687D01*
X0227305Y0505548D01*
X0224236Y0502479D01*
X0215028Y0502479D01*
X0221166Y0502479D02*
X0227305Y0496340D01*
X0233444Y0505548D02*
X0245721Y0505548D01*
X0251859Y0502479D02*
X0251859Y0514756D01*
X0251859Y0502479D02*
X0257998Y0496340D01*
X0264137Y0502479D01*
X0264137Y0514756D01*
X0270275Y0511687D02*
X0270275Y0499409D01*
X0273344Y0496340D01*
X0279483Y0496340D01*
X0282552Y0499409D01*
X0288691Y0499409D02*
X0291760Y0496340D01*
X0297899Y0496340D01*
X0300968Y0499409D01*
X0300968Y0511687D01*
X0297899Y0514756D01*
X0291760Y0514756D01*
X0288691Y0511687D01*
X0288691Y0499409D01*
X0282552Y0511687D02*
X0279483Y0514756D01*
X0273344Y0514756D01*
X0270275Y0511687D01*
X0208889Y0514756D02*
X0196612Y0496340D01*
X0129088Y0499409D02*
X0129088Y0508617D01*
D11*
X0101790Y0340186D03*
X0101790Y0285068D03*
X0052578Y0285068D03*
X0052578Y0340186D03*
X0052578Y0229950D03*
X0123444Y0088217D03*
X0168719Y0135461D03*
X0241554Y0135461D03*
X0288798Y0088217D03*
X0361633Y0229950D03*
X0361633Y0285068D03*
X0361633Y0340186D03*
X0314389Y0340186D03*
X0314389Y0285068D03*
X0243522Y0289005D03*
X0168719Y0289005D03*
D12*
X0058483Y0129556D03*
X0117538Y0163020D03*
X0170688Y0212233D03*
X0170688Y0212233D03*
X0241554Y0212233D03*
X0241554Y0212233D03*
X0290767Y0163020D03*
X0349822Y0129556D03*
X0241554Y0357902D03*
X0239585Y0428769D03*
X0172656Y0428769D03*
X0170688Y0357902D03*
X0088011Y0458296D03*
X0324231Y0458296D03*
M02*
