G75*
%MOIN*%
%OFA0B0*%
%FSLAX25Y25*%
%IPPOS*%
%LPD*%
%AMOC8*
5,1,8,0,0,1.08239X$1,22.5*
%
%ADD10C,0.01600*%
%ADD11C,0.27622*%
%ADD12C,0.31953*%
D10*
X0024850Y0023088D02*
X0024850Y0525394D01*
X0387392Y0525394D01*
X0387392Y0023088D01*
X0024850Y0023088D01*
X0024850Y0024485D02*
X0387392Y0024485D01*
X0387392Y0026084D02*
X0374546Y0026084D01*
X0375229Y0026367D02*
X0372251Y0025133D01*
X0371386Y0025133D01*
X0371386Y0025133D01*
X0359891Y0025133D01*
X0359891Y0025133D01*
X0359027Y0025133D01*
X0356048Y0026367D01*
X0356048Y0026367D01*
X0353768Y0028646D01*
X0353768Y0028646D01*
X0352534Y0031625D01*
X0352534Y0034849D01*
X0353768Y0037828D01*
X0353768Y0037828D01*
X0356048Y0040107D01*
X0356048Y0040107D01*
X0359027Y0041341D01*
X0359891Y0041341D01*
X0359891Y0041341D01*
X0371386Y0041341D01*
X0371386Y0041341D01*
X0372251Y0041341D01*
X0375229Y0040107D01*
X0375229Y0040107D01*
X0377509Y0037828D01*
X0377509Y0037828D01*
X0378743Y0034849D01*
X0378743Y0031625D01*
X0377509Y0028646D01*
X0377509Y0028646D01*
X0375229Y0026367D01*
X0375229Y0026367D01*
X0376545Y0027682D02*
X0387392Y0027682D01*
X0387392Y0029281D02*
X0377772Y0029281D01*
X0378434Y0030879D02*
X0387392Y0030879D01*
X0387392Y0032478D02*
X0378743Y0032478D01*
X0378743Y0034076D02*
X0387392Y0034076D01*
X0387392Y0035675D02*
X0378401Y0035675D01*
X0377739Y0037273D02*
X0387392Y0037273D01*
X0387392Y0038872D02*
X0376465Y0038872D01*
X0374353Y0040470D02*
X0387392Y0040470D01*
X0387392Y0042069D02*
X0024850Y0042069D01*
X0024850Y0043667D02*
X0387392Y0043667D01*
X0387392Y0045266D02*
X0024850Y0045266D01*
X0024850Y0046864D02*
X0387392Y0046864D01*
X0387392Y0048463D02*
X0024850Y0048463D01*
X0024850Y0050061D02*
X0387392Y0050061D01*
X0387392Y0051660D02*
X0024850Y0051660D01*
X0024850Y0053258D02*
X0387392Y0053258D01*
X0387392Y0054857D02*
X0024850Y0054857D01*
X0024850Y0056455D02*
X0387392Y0056455D01*
X0387392Y0058054D02*
X0024850Y0058054D01*
X0024850Y0059652D02*
X0387392Y0059652D01*
X0387392Y0061251D02*
X0024850Y0061251D01*
X0024850Y0062849D02*
X0387392Y0062849D01*
X0387392Y0064448D02*
X0024850Y0064448D01*
X0024850Y0066047D02*
X0387392Y0066047D01*
X0387392Y0067645D02*
X0024850Y0067645D01*
X0024850Y0069244D02*
X0387392Y0069244D01*
X0387392Y0070842D02*
X0024850Y0070842D01*
X0024850Y0072441D02*
X0387392Y0072441D01*
X0387392Y0074039D02*
X0294655Y0074039D01*
X0294669Y0074043D02*
X0298138Y0076045D01*
X0300970Y0078878D01*
X0302972Y0082346D01*
X0304009Y0086215D01*
X0304009Y0090220D01*
X0302972Y0094089D01*
X0300970Y0097557D01*
X0298138Y0100389D01*
X0294669Y0102392D01*
X0290801Y0103428D01*
X0286795Y0103428D01*
X0282927Y0102392D01*
X0279458Y0100389D01*
X0276626Y0097557D01*
X0274624Y0094089D01*
X0273587Y0090220D01*
X0273587Y0086215D01*
X0274624Y0082346D01*
X0276626Y0078878D01*
X0279458Y0076045D01*
X0282927Y0074043D01*
X0286795Y0073006D01*
X0290801Y0073006D01*
X0294669Y0074043D01*
X0297431Y0075638D02*
X0387392Y0075638D01*
X0387392Y0077236D02*
X0299328Y0077236D01*
X0300927Y0078835D02*
X0387392Y0078835D01*
X0387392Y0080433D02*
X0301868Y0080433D01*
X0302791Y0082032D02*
X0387392Y0082032D01*
X0387392Y0083630D02*
X0303316Y0083630D01*
X0303745Y0085229D02*
X0387392Y0085229D01*
X0387392Y0086827D02*
X0304009Y0086827D01*
X0304009Y0088426D02*
X0387392Y0088426D01*
X0387392Y0090024D02*
X0304009Y0090024D01*
X0303633Y0091623D02*
X0387392Y0091623D01*
X0387392Y0093221D02*
X0303205Y0093221D01*
X0302550Y0094820D02*
X0387392Y0094820D01*
X0387392Y0096418D02*
X0301627Y0096418D01*
X0300510Y0098017D02*
X0387392Y0098017D01*
X0387392Y0099615D02*
X0298912Y0099615D01*
X0296710Y0101214D02*
X0387392Y0101214D01*
X0387392Y0102812D02*
X0293100Y0102812D01*
X0284496Y0102812D02*
X0024850Y0102812D01*
X0024850Y0101214D02*
X0280886Y0101214D01*
X0278684Y0099615D02*
X0024850Y0099615D01*
X0024850Y0098017D02*
X0277086Y0098017D01*
X0275969Y0096418D02*
X0024850Y0096418D01*
X0024850Y0094820D02*
X0275046Y0094820D01*
X0274391Y0093221D02*
X0024850Y0093221D01*
X0024850Y0091623D02*
X0273963Y0091623D01*
X0273587Y0090024D02*
X0024850Y0090024D01*
X0024850Y0088426D02*
X0273587Y0088426D01*
X0273587Y0086827D02*
X0024850Y0086827D01*
X0024850Y0085229D02*
X0273851Y0085229D01*
X0274280Y0083630D02*
X0024850Y0083630D01*
X0024850Y0082032D02*
X0274805Y0082032D01*
X0275728Y0080433D02*
X0024850Y0080433D01*
X0024850Y0078835D02*
X0276669Y0078835D01*
X0278268Y0077236D02*
X0024850Y0077236D01*
X0024850Y0075638D02*
X0280165Y0075638D01*
X0282941Y0074039D02*
X0024850Y0074039D01*
X0024850Y0104411D02*
X0387392Y0104411D01*
X0387392Y0106009D02*
X0024850Y0106009D01*
X0024850Y0107608D02*
X0387392Y0107608D01*
X0387392Y0109206D02*
X0024850Y0109206D01*
X0024850Y0110805D02*
X0387392Y0110805D01*
X0387392Y0112403D02*
X0352945Y0112403D01*
X0352109Y0112180D02*
X0356529Y0113364D01*
X0360491Y0115651D01*
X0363726Y0118887D01*
X0366014Y0122849D01*
X0367198Y0127268D01*
X0367198Y0131844D01*
X0366014Y0136263D01*
X0363726Y0140225D01*
X0360491Y0143460D01*
X0356529Y0145748D01*
X0352109Y0146932D01*
X0347534Y0146932D01*
X0343115Y0145748D01*
X0339152Y0143460D01*
X0335917Y0140225D01*
X0333629Y0136263D01*
X0332445Y0131844D01*
X0332445Y0127268D01*
X0333629Y0122849D01*
X0335917Y0118887D01*
X0339152Y0115651D01*
X0343115Y0113364D01*
X0347534Y0112180D01*
X0352109Y0112180D01*
X0357634Y0114002D02*
X0387392Y0114002D01*
X0387392Y0115600D02*
X0360403Y0115600D01*
X0362039Y0117199D02*
X0387392Y0117199D01*
X0387392Y0118797D02*
X0363637Y0118797D01*
X0364598Y0120396D02*
X0387392Y0120396D01*
X0387392Y0121994D02*
X0365521Y0121994D01*
X0366213Y0123593D02*
X0387392Y0123593D01*
X0387392Y0125191D02*
X0366642Y0125191D01*
X0367070Y0126790D02*
X0387392Y0126790D01*
X0387392Y0128388D02*
X0367198Y0128388D01*
X0367198Y0129987D02*
X0387392Y0129987D01*
X0387392Y0131585D02*
X0367198Y0131585D01*
X0366839Y0133184D02*
X0387392Y0133184D01*
X0387392Y0134782D02*
X0366411Y0134782D01*
X0365946Y0136381D02*
X0387392Y0136381D01*
X0387392Y0137980D02*
X0365023Y0137980D01*
X0364100Y0139578D02*
X0387392Y0139578D01*
X0387392Y0141177D02*
X0362775Y0141177D01*
X0361176Y0142775D02*
X0387392Y0142775D01*
X0387392Y0144374D02*
X0358909Y0144374D01*
X0355693Y0145972D02*
X0387392Y0145972D01*
X0387392Y0147571D02*
X0298759Y0147571D01*
X0297474Y0146828D02*
X0301436Y0149116D01*
X0304671Y0152351D01*
X0306959Y0156313D01*
X0308143Y0160733D01*
X0308143Y0165308D01*
X0306959Y0169727D01*
X0304671Y0173690D01*
X0301436Y0176925D01*
X0297474Y0179213D01*
X0293054Y0180397D01*
X0288479Y0180397D01*
X0284059Y0179213D01*
X0280097Y0176925D01*
X0276862Y0173690D01*
X0274574Y0169727D01*
X0273390Y0165308D01*
X0273390Y0160733D01*
X0274574Y0156313D01*
X0276862Y0152351D01*
X0280097Y0149116D01*
X0284059Y0146828D01*
X0288479Y0145644D01*
X0293054Y0145644D01*
X0297474Y0146828D01*
X0294278Y0145972D02*
X0343950Y0145972D01*
X0340734Y0144374D02*
X0253973Y0144374D01*
X0253726Y0144801D02*
X0250894Y0147633D01*
X0247425Y0149636D01*
X0243557Y0150672D01*
X0239551Y0150672D01*
X0235683Y0149636D01*
X0232214Y0147633D01*
X0229382Y0144801D01*
X0227380Y0141333D01*
X0226343Y0137464D01*
X0226343Y0133459D01*
X0227380Y0129590D01*
X0229382Y0126122D01*
X0232214Y0123290D01*
X0235683Y0121287D01*
X0239551Y0120250D01*
X0243557Y0120250D01*
X0247425Y0121287D01*
X0250894Y0123290D01*
X0253726Y0126122D01*
X0255728Y0129590D01*
X0256765Y0133459D01*
X0256765Y0137464D01*
X0255728Y0141333D01*
X0253726Y0144801D01*
X0252555Y0145972D02*
X0287255Y0145972D01*
X0282774Y0147571D02*
X0250956Y0147571D01*
X0248234Y0149169D02*
X0280044Y0149169D01*
X0278445Y0150768D02*
X0024850Y0150768D01*
X0024850Y0152366D02*
X0276853Y0152366D01*
X0275930Y0153965D02*
X0024850Y0153965D01*
X0024850Y0155563D02*
X0275008Y0155563D01*
X0274347Y0157162D02*
X0024850Y0157162D01*
X0024850Y0158760D02*
X0273919Y0158760D01*
X0273490Y0160359D02*
X0024850Y0160359D01*
X0024850Y0161957D02*
X0273390Y0161957D01*
X0273390Y0163556D02*
X0024850Y0163556D01*
X0024850Y0165154D02*
X0273390Y0165154D01*
X0273777Y0166753D02*
X0024850Y0166753D01*
X0024850Y0168351D02*
X0274206Y0168351D01*
X0274703Y0169950D02*
X0024850Y0169950D01*
X0024850Y0171548D02*
X0275626Y0171548D01*
X0276548Y0173147D02*
X0024850Y0173147D01*
X0024850Y0174745D02*
X0277917Y0174745D01*
X0279516Y0176344D02*
X0024850Y0176344D01*
X0024850Y0177942D02*
X0281859Y0177942D01*
X0285284Y0179541D02*
X0024850Y0179541D01*
X0024850Y0181139D02*
X0387392Y0181139D01*
X0387392Y0179541D02*
X0296249Y0179541D01*
X0299674Y0177942D02*
X0387392Y0177942D01*
X0387392Y0176344D02*
X0302017Y0176344D01*
X0303616Y0174745D02*
X0387392Y0174745D01*
X0387392Y0173147D02*
X0304985Y0173147D01*
X0305908Y0171548D02*
X0387392Y0171548D01*
X0387392Y0169950D02*
X0306830Y0169950D01*
X0307328Y0168351D02*
X0387392Y0168351D01*
X0387392Y0166753D02*
X0307756Y0166753D01*
X0308143Y0165154D02*
X0387392Y0165154D01*
X0387392Y0163556D02*
X0308143Y0163556D01*
X0308143Y0161957D02*
X0387392Y0161957D01*
X0387392Y0160359D02*
X0308043Y0160359D01*
X0307614Y0158760D02*
X0387392Y0158760D01*
X0387392Y0157162D02*
X0307186Y0157162D01*
X0306526Y0155563D02*
X0387392Y0155563D01*
X0387392Y0153965D02*
X0305603Y0153965D01*
X0304680Y0152366D02*
X0387392Y0152366D01*
X0387392Y0150768D02*
X0303088Y0150768D01*
X0301489Y0149169D02*
X0387392Y0149169D01*
X0387392Y0182738D02*
X0024850Y0182738D01*
X0024850Y0184336D02*
X0387392Y0184336D01*
X0387392Y0185935D02*
X0024850Y0185935D01*
X0024850Y0187533D02*
X0387392Y0187533D01*
X0387392Y0189132D02*
X0024850Y0189132D01*
X0024850Y0190730D02*
X0387392Y0190730D01*
X0387392Y0192329D02*
X0024850Y0192329D01*
X0024850Y0193927D02*
X0387392Y0193927D01*
X0387392Y0195526D02*
X0246339Y0195526D01*
X0248261Y0196041D02*
X0252223Y0198329D01*
X0255458Y0201564D01*
X0257746Y0205526D01*
X0258930Y0209945D01*
X0258930Y0214521D01*
X0257746Y0218940D01*
X0255458Y0222902D01*
X0252223Y0226138D01*
X0248261Y0228425D01*
X0243842Y0229609D01*
X0239266Y0229609D01*
X0234847Y0228425D01*
X0230885Y0226138D01*
X0227649Y0222902D01*
X0225362Y0218940D01*
X0224178Y0214521D01*
X0224178Y0209945D01*
X0225362Y0205526D01*
X0227649Y0201564D01*
X0230885Y0198329D01*
X0234847Y0196041D01*
X0239266Y0194857D01*
X0243842Y0194857D01*
X0248261Y0196041D01*
X0250138Y0197124D02*
X0387392Y0197124D01*
X0387392Y0198723D02*
X0252618Y0198723D01*
X0254216Y0200321D02*
X0387392Y0200321D01*
X0387392Y0201920D02*
X0255664Y0201920D01*
X0256587Y0203518D02*
X0387392Y0203518D01*
X0387392Y0205117D02*
X0257510Y0205117D01*
X0258065Y0206716D02*
X0387392Y0206716D01*
X0387392Y0208314D02*
X0258493Y0208314D01*
X0258921Y0209913D02*
X0387392Y0209913D01*
X0387392Y0211511D02*
X0258930Y0211511D01*
X0258930Y0213110D02*
X0387392Y0213110D01*
X0387392Y0214708D02*
X0258880Y0214708D01*
X0258452Y0216307D02*
X0354841Y0216307D01*
X0355761Y0215775D02*
X0359630Y0214739D01*
X0363635Y0214739D01*
X0367504Y0215775D01*
X0370972Y0217778D01*
X0373805Y0220610D01*
X0375807Y0224078D01*
X0376844Y0227947D01*
X0376844Y0231952D01*
X0375807Y0235821D01*
X0373805Y0239289D01*
X0370972Y0242121D01*
X0367504Y0244124D01*
X0363635Y0245161D01*
X0359630Y0245161D01*
X0355761Y0244124D01*
X0352293Y0242121D01*
X0349461Y0239289D01*
X0347458Y0235821D01*
X0346422Y0231952D01*
X0346422Y0227947D01*
X0347458Y0224078D01*
X0349461Y0220610D01*
X0352293Y0217778D01*
X0355761Y0215775D01*
X0352166Y0217905D02*
X0258023Y0217905D01*
X0257421Y0219504D02*
X0350567Y0219504D01*
X0349177Y0221102D02*
X0256498Y0221102D01*
X0255575Y0222701D02*
X0348254Y0222701D01*
X0347399Y0224299D02*
X0254062Y0224299D01*
X0252463Y0225898D02*
X0346971Y0225898D01*
X0346542Y0227496D02*
X0249870Y0227496D01*
X0245763Y0229095D02*
X0346422Y0229095D01*
X0346422Y0230693D02*
X0067789Y0230693D01*
X0067789Y0231952D02*
X0066752Y0235821D01*
X0064749Y0239289D01*
X0061917Y0242121D01*
X0058449Y0244124D01*
X0054580Y0245161D01*
X0050575Y0245161D01*
X0046706Y0244124D01*
X0043238Y0242121D01*
X0040406Y0239289D01*
X0038403Y0235821D01*
X0037367Y0231952D01*
X0037367Y0227947D01*
X0038403Y0224078D01*
X0040406Y0220610D01*
X0043238Y0217778D01*
X0046706Y0215775D01*
X0050575Y0214739D01*
X0054580Y0214739D01*
X0058449Y0215775D01*
X0061917Y0217778D01*
X0064749Y0220610D01*
X0066752Y0224078D01*
X0067789Y0227947D01*
X0067789Y0231952D01*
X0067698Y0232292D02*
X0346513Y0232292D01*
X0346941Y0233890D02*
X0067269Y0233890D01*
X0066841Y0235489D02*
X0347369Y0235489D01*
X0348189Y0237087D02*
X0066021Y0237087D01*
X0065098Y0238686D02*
X0349112Y0238686D01*
X0350456Y0240284D02*
X0063755Y0240284D01*
X0062156Y0241883D02*
X0352054Y0241883D01*
X0354648Y0243481D02*
X0059562Y0243481D01*
X0054882Y0245080D02*
X0359328Y0245080D01*
X0363937Y0245080D02*
X0387392Y0245080D01*
X0387392Y0246678D02*
X0024850Y0246678D01*
X0024850Y0245080D02*
X0050273Y0245080D01*
X0045593Y0243481D02*
X0024850Y0243481D01*
X0024850Y0241883D02*
X0042999Y0241883D01*
X0041401Y0240284D02*
X0024850Y0240284D01*
X0024850Y0238686D02*
X0040057Y0238686D01*
X0039134Y0237087D02*
X0024850Y0237087D01*
X0024850Y0235489D02*
X0038314Y0235489D01*
X0037886Y0233890D02*
X0024850Y0233890D01*
X0024850Y0232292D02*
X0037458Y0232292D01*
X0037367Y0230693D02*
X0024850Y0230693D01*
X0024850Y0229095D02*
X0037367Y0229095D01*
X0037487Y0227496D02*
X0024850Y0227496D01*
X0024850Y0225898D02*
X0037916Y0225898D01*
X0038344Y0224299D02*
X0024850Y0224299D01*
X0024850Y0222701D02*
X0039199Y0222701D01*
X0040121Y0221102D02*
X0024850Y0221102D01*
X0024850Y0219504D02*
X0041512Y0219504D01*
X0043110Y0217905D02*
X0024850Y0217905D01*
X0024850Y0216307D02*
X0045786Y0216307D01*
X0059369Y0216307D02*
X0224656Y0216307D01*
X0225084Y0217905D02*
X0062045Y0217905D01*
X0063643Y0219504D02*
X0225687Y0219504D01*
X0226610Y0221102D02*
X0065034Y0221102D01*
X0065957Y0222701D02*
X0227533Y0222701D01*
X0229046Y0224299D02*
X0066811Y0224299D01*
X0067239Y0225898D02*
X0230645Y0225898D01*
X0233238Y0227496D02*
X0067668Y0227496D01*
X0067789Y0229095D02*
X0237345Y0229095D01*
X0224228Y0214708D02*
X0024850Y0214708D01*
X0024850Y0213110D02*
X0224178Y0213110D01*
X0224178Y0211511D02*
X0024850Y0211511D01*
X0024850Y0209913D02*
X0224186Y0209913D01*
X0224615Y0208314D02*
X0024850Y0208314D01*
X0024850Y0206716D02*
X0225043Y0206716D01*
X0225598Y0205117D02*
X0024850Y0205117D01*
X0024850Y0203518D02*
X0226521Y0203518D01*
X0227444Y0201920D02*
X0024850Y0201920D01*
X0024850Y0200321D02*
X0228892Y0200321D01*
X0230490Y0198723D02*
X0024850Y0198723D01*
X0024850Y0197124D02*
X0232970Y0197124D01*
X0236769Y0195526D02*
X0024850Y0195526D01*
X0024850Y0149169D02*
X0234874Y0149169D01*
X0232151Y0147571D02*
X0024850Y0147571D01*
X0024850Y0145972D02*
X0230553Y0145972D01*
X0229135Y0144374D02*
X0024850Y0144374D01*
X0024850Y0142775D02*
X0228212Y0142775D01*
X0227338Y0141177D02*
X0024850Y0141177D01*
X0024850Y0139578D02*
X0226909Y0139578D01*
X0226481Y0137980D02*
X0024850Y0137980D01*
X0024850Y0136381D02*
X0226343Y0136381D01*
X0226343Y0134782D02*
X0024850Y0134782D01*
X0024850Y0133184D02*
X0226417Y0133184D01*
X0226845Y0131585D02*
X0024850Y0131585D01*
X0024850Y0129987D02*
X0227273Y0129987D01*
X0228073Y0128388D02*
X0024850Y0128388D01*
X0024850Y0126790D02*
X0228996Y0126790D01*
X0230312Y0125191D02*
X0024850Y0125191D01*
X0024850Y0123593D02*
X0231911Y0123593D01*
X0234457Y0121994D02*
X0024850Y0121994D01*
X0024850Y0120396D02*
X0239008Y0120396D01*
X0244100Y0120396D02*
X0335046Y0120396D01*
X0334123Y0121994D02*
X0248650Y0121994D01*
X0251197Y0123593D02*
X0333430Y0123593D01*
X0333002Y0125191D02*
X0252796Y0125191D01*
X0254112Y0126790D02*
X0332573Y0126790D01*
X0332445Y0128388D02*
X0255035Y0128388D01*
X0255835Y0129987D02*
X0332445Y0129987D01*
X0332445Y0131585D02*
X0256263Y0131585D01*
X0256691Y0133184D02*
X0332804Y0133184D01*
X0333233Y0134782D02*
X0256765Y0134782D01*
X0256765Y0136381D02*
X0333698Y0136381D01*
X0334621Y0137980D02*
X0256627Y0137980D01*
X0256198Y0139578D02*
X0335543Y0139578D01*
X0336868Y0141177D02*
X0255770Y0141177D01*
X0254896Y0142775D02*
X0338467Y0142775D01*
X0336006Y0118797D02*
X0024850Y0118797D01*
X0024850Y0117199D02*
X0337605Y0117199D01*
X0339241Y0115600D02*
X0024850Y0115600D01*
X0024850Y0114002D02*
X0342009Y0114002D01*
X0346699Y0112403D02*
X0024850Y0112403D01*
X0024850Y0040470D02*
X0043932Y0040470D01*
X0043056Y0040107D02*
X0043056Y0040107D01*
X0040776Y0037828D01*
X0040776Y0037828D01*
X0039542Y0034849D01*
X0039542Y0031625D01*
X0040776Y0028646D01*
X0043056Y0026367D01*
X0043056Y0026367D01*
X0046034Y0025133D01*
X0046899Y0025133D01*
X0058394Y0025133D01*
X0059258Y0025133D01*
X0062237Y0026367D01*
X0064517Y0028646D01*
X0064517Y0028646D01*
X0065751Y0031625D01*
X0065751Y0034849D01*
X0064517Y0037828D01*
X0062237Y0040107D01*
X0059258Y0041341D01*
X0058394Y0041341D01*
X0058394Y0041341D01*
X0046899Y0041341D01*
X0046034Y0041341D01*
X0043056Y0040107D01*
X0041820Y0038872D02*
X0024850Y0038872D01*
X0024850Y0037273D02*
X0040546Y0037273D01*
X0039884Y0035675D02*
X0024850Y0035675D01*
X0024850Y0034076D02*
X0039542Y0034076D01*
X0039542Y0032478D02*
X0024850Y0032478D01*
X0024850Y0030879D02*
X0039851Y0030879D01*
X0040513Y0029281D02*
X0024850Y0029281D01*
X0024850Y0027682D02*
X0041740Y0027682D01*
X0043056Y0026367D02*
X0043056Y0026367D01*
X0043739Y0026084D02*
X0024850Y0026084D01*
X0046899Y0025133D02*
X0046899Y0025133D01*
X0058394Y0025133D02*
X0058394Y0025133D01*
X0061554Y0026084D02*
X0356731Y0026084D01*
X0356048Y0026367D02*
X0356048Y0026367D01*
X0354732Y0027682D02*
X0063553Y0027682D01*
X0062237Y0026367D02*
X0062237Y0026367D01*
X0064780Y0029281D02*
X0353505Y0029281D01*
X0352843Y0030879D02*
X0065442Y0030879D01*
X0065751Y0032478D02*
X0352534Y0032478D01*
X0352534Y0034076D02*
X0065751Y0034076D01*
X0065409Y0035675D02*
X0352876Y0035675D01*
X0353539Y0037273D02*
X0064746Y0037273D01*
X0064517Y0037828D02*
X0064517Y0037828D01*
X0063473Y0038872D02*
X0354812Y0038872D01*
X0356924Y0040470D02*
X0061361Y0040470D01*
X0062237Y0040107D02*
X0062237Y0040107D01*
X0046899Y0041341D02*
X0046899Y0041341D01*
X0024850Y0248277D02*
X0387392Y0248277D01*
X0387392Y0249875D02*
X0024850Y0249875D01*
X0024850Y0251474D02*
X0387392Y0251474D01*
X0387392Y0253072D02*
X0024850Y0253072D01*
X0024850Y0254671D02*
X0387392Y0254671D01*
X0387392Y0256269D02*
X0024850Y0256269D01*
X0024850Y0257868D02*
X0387392Y0257868D01*
X0387392Y0259466D02*
X0024850Y0259466D01*
X0024850Y0261065D02*
X0387392Y0261065D01*
X0387392Y0262663D02*
X0024850Y0262663D01*
X0024850Y0264262D02*
X0387392Y0264262D01*
X0387392Y0265860D02*
X0024850Y0265860D01*
X0024850Y0267459D02*
X0387392Y0267459D01*
X0387392Y0269057D02*
X0024850Y0269057D01*
X0024850Y0270656D02*
X0309403Y0270656D01*
X0308517Y0270893D02*
X0312386Y0269857D01*
X0316391Y0269857D01*
X0320260Y0270893D01*
X0323728Y0272896D01*
X0326560Y0275728D01*
X0328563Y0279196D01*
X0329600Y0283065D01*
X0329600Y0287070D01*
X0328563Y0290939D01*
X0326560Y0294407D01*
X0323728Y0297240D01*
X0320260Y0299242D01*
X0316391Y0300279D01*
X0312386Y0300279D01*
X0308517Y0299242D01*
X0305049Y0297240D01*
X0302217Y0294407D01*
X0300214Y0290939D01*
X0299178Y0287070D01*
X0299178Y0283065D01*
X0300214Y0279196D01*
X0302217Y0275728D01*
X0305049Y0272896D01*
X0308517Y0270893D01*
X0306160Y0272254D02*
X0024850Y0272254D01*
X0024850Y0273853D02*
X0241299Y0273853D01*
X0241520Y0273794D02*
X0245525Y0273794D01*
X0249394Y0274830D01*
X0252862Y0276833D01*
X0255694Y0279665D01*
X0257697Y0283133D01*
X0258733Y0287002D01*
X0258733Y0291007D01*
X0257697Y0294876D01*
X0255694Y0298345D01*
X0252862Y0301177D01*
X0249394Y0303179D01*
X0245525Y0304216D01*
X0241520Y0304216D01*
X0237651Y0303179D01*
X0234183Y0301177D01*
X0231351Y0298345D01*
X0229348Y0294876D01*
X0228311Y0291007D01*
X0228311Y0287002D01*
X0229348Y0283133D01*
X0231351Y0279665D01*
X0234183Y0276833D01*
X0237651Y0274830D01*
X0241520Y0273794D01*
X0245746Y0273853D02*
X0304092Y0273853D01*
X0302493Y0275451D02*
X0250470Y0275451D01*
X0253079Y0277050D02*
X0301453Y0277050D01*
X0300531Y0278649D02*
X0254678Y0278649D01*
X0256030Y0280247D02*
X0299933Y0280247D01*
X0299504Y0281846D02*
X0256953Y0281846D01*
X0257780Y0283444D02*
X0299178Y0283444D01*
X0299178Y0285043D02*
X0258208Y0285043D01*
X0258637Y0286641D02*
X0299178Y0286641D01*
X0299491Y0288240D02*
X0258733Y0288240D01*
X0258733Y0289838D02*
X0299919Y0289838D01*
X0300501Y0291437D02*
X0258618Y0291437D01*
X0258190Y0293035D02*
X0301424Y0293035D01*
X0302443Y0294634D02*
X0257762Y0294634D01*
X0256914Y0296232D02*
X0304041Y0296232D01*
X0306073Y0297831D02*
X0255991Y0297831D01*
X0254610Y0299429D02*
X0309215Y0299429D01*
X0319562Y0299429D02*
X0356459Y0299429D01*
X0355761Y0299242D02*
X0352293Y0297240D01*
X0349461Y0294407D01*
X0347458Y0290939D01*
X0346422Y0287070D01*
X0346422Y0283065D01*
X0347458Y0279196D01*
X0349461Y0275728D01*
X0352293Y0272896D01*
X0355761Y0270893D01*
X0359630Y0269857D01*
X0363635Y0269857D01*
X0367504Y0270893D01*
X0370972Y0272896D01*
X0373805Y0275728D01*
X0375807Y0279196D01*
X0376844Y0283065D01*
X0376844Y0287070D01*
X0375807Y0290939D01*
X0373805Y0294407D01*
X0370972Y0297240D01*
X0367504Y0299242D01*
X0363635Y0300279D01*
X0359630Y0300279D01*
X0355761Y0299242D01*
X0353317Y0297831D02*
X0322705Y0297831D01*
X0324736Y0296232D02*
X0351285Y0296232D01*
X0349687Y0294634D02*
X0326334Y0294634D01*
X0327353Y0293035D02*
X0348668Y0293035D01*
X0347746Y0291437D02*
X0328276Y0291437D01*
X0328858Y0289838D02*
X0347163Y0289838D01*
X0346735Y0288240D02*
X0329286Y0288240D01*
X0329600Y0286641D02*
X0346422Y0286641D01*
X0346422Y0285043D02*
X0329600Y0285043D01*
X0329600Y0283444D02*
X0346422Y0283444D01*
X0346748Y0281846D02*
X0329273Y0281846D01*
X0328844Y0280247D02*
X0347177Y0280247D01*
X0347775Y0278649D02*
X0328247Y0278649D01*
X0327324Y0277050D02*
X0348698Y0277050D01*
X0349737Y0275451D02*
X0326284Y0275451D01*
X0324685Y0273853D02*
X0351336Y0273853D01*
X0353404Y0272254D02*
X0322617Y0272254D01*
X0319374Y0270656D02*
X0356647Y0270656D01*
X0366618Y0270656D02*
X0387392Y0270656D01*
X0387392Y0272254D02*
X0369862Y0272254D01*
X0371930Y0273853D02*
X0387392Y0273853D01*
X0387392Y0275451D02*
X0373528Y0275451D01*
X0374568Y0277050D02*
X0387392Y0277050D01*
X0387392Y0278649D02*
X0375491Y0278649D01*
X0376089Y0280247D02*
X0387392Y0280247D01*
X0387392Y0281846D02*
X0376517Y0281846D01*
X0376844Y0283444D02*
X0387392Y0283444D01*
X0387392Y0285043D02*
X0376844Y0285043D01*
X0376844Y0286641D02*
X0387392Y0286641D01*
X0387392Y0288240D02*
X0376530Y0288240D01*
X0376102Y0289838D02*
X0387392Y0289838D01*
X0387392Y0291437D02*
X0375520Y0291437D01*
X0374597Y0293035D02*
X0387392Y0293035D01*
X0387392Y0294634D02*
X0373578Y0294634D01*
X0371980Y0296232D02*
X0387392Y0296232D01*
X0387392Y0297831D02*
X0369949Y0297831D01*
X0366806Y0299429D02*
X0387392Y0299429D01*
X0387392Y0301028D02*
X0253011Y0301028D01*
X0250351Y0302626D02*
X0387392Y0302626D01*
X0387392Y0304225D02*
X0024850Y0304225D01*
X0024850Y0305823D02*
X0387392Y0305823D01*
X0387392Y0307422D02*
X0024850Y0307422D01*
X0024850Y0309020D02*
X0387392Y0309020D01*
X0387392Y0310619D02*
X0024850Y0310619D01*
X0024850Y0312217D02*
X0387392Y0312217D01*
X0387392Y0313816D02*
X0024850Y0313816D01*
X0024850Y0315414D02*
X0387392Y0315414D01*
X0387392Y0317013D02*
X0024850Y0317013D01*
X0024850Y0318611D02*
X0387392Y0318611D01*
X0387392Y0320210D02*
X0024850Y0320210D01*
X0024850Y0321808D02*
X0387392Y0321808D01*
X0387392Y0323407D02*
X0024850Y0323407D01*
X0024850Y0325005D02*
X0312272Y0325005D01*
X0312386Y0324975D02*
X0316391Y0324975D01*
X0320260Y0326011D01*
X0323728Y0328014D01*
X0326560Y0330846D01*
X0328563Y0334315D01*
X0329600Y0338183D01*
X0329600Y0342188D01*
X0328563Y0346057D01*
X0326560Y0349526D01*
X0323728Y0352358D01*
X0320260Y0354360D01*
X0316391Y0355397D01*
X0312386Y0355397D01*
X0308517Y0354360D01*
X0305049Y0352358D01*
X0302217Y0349526D01*
X0300214Y0346057D01*
X0299178Y0342188D01*
X0299178Y0338183D01*
X0300214Y0334315D01*
X0302217Y0330846D01*
X0305049Y0328014D01*
X0308517Y0326011D01*
X0312386Y0324975D01*
X0316505Y0325005D02*
X0359516Y0325005D01*
X0359630Y0324975D02*
X0363635Y0324975D01*
X0367504Y0326011D01*
X0370972Y0328014D01*
X0373805Y0330846D01*
X0375807Y0334315D01*
X0376844Y0338183D01*
X0376844Y0342188D01*
X0375807Y0346057D01*
X0373805Y0349526D01*
X0370972Y0352358D01*
X0367504Y0354360D01*
X0363635Y0355397D01*
X0359630Y0355397D01*
X0355761Y0354360D01*
X0352293Y0352358D01*
X0349461Y0349526D01*
X0347458Y0346057D01*
X0346422Y0342188D01*
X0346422Y0338183D01*
X0347458Y0334315D01*
X0349461Y0330846D01*
X0352293Y0328014D01*
X0355761Y0326011D01*
X0359630Y0324975D01*
X0363749Y0325005D02*
X0387392Y0325005D01*
X0387392Y0326604D02*
X0368530Y0326604D01*
X0371161Y0328202D02*
X0387392Y0328202D01*
X0387392Y0329801D02*
X0372759Y0329801D01*
X0374124Y0331399D02*
X0387392Y0331399D01*
X0387392Y0332998D02*
X0375047Y0332998D01*
X0375883Y0334596D02*
X0387392Y0334596D01*
X0387392Y0336195D02*
X0376311Y0336195D01*
X0376739Y0337793D02*
X0387392Y0337793D01*
X0387392Y0339392D02*
X0376844Y0339392D01*
X0376844Y0340990D02*
X0387392Y0340990D01*
X0387392Y0342589D02*
X0376736Y0342589D01*
X0376308Y0344187D02*
X0387392Y0344187D01*
X0387392Y0345786D02*
X0375880Y0345786D01*
X0375041Y0347384D02*
X0387392Y0347384D01*
X0387392Y0348983D02*
X0374118Y0348983D01*
X0372749Y0350582D02*
X0387392Y0350582D01*
X0387392Y0352180D02*
X0371150Y0352180D01*
X0368511Y0353779D02*
X0387392Y0353779D01*
X0387392Y0355377D02*
X0363709Y0355377D01*
X0359556Y0355377D02*
X0316465Y0355377D01*
X0312312Y0355377D02*
X0258867Y0355377D01*
X0258930Y0355615D02*
X0257746Y0351195D01*
X0255458Y0347233D01*
X0252223Y0343998D01*
X0248261Y0341710D01*
X0243842Y0340526D01*
X0239266Y0340526D01*
X0234847Y0341710D01*
X0230885Y0343998D01*
X0227649Y0347233D01*
X0225362Y0351195D01*
X0224178Y0355615D01*
X0224178Y0360190D01*
X0225362Y0364609D01*
X0227649Y0368572D01*
X0230885Y0371807D01*
X0234847Y0374095D01*
X0239266Y0375279D01*
X0243842Y0375279D01*
X0248261Y0374095D01*
X0252223Y0371807D01*
X0255458Y0368572D01*
X0257746Y0364609D01*
X0258930Y0360190D01*
X0258930Y0355615D01*
X0258930Y0356976D02*
X0387392Y0356976D01*
X0387392Y0358574D02*
X0258930Y0358574D01*
X0258930Y0360173D02*
X0387392Y0360173D01*
X0387392Y0361771D02*
X0258507Y0361771D01*
X0258078Y0363370D02*
X0387392Y0363370D01*
X0387392Y0364968D02*
X0257539Y0364968D01*
X0256616Y0366567D02*
X0387392Y0366567D01*
X0387392Y0368165D02*
X0255693Y0368165D01*
X0254267Y0369764D02*
X0387392Y0369764D01*
X0387392Y0371362D02*
X0252668Y0371362D01*
X0250225Y0372961D02*
X0387392Y0372961D01*
X0387392Y0374559D02*
X0246527Y0374559D01*
X0236581Y0374559D02*
X0175661Y0374559D01*
X0177395Y0374095D02*
X0172975Y0375279D01*
X0168400Y0375279D01*
X0163981Y0374095D01*
X0160018Y0371807D01*
X0156783Y0368572D01*
X0154496Y0364609D01*
X0153311Y0360190D01*
X0153311Y0355615D01*
X0154496Y0351195D01*
X0156783Y0347233D01*
X0160018Y0343998D01*
X0163981Y0341710D01*
X0168400Y0340526D01*
X0172975Y0340526D01*
X0177395Y0341710D01*
X0181357Y0343998D01*
X0184592Y0347233D01*
X0186880Y0351195D01*
X0188064Y0355615D01*
X0188064Y0360190D01*
X0186880Y0364609D01*
X0184592Y0368572D01*
X0181357Y0371807D01*
X0177395Y0374095D01*
X0179359Y0372961D02*
X0232883Y0372961D01*
X0230440Y0371362D02*
X0181802Y0371362D01*
X0183400Y0369764D02*
X0228841Y0369764D01*
X0227415Y0368165D02*
X0184827Y0368165D01*
X0185750Y0366567D02*
X0226492Y0366567D01*
X0225569Y0364968D02*
X0186673Y0364968D01*
X0187212Y0363370D02*
X0225030Y0363370D01*
X0224601Y0361771D02*
X0187641Y0361771D01*
X0188064Y0360173D02*
X0224178Y0360173D01*
X0224178Y0358574D02*
X0188064Y0358574D01*
X0188064Y0356976D02*
X0224178Y0356976D01*
X0224241Y0355377D02*
X0188000Y0355377D01*
X0187572Y0353779D02*
X0224670Y0353779D01*
X0225098Y0352180D02*
X0187144Y0352180D01*
X0186526Y0350582D02*
X0225716Y0350582D01*
X0226639Y0348983D02*
X0185603Y0348983D01*
X0184680Y0347384D02*
X0227562Y0347384D01*
X0229096Y0345786D02*
X0183145Y0345786D01*
X0181547Y0344187D02*
X0230695Y0344187D01*
X0233325Y0342589D02*
X0178917Y0342589D01*
X0174709Y0340990D02*
X0237533Y0340990D01*
X0245575Y0340990D02*
X0299178Y0340990D01*
X0299178Y0339392D02*
X0024850Y0339392D01*
X0024850Y0340990D02*
X0166667Y0340990D01*
X0162459Y0342589D02*
X0024850Y0342589D01*
X0024850Y0344187D02*
X0159829Y0344187D01*
X0158230Y0345786D02*
X0024850Y0345786D01*
X0024850Y0347384D02*
X0156696Y0347384D01*
X0155773Y0348983D02*
X0024850Y0348983D01*
X0024850Y0350582D02*
X0154850Y0350582D01*
X0154232Y0352180D02*
X0024850Y0352180D01*
X0024850Y0353779D02*
X0153803Y0353779D01*
X0153375Y0355377D02*
X0024850Y0355377D01*
X0024850Y0356976D02*
X0153311Y0356976D01*
X0153311Y0358574D02*
X0024850Y0358574D01*
X0024850Y0360173D02*
X0153311Y0360173D01*
X0153735Y0361771D02*
X0024850Y0361771D01*
X0024850Y0363370D02*
X0154163Y0363370D01*
X0154703Y0364968D02*
X0024850Y0364968D01*
X0024850Y0366567D02*
X0155626Y0366567D01*
X0156549Y0368165D02*
X0024850Y0368165D01*
X0024850Y0369764D02*
X0157975Y0369764D01*
X0159574Y0371362D02*
X0024850Y0371362D01*
X0024850Y0372961D02*
X0162017Y0372961D01*
X0165715Y0374559D02*
X0024850Y0374559D01*
X0024850Y0376158D02*
X0387392Y0376158D01*
X0387392Y0377756D02*
X0024850Y0377756D01*
X0024850Y0379355D02*
X0387392Y0379355D01*
X0387392Y0380953D02*
X0024850Y0380953D01*
X0024850Y0382552D02*
X0387392Y0382552D01*
X0387392Y0384150D02*
X0024850Y0384150D01*
X0024850Y0385749D02*
X0387392Y0385749D01*
X0387392Y0387347D02*
X0024850Y0387347D01*
X0024850Y0388946D02*
X0387392Y0388946D01*
X0387392Y0390544D02*
X0024850Y0390544D01*
X0024850Y0392143D02*
X0387392Y0392143D01*
X0387392Y0393741D02*
X0024850Y0393741D01*
X0024850Y0395340D02*
X0387392Y0395340D01*
X0387392Y0396938D02*
X0024850Y0396938D01*
X0024850Y0398537D02*
X0387392Y0398537D01*
X0387392Y0400135D02*
X0024850Y0400135D01*
X0024850Y0401734D02*
X0387392Y0401734D01*
X0387392Y0403332D02*
X0024850Y0403332D01*
X0024850Y0404931D02*
X0387392Y0404931D01*
X0387392Y0406529D02*
X0024850Y0406529D01*
X0024850Y0408128D02*
X0387392Y0408128D01*
X0387392Y0409726D02*
X0024850Y0409726D01*
X0024850Y0411325D02*
X0387392Y0411325D01*
X0387392Y0412923D02*
X0246894Y0412923D01*
X0246292Y0412576D02*
X0250255Y0414864D01*
X0253490Y0418099D01*
X0255778Y0422061D01*
X0256962Y0426481D01*
X0256962Y0431056D01*
X0255778Y0435476D01*
X0253490Y0439438D01*
X0250255Y0442673D01*
X0246292Y0444961D01*
X0241873Y0446145D01*
X0237298Y0446145D01*
X0232878Y0444961D01*
X0228916Y0442673D01*
X0225681Y0439438D01*
X0223393Y0435476D01*
X0222209Y0431056D01*
X0222209Y0426481D01*
X0223393Y0422061D01*
X0225681Y0418099D01*
X0228916Y0414864D01*
X0232878Y0412576D01*
X0237298Y0411392D01*
X0241873Y0411392D01*
X0246292Y0412576D01*
X0249662Y0414522D02*
X0387392Y0414522D01*
X0387392Y0416120D02*
X0251511Y0416120D01*
X0253110Y0417719D02*
X0387392Y0417719D01*
X0387392Y0419318D02*
X0254193Y0419318D01*
X0255116Y0420916D02*
X0387392Y0420916D01*
X0387392Y0422515D02*
X0255899Y0422515D01*
X0256327Y0424113D02*
X0387392Y0424113D01*
X0387392Y0425712D02*
X0256756Y0425712D01*
X0256962Y0427310D02*
X0387392Y0427310D01*
X0387392Y0428909D02*
X0256962Y0428909D01*
X0256962Y0430507D02*
X0387392Y0430507D01*
X0387392Y0432106D02*
X0256681Y0432106D01*
X0256252Y0433704D02*
X0387392Y0433704D01*
X0387392Y0435303D02*
X0255824Y0435303D01*
X0254955Y0436901D02*
X0387392Y0436901D01*
X0387392Y0438500D02*
X0254032Y0438500D01*
X0252830Y0440098D02*
X0387392Y0440098D01*
X0387392Y0441697D02*
X0329418Y0441697D01*
X0330938Y0442104D02*
X0326519Y0440920D01*
X0321943Y0440920D01*
X0317524Y0442104D01*
X0313562Y0444391D01*
X0310327Y0447627D01*
X0308039Y0451589D01*
X0306855Y0456008D01*
X0306855Y0460584D01*
X0308039Y0465003D01*
X0310327Y0468965D01*
X0313562Y0472201D01*
X0317524Y0474488D01*
X0321943Y0475672D01*
X0326519Y0475672D01*
X0330938Y0474488D01*
X0334900Y0472201D01*
X0338136Y0468965D01*
X0340423Y0465003D01*
X0341607Y0460584D01*
X0341607Y0456008D01*
X0340423Y0451589D01*
X0338136Y0447627D01*
X0334900Y0444391D01*
X0330938Y0442104D01*
X0333002Y0443295D02*
X0387392Y0443295D01*
X0387392Y0444894D02*
X0335403Y0444894D01*
X0337001Y0446492D02*
X0387392Y0446492D01*
X0387392Y0448091D02*
X0338404Y0448091D01*
X0339326Y0449689D02*
X0387392Y0449689D01*
X0387392Y0451288D02*
X0340249Y0451288D01*
X0340771Y0452886D02*
X0387392Y0452886D01*
X0387392Y0454485D02*
X0341199Y0454485D01*
X0341607Y0456083D02*
X0387392Y0456083D01*
X0387392Y0457682D02*
X0341607Y0457682D01*
X0341607Y0459280D02*
X0387392Y0459280D01*
X0387392Y0460879D02*
X0341528Y0460879D01*
X0341100Y0462477D02*
X0387392Y0462477D01*
X0387392Y0464076D02*
X0340672Y0464076D01*
X0340036Y0465674D02*
X0387392Y0465674D01*
X0387392Y0467273D02*
X0339113Y0467273D01*
X0338190Y0468871D02*
X0387392Y0468871D01*
X0387392Y0470470D02*
X0336631Y0470470D01*
X0335033Y0472068D02*
X0387392Y0472068D01*
X0387392Y0473667D02*
X0332361Y0473667D01*
X0328038Y0475265D02*
X0387392Y0475265D01*
X0387392Y0476864D02*
X0024850Y0476864D01*
X0024850Y0478462D02*
X0387392Y0478462D01*
X0387392Y0480061D02*
X0024850Y0480061D01*
X0024850Y0481659D02*
X0387392Y0481659D01*
X0387392Y0483258D02*
X0024850Y0483258D01*
X0024850Y0484856D02*
X0387392Y0484856D01*
X0387392Y0486455D02*
X0024850Y0486455D01*
X0024850Y0488053D02*
X0387392Y0488053D01*
X0387392Y0489652D02*
X0024850Y0489652D01*
X0024850Y0491251D02*
X0387392Y0491251D01*
X0387392Y0492849D02*
X0024850Y0492849D01*
X0024850Y0494448D02*
X0387392Y0494448D01*
X0387392Y0496046D02*
X0024850Y0496046D01*
X0024850Y0497645D02*
X0387392Y0497645D01*
X0387392Y0499243D02*
X0024850Y0499243D01*
X0024850Y0500842D02*
X0387392Y0500842D01*
X0387392Y0502440D02*
X0024850Y0502440D01*
X0024850Y0504039D02*
X0387392Y0504039D01*
X0387392Y0505637D02*
X0024850Y0505637D01*
X0024850Y0507236D02*
X0387392Y0507236D01*
X0387392Y0508834D02*
X0375413Y0508834D01*
X0375229Y0508650D02*
X0377509Y0510930D01*
X0378743Y0513908D01*
X0378743Y0517132D01*
X0377509Y0520111D01*
X0377509Y0520111D01*
X0375229Y0522391D01*
X0372251Y0523625D01*
X0371386Y0523625D01*
X0371386Y0523625D01*
X0359891Y0523625D01*
X0359891Y0523625D01*
X0359027Y0523625D01*
X0356048Y0522391D01*
X0356048Y0522391D01*
X0353768Y0520111D01*
X0352534Y0517132D01*
X0352534Y0513908D01*
X0353768Y0510930D01*
X0353768Y0510930D01*
X0356048Y0508650D01*
X0359027Y0507416D01*
X0359891Y0507416D01*
X0371386Y0507416D01*
X0371386Y0507416D01*
X0372251Y0507416D01*
X0375229Y0508650D01*
X0375229Y0508650D01*
X0377012Y0510433D02*
X0387392Y0510433D01*
X0387392Y0512031D02*
X0377965Y0512031D01*
X0377509Y0510930D02*
X0377509Y0510930D01*
X0378627Y0513630D02*
X0387392Y0513630D01*
X0387392Y0515228D02*
X0378743Y0515228D01*
X0378743Y0516827D02*
X0387392Y0516827D01*
X0387392Y0518425D02*
X0378207Y0518425D01*
X0377545Y0520024D02*
X0387392Y0520024D01*
X0387392Y0521622D02*
X0375998Y0521622D01*
X0375229Y0522391D02*
X0375229Y0522391D01*
X0373226Y0523221D02*
X0387392Y0523221D01*
X0387392Y0524819D02*
X0024850Y0524819D01*
X0024850Y0523221D02*
X0045059Y0523221D01*
X0046034Y0523625D02*
X0043056Y0522391D01*
X0043056Y0522391D01*
X0040776Y0520111D01*
X0039542Y0517132D01*
X0039542Y0513908D01*
X0040776Y0510930D01*
X0040776Y0510930D01*
X0043056Y0508650D01*
X0046034Y0507416D01*
X0046899Y0507416D01*
X0058394Y0507416D01*
X0058394Y0507416D01*
X0059258Y0507416D01*
X0062237Y0508650D01*
X0062237Y0508650D01*
X0064517Y0510930D01*
X0065751Y0513908D01*
X0065751Y0517132D01*
X0064517Y0520111D01*
X0064517Y0520111D01*
X0062237Y0522391D01*
X0059258Y0523625D01*
X0058394Y0523625D01*
X0058394Y0523625D01*
X0046899Y0523625D01*
X0046034Y0523625D01*
X0046899Y0523625D02*
X0046899Y0523625D01*
X0042287Y0521622D02*
X0024850Y0521622D01*
X0024850Y0520024D02*
X0040740Y0520024D01*
X0040776Y0520111D02*
X0040776Y0520111D01*
X0040078Y0518425D02*
X0024850Y0518425D01*
X0024850Y0516827D02*
X0039542Y0516827D01*
X0039542Y0515228D02*
X0024850Y0515228D01*
X0024850Y0513630D02*
X0039658Y0513630D01*
X0040320Y0512031D02*
X0024850Y0512031D01*
X0024850Y0510433D02*
X0041273Y0510433D01*
X0042872Y0508834D02*
X0024850Y0508834D01*
X0043056Y0508650D02*
X0043056Y0508650D01*
X0046899Y0507416D02*
X0046899Y0507416D01*
X0060234Y0523221D02*
X0358051Y0523221D01*
X0355279Y0521622D02*
X0063006Y0521622D01*
X0062237Y0522391D02*
X0062237Y0522391D01*
X0064553Y0520024D02*
X0353732Y0520024D01*
X0353768Y0520111D02*
X0353768Y0520111D01*
X0353070Y0518425D02*
X0065215Y0518425D01*
X0065751Y0516827D02*
X0352534Y0516827D01*
X0352534Y0515228D02*
X0065751Y0515228D01*
X0065635Y0513630D02*
X0352650Y0513630D01*
X0353312Y0512031D02*
X0064973Y0512031D01*
X0064517Y0510930D02*
X0064517Y0510930D01*
X0064020Y0510433D02*
X0354265Y0510433D01*
X0355864Y0508834D02*
X0062421Y0508834D01*
X0081304Y0474488D02*
X0077341Y0472201D01*
X0074106Y0468965D01*
X0071818Y0465003D01*
X0070634Y0460584D01*
X0070634Y0456008D01*
X0071818Y0451589D01*
X0074106Y0447627D01*
X0077341Y0444391D01*
X0081304Y0442104D01*
X0085723Y0440920D01*
X0090298Y0440920D01*
X0094718Y0442104D01*
X0098680Y0444391D01*
X0101915Y0447627D01*
X0104203Y0451589D01*
X0105387Y0456008D01*
X0105387Y0460584D01*
X0104203Y0465003D01*
X0101915Y0468965D01*
X0098680Y0472201D01*
X0094718Y0474488D01*
X0090298Y0475672D01*
X0085723Y0475672D01*
X0081304Y0474488D01*
X0079881Y0473667D02*
X0024850Y0473667D01*
X0024850Y0475265D02*
X0084204Y0475265D01*
X0077209Y0472068D02*
X0024850Y0472068D01*
X0024850Y0470470D02*
X0075611Y0470470D01*
X0074052Y0468871D02*
X0024850Y0468871D01*
X0024850Y0467273D02*
X0073129Y0467273D01*
X0072206Y0465674D02*
X0024850Y0465674D01*
X0024850Y0464076D02*
X0071570Y0464076D01*
X0071142Y0462477D02*
X0024850Y0462477D01*
X0024850Y0460879D02*
X0070713Y0460879D01*
X0070634Y0459280D02*
X0024850Y0459280D01*
X0024850Y0457682D02*
X0070634Y0457682D01*
X0070634Y0456083D02*
X0024850Y0456083D01*
X0024850Y0454485D02*
X0071043Y0454485D01*
X0071471Y0452886D02*
X0024850Y0452886D01*
X0024850Y0451288D02*
X0071992Y0451288D01*
X0072915Y0449689D02*
X0024850Y0449689D01*
X0024850Y0448091D02*
X0073838Y0448091D01*
X0075241Y0446492D02*
X0024850Y0446492D01*
X0024850Y0444894D02*
X0076839Y0444894D01*
X0079240Y0443295D02*
X0024850Y0443295D01*
X0024850Y0441697D02*
X0082823Y0441697D01*
X0093198Y0441697D02*
X0227940Y0441697D01*
X0226341Y0440098D02*
X0024850Y0440098D01*
X0024850Y0438500D02*
X0225139Y0438500D01*
X0224216Y0436901D02*
X0024850Y0436901D01*
X0024850Y0435303D02*
X0223347Y0435303D01*
X0222919Y0433704D02*
X0024850Y0433704D01*
X0024850Y0432106D02*
X0222490Y0432106D01*
X0222209Y0430507D02*
X0024850Y0430507D01*
X0024850Y0428909D02*
X0222209Y0428909D01*
X0222209Y0427310D02*
X0024850Y0427310D01*
X0024850Y0425712D02*
X0222415Y0425712D01*
X0222844Y0424113D02*
X0024850Y0424113D01*
X0024850Y0422515D02*
X0223272Y0422515D01*
X0224055Y0420916D02*
X0024850Y0420916D01*
X0024850Y0419318D02*
X0224977Y0419318D01*
X0226061Y0417719D02*
X0024850Y0417719D01*
X0024850Y0416120D02*
X0227660Y0416120D01*
X0229508Y0414522D02*
X0024850Y0414522D01*
X0024850Y0412923D02*
X0232277Y0412923D01*
X0229994Y0443295D02*
X0096781Y0443295D01*
X0099182Y0444894D02*
X0232762Y0444894D01*
X0246409Y0444894D02*
X0313060Y0444894D01*
X0311461Y0446492D02*
X0100781Y0446492D01*
X0102183Y0448091D02*
X0310059Y0448091D01*
X0309136Y0449689D02*
X0103106Y0449689D01*
X0104029Y0451288D02*
X0308213Y0451288D01*
X0307691Y0452886D02*
X0104550Y0452886D01*
X0104979Y0454485D02*
X0307263Y0454485D01*
X0306855Y0456083D02*
X0105387Y0456083D01*
X0105387Y0457682D02*
X0306855Y0457682D01*
X0306855Y0459280D02*
X0105387Y0459280D01*
X0105308Y0460879D02*
X0306934Y0460879D01*
X0307362Y0462477D02*
X0104880Y0462477D01*
X0104451Y0464076D02*
X0307790Y0464076D01*
X0308426Y0465674D02*
X0103815Y0465674D01*
X0102892Y0467273D02*
X0309349Y0467273D01*
X0310272Y0468871D02*
X0101969Y0468871D01*
X0100411Y0470470D02*
X0311831Y0470470D01*
X0313430Y0472068D02*
X0098812Y0472068D01*
X0096140Y0473667D02*
X0316101Y0473667D01*
X0320424Y0475265D02*
X0091817Y0475265D01*
X0024850Y0337793D02*
X0299282Y0337793D01*
X0299710Y0336195D02*
X0024850Y0336195D01*
X0024850Y0334596D02*
X0300139Y0334596D01*
X0300974Y0332998D02*
X0024850Y0332998D01*
X0024850Y0331399D02*
X0301897Y0331399D01*
X0303262Y0329801D02*
X0024850Y0329801D01*
X0024850Y0328202D02*
X0304860Y0328202D01*
X0307491Y0326604D02*
X0024850Y0326604D01*
X0024850Y0302626D02*
X0236693Y0302626D01*
X0234034Y0301028D02*
X0024850Y0301028D01*
X0024850Y0299429D02*
X0232435Y0299429D01*
X0231054Y0297831D02*
X0024850Y0297831D01*
X0024850Y0296232D02*
X0230131Y0296232D01*
X0229283Y0294634D02*
X0024850Y0294634D01*
X0024850Y0293035D02*
X0228855Y0293035D01*
X0228426Y0291437D02*
X0024850Y0291437D01*
X0024850Y0289838D02*
X0228311Y0289838D01*
X0228311Y0288240D02*
X0024850Y0288240D01*
X0024850Y0286641D02*
X0228408Y0286641D01*
X0228836Y0285043D02*
X0024850Y0285043D01*
X0024850Y0283444D02*
X0229265Y0283444D01*
X0230092Y0281846D02*
X0024850Y0281846D01*
X0024850Y0280247D02*
X0231015Y0280247D01*
X0232367Y0278649D02*
X0024850Y0278649D01*
X0024850Y0277050D02*
X0233966Y0277050D01*
X0236575Y0275451D02*
X0024850Y0275451D01*
X0249783Y0342589D02*
X0299285Y0342589D01*
X0299713Y0344187D02*
X0252413Y0344187D01*
X0254011Y0345786D02*
X0300142Y0345786D01*
X0300981Y0347384D02*
X0255546Y0347384D01*
X0256469Y0348983D02*
X0301903Y0348983D01*
X0303273Y0350582D02*
X0257392Y0350582D01*
X0258010Y0352180D02*
X0304871Y0352180D01*
X0307510Y0353779D02*
X0258438Y0353779D01*
X0321267Y0353779D02*
X0354754Y0353779D01*
X0352115Y0352180D02*
X0323906Y0352180D01*
X0325505Y0350582D02*
X0350517Y0350582D01*
X0349148Y0348983D02*
X0326874Y0348983D01*
X0327797Y0347384D02*
X0348225Y0347384D01*
X0347386Y0345786D02*
X0328636Y0345786D01*
X0329064Y0344187D02*
X0346957Y0344187D01*
X0346529Y0342589D02*
X0329492Y0342589D01*
X0329600Y0340990D02*
X0346422Y0340990D01*
X0346422Y0339392D02*
X0329600Y0339392D01*
X0329495Y0337793D02*
X0346526Y0337793D01*
X0346954Y0336195D02*
X0329067Y0336195D01*
X0328638Y0334596D02*
X0347383Y0334596D01*
X0348218Y0332998D02*
X0327803Y0332998D01*
X0326880Y0331399D02*
X0349141Y0331399D01*
X0350506Y0329801D02*
X0325515Y0329801D01*
X0323917Y0328202D02*
X0352105Y0328202D01*
X0354735Y0326604D02*
X0321286Y0326604D01*
X0368617Y0243481D02*
X0387392Y0243481D01*
X0387392Y0241883D02*
X0371211Y0241883D01*
X0372810Y0240284D02*
X0387392Y0240284D01*
X0387392Y0238686D02*
X0374153Y0238686D01*
X0375076Y0237087D02*
X0387392Y0237087D01*
X0387392Y0235489D02*
X0375896Y0235489D01*
X0376324Y0233890D02*
X0387392Y0233890D01*
X0387392Y0232292D02*
X0376753Y0232292D01*
X0376844Y0230693D02*
X0387392Y0230693D01*
X0387392Y0229095D02*
X0376844Y0229095D01*
X0376723Y0227496D02*
X0387392Y0227496D01*
X0387392Y0225898D02*
X0376295Y0225898D01*
X0375866Y0224299D02*
X0387392Y0224299D01*
X0387392Y0222701D02*
X0375012Y0222701D01*
X0374089Y0221102D02*
X0387392Y0221102D01*
X0387392Y0219504D02*
X0372698Y0219504D01*
X0371100Y0217905D02*
X0387392Y0217905D01*
X0387392Y0216307D02*
X0368424Y0216307D01*
X0319044Y0441697D02*
X0251231Y0441697D01*
X0249177Y0443295D02*
X0315461Y0443295D01*
X0356048Y0508650D02*
X0356048Y0508650D01*
X0359891Y0507416D02*
X0359891Y0507416D01*
D11*
X0361633Y0340186D03*
X0361633Y0285068D03*
X0361633Y0229950D03*
X0314389Y0285068D03*
X0314389Y0340186D03*
X0243522Y0289005D03*
X0168719Y0289005D03*
X0101790Y0285068D03*
X0101790Y0340186D03*
X0052578Y0340186D03*
X0052578Y0285068D03*
X0052578Y0229950D03*
X0123444Y0088217D03*
X0168719Y0135461D03*
X0241554Y0135461D03*
X0288798Y0088217D03*
D12*
X0290767Y0163020D03*
X0241554Y0212233D03*
X0241554Y0212233D03*
X0170688Y0212233D03*
X0170688Y0212233D03*
X0117538Y0163020D03*
X0058483Y0129556D03*
X0170688Y0357902D03*
X0172656Y0428769D03*
X0239585Y0428769D03*
X0241554Y0357902D03*
X0324231Y0458296D03*
X0088011Y0458296D03*
X0349822Y0129556D03*
M02*
