G75*
%MOIN*%
%OFA0B0*%
%FSLAX25Y25*%
%IPPOS*%
%LPD*%
%AMOC8*
5,1,8,0,0,1.08239X$1,22.5*
%
%ADD10C,0.00000*%
%ADD11C,0.00300*%
%ADD12C,0.00600*%
%ADD13C,0.00500*%
%ADD14C,0.01600*%
%ADD15C,0.00700*%
%ADD16C,0.00900*%
%ADD17C,0.00400*%
D10*
X0001800Y0001800D02*
X0001800Y0421091D01*
X0156524Y0421091D01*
X0156524Y0001800D01*
D11*
X0129209Y0005100D02*
X0127357Y0005100D01*
X0126740Y0005717D01*
X0126740Y0008186D01*
X0127357Y0008803D01*
X0129209Y0008803D01*
X0129209Y0005100D01*
X0125526Y0005717D02*
X0125526Y0006951D01*
X0124909Y0007568D01*
X0123674Y0007568D01*
X0123057Y0006951D01*
X0123057Y0006334D01*
X0125526Y0006334D01*
X0125526Y0005717D02*
X0124909Y0005100D01*
X0123674Y0005100D01*
X0121843Y0005100D02*
X0119991Y0005100D01*
X0119374Y0005717D01*
X0119991Y0006334D01*
X0121226Y0006334D01*
X0121843Y0006951D01*
X0121226Y0007568D01*
X0119374Y0007568D01*
X0118160Y0007568D02*
X0117542Y0007568D01*
X0117542Y0005100D01*
X0116925Y0005100D02*
X0118160Y0005100D01*
X0117542Y0008803D02*
X0117542Y0009420D01*
X0115087Y0007568D02*
X0115704Y0006951D01*
X0115704Y0005717D01*
X0115087Y0005100D01*
X0113235Y0005100D01*
X0113235Y0004482D02*
X0113235Y0007568D01*
X0115087Y0007568D01*
X0113235Y0004482D02*
X0113853Y0003865D01*
X0114470Y0003865D01*
X0112021Y0005100D02*
X0112021Y0007568D01*
X0110169Y0007568D01*
X0109552Y0006951D01*
X0109552Y0005100D01*
X0108338Y0005717D02*
X0108338Y0006951D01*
X0107721Y0007568D01*
X0106486Y0007568D01*
X0105869Y0006951D01*
X0105869Y0006334D01*
X0108338Y0006334D01*
X0108338Y0005717D02*
X0107721Y0005100D01*
X0106486Y0005100D01*
X0104655Y0005717D02*
X0104655Y0006951D01*
X0104038Y0007568D01*
X0102186Y0007568D01*
X0102186Y0008803D02*
X0102186Y0005100D01*
X0104038Y0005100D01*
X0104655Y0005717D01*
X0097288Y0005100D02*
X0095437Y0005100D01*
X0094820Y0005717D01*
X0094820Y0006951D01*
X0095437Y0007568D01*
X0097288Y0007568D01*
X0097288Y0008803D02*
X0097288Y0005100D01*
X0093605Y0005717D02*
X0092988Y0005100D01*
X0091137Y0005100D01*
X0091137Y0004482D02*
X0091754Y0003865D01*
X0092371Y0003865D01*
X0091137Y0004482D02*
X0091137Y0007568D01*
X0093605Y0007568D02*
X0093605Y0005717D01*
X0086239Y0005717D02*
X0086239Y0005100D01*
X0083770Y0005100D01*
X0082556Y0005717D02*
X0081939Y0006334D01*
X0080087Y0006334D01*
X0080087Y0006951D02*
X0080087Y0005100D01*
X0081939Y0005100D01*
X0082556Y0005717D01*
X0081939Y0007568D02*
X0080704Y0007568D01*
X0080087Y0006951D01*
X0078873Y0006951D02*
X0078873Y0005717D01*
X0078256Y0005100D01*
X0076404Y0005100D01*
X0075190Y0005100D02*
X0075190Y0008803D01*
X0076404Y0007568D02*
X0078256Y0007568D01*
X0078873Y0006951D01*
X0075190Y0006334D02*
X0073338Y0007568D01*
X0075190Y0006334D02*
X0073338Y0005100D01*
X0068437Y0005100D02*
X0068437Y0008803D01*
X0068437Y0006951D02*
X0065968Y0006951D01*
X0064754Y0005717D02*
X0064137Y0006334D01*
X0062285Y0006334D01*
X0062285Y0006951D02*
X0062285Y0005100D01*
X0064137Y0005100D01*
X0064754Y0005717D01*
X0065968Y0005100D02*
X0065968Y0008803D01*
X0064137Y0007568D02*
X0062902Y0007568D01*
X0062285Y0006951D01*
X0061071Y0006951D02*
X0061071Y0005717D01*
X0060454Y0005100D01*
X0058602Y0005100D01*
X0058602Y0004482D02*
X0058602Y0007568D01*
X0060454Y0007568D01*
X0061071Y0006951D01*
X0059837Y0003865D02*
X0059219Y0003865D01*
X0058602Y0004482D01*
X0057388Y0005717D02*
X0056771Y0006334D01*
X0054919Y0006334D01*
X0054919Y0006951D02*
X0054919Y0005100D01*
X0056771Y0005100D01*
X0057388Y0005717D01*
X0056771Y0007568D02*
X0055536Y0007568D01*
X0054919Y0006951D01*
X0053705Y0007568D02*
X0051853Y0007568D01*
X0051236Y0006951D01*
X0051236Y0005100D01*
X0053705Y0005100D02*
X0053705Y0007568D01*
X0046338Y0008186D02*
X0045721Y0008803D01*
X0044487Y0008803D01*
X0043870Y0008186D01*
X0043870Y0007568D01*
X0046338Y0005100D01*
X0043870Y0005100D01*
X0042655Y0005717D02*
X0040186Y0008186D01*
X0040186Y0005717D01*
X0040804Y0005100D01*
X0042038Y0005100D01*
X0042655Y0005717D01*
X0042655Y0008186D01*
X0042038Y0008803D01*
X0040804Y0008803D01*
X0040186Y0008186D01*
X0038972Y0007568D02*
X0037738Y0008803D01*
X0037738Y0005100D01*
X0038972Y0005100D02*
X0036503Y0005100D01*
X0035289Y0005717D02*
X0034672Y0005100D01*
X0033437Y0005100D01*
X0032820Y0005717D01*
X0032820Y0006334D01*
X0033437Y0006951D01*
X0035289Y0006951D01*
X0035289Y0005717D01*
X0035289Y0006951D02*
X0034054Y0008186D01*
X0032820Y0008803D01*
X0083770Y0008803D02*
X0083770Y0008186D01*
X0086239Y0005717D01*
X0086239Y0008803D02*
X0083770Y0008803D01*
X0084150Y0409450D02*
X0084150Y0412653D01*
X0082549Y0412653D01*
X0082015Y0412119D01*
X0082015Y0411051D01*
X0082549Y0410518D01*
X0084150Y0410518D01*
X0080927Y0409984D02*
X0080393Y0409450D01*
X0079326Y0409450D01*
X0078792Y0409984D01*
X0078792Y0412119D01*
X0079326Y0412653D01*
X0080393Y0412653D01*
X0080927Y0412119D01*
X0080927Y0409984D01*
X0077705Y0409450D02*
X0076637Y0410518D01*
X0075569Y0409450D01*
X0075569Y0412653D01*
X0074482Y0412653D02*
X0074482Y0409450D01*
X0072347Y0409450D01*
X0071259Y0409450D02*
X0071259Y0412653D01*
X0069658Y0412653D01*
X0069124Y0412119D01*
X0069124Y0411051D01*
X0069658Y0410518D01*
X0071259Y0410518D01*
X0070191Y0410518D02*
X0069124Y0409450D01*
X0072347Y0412653D02*
X0074482Y0412653D01*
X0074482Y0411051D02*
X0073414Y0411051D01*
X0077705Y0409450D02*
X0077705Y0412653D01*
D12*
X0084300Y0406800D02*
X0069300Y0406800D01*
X0066800Y0404300D01*
X0084300Y0406800D02*
X0086800Y0404300D01*
X0066300Y0248300D02*
X0066300Y0245300D01*
X0064800Y0246800D02*
X0067800Y0246800D01*
X0063300Y0246800D02*
X0063304Y0247131D01*
X0063316Y0247462D01*
X0063337Y0247793D01*
X0063365Y0248123D01*
X0063402Y0248453D01*
X0063446Y0248781D01*
X0063499Y0249108D01*
X0063559Y0249434D01*
X0063628Y0249758D01*
X0063705Y0250080D01*
X0063789Y0250401D01*
X0063881Y0250719D01*
X0063981Y0251035D01*
X0064089Y0251348D01*
X0064205Y0251659D01*
X0064328Y0251966D01*
X0064458Y0252271D01*
X0064596Y0252572D01*
X0064741Y0252870D01*
X0064894Y0253164D01*
X0065054Y0253454D01*
X0065221Y0253740D01*
X0065394Y0254022D01*
X0065575Y0254300D01*
X0065763Y0254573D01*
X0065957Y0254842D01*
X0066157Y0255106D01*
X0066364Y0255364D01*
X0066578Y0255618D01*
X0066797Y0255866D01*
X0067023Y0256109D01*
X0067254Y0256346D01*
X0067491Y0256577D01*
X0067734Y0256803D01*
X0067982Y0257022D01*
X0068236Y0257236D01*
X0068494Y0257443D01*
X0068758Y0257643D01*
X0069027Y0257837D01*
X0069300Y0258025D01*
X0069578Y0258206D01*
X0069860Y0258379D01*
X0070146Y0258546D01*
X0070436Y0258706D01*
X0070730Y0258859D01*
X0071028Y0259004D01*
X0071329Y0259142D01*
X0071634Y0259272D01*
X0071941Y0259395D01*
X0072252Y0259511D01*
X0072565Y0259619D01*
X0072881Y0259719D01*
X0073199Y0259811D01*
X0073520Y0259895D01*
X0073842Y0259972D01*
X0074166Y0260041D01*
X0074492Y0260101D01*
X0074819Y0260154D01*
X0075147Y0260198D01*
X0075477Y0260235D01*
X0075807Y0260263D01*
X0076138Y0260284D01*
X0076469Y0260296D01*
X0076800Y0260300D01*
X0077131Y0260296D01*
X0077462Y0260284D01*
X0077793Y0260263D01*
X0078123Y0260235D01*
X0078453Y0260198D01*
X0078781Y0260154D01*
X0079108Y0260101D01*
X0079434Y0260041D01*
X0079758Y0259972D01*
X0080080Y0259895D01*
X0080401Y0259811D01*
X0080719Y0259719D01*
X0081035Y0259619D01*
X0081348Y0259511D01*
X0081659Y0259395D01*
X0081966Y0259272D01*
X0082271Y0259142D01*
X0082572Y0259004D01*
X0082870Y0258859D01*
X0083164Y0258706D01*
X0083454Y0258546D01*
X0083740Y0258379D01*
X0084022Y0258206D01*
X0084300Y0258025D01*
X0084573Y0257837D01*
X0084842Y0257643D01*
X0085106Y0257443D01*
X0085364Y0257236D01*
X0085618Y0257022D01*
X0085866Y0256803D01*
X0086109Y0256577D01*
X0086346Y0256346D01*
X0086577Y0256109D01*
X0086803Y0255866D01*
X0087022Y0255618D01*
X0087236Y0255364D01*
X0087443Y0255106D01*
X0087643Y0254842D01*
X0087837Y0254573D01*
X0088025Y0254300D01*
X0088206Y0254022D01*
X0088379Y0253740D01*
X0088546Y0253454D01*
X0088706Y0253164D01*
X0088859Y0252870D01*
X0089004Y0252572D01*
X0089142Y0252271D01*
X0089272Y0251966D01*
X0089395Y0251659D01*
X0089511Y0251348D01*
X0089619Y0251035D01*
X0089719Y0250719D01*
X0089811Y0250401D01*
X0089895Y0250080D01*
X0089972Y0249758D01*
X0090041Y0249434D01*
X0090101Y0249108D01*
X0090154Y0248781D01*
X0090198Y0248453D01*
X0090235Y0248123D01*
X0090263Y0247793D01*
X0090284Y0247462D01*
X0090296Y0247131D01*
X0090300Y0246800D01*
X0090296Y0246469D01*
X0090284Y0246138D01*
X0090263Y0245807D01*
X0090235Y0245477D01*
X0090198Y0245147D01*
X0090154Y0244819D01*
X0090101Y0244492D01*
X0090041Y0244166D01*
X0089972Y0243842D01*
X0089895Y0243520D01*
X0089811Y0243199D01*
X0089719Y0242881D01*
X0089619Y0242565D01*
X0089511Y0242252D01*
X0089395Y0241941D01*
X0089272Y0241634D01*
X0089142Y0241329D01*
X0089004Y0241028D01*
X0088859Y0240730D01*
X0088706Y0240436D01*
X0088546Y0240146D01*
X0088379Y0239860D01*
X0088206Y0239578D01*
X0088025Y0239300D01*
X0087837Y0239027D01*
X0087643Y0238758D01*
X0087443Y0238494D01*
X0087236Y0238236D01*
X0087022Y0237982D01*
X0086803Y0237734D01*
X0086577Y0237491D01*
X0086346Y0237254D01*
X0086109Y0237023D01*
X0085866Y0236797D01*
X0085618Y0236578D01*
X0085364Y0236364D01*
X0085106Y0236157D01*
X0084842Y0235957D01*
X0084573Y0235763D01*
X0084300Y0235575D01*
X0084022Y0235394D01*
X0083740Y0235221D01*
X0083454Y0235054D01*
X0083164Y0234894D01*
X0082870Y0234741D01*
X0082572Y0234596D01*
X0082271Y0234458D01*
X0081966Y0234328D01*
X0081659Y0234205D01*
X0081348Y0234089D01*
X0081035Y0233981D01*
X0080719Y0233881D01*
X0080401Y0233789D01*
X0080080Y0233705D01*
X0079758Y0233628D01*
X0079434Y0233559D01*
X0079108Y0233499D01*
X0078781Y0233446D01*
X0078453Y0233402D01*
X0078123Y0233365D01*
X0077793Y0233337D01*
X0077462Y0233316D01*
X0077131Y0233304D01*
X0076800Y0233300D01*
X0076469Y0233304D01*
X0076138Y0233316D01*
X0075807Y0233337D01*
X0075477Y0233365D01*
X0075147Y0233402D01*
X0074819Y0233446D01*
X0074492Y0233499D01*
X0074166Y0233559D01*
X0073842Y0233628D01*
X0073520Y0233705D01*
X0073199Y0233789D01*
X0072881Y0233881D01*
X0072565Y0233981D01*
X0072252Y0234089D01*
X0071941Y0234205D01*
X0071634Y0234328D01*
X0071329Y0234458D01*
X0071028Y0234596D01*
X0070730Y0234741D01*
X0070436Y0234894D01*
X0070146Y0235054D01*
X0069860Y0235221D01*
X0069578Y0235394D01*
X0069300Y0235575D01*
X0069027Y0235763D01*
X0068758Y0235957D01*
X0068494Y0236157D01*
X0068236Y0236364D01*
X0067982Y0236578D01*
X0067734Y0236797D01*
X0067491Y0237023D01*
X0067254Y0237254D01*
X0067023Y0237491D01*
X0066797Y0237734D01*
X0066578Y0237982D01*
X0066364Y0238236D01*
X0066157Y0238494D01*
X0065957Y0238758D01*
X0065763Y0239027D01*
X0065575Y0239300D01*
X0065394Y0239578D01*
X0065221Y0239860D01*
X0065054Y0240146D01*
X0064894Y0240436D01*
X0064741Y0240730D01*
X0064596Y0241028D01*
X0064458Y0241329D01*
X0064328Y0241634D01*
X0064205Y0241941D01*
X0064089Y0242252D01*
X0063981Y0242565D01*
X0063881Y0242881D01*
X0063789Y0243199D01*
X0063705Y0243520D01*
X0063628Y0243842D01*
X0063559Y0244166D01*
X0063499Y0244492D01*
X0063446Y0244819D01*
X0063402Y0245147D01*
X0063365Y0245477D01*
X0063337Y0245807D01*
X0063316Y0246138D01*
X0063304Y0246469D01*
X0063300Y0246800D01*
X0061300Y0218300D02*
X0061300Y0215300D01*
X0059800Y0216800D02*
X0062800Y0216800D01*
X0058300Y0216800D02*
X0058304Y0217131D01*
X0058316Y0217462D01*
X0058337Y0217793D01*
X0058365Y0218123D01*
X0058402Y0218453D01*
X0058446Y0218781D01*
X0058499Y0219108D01*
X0058559Y0219434D01*
X0058628Y0219758D01*
X0058705Y0220080D01*
X0058789Y0220401D01*
X0058881Y0220719D01*
X0058981Y0221035D01*
X0059089Y0221348D01*
X0059205Y0221659D01*
X0059328Y0221966D01*
X0059458Y0222271D01*
X0059596Y0222572D01*
X0059741Y0222870D01*
X0059894Y0223164D01*
X0060054Y0223454D01*
X0060221Y0223740D01*
X0060394Y0224022D01*
X0060575Y0224300D01*
X0060763Y0224573D01*
X0060957Y0224842D01*
X0061157Y0225106D01*
X0061364Y0225364D01*
X0061578Y0225618D01*
X0061797Y0225866D01*
X0062023Y0226109D01*
X0062254Y0226346D01*
X0062491Y0226577D01*
X0062734Y0226803D01*
X0062982Y0227022D01*
X0063236Y0227236D01*
X0063494Y0227443D01*
X0063758Y0227643D01*
X0064027Y0227837D01*
X0064300Y0228025D01*
X0064578Y0228206D01*
X0064860Y0228379D01*
X0065146Y0228546D01*
X0065436Y0228706D01*
X0065730Y0228859D01*
X0066028Y0229004D01*
X0066329Y0229142D01*
X0066634Y0229272D01*
X0066941Y0229395D01*
X0067252Y0229511D01*
X0067565Y0229619D01*
X0067881Y0229719D01*
X0068199Y0229811D01*
X0068520Y0229895D01*
X0068842Y0229972D01*
X0069166Y0230041D01*
X0069492Y0230101D01*
X0069819Y0230154D01*
X0070147Y0230198D01*
X0070477Y0230235D01*
X0070807Y0230263D01*
X0071138Y0230284D01*
X0071469Y0230296D01*
X0071800Y0230300D01*
X0072131Y0230296D01*
X0072462Y0230284D01*
X0072793Y0230263D01*
X0073123Y0230235D01*
X0073453Y0230198D01*
X0073781Y0230154D01*
X0074108Y0230101D01*
X0074434Y0230041D01*
X0074758Y0229972D01*
X0075080Y0229895D01*
X0075401Y0229811D01*
X0075719Y0229719D01*
X0076035Y0229619D01*
X0076348Y0229511D01*
X0076659Y0229395D01*
X0076966Y0229272D01*
X0077271Y0229142D01*
X0077572Y0229004D01*
X0077870Y0228859D01*
X0078164Y0228706D01*
X0078454Y0228546D01*
X0078740Y0228379D01*
X0079022Y0228206D01*
X0079300Y0228025D01*
X0079573Y0227837D01*
X0079842Y0227643D01*
X0080106Y0227443D01*
X0080364Y0227236D01*
X0080618Y0227022D01*
X0080866Y0226803D01*
X0081109Y0226577D01*
X0081346Y0226346D01*
X0081577Y0226109D01*
X0081803Y0225866D01*
X0082022Y0225618D01*
X0082236Y0225364D01*
X0082443Y0225106D01*
X0082643Y0224842D01*
X0082837Y0224573D01*
X0083025Y0224300D01*
X0083206Y0224022D01*
X0083379Y0223740D01*
X0083546Y0223454D01*
X0083706Y0223164D01*
X0083859Y0222870D01*
X0084004Y0222572D01*
X0084142Y0222271D01*
X0084272Y0221966D01*
X0084395Y0221659D01*
X0084511Y0221348D01*
X0084619Y0221035D01*
X0084719Y0220719D01*
X0084811Y0220401D01*
X0084895Y0220080D01*
X0084972Y0219758D01*
X0085041Y0219434D01*
X0085101Y0219108D01*
X0085154Y0218781D01*
X0085198Y0218453D01*
X0085235Y0218123D01*
X0085263Y0217793D01*
X0085284Y0217462D01*
X0085296Y0217131D01*
X0085300Y0216800D01*
X0085296Y0216469D01*
X0085284Y0216138D01*
X0085263Y0215807D01*
X0085235Y0215477D01*
X0085198Y0215147D01*
X0085154Y0214819D01*
X0085101Y0214492D01*
X0085041Y0214166D01*
X0084972Y0213842D01*
X0084895Y0213520D01*
X0084811Y0213199D01*
X0084719Y0212881D01*
X0084619Y0212565D01*
X0084511Y0212252D01*
X0084395Y0211941D01*
X0084272Y0211634D01*
X0084142Y0211329D01*
X0084004Y0211028D01*
X0083859Y0210730D01*
X0083706Y0210436D01*
X0083546Y0210146D01*
X0083379Y0209860D01*
X0083206Y0209578D01*
X0083025Y0209300D01*
X0082837Y0209027D01*
X0082643Y0208758D01*
X0082443Y0208494D01*
X0082236Y0208236D01*
X0082022Y0207982D01*
X0081803Y0207734D01*
X0081577Y0207491D01*
X0081346Y0207254D01*
X0081109Y0207023D01*
X0080866Y0206797D01*
X0080618Y0206578D01*
X0080364Y0206364D01*
X0080106Y0206157D01*
X0079842Y0205957D01*
X0079573Y0205763D01*
X0079300Y0205575D01*
X0079022Y0205394D01*
X0078740Y0205221D01*
X0078454Y0205054D01*
X0078164Y0204894D01*
X0077870Y0204741D01*
X0077572Y0204596D01*
X0077271Y0204458D01*
X0076966Y0204328D01*
X0076659Y0204205D01*
X0076348Y0204089D01*
X0076035Y0203981D01*
X0075719Y0203881D01*
X0075401Y0203789D01*
X0075080Y0203705D01*
X0074758Y0203628D01*
X0074434Y0203559D01*
X0074108Y0203499D01*
X0073781Y0203446D01*
X0073453Y0203402D01*
X0073123Y0203365D01*
X0072793Y0203337D01*
X0072462Y0203316D01*
X0072131Y0203304D01*
X0071800Y0203300D01*
X0071469Y0203304D01*
X0071138Y0203316D01*
X0070807Y0203337D01*
X0070477Y0203365D01*
X0070147Y0203402D01*
X0069819Y0203446D01*
X0069492Y0203499D01*
X0069166Y0203559D01*
X0068842Y0203628D01*
X0068520Y0203705D01*
X0068199Y0203789D01*
X0067881Y0203881D01*
X0067565Y0203981D01*
X0067252Y0204089D01*
X0066941Y0204205D01*
X0066634Y0204328D01*
X0066329Y0204458D01*
X0066028Y0204596D01*
X0065730Y0204741D01*
X0065436Y0204894D01*
X0065146Y0205054D01*
X0064860Y0205221D01*
X0064578Y0205394D01*
X0064300Y0205575D01*
X0064027Y0205763D01*
X0063758Y0205957D01*
X0063494Y0206157D01*
X0063236Y0206364D01*
X0062982Y0206578D01*
X0062734Y0206797D01*
X0062491Y0207023D01*
X0062254Y0207254D01*
X0062023Y0207491D01*
X0061797Y0207734D01*
X0061578Y0207982D01*
X0061364Y0208236D01*
X0061157Y0208494D01*
X0060957Y0208758D01*
X0060763Y0209027D01*
X0060575Y0209300D01*
X0060394Y0209578D01*
X0060221Y0209860D01*
X0060054Y0210146D01*
X0059894Y0210436D01*
X0059741Y0210730D01*
X0059596Y0211028D01*
X0059458Y0211329D01*
X0059328Y0211634D01*
X0059205Y0211941D01*
X0059089Y0212252D01*
X0058981Y0212565D01*
X0058881Y0212881D01*
X0058789Y0213199D01*
X0058705Y0213520D01*
X0058628Y0213842D01*
X0058559Y0214166D01*
X0058499Y0214492D01*
X0058446Y0214819D01*
X0058402Y0215147D01*
X0058365Y0215477D01*
X0058337Y0215807D01*
X0058316Y0216138D01*
X0058304Y0216469D01*
X0058300Y0216800D01*
X0057800Y0172800D02*
X0095800Y0172800D01*
X0095860Y0172798D01*
X0095921Y0172793D01*
X0095980Y0172784D01*
X0096039Y0172771D01*
X0096098Y0172755D01*
X0096155Y0172735D01*
X0096210Y0172712D01*
X0096265Y0172685D01*
X0096317Y0172656D01*
X0096368Y0172623D01*
X0096417Y0172587D01*
X0096463Y0172549D01*
X0096507Y0172507D01*
X0096549Y0172463D01*
X0096587Y0172417D01*
X0096623Y0172368D01*
X0096656Y0172317D01*
X0096685Y0172265D01*
X0096712Y0172210D01*
X0096735Y0172155D01*
X0096755Y0172098D01*
X0096771Y0172039D01*
X0096784Y0171980D01*
X0096793Y0171921D01*
X0096798Y0171860D01*
X0096800Y0171800D01*
X0096800Y0161800D01*
X0096798Y0161740D01*
X0096793Y0161679D01*
X0096784Y0161620D01*
X0096771Y0161561D01*
X0096755Y0161502D01*
X0096735Y0161445D01*
X0096712Y0161390D01*
X0096685Y0161335D01*
X0096656Y0161283D01*
X0096623Y0161232D01*
X0096587Y0161183D01*
X0096549Y0161137D01*
X0096507Y0161093D01*
X0096463Y0161051D01*
X0096417Y0161013D01*
X0096368Y0160977D01*
X0096317Y0160944D01*
X0096265Y0160915D01*
X0096210Y0160888D01*
X0096155Y0160865D01*
X0096098Y0160845D01*
X0096039Y0160829D01*
X0095980Y0160816D01*
X0095921Y0160807D01*
X0095860Y0160802D01*
X0095800Y0160800D01*
X0057800Y0160800D01*
X0057740Y0160802D01*
X0057679Y0160807D01*
X0057620Y0160816D01*
X0057561Y0160829D01*
X0057502Y0160845D01*
X0057445Y0160865D01*
X0057390Y0160888D01*
X0057335Y0160915D01*
X0057283Y0160944D01*
X0057232Y0160977D01*
X0057183Y0161013D01*
X0057137Y0161051D01*
X0057093Y0161093D01*
X0057051Y0161137D01*
X0057013Y0161183D01*
X0056977Y0161232D01*
X0056944Y0161283D01*
X0056915Y0161335D01*
X0056888Y0161390D01*
X0056865Y0161445D01*
X0056845Y0161502D01*
X0056829Y0161561D01*
X0056816Y0161620D01*
X0056807Y0161679D01*
X0056802Y0161740D01*
X0056800Y0161800D01*
X0056800Y0171800D01*
X0056802Y0171860D01*
X0056807Y0171921D01*
X0056816Y0171980D01*
X0056829Y0172039D01*
X0056845Y0172098D01*
X0056865Y0172155D01*
X0056888Y0172210D01*
X0056915Y0172265D01*
X0056944Y0172317D01*
X0056977Y0172368D01*
X0057013Y0172417D01*
X0057051Y0172463D01*
X0057093Y0172507D01*
X0057137Y0172549D01*
X0057183Y0172587D01*
X0057232Y0172623D01*
X0057283Y0172656D01*
X0057335Y0172685D01*
X0057390Y0172712D01*
X0057445Y0172735D01*
X0057502Y0172755D01*
X0057561Y0172771D01*
X0057620Y0172784D01*
X0057679Y0172793D01*
X0057740Y0172798D01*
X0057800Y0172800D01*
X0065300Y0156800D02*
X0088300Y0156800D01*
X0088300Y0086800D01*
X0080800Y0086800D01*
X0080798Y0086926D01*
X0080792Y0087051D01*
X0080782Y0087176D01*
X0080768Y0087301D01*
X0080751Y0087426D01*
X0080729Y0087550D01*
X0080704Y0087673D01*
X0080674Y0087795D01*
X0080641Y0087916D01*
X0080604Y0088036D01*
X0080564Y0088155D01*
X0080519Y0088272D01*
X0080471Y0088389D01*
X0080419Y0088503D01*
X0080364Y0088616D01*
X0080305Y0088727D01*
X0080243Y0088836D01*
X0080177Y0088943D01*
X0080108Y0089048D01*
X0080036Y0089151D01*
X0079961Y0089252D01*
X0079882Y0089350D01*
X0079800Y0089445D01*
X0079716Y0089538D01*
X0079628Y0089628D01*
X0079538Y0089716D01*
X0079445Y0089800D01*
X0079350Y0089882D01*
X0079252Y0089961D01*
X0079151Y0090036D01*
X0079048Y0090108D01*
X0078943Y0090177D01*
X0078836Y0090243D01*
X0078727Y0090305D01*
X0078616Y0090364D01*
X0078503Y0090419D01*
X0078389Y0090471D01*
X0078272Y0090519D01*
X0078155Y0090564D01*
X0078036Y0090604D01*
X0077916Y0090641D01*
X0077795Y0090674D01*
X0077673Y0090704D01*
X0077550Y0090729D01*
X0077426Y0090751D01*
X0077301Y0090768D01*
X0077176Y0090782D01*
X0077051Y0090792D01*
X0076926Y0090798D01*
X0076800Y0090800D01*
X0076674Y0090798D01*
X0076549Y0090792D01*
X0076424Y0090782D01*
X0076299Y0090768D01*
X0076174Y0090751D01*
X0076050Y0090729D01*
X0075927Y0090704D01*
X0075805Y0090674D01*
X0075684Y0090641D01*
X0075564Y0090604D01*
X0075445Y0090564D01*
X0075328Y0090519D01*
X0075211Y0090471D01*
X0075097Y0090419D01*
X0074984Y0090364D01*
X0074873Y0090305D01*
X0074764Y0090243D01*
X0074657Y0090177D01*
X0074552Y0090108D01*
X0074449Y0090036D01*
X0074348Y0089961D01*
X0074250Y0089882D01*
X0074155Y0089800D01*
X0074062Y0089716D01*
X0073972Y0089628D01*
X0073884Y0089538D01*
X0073800Y0089445D01*
X0073718Y0089350D01*
X0073639Y0089252D01*
X0073564Y0089151D01*
X0073492Y0089048D01*
X0073423Y0088943D01*
X0073357Y0088836D01*
X0073295Y0088727D01*
X0073236Y0088616D01*
X0073181Y0088503D01*
X0073129Y0088389D01*
X0073081Y0088272D01*
X0073036Y0088155D01*
X0072996Y0088036D01*
X0072959Y0087916D01*
X0072926Y0087795D01*
X0072896Y0087673D01*
X0072871Y0087550D01*
X0072849Y0087426D01*
X0072832Y0087301D01*
X0072818Y0087176D01*
X0072808Y0087051D01*
X0072802Y0086926D01*
X0072800Y0086800D01*
X0074800Y0076800D02*
X0066800Y0076800D01*
X0065300Y0086800D02*
X0065300Y0156800D01*
X0066800Y0166800D02*
X0074800Y0166800D01*
X0078800Y0166800D02*
X0086800Y0166800D01*
X0095800Y0082800D02*
X0057800Y0082800D01*
X0057740Y0082798D01*
X0057679Y0082793D01*
X0057620Y0082784D01*
X0057561Y0082771D01*
X0057502Y0082755D01*
X0057445Y0082735D01*
X0057390Y0082712D01*
X0057335Y0082685D01*
X0057283Y0082656D01*
X0057232Y0082623D01*
X0057183Y0082587D01*
X0057137Y0082549D01*
X0057093Y0082507D01*
X0057051Y0082463D01*
X0057013Y0082417D01*
X0056977Y0082368D01*
X0056944Y0082317D01*
X0056915Y0082265D01*
X0056888Y0082210D01*
X0056865Y0082155D01*
X0056845Y0082098D01*
X0056829Y0082039D01*
X0056816Y0081980D01*
X0056807Y0081921D01*
X0056802Y0081860D01*
X0056800Y0081800D01*
X0056800Y0071800D01*
X0056802Y0071740D01*
X0056807Y0071679D01*
X0056816Y0071620D01*
X0056829Y0071561D01*
X0056845Y0071502D01*
X0056865Y0071445D01*
X0056888Y0071390D01*
X0056915Y0071335D01*
X0056944Y0071283D01*
X0056977Y0071232D01*
X0057013Y0071183D01*
X0057051Y0071137D01*
X0057093Y0071093D01*
X0057137Y0071051D01*
X0057183Y0071013D01*
X0057232Y0070977D01*
X0057283Y0070944D01*
X0057335Y0070915D01*
X0057390Y0070888D01*
X0057445Y0070865D01*
X0057502Y0070845D01*
X0057561Y0070829D01*
X0057620Y0070816D01*
X0057679Y0070807D01*
X0057740Y0070802D01*
X0057800Y0070800D01*
X0095800Y0070800D01*
X0095860Y0070802D01*
X0095921Y0070807D01*
X0095980Y0070816D01*
X0096039Y0070829D01*
X0096098Y0070845D01*
X0096155Y0070865D01*
X0096210Y0070888D01*
X0096265Y0070915D01*
X0096317Y0070944D01*
X0096368Y0070977D01*
X0096417Y0071013D01*
X0096463Y0071051D01*
X0096507Y0071093D01*
X0096549Y0071137D01*
X0096587Y0071183D01*
X0096623Y0071232D01*
X0096656Y0071283D01*
X0096685Y0071335D01*
X0096712Y0071390D01*
X0096735Y0071445D01*
X0096755Y0071502D01*
X0096771Y0071561D01*
X0096784Y0071620D01*
X0096793Y0071679D01*
X0096798Y0071740D01*
X0096800Y0071800D01*
X0096800Y0081800D01*
X0096798Y0081860D01*
X0096793Y0081921D01*
X0096784Y0081980D01*
X0096771Y0082039D01*
X0096755Y0082098D01*
X0096735Y0082155D01*
X0096712Y0082210D01*
X0096685Y0082265D01*
X0096656Y0082317D01*
X0096623Y0082368D01*
X0096587Y0082417D01*
X0096549Y0082463D01*
X0096507Y0082507D01*
X0096463Y0082549D01*
X0096417Y0082587D01*
X0096368Y0082623D01*
X0096317Y0082656D01*
X0096265Y0082685D01*
X0096210Y0082712D01*
X0096155Y0082735D01*
X0096098Y0082755D01*
X0096039Y0082771D01*
X0095980Y0082784D01*
X0095921Y0082793D01*
X0095860Y0082798D01*
X0095800Y0082800D01*
X0086800Y0076800D02*
X0078800Y0076800D01*
D13*
X0072800Y0086800D02*
X0065300Y0086800D01*
X0066007Y0069054D02*
X0064506Y0069054D01*
X0063755Y0068303D01*
X0062154Y0066802D02*
X0059902Y0066802D01*
X0059151Y0066051D01*
X0059151Y0065301D01*
X0059902Y0064550D01*
X0061403Y0064550D01*
X0062154Y0065301D01*
X0062154Y0066802D01*
X0060653Y0068303D01*
X0059151Y0069054D01*
X0063755Y0065301D02*
X0064506Y0064550D01*
X0066007Y0064550D01*
X0066758Y0065301D01*
X0066758Y0068303D01*
X0066007Y0069054D01*
X0087658Y0174038D02*
X0086907Y0174789D01*
X0086907Y0176290D01*
X0087658Y0177041D01*
X0088409Y0177041D01*
X0089910Y0176290D01*
X0089910Y0178542D01*
X0086907Y0178542D01*
X0087658Y0174038D02*
X0089159Y0174038D01*
X0089910Y0174789D01*
X0091511Y0174789D02*
X0092262Y0174038D01*
X0093763Y0174038D01*
X0094514Y0174789D01*
X0094514Y0177791D01*
X0093763Y0178542D01*
X0092262Y0178542D01*
X0091511Y0177791D01*
X0092007Y0204050D02*
X0090506Y0204050D01*
X0089755Y0204801D01*
X0088154Y0204050D02*
X0085151Y0204050D01*
X0086653Y0204050D02*
X0086653Y0208554D01*
X0088154Y0207053D01*
X0089755Y0207803D02*
X0090506Y0208554D01*
X0092007Y0208554D01*
X0092758Y0207803D01*
X0092758Y0204801D01*
X0092007Y0204050D01*
X0092403Y0234050D02*
X0090902Y0234050D01*
X0090151Y0234801D01*
X0090151Y0235551D01*
X0090902Y0236302D01*
X0091653Y0236302D01*
X0090902Y0236302D02*
X0090151Y0237053D01*
X0090151Y0237803D01*
X0090902Y0238554D01*
X0092403Y0238554D01*
X0093154Y0237803D01*
X0094755Y0237803D02*
X0095506Y0238554D01*
X0097007Y0238554D01*
X0097758Y0237803D01*
X0097758Y0234801D01*
X0097007Y0234050D01*
X0095506Y0234050D01*
X0094755Y0234801D01*
X0093154Y0234801D02*
X0092403Y0234050D01*
X0091800Y0311800D02*
X0091800Y0316800D01*
X0096800Y0321800D01*
X0086800Y0331800D01*
X0091800Y0336800D01*
X0091800Y0341800D01*
X0092182Y0370657D02*
X0092182Y0373159D01*
X0090514Y0370657D01*
X0090514Y0373159D01*
X0089420Y0373159D02*
X0089420Y0370657D01*
X0088169Y0370657D01*
X0087752Y0371074D01*
X0087752Y0372742D01*
X0088169Y0373159D01*
X0089420Y0373159D01*
X0089312Y0380584D02*
X0088061Y0380584D01*
X0087644Y0381001D01*
X0087644Y0382669D01*
X0088061Y0383086D01*
X0089312Y0383086D01*
X0089312Y0380584D01*
X0090407Y0380584D02*
X0090407Y0383086D01*
X0092075Y0383086D02*
X0090407Y0380584D01*
X0092075Y0380584D02*
X0092075Y0383086D01*
X0093169Y0382669D02*
X0093586Y0383086D01*
X0094420Y0383086D01*
X0094837Y0382669D01*
X0094837Y0381001D01*
X0094420Y0380584D01*
X0093586Y0380584D01*
X0093169Y0381001D01*
X0093169Y0381835D01*
X0094003Y0381835D01*
X0094313Y0390511D02*
X0093479Y0390511D01*
X0093062Y0390928D01*
X0093062Y0391762D01*
X0093896Y0391762D01*
X0094730Y0392596D02*
X0094730Y0390928D01*
X0094313Y0390511D01*
X0094730Y0392596D02*
X0094313Y0393013D01*
X0093479Y0393013D01*
X0093062Y0392596D01*
X0091967Y0393013D02*
X0090299Y0390511D01*
X0090299Y0393013D01*
X0089205Y0393013D02*
X0087954Y0393013D01*
X0087537Y0392596D01*
X0087537Y0390928D01*
X0087954Y0390511D01*
X0089205Y0390511D01*
X0089205Y0393013D01*
X0091967Y0393013D02*
X0091967Y0390511D01*
X0093693Y0373159D02*
X0094527Y0373159D01*
X0094945Y0372742D01*
X0094945Y0371074D01*
X0094527Y0370657D01*
X0093693Y0370657D01*
X0093276Y0371074D01*
X0093276Y0371908D01*
X0094110Y0371908D01*
X0093276Y0372742D02*
X0093693Y0373159D01*
X0056800Y0331800D02*
X0066800Y0321800D01*
X0061800Y0316800D01*
X0061800Y0311800D01*
X0056800Y0331800D02*
X0061800Y0336800D01*
X0061800Y0341800D01*
D14*
X0074800Y0170300D02*
X0074800Y0166800D01*
X0074800Y0163300D01*
X0078800Y0163300D02*
X0078800Y0166800D01*
X0078800Y0170300D01*
X0078800Y0080300D02*
X0078800Y0076800D01*
X0078800Y0073300D01*
X0074800Y0073300D02*
X0074800Y0076800D01*
X0074800Y0080300D01*
D15*
X0082931Y0338150D02*
X0085133Y0338150D01*
X0084032Y0338150D02*
X0084032Y0341453D01*
X0085133Y0340352D01*
X0086614Y0341453D02*
X0088816Y0341453D01*
X0088816Y0338150D01*
X0088816Y0339801D02*
X0087715Y0339801D01*
X0058816Y0339801D02*
X0057715Y0339801D01*
X0058816Y0338150D02*
X0058816Y0341453D01*
X0056614Y0341453D01*
X0055133Y0340902D02*
X0054583Y0341453D01*
X0053482Y0341453D01*
X0052931Y0340902D01*
X0052931Y0340352D01*
X0055133Y0338150D01*
X0052931Y0338150D01*
D16*
X0088472Y0361801D02*
X0091875Y0361801D01*
X0089147Y0400137D02*
X0089147Y0403540D01*
X0087446Y0401839D02*
X0090849Y0401839D01*
D17*
X0091600Y0356104D02*
X0089548Y0356104D01*
X0088864Y0355420D01*
X0088864Y0354052D01*
X0089548Y0353368D01*
X0091600Y0353368D01*
X0090232Y0353368D02*
X0088864Y0352000D01*
X0087456Y0352000D02*
X0087456Y0356104D01*
X0084721Y0356104D01*
X0083313Y0356104D02*
X0083313Y0352000D01*
X0081261Y0352000D01*
X0080577Y0352684D01*
X0080577Y0355420D01*
X0081261Y0356104D01*
X0083313Y0356104D01*
X0084721Y0352000D02*
X0087456Y0352000D01*
X0087456Y0354052D02*
X0086089Y0354052D01*
X0091600Y0352000D02*
X0091600Y0356104D01*
X0079169Y0356104D02*
X0076434Y0354052D01*
X0079169Y0352000D01*
X0075026Y0352000D02*
X0075026Y0356104D01*
X0072974Y0356104D01*
X0072290Y0355420D01*
X0072290Y0354052D01*
X0072974Y0353368D01*
X0075026Y0353368D01*
X0073658Y0353368D02*
X0072290Y0352000D01*
X0070882Y0352000D02*
X0070882Y0356104D01*
X0068147Y0356104D01*
X0066739Y0356104D02*
X0064687Y0356104D01*
X0064003Y0355420D01*
X0064003Y0352684D01*
X0064687Y0352000D01*
X0066739Y0352000D01*
X0066739Y0356104D01*
X0069514Y0354052D02*
X0070882Y0354052D01*
X0070882Y0352000D02*
X0068147Y0352000D01*
X0075316Y0155316D02*
X0075316Y0151713D01*
X0076517Y0151713D02*
X0074115Y0151713D01*
X0076517Y0154115D02*
X0075316Y0155316D01*
X0077798Y0155316D02*
X0077798Y0152313D01*
X0078399Y0151713D01*
X0079600Y0151713D01*
X0080200Y0152313D01*
X0080200Y0155316D01*
M02*
