G75*
%MOIN*%
%OFA0B0*%
%FSLAX25Y25*%
%IPPOS*%
%LPD*%
%AMOC8*
5,1,8,0,0,1.08239X$1,22.5*
%
%ADD10OC8,0.06300*%
%ADD11C,0.06300*%
%ADD12OC8,0.05600*%
%ADD13R,0.05543X0.05543*%
%ADD14C,0.05543*%
%ADD15R,0.06496X0.06496*%
%ADD16OC8,0.06496*%
%ADD17R,0.12268X0.12268*%
%ADD18OC8,0.05200*%
%ADD19OC8,0.07400*%
%ADD20C,0.06496*%
%ADD21C,0.05200*%
%ADD22C,0.01600*%
%ADD23C,0.01000*%
%ADD24C,0.04000*%
D10*
X0076800Y0216800D03*
X0081800Y0246800D03*
D11*
X0071800Y0246800D03*
X0066800Y0216800D03*
D12*
X0061800Y0166800D03*
X0091800Y0166800D03*
X0091800Y0076800D03*
X0061800Y0076800D03*
D13*
X0061800Y0276800D03*
X0091800Y0296800D03*
D14*
X0091800Y0306700D03*
X0091800Y0276800D03*
X0091800Y0346900D03*
X0061800Y0346900D03*
X0061800Y0306700D03*
X0061800Y0296800D03*
D15*
X0104162Y0299044D03*
X0104162Y0247863D03*
X0104162Y0196682D03*
X0104162Y0145501D03*
X0104162Y0350225D03*
X0104162Y0401406D03*
D16*
X0104162Y0391564D03*
X0104162Y0381721D03*
X0104162Y0340383D03*
X0104162Y0330540D03*
X0104162Y0289202D03*
X0104162Y0279359D03*
X0104162Y0238020D03*
X0104162Y0228178D03*
X0104162Y0186839D03*
X0104162Y0176997D03*
X0104162Y0135658D03*
X0104162Y0125816D03*
D17*
X0131721Y0117942D03*
X0131721Y0153375D03*
X0131721Y0169123D03*
X0131721Y0204556D03*
X0131721Y0220304D03*
X0131721Y0255737D03*
X0131721Y0271485D03*
X0131721Y0306918D03*
X0131721Y0322666D03*
X0131721Y0358099D03*
X0131721Y0373847D03*
X0131721Y0409280D03*
D18*
X0082430Y0197115D03*
X0052430Y0197115D03*
X0045816Y0101485D03*
X0045816Y0091603D03*
X0045816Y0081997D03*
X0045816Y0072312D03*
X0056643Y0056209D03*
X0066406Y0056131D03*
X0076406Y0056328D03*
X0086209Y0056524D03*
X0095973Y0056643D03*
X0105580Y0056643D03*
X0116997Y0073887D03*
X0116997Y0083808D03*
X0116800Y0093532D03*
X0116879Y0103650D03*
X0105580Y0026643D03*
X0095973Y0026643D03*
X0086209Y0026524D03*
X0076406Y0026328D03*
X0066406Y0026131D03*
X0056643Y0026209D03*
X0015816Y0072312D03*
X0015816Y0081997D03*
X0015816Y0091603D03*
X0015816Y0101485D03*
X0146879Y0103650D03*
X0146800Y0093532D03*
X0146997Y0083808D03*
X0146997Y0073887D03*
D19*
X0082300Y0361800D03*
X0081300Y0371800D03*
X0082300Y0381800D03*
X0081300Y0391800D03*
X0082300Y0401800D03*
X0072300Y0401800D03*
X0071300Y0391800D03*
X0072300Y0381800D03*
X0071300Y0371800D03*
X0072300Y0361800D03*
D20*
X0056918Y0391564D03*
X0045107Y0391564D03*
X0031328Y0360068D03*
X0031328Y0326603D03*
X0031328Y0314792D03*
X0045107Y0289202D03*
X0056918Y0289202D03*
X0031328Y0257706D03*
X0031328Y0224241D03*
X0031328Y0212430D03*
X0045107Y0186839D03*
X0056918Y0186839D03*
X0031328Y0155343D03*
X0031328Y0121879D03*
X0031328Y0110068D03*
X0031328Y0060855D03*
X0031328Y0027391D03*
X0031328Y0015580D03*
X0011643Y0186839D03*
X0011643Y0289202D03*
X0011643Y0391564D03*
X0131721Y0060855D03*
X0131721Y0027391D03*
X0131721Y0015580D03*
D21*
X0094400Y0091800D02*
X0089200Y0091800D01*
X0089200Y0101800D02*
X0094400Y0101800D01*
X0094400Y0111800D02*
X0089200Y0111800D01*
X0089200Y0121800D02*
X0094400Y0121800D01*
X0094400Y0131800D02*
X0089200Y0131800D01*
X0089200Y0141800D02*
X0094400Y0141800D01*
X0094400Y0151800D02*
X0089200Y0151800D01*
X0064400Y0151800D02*
X0059200Y0151800D01*
X0059200Y0141800D02*
X0064400Y0141800D01*
X0064400Y0131800D02*
X0059200Y0131800D01*
X0059200Y0121800D02*
X0064400Y0121800D01*
X0064400Y0111800D02*
X0059200Y0111800D01*
X0059200Y0101800D02*
X0064400Y0101800D01*
X0064400Y0091800D02*
X0059200Y0091800D01*
D22*
X0080146Y0087627D02*
X0080146Y0107902D01*
X0083690Y0111446D01*
X0091446Y0111446D01*
X0091800Y0111800D01*
X0091800Y0121800D02*
X0086800Y0121800D01*
X0081800Y0126800D01*
X0081800Y0156800D01*
X0091800Y0166800D01*
X0086800Y0171800D01*
X0086800Y0241800D01*
X0081800Y0246800D01*
X0061800Y0221800D02*
X0066800Y0216800D01*
X0061800Y0221800D02*
X0061800Y0276800D01*
X0091700Y0306700D01*
X0091800Y0306700D01*
X0080146Y0087627D02*
X0090973Y0076800D01*
X0091800Y0076800D01*
D23*
X0030600Y0061200D02*
X0019800Y0072000D01*
X0016200Y0072000D01*
X0015816Y0072312D01*
X0015816Y0081997D02*
X0016200Y0082800D01*
X0016200Y0090900D01*
X0015816Y0091603D01*
X0016200Y0091800D01*
X0019800Y0091800D01*
X0044100Y0116100D01*
X0101700Y0116100D01*
X0108900Y0123300D01*
X0108900Y0127800D01*
X0106200Y0130500D01*
X0102600Y0130500D01*
X0091800Y0141300D01*
X0091800Y0141800D01*
X0103500Y0125100D02*
X0096300Y0117900D01*
X0084600Y0117900D01*
X0064800Y0137700D01*
X0052200Y0137700D01*
X0035100Y0154800D01*
X0031500Y0154800D01*
X0031328Y0155343D01*
X0045900Y0101700D02*
X0045816Y0101485D01*
X0045900Y0101700D02*
X0061200Y0101700D01*
X0061800Y0101800D01*
X0062100Y0101700D01*
X0062100Y0099900D01*
X0099900Y0062100D01*
X0099900Y0027000D01*
X0096300Y0027000D01*
X0095973Y0026643D01*
X0099900Y0027000D02*
X0105300Y0027000D01*
X0105580Y0026643D01*
X0105580Y0056643D02*
X0105300Y0056700D01*
X0105300Y0069300D01*
X0084600Y0090000D01*
X0084600Y0103500D01*
X0088200Y0107100D01*
X0095400Y0107100D01*
X0112500Y0124200D01*
X0112500Y0280800D01*
X0104400Y0288900D01*
X0104162Y0289202D01*
X0108900Y0315000D02*
X0108900Y0335700D01*
X0104400Y0340200D01*
X0104162Y0340383D01*
X0108900Y0315000D02*
X0151200Y0272700D01*
X0151200Y0091800D01*
X0148500Y0089100D01*
X0146700Y0089100D01*
X0132300Y0074700D01*
X0117000Y0074700D01*
X0116997Y0073887D01*
X0116997Y0083808D02*
X0117000Y0084600D01*
X0117000Y0091800D01*
X0116800Y0093532D01*
X0117000Y0092700D01*
X0117000Y0091800D01*
X0091800Y0091800D01*
X0091800Y0101800D02*
X0091800Y0102600D01*
X0115200Y0102600D01*
X0116100Y0103500D01*
X0116879Y0103650D01*
X0117000Y0103500D01*
X0126900Y0093600D01*
X0146700Y0093600D01*
X0146800Y0093532D01*
X0146997Y0083808D02*
X0146700Y0083700D01*
X0146700Y0079200D01*
X0132300Y0064800D01*
X0132300Y0061200D01*
X0131721Y0060855D01*
X0103500Y0125100D02*
X0104162Y0125816D01*
X0108900Y0153900D02*
X0108900Y0233100D01*
X0104400Y0237600D01*
X0104162Y0238020D01*
X0082430Y0197115D02*
X0081900Y0197100D01*
X0081900Y0180900D01*
X0062100Y0161100D01*
X0062100Y0152100D01*
X0061800Y0151800D01*
X0061200Y0144000D02*
X0052200Y0153000D01*
X0052200Y0197100D01*
X0052430Y0197115D01*
X0061200Y0144000D02*
X0061200Y0142200D01*
X0061800Y0141800D01*
X0061800Y0091800D02*
X0045900Y0091800D01*
X0045816Y0091603D01*
X0045816Y0081997D02*
X0045900Y0081900D01*
X0045900Y0072900D01*
X0045816Y0072312D01*
X0056700Y0056700D02*
X0056643Y0056209D01*
X0056700Y0056700D02*
X0065700Y0056700D01*
X0066406Y0056131D01*
X0066600Y0056700D01*
X0075600Y0056700D01*
X0076406Y0056328D01*
X0076500Y0056700D01*
X0085500Y0056700D01*
X0086209Y0056524D01*
X0095400Y0056700D02*
X0095973Y0056643D01*
X0095400Y0056700D02*
X0095400Y0058500D01*
X0062100Y0091800D01*
X0061800Y0091800D01*
X0055800Y0027000D02*
X0056643Y0026209D01*
X0055800Y0027000D02*
X0031500Y0027000D01*
X0031328Y0027391D01*
X0031328Y0060855D02*
X0030600Y0061200D01*
X0015816Y0101485D02*
X0016200Y0101700D01*
X0016200Y0251100D01*
X0052200Y0287100D01*
X0052200Y0324000D01*
X0099000Y0370800D01*
X0099000Y0387000D01*
X0103500Y0391500D01*
X0104162Y0391564D01*
D24*
X0108900Y0153900D03*
M02*
