G75*
%MOIN*%
%OFA0B0*%
%FSLAX25Y25*%
%IPPOS*%
%LPD*%
%AMOC8*
5,1,8,0,0,1.08239X$1,22.5*
%
%ADD10OC8,0.06300*%
%ADD11C,0.06300*%
%ADD12OC8,0.05600*%
%ADD13R,0.05543X0.05543*%
%ADD14C,0.05543*%
%ADD15R,0.06496X0.06496*%
%ADD16OC8,0.06496*%
%ADD17R,0.12268X0.12268*%
%ADD18OC8,0.05200*%
%ADD19OC8,0.07400*%
%ADD20C,0.06496*%
%ADD21C,0.05200*%
%ADD22C,0.01600*%
%ADD23C,0.01000*%
%ADD24C,0.04000*%
D10*
X0076800Y0216800D03*
X0081800Y0246800D03*
D11*
X0071800Y0246800D03*
X0066800Y0216800D03*
D12*
X0061800Y0166800D03*
X0091800Y0166800D03*
X0091800Y0076800D03*
X0061800Y0076800D03*
D13*
X0061800Y0276800D03*
X0091800Y0296800D03*
D14*
X0091800Y0306700D03*
X0091800Y0276800D03*
X0091800Y0346900D03*
X0061800Y0346900D03*
X0061800Y0306700D03*
X0061800Y0296800D03*
D15*
X0104162Y0299044D03*
X0104162Y0247863D03*
X0104162Y0196682D03*
X0104162Y0145501D03*
X0104162Y0350225D03*
X0104162Y0401406D03*
D16*
X0104162Y0391564D03*
X0104162Y0381721D03*
X0104162Y0340383D03*
X0104162Y0330540D03*
X0104162Y0289202D03*
X0104162Y0279359D03*
X0104162Y0238020D03*
X0104162Y0228178D03*
X0104162Y0186839D03*
X0104162Y0176997D03*
X0104162Y0135658D03*
X0104162Y0125816D03*
D17*
X0131721Y0117942D03*
X0131721Y0153375D03*
X0131721Y0169123D03*
X0131721Y0204556D03*
X0131721Y0220304D03*
X0131721Y0255737D03*
X0131721Y0271485D03*
X0131721Y0306918D03*
X0131721Y0322666D03*
X0131721Y0358099D03*
X0131721Y0373847D03*
X0131721Y0409280D03*
D18*
X0082430Y0197115D03*
X0052430Y0197115D03*
X0045816Y0101485D03*
X0045816Y0091603D03*
X0045816Y0081997D03*
X0045816Y0072312D03*
X0056643Y0056209D03*
X0066406Y0056131D03*
X0076406Y0056328D03*
X0086209Y0056524D03*
X0095973Y0056643D03*
X0105580Y0056643D03*
X0116997Y0073887D03*
X0116997Y0083808D03*
X0116800Y0093532D03*
X0116879Y0103650D03*
X0105580Y0026643D03*
X0095973Y0026643D03*
X0086209Y0026524D03*
X0076406Y0026328D03*
X0066406Y0026131D03*
X0056643Y0026209D03*
X0015816Y0072312D03*
X0015816Y0081997D03*
X0015816Y0091603D03*
X0015816Y0101485D03*
X0146879Y0103650D03*
X0146800Y0093532D03*
X0146997Y0083808D03*
X0146997Y0073887D03*
D19*
X0082300Y0361800D03*
X0081300Y0371800D03*
X0082300Y0381800D03*
X0081300Y0391800D03*
X0082300Y0401800D03*
X0072300Y0401800D03*
X0071300Y0391800D03*
X0072300Y0381800D03*
X0071300Y0371800D03*
X0072300Y0361800D03*
D20*
X0056918Y0391564D03*
X0045107Y0391564D03*
X0031328Y0360068D03*
X0031328Y0326603D03*
X0031328Y0314792D03*
X0045107Y0289202D03*
X0056918Y0289202D03*
X0031328Y0257706D03*
X0031328Y0224241D03*
X0031328Y0212430D03*
X0045107Y0186839D03*
X0056918Y0186839D03*
X0031328Y0155343D03*
X0031328Y0121879D03*
X0031328Y0110068D03*
X0031328Y0060855D03*
X0031328Y0027391D03*
X0031328Y0015580D03*
X0011643Y0186839D03*
X0011643Y0289202D03*
X0011643Y0391564D03*
X0131721Y0060855D03*
X0131721Y0027391D03*
X0131721Y0015580D03*
D21*
X0094400Y0091800D02*
X0089200Y0091800D01*
X0089200Y0101800D02*
X0094400Y0101800D01*
X0094400Y0111800D02*
X0089200Y0111800D01*
X0089200Y0121800D02*
X0094400Y0121800D01*
X0094400Y0131800D02*
X0089200Y0131800D01*
X0089200Y0141800D02*
X0094400Y0141800D01*
X0094400Y0151800D02*
X0089200Y0151800D01*
X0064400Y0151800D02*
X0059200Y0151800D01*
X0059200Y0141800D02*
X0064400Y0141800D01*
X0064400Y0131800D02*
X0059200Y0131800D01*
X0059200Y0121800D02*
X0064400Y0121800D01*
X0064400Y0111800D02*
X0059200Y0111800D01*
X0059200Y0101800D02*
X0064400Y0101800D01*
X0064400Y0091800D02*
X0059200Y0091800D01*
D22*
X0006600Y0001800D02*
X0151724Y0001800D01*
X0006600Y0001800D01*
X0006600Y0416291D01*
X0124202Y0416291D01*
X0123987Y0416077D01*
X0123987Y0402484D01*
X0124925Y0401546D01*
X0138518Y0401546D01*
X0139455Y0402484D01*
X0139455Y0416077D01*
X0139241Y0416291D01*
X0151724Y0416291D01*
X0151724Y0122145D01*
X0128229Y0145641D01*
X0138518Y0145641D01*
X0139455Y0146578D01*
X0139455Y0160171D01*
X0138518Y0161109D01*
X0124925Y0161109D01*
X0123987Y0160171D01*
X0123987Y0149882D01*
X0111000Y0162870D01*
X0111000Y0182670D01*
X0108924Y0184745D01*
X0109010Y0184831D01*
X0109010Y0188847D01*
X0106224Y0191634D01*
X0107647Y0191634D01*
X0108105Y0191757D01*
X0108515Y0191993D01*
X0108851Y0192329D01*
X0109088Y0192739D01*
X0109210Y0193197D01*
X0109210Y0196399D01*
X0104445Y0196399D01*
X0104445Y0196965D01*
X0103880Y0196965D01*
X0103880Y0201730D01*
X0100677Y0201730D01*
X0100219Y0201607D01*
X0099809Y0201370D01*
X0099474Y0201035D01*
X0099237Y0200625D01*
X0099114Y0200167D01*
X0099114Y0196965D01*
X0103879Y0196965D01*
X0103879Y0196399D01*
X0099114Y0196399D01*
X0099114Y0193197D01*
X0099237Y0192739D01*
X0099474Y0192329D01*
X0099809Y0191993D01*
X0100219Y0191757D01*
X0100677Y0191634D01*
X0102101Y0191634D01*
X0099314Y0188847D01*
X0099314Y0188056D01*
X0088500Y0198870D01*
X0088500Y0201570D01*
X0078220Y0211850D01*
X0078850Y0211850D01*
X0081750Y0214750D01*
X0081750Y0216800D01*
X0081750Y0218850D01*
X0078850Y0221750D01*
X0076800Y0221750D01*
X0076800Y0216800D01*
X0076800Y0216800D01*
X0081750Y0216800D01*
X0076800Y0216800D01*
X0076800Y0216800D01*
X0076800Y0221750D01*
X0074750Y0221750D01*
X0073335Y0220335D01*
X0071400Y0222270D01*
X0070170Y0223500D01*
X0045930Y0223500D01*
X0036200Y0213770D01*
X0036006Y0214368D01*
X0035645Y0215076D01*
X0035178Y0215718D01*
X0034616Y0216280D01*
X0033973Y0216747D01*
X0033265Y0217108D01*
X0032510Y0217354D01*
X0031725Y0217478D01*
X0031610Y0217478D01*
X0031610Y0212713D01*
X0031045Y0212713D01*
X0031045Y0217478D01*
X0030930Y0217478D01*
X0030145Y0217354D01*
X0029390Y0217108D01*
X0028682Y0216747D01*
X0028039Y0216280D01*
X0027477Y0215718D01*
X0027010Y0215076D01*
X0026649Y0214368D01*
X0026404Y0213612D01*
X0026280Y0212827D01*
X0026280Y0212713D01*
X0031045Y0212713D01*
X0031045Y0212147D01*
X0026280Y0212147D01*
X0026280Y0212033D01*
X0026404Y0211248D01*
X0026649Y0210492D01*
X0027010Y0209784D01*
X0027477Y0209141D01*
X0028039Y0208579D01*
X0028682Y0208112D01*
X0029390Y0207752D01*
X0029988Y0207557D01*
X0013675Y0191245D01*
X0012607Y0191687D01*
X0010678Y0191687D01*
X0008896Y0190949D01*
X0007533Y0189586D01*
X0006794Y0187804D01*
X0006794Y0185875D01*
X0007533Y0184093D01*
X0008896Y0182729D01*
X0010678Y0181991D01*
X0012607Y0181991D01*
X0014389Y0182729D01*
X0015752Y0184093D01*
X0016491Y0185875D01*
X0016491Y0187804D01*
X0016398Y0188028D01*
X0047670Y0219300D01*
X0062694Y0219300D01*
X0062050Y0217745D01*
X0062050Y0215855D01*
X0062773Y0214109D01*
X0064109Y0212773D01*
X0065855Y0212050D01*
X0067745Y0212050D01*
X0068035Y0212170D01*
X0074400Y0205806D01*
X0074400Y0137794D01*
X0068793Y0132188D01*
X0068692Y0132830D01*
X0068478Y0133489D01*
X0068163Y0134106D01*
X0067756Y0134666D01*
X0067266Y0135156D01*
X0066706Y0135563D01*
X0066089Y0135878D01*
X0065430Y0136092D01*
X0064746Y0136200D01*
X0061800Y0136200D01*
X0061800Y0131800D01*
X0061800Y0131800D01*
X0061800Y0127400D01*
X0064006Y0127400D01*
X0062606Y0126000D01*
X0058365Y0126000D01*
X0056821Y0125361D01*
X0055639Y0124179D01*
X0055000Y0122635D01*
X0055000Y0120965D01*
X0055639Y0119421D01*
X0056821Y0118239D01*
X0058365Y0117600D01*
X0065235Y0117600D01*
X0066779Y0118239D01*
X0066873Y0118333D01*
X0069400Y0115806D01*
X0069400Y0087794D01*
X0062806Y0081200D01*
X0059977Y0081200D01*
X0057400Y0078623D01*
X0057400Y0074977D01*
X0058277Y0074100D01*
X0049967Y0074100D01*
X0047555Y0076512D01*
X0044076Y0076512D01*
X0043500Y0075936D01*
X0043500Y0078373D01*
X0044076Y0077797D01*
X0047555Y0077797D01*
X0050016Y0080257D01*
X0050016Y0083737D01*
X0047555Y0086197D01*
X0044076Y0086197D01*
X0043500Y0085621D01*
X0043500Y0087979D01*
X0044076Y0087403D01*
X0047555Y0087403D01*
X0050016Y0089863D01*
X0050016Y0093343D01*
X0047555Y0095803D01*
X0044076Y0095803D01*
X0043500Y0095227D01*
X0043500Y0097861D01*
X0044076Y0097285D01*
X0047555Y0097285D01*
X0050016Y0099745D01*
X0050016Y0103225D01*
X0047555Y0105685D01*
X0044076Y0105685D01*
X0043500Y0105109D01*
X0043500Y0120630D01*
X0054800Y0131930D01*
X0054800Y0131800D01*
X0061800Y0131800D01*
X0061800Y0131800D01*
X0061800Y0131800D01*
X0061800Y0136200D01*
X0059070Y0136200D01*
X0060470Y0137600D01*
X0065235Y0137600D01*
X0066779Y0138239D01*
X0067961Y0139421D01*
X0068600Y0140965D01*
X0068600Y0142635D01*
X0067961Y0144179D01*
X0066779Y0145361D01*
X0065235Y0146000D01*
X0058365Y0146000D01*
X0056821Y0145361D01*
X0055639Y0144179D01*
X0055000Y0142635D01*
X0055000Y0140965D01*
X0055639Y0139421D01*
X0055995Y0139065D01*
X0039300Y0122370D01*
X0039300Y0070230D01*
X0040530Y0069000D01*
X0052443Y0057088D01*
X0052443Y0054470D01*
X0054903Y0052009D01*
X0058382Y0052009D01*
X0060843Y0054470D01*
X0060843Y0057949D01*
X0058382Y0060409D01*
X0055060Y0060409D01*
X0047358Y0068112D01*
X0047555Y0068112D01*
X0049344Y0069900D01*
X0063870Y0069900D01*
X0081300Y0087330D01*
X0081300Y0137730D01*
X0085000Y0141430D01*
X0085000Y0140965D01*
X0085639Y0139421D01*
X0086821Y0138239D01*
X0088365Y0137600D01*
X0095235Y0137600D01*
X0096779Y0138239D01*
X0097961Y0139421D01*
X0098600Y0140965D01*
X0098600Y0142635D01*
X0097961Y0144179D01*
X0096779Y0145361D01*
X0095235Y0146000D01*
X0089570Y0146000D01*
X0091170Y0147600D01*
X0095235Y0147600D01*
X0096779Y0148239D01*
X0097961Y0149421D01*
X0098600Y0150965D01*
X0098600Y0152635D01*
X0097961Y0154179D01*
X0096779Y0155361D01*
X0095235Y0156000D01*
X0088365Y0156000D01*
X0086821Y0155361D01*
X0085639Y0154179D01*
X0085000Y0152635D01*
X0085000Y0150965D01*
X0085639Y0149421D01*
X0086345Y0148715D01*
X0079200Y0141570D01*
X0079200Y0194405D01*
X0080690Y0192915D01*
X0080700Y0192915D01*
X0080700Y0184530D01*
X0081930Y0183300D01*
X0107863Y0157367D01*
X0106861Y0156952D01*
X0105848Y0155939D01*
X0105300Y0154616D01*
X0105300Y0153184D01*
X0105848Y0151861D01*
X0106800Y0150909D01*
X0106800Y0150549D01*
X0104445Y0150549D01*
X0104445Y0145784D01*
X0103880Y0145784D01*
X0103880Y0150549D01*
X0100677Y0150549D01*
X0100219Y0150426D01*
X0099809Y0150189D01*
X0099474Y0149854D01*
X0099237Y0149444D01*
X0099114Y0148986D01*
X0099114Y0145783D01*
X0103879Y0145783D01*
X0103879Y0145218D01*
X0099114Y0145218D01*
X0099114Y0142016D01*
X0099237Y0141558D01*
X0099474Y0141148D01*
X0099809Y0140812D01*
X0100219Y0140575D01*
X0100677Y0140453D01*
X0102101Y0140453D01*
X0099314Y0137666D01*
X0099314Y0133784D01*
X0098610Y0133080D01*
X0098478Y0133489D01*
X0098163Y0134106D01*
X0097756Y0134666D01*
X0097266Y0135156D01*
X0096706Y0135563D01*
X0096089Y0135878D01*
X0095430Y0136092D01*
X0094746Y0136200D01*
X0091800Y0136200D01*
X0091800Y0131800D01*
X0091800Y0131800D01*
X0091800Y0127400D01*
X0094746Y0127400D01*
X0095430Y0127508D01*
X0096089Y0127722D01*
X0096706Y0128037D01*
X0096900Y0128178D01*
X0096900Y0125240D01*
X0096779Y0125361D01*
X0095235Y0126000D01*
X0088365Y0126000D01*
X0086821Y0125361D01*
X0085639Y0124179D01*
X0085000Y0122635D01*
X0085000Y0120965D01*
X0085639Y0119421D01*
X0086821Y0118239D01*
X0088365Y0117600D01*
X0095235Y0117600D01*
X0096779Y0118239D01*
X0096900Y0118360D01*
X0096900Y0115422D01*
X0096706Y0115563D01*
X0096089Y0115878D01*
X0095430Y0116092D01*
X0094746Y0116200D01*
X0091800Y0116200D01*
X0091800Y0111800D01*
X0091800Y0111800D01*
X0091800Y0107400D01*
X0094746Y0107400D01*
X0095430Y0107508D01*
X0096089Y0107722D01*
X0096706Y0108037D01*
X0096900Y0108178D01*
X0096900Y0105240D01*
X0096779Y0105361D01*
X0095235Y0106000D01*
X0088365Y0106000D01*
X0086821Y0105361D01*
X0085639Y0104179D01*
X0085000Y0102635D01*
X0085000Y0100965D01*
X0085639Y0099421D01*
X0086821Y0098239D01*
X0088365Y0097600D01*
X0095235Y0097600D01*
X0096779Y0098239D01*
X0096900Y0098360D01*
X0096900Y0095240D01*
X0096779Y0095361D01*
X0095235Y0096000D01*
X0088365Y0096000D01*
X0086821Y0095361D01*
X0085639Y0094179D01*
X0085000Y0092635D01*
X0085000Y0090965D01*
X0085639Y0089421D01*
X0086821Y0088239D01*
X0088365Y0087600D01*
X0093630Y0087600D01*
X0079800Y0073770D01*
X0079800Y0058874D01*
X0078146Y0060528D01*
X0074667Y0060528D01*
X0072206Y0058067D01*
X0072206Y0054588D01*
X0074667Y0052128D01*
X0075258Y0052128D01*
X0064500Y0041370D01*
X0064500Y0030164D01*
X0062206Y0027870D01*
X0062206Y0024391D01*
X0064667Y0021931D01*
X0068146Y0021931D01*
X0070223Y0024007D01*
X0071130Y0023100D01*
X0074730Y0019500D01*
X0079170Y0019500D01*
X0080400Y0020730D01*
X0083232Y0023562D01*
X0084470Y0022324D01*
X0087949Y0022324D01*
X0090409Y0024785D01*
X0090409Y0028264D01*
X0087949Y0030724D01*
X0087694Y0030724D01*
X0107070Y0050100D01*
X0107970Y0050100D01*
X0142797Y0084927D01*
X0142797Y0082068D01*
X0145257Y0079608D01*
X0148737Y0079608D01*
X0151197Y0082068D01*
X0151197Y0085548D01*
X0148737Y0088008D01*
X0145257Y0088008D01*
X0144300Y0087051D01*
X0144300Y0090093D01*
X0145060Y0089332D01*
X0148540Y0089332D01*
X0151000Y0091793D01*
X0151000Y0095272D01*
X0149371Y0096901D01*
X0151724Y0099255D01*
X0151724Y0001800D01*
X0151724Y0003399D02*
X0006600Y0003399D01*
X0006600Y0004997D02*
X0151724Y0004997D01*
X0151724Y0006596D02*
X0006600Y0006596D01*
X0006600Y0008194D02*
X0151724Y0008194D01*
X0151724Y0009793D02*
X0006600Y0009793D01*
X0006600Y0011391D02*
X0028504Y0011391D01*
X0028682Y0011262D02*
X0028039Y0011729D01*
X0027477Y0012291D01*
X0027010Y0012934D01*
X0026649Y0013642D01*
X0026404Y0014397D01*
X0026280Y0015182D01*
X0026280Y0015297D01*
X0031045Y0015297D01*
X0031610Y0015297D01*
X0031610Y0010531D01*
X0031725Y0010531D01*
X0032510Y0010656D01*
X0033265Y0010901D01*
X0033973Y0011262D01*
X0034616Y0011729D01*
X0035178Y0012291D01*
X0035645Y0012934D01*
X0036006Y0013642D01*
X0036251Y0014397D01*
X0036376Y0015182D01*
X0036376Y0015297D01*
X0031610Y0015297D01*
X0031610Y0015862D01*
X0031045Y0015862D01*
X0031045Y0015297D01*
X0031045Y0010531D01*
X0030930Y0010531D01*
X0030145Y0010656D01*
X0029390Y0010901D01*
X0028682Y0011262D01*
X0031045Y0011391D02*
X0031610Y0011391D01*
X0031610Y0012990D02*
X0031045Y0012990D01*
X0031045Y0014588D02*
X0031610Y0014588D01*
X0031610Y0015862D02*
X0036376Y0015862D01*
X0036376Y0015977D01*
X0036251Y0016762D01*
X0036006Y0017517D01*
X0035645Y0018225D01*
X0035178Y0018868D01*
X0034616Y0019430D01*
X0033973Y0019897D01*
X0033265Y0020258D01*
X0032510Y0020503D01*
X0031725Y0020628D01*
X0031610Y0020628D01*
X0031610Y0015862D01*
X0031610Y0016187D02*
X0031045Y0016187D01*
X0031045Y0015862D02*
X0031045Y0020628D01*
X0030930Y0020628D01*
X0030145Y0020503D01*
X0029390Y0020258D01*
X0028682Y0019897D01*
X0028039Y0019430D01*
X0027477Y0018868D01*
X0027010Y0018225D01*
X0026649Y0017517D01*
X0026404Y0016762D01*
X0026280Y0015977D01*
X0026280Y0015862D01*
X0031045Y0015862D01*
X0031045Y0017785D02*
X0031610Y0017785D01*
X0031610Y0019384D02*
X0031045Y0019384D01*
X0030363Y0022543D02*
X0028581Y0023281D01*
X0027218Y0024644D01*
X0026480Y0026426D01*
X0026480Y0028355D01*
X0027218Y0030137D01*
X0028581Y0031501D01*
X0030363Y0032239D01*
X0032292Y0032239D01*
X0034074Y0031501D01*
X0035438Y0030137D01*
X0036176Y0028355D01*
X0036176Y0026426D01*
X0035438Y0024644D01*
X0034074Y0023281D01*
X0032292Y0022543D01*
X0030363Y0022543D01*
X0030271Y0022581D02*
X0006600Y0022581D01*
X0006600Y0024179D02*
X0027683Y0024179D01*
X0026748Y0025778D02*
X0006600Y0025778D01*
X0006600Y0027376D02*
X0026480Y0027376D01*
X0026736Y0028975D02*
X0006600Y0028975D01*
X0006600Y0030573D02*
X0027654Y0030573D01*
X0030202Y0032172D02*
X0006600Y0032172D01*
X0006600Y0033770D02*
X0064500Y0033770D01*
X0064500Y0032172D02*
X0032453Y0032172D01*
X0035001Y0030573D02*
X0064500Y0030573D01*
X0063311Y0028975D02*
X0059817Y0028975D01*
X0060843Y0027949D02*
X0058382Y0030409D01*
X0054903Y0030409D01*
X0052443Y0027949D01*
X0052443Y0024470D01*
X0054903Y0022009D01*
X0058382Y0022009D01*
X0060843Y0024470D01*
X0060843Y0027949D01*
X0060843Y0027376D02*
X0062206Y0027376D01*
X0062206Y0025778D02*
X0060843Y0025778D01*
X0060552Y0024179D02*
X0062418Y0024179D01*
X0064017Y0022581D02*
X0058953Y0022581D01*
X0054332Y0022581D02*
X0032384Y0022581D01*
X0034662Y0019384D02*
X0128386Y0019384D01*
X0128433Y0019430D02*
X0127871Y0018868D01*
X0127404Y0018225D01*
X0127043Y0017517D01*
X0126798Y0016762D01*
X0126673Y0015977D01*
X0126673Y0015862D01*
X0131438Y0015862D01*
X0131438Y0015297D01*
X0126673Y0015297D01*
X0126673Y0015182D01*
X0126798Y0014397D01*
X0127043Y0013642D01*
X0127404Y0012934D01*
X0127871Y0012291D01*
X0128433Y0011729D01*
X0129076Y0011262D01*
X0129783Y0010901D01*
X0130539Y0010656D01*
X0131324Y0010531D01*
X0131439Y0010531D01*
X0131439Y0015297D01*
X0132004Y0015297D01*
X0132004Y0015862D01*
X0136769Y0015862D01*
X0136769Y0015977D01*
X0136645Y0016762D01*
X0136399Y0017517D01*
X0136039Y0018225D01*
X0135572Y0018868D01*
X0135010Y0019430D01*
X0134367Y0019897D01*
X0133659Y0020258D01*
X0132903Y0020503D01*
X0132119Y0020628D01*
X0132004Y0020628D01*
X0132004Y0015862D01*
X0131439Y0015862D01*
X0131439Y0020628D01*
X0131324Y0020628D01*
X0130539Y0020503D01*
X0129783Y0020258D01*
X0129076Y0019897D01*
X0128433Y0019430D01*
X0127180Y0017785D02*
X0035869Y0017785D01*
X0036342Y0016187D02*
X0126706Y0016187D01*
X0126767Y0014588D02*
X0036281Y0014588D01*
X0035673Y0012990D02*
X0127375Y0012990D01*
X0128898Y0011391D02*
X0034151Y0011391D01*
X0034972Y0024179D02*
X0052733Y0024179D01*
X0052443Y0025778D02*
X0035907Y0025778D01*
X0036176Y0027376D02*
X0052443Y0027376D01*
X0053468Y0028975D02*
X0035919Y0028975D01*
X0027993Y0019384D02*
X0006600Y0019384D01*
X0006600Y0020982D02*
X0073248Y0020982D01*
X0071649Y0022581D02*
X0068796Y0022581D01*
X0064500Y0035369D02*
X0006600Y0035369D01*
X0006600Y0036967D02*
X0064500Y0036967D01*
X0064500Y0038566D02*
X0006600Y0038566D01*
X0006600Y0040164D02*
X0064500Y0040164D01*
X0064893Y0041763D02*
X0006600Y0041763D01*
X0006600Y0043361D02*
X0066491Y0043361D01*
X0068090Y0044960D02*
X0006600Y0044960D01*
X0006600Y0046558D02*
X0069688Y0046558D01*
X0071287Y0048157D02*
X0006600Y0048157D01*
X0006600Y0049755D02*
X0072886Y0049755D01*
X0074484Y0051354D02*
X0006600Y0051354D01*
X0006600Y0052952D02*
X0053960Y0052952D01*
X0052443Y0054551D02*
X0006600Y0054551D01*
X0006600Y0056149D02*
X0030020Y0056149D01*
X0030363Y0056007D02*
X0028581Y0056745D01*
X0027218Y0058109D01*
X0026480Y0059891D01*
X0026480Y0061819D01*
X0027218Y0063601D01*
X0028581Y0064965D01*
X0030363Y0065703D01*
X0032292Y0065703D01*
X0034074Y0064965D01*
X0035438Y0063601D01*
X0036176Y0061819D01*
X0036176Y0059891D01*
X0035438Y0058109D01*
X0034074Y0056745D01*
X0032292Y0056007D01*
X0030363Y0056007D01*
X0032635Y0056149D02*
X0052443Y0056149D01*
X0051782Y0057748D02*
X0035076Y0057748D01*
X0035950Y0059346D02*
X0050184Y0059346D01*
X0048585Y0060945D02*
X0036176Y0060945D01*
X0035876Y0062543D02*
X0046987Y0062543D01*
X0045388Y0064142D02*
X0034897Y0064142D01*
X0039300Y0070536D02*
X0019980Y0070536D01*
X0020016Y0070572D02*
X0017555Y0068112D01*
X0014076Y0068112D01*
X0011616Y0070572D01*
X0011616Y0074052D01*
X0014076Y0076512D01*
X0017555Y0076512D01*
X0020016Y0074052D01*
X0020016Y0070572D01*
X0020016Y0072134D02*
X0039300Y0072134D01*
X0039300Y0073733D02*
X0020016Y0073733D01*
X0018736Y0075332D02*
X0039300Y0075332D01*
X0039300Y0076930D02*
X0006600Y0076930D01*
X0006600Y0075332D02*
X0012896Y0075332D01*
X0011616Y0073733D02*
X0006600Y0073733D01*
X0006600Y0072134D02*
X0011616Y0072134D01*
X0011652Y0070536D02*
X0006600Y0070536D01*
X0006600Y0068937D02*
X0013250Y0068937D01*
X0014076Y0077797D02*
X0011616Y0080257D01*
X0011616Y0083737D01*
X0014076Y0086197D01*
X0017555Y0086197D01*
X0020016Y0083737D01*
X0020016Y0080257D01*
X0017555Y0077797D01*
X0014076Y0077797D01*
X0013344Y0078529D02*
X0006600Y0078529D01*
X0006600Y0080127D02*
X0011746Y0080127D01*
X0011616Y0081726D02*
X0006600Y0081726D01*
X0006600Y0083324D02*
X0011616Y0083324D01*
X0012802Y0084923D02*
X0006600Y0084923D01*
X0006600Y0086521D02*
X0039300Y0086521D01*
X0039300Y0084923D02*
X0018830Y0084923D01*
X0020016Y0083324D02*
X0039300Y0083324D01*
X0039300Y0081726D02*
X0020016Y0081726D01*
X0019886Y0080127D02*
X0039300Y0080127D01*
X0039300Y0078529D02*
X0018287Y0078529D01*
X0017555Y0087403D02*
X0020016Y0089863D01*
X0020016Y0093343D01*
X0017555Y0095803D01*
X0014076Y0095803D01*
X0011616Y0093343D01*
X0011616Y0089863D01*
X0014076Y0087403D01*
X0017555Y0087403D01*
X0018272Y0088120D02*
X0039300Y0088120D01*
X0039300Y0089718D02*
X0019870Y0089718D01*
X0020016Y0091317D02*
X0039300Y0091317D01*
X0039300Y0092915D02*
X0020016Y0092915D01*
X0018845Y0094514D02*
X0039300Y0094514D01*
X0039300Y0096112D02*
X0006600Y0096112D01*
X0006600Y0094514D02*
X0012787Y0094514D01*
X0011616Y0092915D02*
X0006600Y0092915D01*
X0006600Y0091317D02*
X0011616Y0091317D01*
X0011761Y0089718D02*
X0006600Y0089718D01*
X0006600Y0088120D02*
X0013360Y0088120D01*
X0014076Y0097285D02*
X0017555Y0097285D01*
X0020016Y0099745D01*
X0020016Y0103225D01*
X0017555Y0105685D01*
X0014076Y0105685D01*
X0011616Y0103225D01*
X0011616Y0099745D01*
X0014076Y0097285D01*
X0013650Y0097711D02*
X0006600Y0097711D01*
X0006600Y0099309D02*
X0012052Y0099309D01*
X0011616Y0100908D02*
X0006600Y0100908D01*
X0006600Y0102506D02*
X0011616Y0102506D01*
X0012496Y0104105D02*
X0006600Y0104105D01*
X0006600Y0105703D02*
X0028774Y0105703D01*
X0028682Y0105750D02*
X0029390Y0105390D01*
X0030145Y0105144D01*
X0030930Y0105020D01*
X0031045Y0105020D01*
X0031045Y0109785D01*
X0031610Y0109785D01*
X0031610Y0105020D01*
X0031725Y0105020D01*
X0032510Y0105144D01*
X0033265Y0105390D01*
X0033973Y0105750D01*
X0034616Y0106217D01*
X0035178Y0106779D01*
X0035645Y0107422D01*
X0036006Y0108130D01*
X0036251Y0108886D01*
X0036376Y0109670D01*
X0036376Y0109785D01*
X0031610Y0109785D01*
X0031610Y0110350D01*
X0036376Y0110350D01*
X0036376Y0110465D01*
X0036251Y0111250D01*
X0036006Y0112005D01*
X0035645Y0112713D01*
X0035178Y0113356D01*
X0034616Y0113918D01*
X0033973Y0114385D01*
X0033265Y0114746D01*
X0032510Y0114991D01*
X0031725Y0115116D01*
X0031610Y0115116D01*
X0031610Y0110350D01*
X0031045Y0110350D01*
X0031045Y0109785D01*
X0026280Y0109785D01*
X0026280Y0109670D01*
X0026404Y0108886D01*
X0026649Y0108130D01*
X0027010Y0107422D01*
X0027477Y0106779D01*
X0028039Y0106217D01*
X0028682Y0105750D01*
X0027097Y0107302D02*
X0006600Y0107302D01*
X0006600Y0108900D02*
X0026402Y0108900D01*
X0026280Y0110350D02*
X0031045Y0110350D01*
X0031045Y0115116D01*
X0030930Y0115116D01*
X0030145Y0114991D01*
X0029390Y0114746D01*
X0028682Y0114385D01*
X0028039Y0113918D01*
X0027477Y0113356D01*
X0027010Y0112713D01*
X0026649Y0112005D01*
X0026404Y0111250D01*
X0026280Y0110465D01*
X0026280Y0110350D01*
X0026285Y0110499D02*
X0006600Y0110499D01*
X0006600Y0112097D02*
X0026696Y0112097D01*
X0027817Y0113696D02*
X0006600Y0113696D01*
X0006600Y0115294D02*
X0039300Y0115294D01*
X0039300Y0113696D02*
X0034838Y0113696D01*
X0035959Y0112097D02*
X0039300Y0112097D01*
X0039300Y0110499D02*
X0036370Y0110499D01*
X0036254Y0108900D02*
X0039300Y0108900D01*
X0039300Y0107302D02*
X0035558Y0107302D01*
X0033881Y0105703D02*
X0039300Y0105703D01*
X0039300Y0104105D02*
X0019136Y0104105D01*
X0020016Y0102506D02*
X0039300Y0102506D01*
X0039300Y0100908D02*
X0020016Y0100908D01*
X0019580Y0099309D02*
X0039300Y0099309D01*
X0039300Y0097711D02*
X0017981Y0097711D01*
X0027218Y0119133D02*
X0026480Y0120914D01*
X0026480Y0122843D01*
X0027218Y0124625D01*
X0028581Y0125989D01*
X0030363Y0126727D01*
X0032292Y0126727D01*
X0034074Y0125989D01*
X0035438Y0124625D01*
X0036176Y0122843D01*
X0036176Y0120914D01*
X0035438Y0119133D01*
X0034074Y0117769D01*
X0032292Y0117031D01*
X0030363Y0117031D01*
X0028581Y0117769D01*
X0027218Y0119133D01*
X0027859Y0118491D02*
X0006600Y0118491D01*
X0006600Y0116893D02*
X0039300Y0116893D01*
X0039300Y0118491D02*
X0034796Y0118491D01*
X0035834Y0120090D02*
X0039300Y0120090D01*
X0039300Y0121688D02*
X0036176Y0121688D01*
X0035992Y0123287D02*
X0040217Y0123287D01*
X0041816Y0124885D02*
X0035177Y0124885D01*
X0032878Y0126484D02*
X0043414Y0126484D01*
X0045013Y0128082D02*
X0006600Y0128082D01*
X0006600Y0126484D02*
X0029777Y0126484D01*
X0027478Y0124885D02*
X0006600Y0124885D01*
X0006600Y0123287D02*
X0026663Y0123287D01*
X0026480Y0121688D02*
X0006600Y0121688D01*
X0006600Y0120090D02*
X0026821Y0120090D01*
X0031045Y0113696D02*
X0031610Y0113696D01*
X0031610Y0112097D02*
X0031045Y0112097D01*
X0031045Y0110499D02*
X0031610Y0110499D01*
X0031610Y0108900D02*
X0031045Y0108900D01*
X0031045Y0107302D02*
X0031610Y0107302D01*
X0031610Y0105703D02*
X0031045Y0105703D01*
X0043500Y0105703D02*
X0057648Y0105703D01*
X0058365Y0106000D02*
X0056821Y0105361D01*
X0055639Y0104179D01*
X0055000Y0102635D01*
X0055000Y0100965D01*
X0055639Y0099421D01*
X0056821Y0098239D01*
X0058365Y0097600D01*
X0065235Y0097600D01*
X0066779Y0098239D01*
X0067961Y0099421D01*
X0068600Y0100965D01*
X0068600Y0102635D01*
X0067961Y0104179D01*
X0066779Y0105361D01*
X0065235Y0106000D01*
X0058365Y0106000D01*
X0058854Y0107400D02*
X0058170Y0107508D01*
X0057511Y0107722D01*
X0056894Y0108037D01*
X0056334Y0108444D01*
X0055844Y0108934D01*
X0055437Y0109494D01*
X0055122Y0110111D01*
X0054908Y0110770D01*
X0054800Y0111454D01*
X0054800Y0111800D01*
X0061800Y0111800D01*
X0061800Y0111800D01*
X0061800Y0116200D01*
X0064746Y0116200D01*
X0065430Y0116092D01*
X0066089Y0115878D01*
X0066706Y0115563D01*
X0067266Y0115156D01*
X0067756Y0114666D01*
X0068163Y0114106D01*
X0068478Y0113489D01*
X0068692Y0112830D01*
X0068800Y0112146D01*
X0068800Y0111800D01*
X0061800Y0111800D01*
X0061800Y0111800D01*
X0061800Y0107400D01*
X0064746Y0107400D01*
X0065430Y0107508D01*
X0066089Y0107722D01*
X0066706Y0108037D01*
X0067266Y0108444D01*
X0067756Y0108934D01*
X0068163Y0109494D01*
X0068478Y0110111D01*
X0068692Y0110770D01*
X0068800Y0111454D01*
X0068800Y0111800D01*
X0061800Y0111800D01*
X0061800Y0111800D01*
X0061800Y0111800D01*
X0061800Y0116200D01*
X0058854Y0116200D01*
X0058170Y0116092D01*
X0057511Y0115878D01*
X0056894Y0115563D01*
X0056334Y0115156D01*
X0055844Y0114666D01*
X0055437Y0114106D01*
X0055122Y0113489D01*
X0054908Y0112830D01*
X0054800Y0112146D01*
X0054800Y0111800D01*
X0061800Y0111800D01*
X0061800Y0107400D01*
X0058854Y0107400D01*
X0061800Y0108900D02*
X0061800Y0108900D01*
X0061800Y0110499D02*
X0061800Y0110499D01*
X0061800Y0112097D02*
X0061800Y0112097D01*
X0061800Y0113696D02*
X0061800Y0113696D01*
X0061800Y0115294D02*
X0061800Y0115294D01*
X0061800Y0121800D02*
X0066800Y0121800D01*
X0071800Y0116800D01*
X0071800Y0086800D01*
X0061800Y0076800D01*
X0058905Y0080127D02*
X0049886Y0080127D01*
X0050016Y0081726D02*
X0063331Y0081726D01*
X0064930Y0083324D02*
X0050016Y0083324D01*
X0048830Y0084923D02*
X0066528Y0084923D01*
X0068127Y0086521D02*
X0043500Y0086521D01*
X0043500Y0076930D02*
X0057400Y0076930D01*
X0057400Y0075332D02*
X0048736Y0075332D01*
X0048287Y0078529D02*
X0057400Y0078529D01*
X0058365Y0087600D02*
X0056821Y0088239D01*
X0055639Y0089421D01*
X0055000Y0090965D01*
X0055000Y0092635D01*
X0055639Y0094179D01*
X0056821Y0095361D01*
X0058365Y0096000D01*
X0065235Y0096000D01*
X0066779Y0095361D01*
X0067961Y0094179D01*
X0068600Y0092635D01*
X0068600Y0090965D01*
X0067961Y0089421D01*
X0066779Y0088239D01*
X0065235Y0087600D01*
X0058365Y0087600D01*
X0057110Y0088120D02*
X0048272Y0088120D01*
X0049870Y0089718D02*
X0055516Y0089718D01*
X0055000Y0091317D02*
X0050016Y0091317D01*
X0050016Y0092915D02*
X0055116Y0092915D01*
X0055974Y0094514D02*
X0048845Y0094514D01*
X0047981Y0097711D02*
X0058097Y0097711D01*
X0055751Y0099309D02*
X0049580Y0099309D01*
X0050016Y0100908D02*
X0055024Y0100908D01*
X0055000Y0102506D02*
X0050016Y0102506D01*
X0049136Y0104105D02*
X0055609Y0104105D01*
X0055877Y0108900D02*
X0043500Y0108900D01*
X0043500Y0107302D02*
X0069400Y0107302D01*
X0069400Y0108900D02*
X0067723Y0108900D01*
X0068604Y0110499D02*
X0069400Y0110499D01*
X0069400Y0112097D02*
X0068800Y0112097D01*
X0068372Y0113696D02*
X0069400Y0113696D01*
X0069400Y0115294D02*
X0067076Y0115294D01*
X0068313Y0116893D02*
X0043500Y0116893D01*
X0043500Y0118491D02*
X0056569Y0118491D01*
X0055362Y0120090D02*
X0043500Y0120090D01*
X0044558Y0121688D02*
X0055000Y0121688D01*
X0055270Y0123287D02*
X0046157Y0123287D01*
X0047755Y0124885D02*
X0056346Y0124885D01*
X0057511Y0127722D02*
X0056894Y0128037D01*
X0056334Y0128444D01*
X0055844Y0128934D01*
X0055437Y0129494D01*
X0055122Y0130111D01*
X0054908Y0130770D01*
X0054800Y0131454D01*
X0054800Y0131800D01*
X0061800Y0131800D01*
X0061800Y0127400D01*
X0058854Y0127400D01*
X0058170Y0127508D01*
X0057511Y0127722D01*
X0056831Y0128082D02*
X0050952Y0128082D01*
X0049354Y0126484D02*
X0063090Y0126484D01*
X0061800Y0128082D02*
X0061800Y0128082D01*
X0061800Y0129681D02*
X0061800Y0129681D01*
X0061800Y0131279D02*
X0061800Y0131279D01*
X0061800Y0132878D02*
X0061800Y0132878D01*
X0061800Y0134476D02*
X0061800Y0134476D01*
X0061800Y0136075D02*
X0061800Y0136075D01*
X0057558Y0145666D02*
X0006600Y0145666D01*
X0006600Y0144068D02*
X0055593Y0144068D01*
X0055000Y0142469D02*
X0006600Y0142469D01*
X0006600Y0140870D02*
X0055039Y0140870D01*
X0055788Y0139272D02*
X0006600Y0139272D01*
X0006600Y0137673D02*
X0054604Y0137673D01*
X0053005Y0136075D02*
X0006600Y0136075D01*
X0006600Y0134476D02*
X0051407Y0134476D01*
X0049808Y0132878D02*
X0006600Y0132878D01*
X0006600Y0131279D02*
X0048210Y0131279D01*
X0046611Y0129681D02*
X0006600Y0129681D01*
X0006600Y0147265D02*
X0074400Y0147265D01*
X0074400Y0148863D02*
X0067403Y0148863D01*
X0067961Y0149421D02*
X0068600Y0150965D01*
X0068600Y0152635D01*
X0067961Y0154179D01*
X0066779Y0155361D01*
X0065235Y0156000D01*
X0058365Y0156000D01*
X0056821Y0155361D01*
X0055639Y0154179D01*
X0055000Y0152635D01*
X0055000Y0150965D01*
X0055639Y0149421D01*
X0056821Y0148239D01*
X0058365Y0147600D01*
X0065235Y0147600D01*
X0066779Y0148239D01*
X0067961Y0149421D01*
X0068392Y0150462D02*
X0074400Y0150462D01*
X0074400Y0152060D02*
X0068600Y0152060D01*
X0068176Y0153659D02*
X0074400Y0153659D01*
X0074400Y0155257D02*
X0066883Y0155257D01*
X0063705Y0162200D02*
X0066400Y0164895D01*
X0066400Y0166700D01*
X0061900Y0166700D01*
X0061900Y0166900D01*
X0066400Y0166900D01*
X0066400Y0168705D01*
X0063705Y0171400D01*
X0061900Y0171400D01*
X0061900Y0166900D01*
X0061700Y0166900D01*
X0061700Y0171400D01*
X0059895Y0171400D01*
X0057200Y0168705D01*
X0057200Y0166900D01*
X0061700Y0166900D01*
X0061700Y0166700D01*
X0061900Y0166700D01*
X0061900Y0162200D01*
X0063705Y0162200D01*
X0064755Y0163250D02*
X0074400Y0163250D01*
X0074400Y0164848D02*
X0066354Y0164848D01*
X0066400Y0166447D02*
X0074400Y0166447D01*
X0074400Y0168045D02*
X0066400Y0168045D01*
X0065462Y0169644D02*
X0074400Y0169644D01*
X0074400Y0171242D02*
X0063863Y0171242D01*
X0061900Y0171242D02*
X0061700Y0171242D01*
X0061700Y0169644D02*
X0061900Y0169644D01*
X0061900Y0168045D02*
X0061700Y0168045D01*
X0061700Y0166700D02*
X0057200Y0166700D01*
X0057200Y0164895D01*
X0059895Y0162200D01*
X0061700Y0162200D01*
X0061700Y0166700D01*
X0061700Y0166447D02*
X0061900Y0166447D01*
X0061900Y0164848D02*
X0061700Y0164848D01*
X0061700Y0163250D02*
X0061900Y0163250D01*
X0058845Y0163250D02*
X0006600Y0163250D01*
X0006600Y0164848D02*
X0057246Y0164848D01*
X0057200Y0166447D02*
X0006600Y0166447D01*
X0006600Y0168045D02*
X0057200Y0168045D01*
X0058138Y0169644D02*
X0006600Y0169644D01*
X0006600Y0171242D02*
X0059737Y0171242D01*
X0058100Y0181916D02*
X0058856Y0182161D01*
X0059564Y0182522D01*
X0060207Y0182989D01*
X0060769Y0183551D01*
X0061236Y0184194D01*
X0061596Y0184902D01*
X0061842Y0185657D01*
X0061966Y0186442D01*
X0061966Y0186557D01*
X0057201Y0186557D01*
X0057201Y0187122D01*
X0061966Y0187122D01*
X0061966Y0187237D01*
X0061842Y0188021D01*
X0061596Y0188777D01*
X0061236Y0189485D01*
X0060769Y0190128D01*
X0060207Y0190690D01*
X0059564Y0191157D01*
X0058856Y0191518D01*
X0058100Y0191763D01*
X0057315Y0191887D01*
X0057201Y0191887D01*
X0057201Y0187122D01*
X0056635Y0187122D01*
X0056635Y0186557D01*
X0051870Y0186557D01*
X0051870Y0186442D01*
X0051994Y0185657D01*
X0052240Y0184902D01*
X0052601Y0184194D01*
X0053068Y0183551D01*
X0053630Y0182989D01*
X0054272Y0182522D01*
X0054980Y0182161D01*
X0055736Y0181916D01*
X0056521Y0181791D01*
X0056635Y0181791D01*
X0056635Y0186557D01*
X0057201Y0186557D01*
X0057201Y0181791D01*
X0057315Y0181791D01*
X0058100Y0181916D01*
X0057201Y0182432D02*
X0056635Y0182432D01*
X0056635Y0184030D02*
X0057201Y0184030D01*
X0057201Y0185629D02*
X0056635Y0185629D01*
X0056635Y0187122D02*
X0051870Y0187122D01*
X0051870Y0187237D01*
X0051994Y0188021D01*
X0052240Y0188777D01*
X0052601Y0189485D01*
X0053068Y0190128D01*
X0053630Y0190690D01*
X0054272Y0191157D01*
X0054980Y0191518D01*
X0055736Y0191763D01*
X0056521Y0191887D01*
X0056635Y0191887D01*
X0056635Y0187122D01*
X0056635Y0187227D02*
X0057201Y0187227D01*
X0057201Y0188826D02*
X0056635Y0188826D01*
X0056635Y0190424D02*
X0057201Y0190424D01*
X0059387Y0182432D02*
X0074400Y0182432D01*
X0074400Y0184030D02*
X0061117Y0184030D01*
X0061833Y0185629D02*
X0074400Y0185629D01*
X0074400Y0187227D02*
X0061966Y0187227D01*
X0061571Y0188826D02*
X0074400Y0188826D01*
X0074400Y0190424D02*
X0060472Y0190424D01*
X0056475Y0195220D02*
X0074400Y0195220D01*
X0074400Y0196818D02*
X0056630Y0196818D01*
X0056630Y0195375D02*
X0054170Y0192915D01*
X0050690Y0192915D01*
X0048230Y0195375D01*
X0048230Y0198855D01*
X0050690Y0201315D01*
X0054170Y0201315D01*
X0056630Y0198855D01*
X0056630Y0195375D01*
X0054876Y0193621D02*
X0074400Y0193621D01*
X0074400Y0192023D02*
X0020393Y0192023D01*
X0021991Y0193621D02*
X0049984Y0193621D01*
X0048385Y0195220D02*
X0023590Y0195220D01*
X0025188Y0196818D02*
X0048230Y0196818D01*
X0048230Y0198417D02*
X0026787Y0198417D01*
X0028385Y0200015D02*
X0049391Y0200015D01*
X0046071Y0191687D02*
X0044143Y0191687D01*
X0042361Y0190949D01*
X0040997Y0189586D01*
X0040259Y0187804D01*
X0040259Y0185875D01*
X0040997Y0184093D01*
X0042361Y0182729D01*
X0044143Y0181991D01*
X0046071Y0181991D01*
X0047853Y0182729D01*
X0049217Y0184093D01*
X0049955Y0185875D01*
X0049955Y0187804D01*
X0049217Y0189586D01*
X0047853Y0190949D01*
X0046071Y0191687D01*
X0048378Y0190424D02*
X0053364Y0190424D01*
X0052265Y0188826D02*
X0049532Y0188826D01*
X0049955Y0187227D02*
X0051870Y0187227D01*
X0052004Y0185629D02*
X0049853Y0185629D01*
X0049154Y0184030D02*
X0052719Y0184030D01*
X0054449Y0182432D02*
X0047135Y0182432D01*
X0043079Y0182432D02*
X0013670Y0182432D01*
X0015690Y0184030D02*
X0041060Y0184030D01*
X0040361Y0185629D02*
X0016389Y0185629D01*
X0016491Y0187227D02*
X0040259Y0187227D01*
X0040682Y0188826D02*
X0017196Y0188826D01*
X0018794Y0190424D02*
X0041836Y0190424D01*
X0034779Y0206409D02*
X0073796Y0206409D01*
X0074400Y0204811D02*
X0033181Y0204811D01*
X0031582Y0203212D02*
X0074400Y0203212D01*
X0074400Y0201614D02*
X0029984Y0201614D01*
X0027241Y0204811D02*
X0006600Y0204811D01*
X0006600Y0206409D02*
X0028840Y0206409D01*
X0028887Y0208008D02*
X0006600Y0208008D01*
X0006600Y0209606D02*
X0027139Y0209606D01*
X0026418Y0211205D02*
X0006600Y0211205D01*
X0006600Y0212803D02*
X0026280Y0212803D01*
X0026667Y0214402D02*
X0006600Y0214402D01*
X0006600Y0216001D02*
X0027759Y0216001D01*
X0028581Y0220131D02*
X0030363Y0219393D01*
X0032292Y0219393D01*
X0034074Y0220131D01*
X0035438Y0221495D01*
X0036176Y0223277D01*
X0036176Y0225205D01*
X0035438Y0226987D01*
X0034074Y0228351D01*
X0032292Y0229089D01*
X0030363Y0229089D01*
X0028581Y0228351D01*
X0027218Y0226987D01*
X0026480Y0225205D01*
X0026480Y0223277D01*
X0027218Y0221495D01*
X0028581Y0220131D01*
X0027916Y0220796D02*
X0006600Y0220796D01*
X0006600Y0219198D02*
X0041628Y0219198D01*
X0043226Y0220796D02*
X0034739Y0220796D01*
X0035810Y0222395D02*
X0044825Y0222395D01*
X0047567Y0219198D02*
X0062652Y0219198D01*
X0062050Y0217599D02*
X0045969Y0217599D01*
X0044370Y0216001D02*
X0062050Y0216001D01*
X0062652Y0214402D02*
X0042772Y0214402D01*
X0041173Y0212803D02*
X0064079Y0212803D01*
X0066800Y0216800D02*
X0076800Y0206800D01*
X0076800Y0136800D01*
X0061800Y0121800D01*
X0056524Y0115294D02*
X0043500Y0115294D01*
X0043500Y0113696D02*
X0055228Y0113696D01*
X0054800Y0112097D02*
X0043500Y0112097D01*
X0043500Y0110499D02*
X0054996Y0110499D01*
X0055341Y0129681D02*
X0052551Y0129681D01*
X0054149Y0131279D02*
X0054828Y0131279D01*
X0056197Y0148863D02*
X0006600Y0148863D01*
X0006600Y0150462D02*
X0055208Y0150462D01*
X0055000Y0152060D02*
X0034900Y0152060D01*
X0035438Y0152597D02*
X0036176Y0154379D01*
X0036176Y0156308D01*
X0035438Y0158089D01*
X0034074Y0159453D01*
X0032292Y0160191D01*
X0030363Y0160191D01*
X0028581Y0159453D01*
X0027218Y0158089D01*
X0026480Y0156308D01*
X0026480Y0154379D01*
X0027218Y0152597D01*
X0028581Y0151233D01*
X0030363Y0150495D01*
X0032292Y0150495D01*
X0034074Y0151233D01*
X0035438Y0152597D01*
X0035877Y0153659D02*
X0055424Y0153659D01*
X0056717Y0155257D02*
X0036176Y0155257D01*
X0035949Y0156856D02*
X0074400Y0156856D01*
X0074400Y0158454D02*
X0035073Y0158454D01*
X0032627Y0160053D02*
X0074400Y0160053D01*
X0074400Y0161651D02*
X0006600Y0161651D01*
X0006600Y0160053D02*
X0030028Y0160053D01*
X0027582Y0158454D02*
X0006600Y0158454D01*
X0006600Y0156856D02*
X0026707Y0156856D01*
X0026480Y0155257D02*
X0006600Y0155257D01*
X0006600Y0153659D02*
X0026778Y0153659D01*
X0027755Y0152060D02*
X0006600Y0152060D01*
X0006600Y0172841D02*
X0074400Y0172841D01*
X0074400Y0174439D02*
X0006600Y0174439D01*
X0006600Y0176038D02*
X0074400Y0176038D01*
X0074400Y0177636D02*
X0006600Y0177636D01*
X0006600Y0179235D02*
X0074400Y0179235D01*
X0074400Y0180833D02*
X0006600Y0180833D01*
X0006600Y0182432D02*
X0009615Y0182432D01*
X0008371Y0190424D02*
X0006600Y0190424D01*
X0006600Y0188826D02*
X0007218Y0188826D01*
X0006794Y0187227D02*
X0006600Y0187227D01*
X0006600Y0185629D02*
X0006896Y0185629D01*
X0006600Y0184030D02*
X0007595Y0184030D01*
X0006600Y0192023D02*
X0014453Y0192023D01*
X0016052Y0193621D02*
X0006600Y0193621D01*
X0006600Y0195220D02*
X0017650Y0195220D01*
X0019249Y0196818D02*
X0006600Y0196818D01*
X0006600Y0198417D02*
X0020847Y0198417D01*
X0022446Y0200015D02*
X0006600Y0200015D01*
X0006600Y0201614D02*
X0024044Y0201614D01*
X0025643Y0203212D02*
X0006600Y0203212D01*
X0006600Y0217599D02*
X0040029Y0217599D01*
X0038431Y0216001D02*
X0034896Y0216001D01*
X0035988Y0214402D02*
X0036832Y0214402D01*
X0039575Y0211205D02*
X0069001Y0211205D01*
X0070599Y0209606D02*
X0037976Y0209606D01*
X0036378Y0208008D02*
X0072198Y0208008D01*
X0074400Y0200015D02*
X0055469Y0200015D01*
X0056630Y0198417D02*
X0074400Y0198417D01*
X0079200Y0193621D02*
X0079984Y0193621D01*
X0080700Y0192023D02*
X0079200Y0192023D01*
X0079200Y0190424D02*
X0080700Y0190424D01*
X0080700Y0188826D02*
X0079200Y0188826D01*
X0079200Y0187227D02*
X0080700Y0187227D01*
X0080700Y0185629D02*
X0079200Y0185629D01*
X0079200Y0184030D02*
X0081200Y0184030D01*
X0082798Y0182432D02*
X0079200Y0182432D01*
X0079200Y0180833D02*
X0084397Y0180833D01*
X0085995Y0179235D02*
X0079200Y0179235D01*
X0079200Y0177636D02*
X0087594Y0177636D01*
X0089192Y0176038D02*
X0079200Y0176038D01*
X0079200Y0174439D02*
X0090791Y0174439D01*
X0092389Y0172841D02*
X0079200Y0172841D01*
X0079200Y0171242D02*
X0093988Y0171242D01*
X0093623Y0171200D02*
X0089977Y0171200D01*
X0087400Y0168623D01*
X0087400Y0164977D01*
X0089977Y0162400D01*
X0093623Y0162400D01*
X0096200Y0164977D01*
X0096200Y0168623D01*
X0093623Y0171200D01*
X0095179Y0169644D02*
X0095586Y0169644D01*
X0096200Y0168045D02*
X0097185Y0168045D01*
X0096200Y0166447D02*
X0098783Y0166447D01*
X0100382Y0164848D02*
X0096071Y0164848D01*
X0094472Y0163250D02*
X0101980Y0163250D01*
X0103579Y0161651D02*
X0079200Y0161651D01*
X0079200Y0160053D02*
X0105178Y0160053D01*
X0106776Y0158454D02*
X0079200Y0158454D01*
X0079200Y0156856D02*
X0106764Y0156856D01*
X0105566Y0155257D02*
X0096883Y0155257D01*
X0098176Y0153659D02*
X0105300Y0153659D01*
X0105766Y0152060D02*
X0098600Y0152060D01*
X0098392Y0150462D02*
X0100352Y0150462D01*
X0099114Y0148863D02*
X0097403Y0148863D01*
X0099114Y0147265D02*
X0090834Y0147265D01*
X0088187Y0137673D02*
X0081300Y0137673D01*
X0081300Y0136075D02*
X0088118Y0136075D01*
X0088170Y0136092D02*
X0087511Y0135878D01*
X0086894Y0135563D01*
X0086334Y0135156D01*
X0085844Y0134666D01*
X0085437Y0134106D01*
X0085122Y0133489D01*
X0084908Y0132830D01*
X0084800Y0132146D01*
X0084800Y0131800D01*
X0091800Y0131800D01*
X0091800Y0131800D01*
X0091800Y0131800D01*
X0091800Y0136200D01*
X0088854Y0136200D01*
X0088170Y0136092D01*
X0085706Y0134476D02*
X0081300Y0134476D01*
X0081300Y0132878D02*
X0084924Y0132878D01*
X0084800Y0131800D02*
X0084800Y0131454D01*
X0084908Y0130770D01*
X0085122Y0130111D01*
X0085437Y0129494D01*
X0085844Y0128934D01*
X0086334Y0128444D01*
X0086894Y0128037D01*
X0087511Y0127722D01*
X0088170Y0127508D01*
X0088854Y0127400D01*
X0091800Y0127400D01*
X0091800Y0131800D01*
X0084800Y0131800D01*
X0084828Y0131279D02*
X0081300Y0131279D01*
X0081300Y0129681D02*
X0085341Y0129681D01*
X0086831Y0128082D02*
X0081300Y0128082D01*
X0081300Y0126484D02*
X0096900Y0126484D01*
X0096900Y0128082D02*
X0096769Y0128082D01*
X0097894Y0134476D02*
X0099314Y0134476D01*
X0099314Y0136075D02*
X0095482Y0136075D01*
X0095413Y0137673D02*
X0099321Y0137673D01*
X0097812Y0139272D02*
X0100920Y0139272D01*
X0099751Y0140870D02*
X0098561Y0140870D01*
X0098600Y0142469D02*
X0099114Y0142469D01*
X0099114Y0144068D02*
X0098007Y0144068D01*
X0096042Y0145666D02*
X0103879Y0145666D01*
X0103880Y0147265D02*
X0104445Y0147265D01*
X0104445Y0148863D02*
X0103880Y0148863D01*
X0103880Y0150462D02*
X0104445Y0150462D01*
X0111000Y0163250D02*
X0123987Y0163250D01*
X0123987Y0162326D02*
X0124925Y0161389D01*
X0138518Y0161389D01*
X0139455Y0162326D01*
X0139455Y0175919D01*
X0138518Y0176857D01*
X0124925Y0176857D01*
X0123987Y0175919D01*
X0123987Y0162326D01*
X0124662Y0161651D02*
X0112219Y0161651D01*
X0113817Y0160053D02*
X0123987Y0160053D01*
X0123987Y0158454D02*
X0115416Y0158454D01*
X0117014Y0156856D02*
X0123987Y0156856D01*
X0123987Y0155257D02*
X0118613Y0155257D01*
X0120211Y0153659D02*
X0123987Y0153659D01*
X0123987Y0152060D02*
X0121810Y0152060D01*
X0123408Y0150462D02*
X0123987Y0150462D01*
X0129802Y0144068D02*
X0151724Y0144068D01*
X0151724Y0145666D02*
X0138543Y0145666D01*
X0139455Y0147265D02*
X0151724Y0147265D01*
X0151724Y0148863D02*
X0139455Y0148863D01*
X0139455Y0150462D02*
X0151724Y0150462D01*
X0151724Y0152060D02*
X0139455Y0152060D01*
X0139455Y0153659D02*
X0151724Y0153659D01*
X0151724Y0155257D02*
X0139455Y0155257D01*
X0139455Y0156856D02*
X0151724Y0156856D01*
X0151724Y0158454D02*
X0139455Y0158454D01*
X0139455Y0160053D02*
X0151724Y0160053D01*
X0151724Y0161651D02*
X0138780Y0161651D01*
X0139455Y0163250D02*
X0151724Y0163250D01*
X0151724Y0164848D02*
X0139455Y0164848D01*
X0139455Y0166447D02*
X0151724Y0166447D01*
X0151724Y0168045D02*
X0139455Y0168045D01*
X0139455Y0169644D02*
X0151724Y0169644D01*
X0151724Y0171242D02*
X0139455Y0171242D01*
X0139455Y0172841D02*
X0151724Y0172841D01*
X0151724Y0174439D02*
X0139455Y0174439D01*
X0139337Y0176038D02*
X0151724Y0176038D01*
X0151724Y0177636D02*
X0111000Y0177636D01*
X0111000Y0176038D02*
X0124106Y0176038D01*
X0123987Y0174439D02*
X0111000Y0174439D01*
X0111000Y0172841D02*
X0123987Y0172841D01*
X0123987Y0171242D02*
X0111000Y0171242D01*
X0111000Y0169644D02*
X0123987Y0169644D01*
X0123987Y0168045D02*
X0111000Y0168045D01*
X0111000Y0166447D02*
X0123987Y0166447D01*
X0123987Y0164848D02*
X0111000Y0164848D01*
X0111000Y0179235D02*
X0151724Y0179235D01*
X0151724Y0180833D02*
X0111000Y0180833D01*
X0111000Y0182432D02*
X0151724Y0182432D01*
X0151724Y0184030D02*
X0109640Y0184030D01*
X0109010Y0185629D02*
X0151724Y0185629D01*
X0151724Y0187227D02*
X0109010Y0187227D01*
X0109010Y0188826D02*
X0151724Y0188826D01*
X0151724Y0190424D02*
X0107433Y0190424D01*
X0108545Y0192023D02*
X0151724Y0192023D01*
X0151724Y0193621D02*
X0109210Y0193621D01*
X0109210Y0195220D02*
X0151724Y0195220D01*
X0151724Y0196818D02*
X0104445Y0196818D01*
X0104445Y0196965D02*
X0109210Y0196965D01*
X0109210Y0200167D01*
X0109088Y0200625D01*
X0108851Y0201035D01*
X0108515Y0201370D01*
X0108105Y0201607D01*
X0107647Y0201730D01*
X0104445Y0201730D01*
X0104445Y0196965D01*
X0103879Y0196818D02*
X0090551Y0196818D01*
X0088953Y0198417D02*
X0099114Y0198417D01*
X0099114Y0200015D02*
X0088500Y0200015D01*
X0088456Y0201614D02*
X0100244Y0201614D01*
X0099114Y0195220D02*
X0092150Y0195220D01*
X0093748Y0193621D02*
X0099114Y0193621D01*
X0099780Y0192023D02*
X0095347Y0192023D01*
X0096945Y0190424D02*
X0100891Y0190424D01*
X0099314Y0188826D02*
X0098544Y0188826D01*
X0103880Y0198417D02*
X0104445Y0198417D01*
X0104445Y0200015D02*
X0103880Y0200015D01*
X0103880Y0201614D02*
X0104445Y0201614D01*
X0108080Y0201614D02*
X0123987Y0201614D01*
X0123987Y0203212D02*
X0086857Y0203212D01*
X0085259Y0204811D02*
X0123987Y0204811D01*
X0123987Y0206409D02*
X0083660Y0206409D01*
X0082062Y0208008D02*
X0123987Y0208008D01*
X0123987Y0209606D02*
X0080463Y0209606D01*
X0078865Y0211205D02*
X0123987Y0211205D01*
X0123987Y0211352D02*
X0124925Y0212290D01*
X0138518Y0212290D01*
X0139455Y0211352D01*
X0139455Y0197759D01*
X0138518Y0196822D01*
X0124925Y0196822D01*
X0123987Y0197759D01*
X0123987Y0211352D01*
X0124925Y0212570D02*
X0138518Y0212570D01*
X0139455Y0213507D01*
X0139455Y0227101D01*
X0138518Y0228038D01*
X0124925Y0228038D01*
X0123987Y0227101D01*
X0123987Y0213507D01*
X0124925Y0212570D01*
X0124691Y0212803D02*
X0079804Y0212803D01*
X0081402Y0214402D02*
X0123987Y0214402D01*
X0123987Y0216001D02*
X0081750Y0216001D01*
X0081750Y0217599D02*
X0123987Y0217599D01*
X0123987Y0219198D02*
X0081403Y0219198D01*
X0079804Y0220796D02*
X0123987Y0220796D01*
X0123987Y0222395D02*
X0071275Y0222395D01*
X0072874Y0220796D02*
X0073796Y0220796D01*
X0076800Y0220796D02*
X0076800Y0220796D01*
X0076800Y0219198D02*
X0076800Y0219198D01*
X0076800Y0217599D02*
X0076800Y0217599D01*
X0079832Y0242050D02*
X0077050Y0244832D01*
X0077050Y0248768D01*
X0079400Y0251117D01*
X0079400Y0275806D01*
X0062746Y0292460D01*
X0062670Y0292428D01*
X0060930Y0292428D01*
X0060760Y0292499D01*
X0060769Y0292490D01*
X0061236Y0291847D01*
X0061596Y0291139D01*
X0061842Y0290384D01*
X0061966Y0289599D01*
X0061966Y0289484D01*
X0057201Y0289484D01*
X0057201Y0288919D01*
X0061966Y0288919D01*
X0061966Y0288804D01*
X0061842Y0288019D01*
X0061596Y0287264D01*
X0061236Y0286556D01*
X0060769Y0285913D01*
X0060207Y0285351D01*
X0059564Y0284884D01*
X0058856Y0284523D01*
X0058100Y0284278D01*
X0057315Y0284154D01*
X0057201Y0284154D01*
X0057201Y0288919D01*
X0056635Y0288919D01*
X0051870Y0288919D01*
X0051870Y0288804D01*
X0051994Y0288019D01*
X0052240Y0287264D01*
X0052601Y0286556D01*
X0053068Y0285913D01*
X0053630Y0285351D01*
X0054272Y0284884D01*
X0054980Y0284523D01*
X0055736Y0284278D01*
X0056521Y0284154D01*
X0056635Y0284154D01*
X0056635Y0288919D01*
X0056635Y0289484D01*
X0051870Y0289484D01*
X0051870Y0289599D01*
X0051994Y0290384D01*
X0052240Y0291139D01*
X0052601Y0291847D01*
X0053068Y0292490D01*
X0053630Y0293052D01*
X0054272Y0293519D01*
X0054980Y0293880D01*
X0055736Y0294125D01*
X0056521Y0294250D01*
X0056635Y0294250D01*
X0056635Y0289484D01*
X0057201Y0289484D01*
X0057201Y0294250D01*
X0057315Y0294250D01*
X0058100Y0294125D01*
X0058385Y0294033D01*
X0058094Y0294324D01*
X0057428Y0295930D01*
X0057428Y0297670D01*
X0058094Y0299276D01*
X0059324Y0300506D01*
X0059400Y0300538D01*
X0059400Y0302962D01*
X0059324Y0302994D01*
X0058094Y0304224D01*
X0057428Y0305830D01*
X0057428Y0307570D01*
X0058094Y0309176D01*
X0058218Y0309300D01*
X0035970Y0309300D01*
X0016491Y0289821D01*
X0016491Y0288237D01*
X0015752Y0286455D01*
X0014389Y0285092D01*
X0012607Y0284354D01*
X0010678Y0284354D01*
X0008896Y0285092D01*
X0007533Y0286455D01*
X0006794Y0288237D01*
X0006794Y0290166D01*
X0007533Y0291948D01*
X0008896Y0293312D01*
X0010678Y0294050D01*
X0012607Y0294050D01*
X0014143Y0293413D01*
X0030537Y0309806D01*
X0030145Y0309868D01*
X0029390Y0310114D01*
X0028682Y0310475D01*
X0028039Y0310942D01*
X0027477Y0311504D01*
X0027010Y0312146D01*
X0026649Y0312854D01*
X0026404Y0313610D01*
X0026280Y0314395D01*
X0026280Y0314509D01*
X0031045Y0314509D01*
X0031045Y0315075D01*
X0031045Y0319840D01*
X0030930Y0319840D01*
X0030145Y0319716D01*
X0029390Y0319470D01*
X0028682Y0319110D01*
X0028039Y0318643D01*
X0027477Y0318081D01*
X0027010Y0317438D01*
X0026649Y0316730D01*
X0026404Y0315974D01*
X0026280Y0315189D01*
X0026280Y0315075D01*
X0031045Y0315075D01*
X0031610Y0315075D01*
X0031610Y0319840D01*
X0031725Y0319840D01*
X0032510Y0319716D01*
X0033265Y0319470D01*
X0033973Y0319110D01*
X0034616Y0318643D01*
X0035178Y0318081D01*
X0035645Y0317438D01*
X0036006Y0316730D01*
X0036251Y0315974D01*
X0036376Y0315189D01*
X0036376Y0315075D01*
X0031610Y0315075D01*
X0031610Y0314509D01*
X0036376Y0314509D01*
X0036376Y0314395D01*
X0036251Y0313610D01*
X0036216Y0313500D01*
X0063870Y0313500D01*
X0065100Y0312270D01*
X0095370Y0282000D01*
X0099947Y0282000D01*
X0102154Y0284207D01*
X0106170Y0284207D01*
X0109010Y0281367D01*
X0109010Y0277351D01*
X0106170Y0274511D01*
X0102154Y0274511D01*
X0099314Y0277351D01*
X0099314Y0277800D01*
X0096270Y0277800D01*
X0096372Y0277160D01*
X0096372Y0276886D01*
X0091886Y0276886D01*
X0091886Y0276714D01*
X0096372Y0276714D01*
X0096372Y0276440D01*
X0096259Y0275729D01*
X0096037Y0275045D01*
X0095710Y0274404D01*
X0095287Y0273822D01*
X0094778Y0273313D01*
X0094196Y0272890D01*
X0093555Y0272563D01*
X0092871Y0272341D01*
X0092160Y0272228D01*
X0091886Y0272228D01*
X0091886Y0276714D01*
X0091714Y0276714D01*
X0091714Y0272228D01*
X0091440Y0272228D01*
X0090729Y0272341D01*
X0090045Y0272563D01*
X0089404Y0272890D01*
X0088822Y0273313D01*
X0088313Y0273822D01*
X0087890Y0274404D01*
X0087563Y0275045D01*
X0087341Y0275729D01*
X0087228Y0276440D01*
X0087228Y0276714D01*
X0091714Y0276714D01*
X0091714Y0276886D01*
X0087228Y0276886D01*
X0087228Y0277160D01*
X0087341Y0277871D01*
X0087563Y0278555D01*
X0087890Y0279196D01*
X0088313Y0279778D01*
X0088822Y0280287D01*
X0089404Y0280710D01*
X0090045Y0281037D01*
X0090308Y0281122D01*
X0066004Y0305426D01*
X0065506Y0304224D01*
X0064276Y0302994D01*
X0064200Y0302962D01*
X0064200Y0300538D01*
X0064276Y0300506D01*
X0065506Y0299276D01*
X0066172Y0297670D01*
X0066172Y0295930D01*
X0066140Y0295854D01*
X0083159Y0278835D01*
X0083835Y0278159D01*
X0084200Y0277277D01*
X0084200Y0251117D01*
X0086550Y0248768D01*
X0086550Y0244832D01*
X0083768Y0242050D01*
X0079832Y0242050D01*
X0078707Y0243175D02*
X0075176Y0243175D01*
X0075025Y0243024D02*
X0075576Y0243575D01*
X0076034Y0244206D01*
X0076387Y0244900D01*
X0076628Y0245641D01*
X0076750Y0246410D01*
X0076750Y0246800D01*
X0076750Y0247190D01*
X0076628Y0247959D01*
X0076387Y0248700D01*
X0076034Y0249394D01*
X0075576Y0250025D01*
X0075025Y0250576D01*
X0074394Y0251034D01*
X0073700Y0251387D01*
X0072959Y0251628D01*
X0072190Y0251750D01*
X0071800Y0251750D01*
X0071800Y0246800D01*
X0076750Y0246800D01*
X0071800Y0246800D01*
X0071800Y0246800D01*
X0071800Y0246800D01*
X0071800Y0241850D01*
X0072190Y0241850D01*
X0072959Y0241972D01*
X0073700Y0242213D01*
X0074394Y0242566D01*
X0075025Y0243024D01*
X0076323Y0244774D02*
X0077109Y0244774D01*
X0077050Y0246372D02*
X0076744Y0246372D01*
X0076624Y0247971D02*
X0077050Y0247971D01*
X0077852Y0249569D02*
X0075907Y0249569D01*
X0074131Y0251168D02*
X0079400Y0251168D01*
X0079400Y0252766D02*
X0039104Y0252766D01*
X0040702Y0251168D02*
X0069469Y0251168D01*
X0069206Y0251034D02*
X0068575Y0250576D01*
X0068024Y0250025D01*
X0067566Y0249394D01*
X0067213Y0248700D01*
X0066972Y0247959D01*
X0066850Y0247190D01*
X0066850Y0246800D01*
X0071800Y0246800D01*
X0071800Y0246800D01*
X0071800Y0246800D01*
X0071800Y0251750D01*
X0071410Y0251750D01*
X0070641Y0251628D01*
X0069900Y0251387D01*
X0069206Y0251034D01*
X0067693Y0249569D02*
X0042301Y0249569D01*
X0043899Y0247971D02*
X0066976Y0247971D01*
X0066850Y0246800D02*
X0066850Y0246410D01*
X0066972Y0245641D01*
X0067213Y0244900D01*
X0067566Y0244206D01*
X0068024Y0243575D01*
X0068575Y0243024D01*
X0069206Y0242566D01*
X0069900Y0242213D01*
X0070641Y0241972D01*
X0071410Y0241850D01*
X0071800Y0241850D01*
X0071800Y0246800D01*
X0066850Y0246800D01*
X0066856Y0246372D02*
X0045498Y0246372D01*
X0047096Y0244774D02*
X0067277Y0244774D01*
X0068424Y0243175D02*
X0048695Y0243175D01*
X0050293Y0241577D02*
X0100862Y0241577D01*
X0100677Y0242815D02*
X0102101Y0242815D01*
X0099314Y0240029D01*
X0099314Y0236012D01*
X0102154Y0233172D01*
X0106170Y0233172D01*
X0109010Y0236012D01*
X0109010Y0240029D01*
X0106224Y0242815D01*
X0107647Y0242815D01*
X0108105Y0242938D01*
X0108515Y0243175D01*
X0108851Y0243510D01*
X0109088Y0243920D01*
X0109210Y0244378D01*
X0109210Y0247580D01*
X0104445Y0247580D01*
X0104445Y0248146D01*
X0103880Y0248146D01*
X0103880Y0252911D01*
X0100677Y0252911D01*
X0100219Y0252788D01*
X0099809Y0252551D01*
X0099474Y0252216D01*
X0099237Y0251806D01*
X0099114Y0251348D01*
X0099114Y0248146D01*
X0103879Y0248146D01*
X0103879Y0247580D01*
X0099114Y0247580D01*
X0099114Y0244378D01*
X0099237Y0243920D01*
X0099474Y0243510D01*
X0099809Y0243175D01*
X0100219Y0242938D01*
X0100677Y0242815D01*
X0099808Y0243175D02*
X0084893Y0243175D01*
X0086491Y0244774D02*
X0099114Y0244774D01*
X0099114Y0246372D02*
X0086550Y0246372D01*
X0086550Y0247971D02*
X0103879Y0247971D01*
X0104445Y0247971D02*
X0151724Y0247971D01*
X0151724Y0249569D02*
X0139455Y0249569D01*
X0139455Y0248940D02*
X0139455Y0262534D01*
X0138518Y0263471D01*
X0124925Y0263471D01*
X0123987Y0262534D01*
X0123987Y0248940D01*
X0124925Y0248003D01*
X0138518Y0248003D01*
X0139455Y0248940D01*
X0139455Y0251168D02*
X0151724Y0251168D01*
X0151724Y0252766D02*
X0139455Y0252766D01*
X0139455Y0254365D02*
X0151724Y0254365D01*
X0151724Y0255963D02*
X0139455Y0255963D01*
X0139455Y0257562D02*
X0151724Y0257562D01*
X0151724Y0259160D02*
X0139455Y0259160D01*
X0139455Y0260759D02*
X0151724Y0260759D01*
X0151724Y0262357D02*
X0139455Y0262357D01*
X0138518Y0263751D02*
X0139455Y0264688D01*
X0139455Y0278282D01*
X0138518Y0279219D01*
X0124925Y0279219D01*
X0123987Y0278282D01*
X0123987Y0264688D01*
X0124925Y0263751D01*
X0138518Y0263751D01*
X0138723Y0263956D02*
X0151724Y0263956D01*
X0151724Y0265554D02*
X0139455Y0265554D01*
X0139455Y0267153D02*
X0151724Y0267153D01*
X0151724Y0268751D02*
X0139455Y0268751D01*
X0139455Y0270350D02*
X0151724Y0270350D01*
X0151724Y0271948D02*
X0139455Y0271948D01*
X0139455Y0273547D02*
X0151724Y0273547D01*
X0151724Y0275145D02*
X0139455Y0275145D01*
X0139455Y0276744D02*
X0151724Y0276744D01*
X0151724Y0278342D02*
X0139394Y0278342D01*
X0138518Y0299184D02*
X0139455Y0300122D01*
X0139455Y0313715D01*
X0138518Y0314652D01*
X0124925Y0314652D01*
X0123987Y0313715D01*
X0123987Y0300122D01*
X0124925Y0299184D01*
X0138518Y0299184D01*
X0139455Y0300722D02*
X0151724Y0300722D01*
X0151724Y0302320D02*
X0139455Y0302320D01*
X0139455Y0303919D02*
X0151724Y0303919D01*
X0151724Y0305517D02*
X0139455Y0305517D01*
X0139455Y0307116D02*
X0151724Y0307116D01*
X0151724Y0308714D02*
X0139455Y0308714D01*
X0139455Y0310313D02*
X0151724Y0310313D01*
X0151724Y0311911D02*
X0139455Y0311911D01*
X0139455Y0313510D02*
X0151724Y0313510D01*
X0151724Y0315108D02*
X0138694Y0315108D01*
X0138518Y0314932D02*
X0139455Y0315870D01*
X0139455Y0329463D01*
X0138518Y0330400D01*
X0124925Y0330400D01*
X0123987Y0329463D01*
X0123987Y0315870D01*
X0124925Y0314932D01*
X0138518Y0314932D01*
X0139455Y0316707D02*
X0151724Y0316707D01*
X0151724Y0318305D02*
X0139455Y0318305D01*
X0139455Y0319904D02*
X0151724Y0319904D01*
X0151724Y0321502D02*
X0139455Y0321502D01*
X0139455Y0323101D02*
X0151724Y0323101D01*
X0151724Y0324699D02*
X0139455Y0324699D01*
X0139455Y0326298D02*
X0151724Y0326298D01*
X0151724Y0327896D02*
X0139455Y0327896D01*
X0139423Y0329495D02*
X0151724Y0329495D01*
X0151724Y0331093D02*
X0109010Y0331093D01*
X0109010Y0332548D02*
X0106170Y0335388D01*
X0102154Y0335388D01*
X0100066Y0333300D01*
X0061170Y0333300D01*
X0035939Y0358531D01*
X0036176Y0359103D01*
X0036176Y0361032D01*
X0035438Y0362814D01*
X0034074Y0364178D01*
X0032292Y0364916D01*
X0030363Y0364916D01*
X0028581Y0364178D01*
X0027218Y0362814D01*
X0026480Y0361032D01*
X0026480Y0359103D01*
X0027218Y0357322D01*
X0028581Y0355958D01*
X0030363Y0355220D01*
X0032292Y0355220D01*
X0033012Y0355518D01*
X0059430Y0329100D01*
X0099314Y0329100D01*
X0099314Y0328532D01*
X0102154Y0325692D01*
X0106170Y0325692D01*
X0109010Y0328532D01*
X0109010Y0332548D01*
X0108867Y0332692D02*
X0151724Y0332692D01*
X0151724Y0334290D02*
X0107268Y0334290D01*
X0106170Y0335535D02*
X0109010Y0338375D01*
X0109010Y0342391D01*
X0106224Y0345177D01*
X0107647Y0345177D01*
X0108105Y0345300D01*
X0108515Y0345537D01*
X0108851Y0345872D01*
X0109088Y0346282D01*
X0109210Y0346740D01*
X0109210Y0349942D01*
X0104445Y0349942D01*
X0104445Y0350508D01*
X0103880Y0350508D01*
X0103880Y0355273D01*
X0100677Y0355273D01*
X0100219Y0355151D01*
X0099809Y0354914D01*
X0099474Y0354578D01*
X0099237Y0354168D01*
X0099114Y0353710D01*
X0099114Y0350508D01*
X0103879Y0350508D01*
X0103879Y0349942D01*
X0099114Y0349942D01*
X0099114Y0346740D01*
X0099237Y0346282D01*
X0099474Y0345872D01*
X0099809Y0345537D01*
X0100219Y0345300D01*
X0100677Y0345177D01*
X0102101Y0345177D01*
X0099314Y0342391D01*
X0099314Y0338375D01*
X0102154Y0335535D01*
X0106170Y0335535D01*
X0106525Y0335889D02*
X0151724Y0335889D01*
X0151724Y0337487D02*
X0108123Y0337487D01*
X0109010Y0339086D02*
X0151724Y0339086D01*
X0151724Y0340684D02*
X0109010Y0340684D01*
X0109010Y0342283D02*
X0151724Y0342283D01*
X0151724Y0343881D02*
X0107520Y0343881D01*
X0108417Y0345480D02*
X0151724Y0345480D01*
X0151724Y0347078D02*
X0109210Y0347078D01*
X0109210Y0348677D02*
X0151724Y0348677D01*
X0151724Y0350275D02*
X0104445Y0350275D01*
X0104445Y0350508D02*
X0109210Y0350508D01*
X0109210Y0353710D01*
X0109088Y0354168D01*
X0108851Y0354578D01*
X0108515Y0354914D01*
X0108105Y0355151D01*
X0107647Y0355273D01*
X0104445Y0355273D01*
X0104445Y0350508D01*
X0103879Y0350275D02*
X0094607Y0350275D01*
X0094276Y0350606D02*
X0094200Y0350638D01*
X0094200Y0391530D01*
X0100657Y0385073D01*
X0099314Y0383729D01*
X0099314Y0379713D01*
X0102154Y0376873D01*
X0106170Y0376873D01*
X0109010Y0379713D01*
X0109010Y0383729D01*
X0106170Y0386569D01*
X0105101Y0386569D01*
X0104954Y0386716D01*
X0106170Y0386716D01*
X0109010Y0389556D01*
X0109010Y0393572D01*
X0106224Y0396358D01*
X0107647Y0396358D01*
X0108105Y0396481D01*
X0108515Y0396718D01*
X0108851Y0397053D01*
X0109088Y0397463D01*
X0109210Y0397921D01*
X0109210Y0401124D01*
X0104445Y0401124D01*
X0104445Y0401689D01*
X0109210Y0401689D01*
X0109210Y0404891D01*
X0109088Y0405349D01*
X0108851Y0405760D01*
X0108515Y0406095D01*
X0108105Y0406332D01*
X0107647Y0406454D01*
X0104445Y0406454D01*
X0104445Y0401689D01*
X0103880Y0401689D01*
X0103880Y0406454D01*
X0100677Y0406454D01*
X0100219Y0406332D01*
X0099809Y0406095D01*
X0099474Y0405760D01*
X0099237Y0405349D01*
X0099114Y0404891D01*
X0099114Y0401689D01*
X0103879Y0401689D01*
X0103879Y0401124D01*
X0099114Y0401124D01*
X0099114Y0397921D01*
X0099237Y0397463D01*
X0099474Y0397053D01*
X0099809Y0396718D01*
X0100219Y0396481D01*
X0100677Y0396358D01*
X0102101Y0396358D01*
X0099314Y0393572D01*
X0099314Y0392356D01*
X0096600Y0395070D01*
X0096600Y0398670D01*
X0087600Y0407670D01*
X0086370Y0408900D01*
X0025230Y0408900D01*
X0012702Y0396372D01*
X0012607Y0396412D01*
X0010678Y0396412D01*
X0008896Y0395674D01*
X0007533Y0394310D01*
X0006794Y0392528D01*
X0006794Y0390599D01*
X0007533Y0388818D01*
X0008896Y0387454D01*
X0010678Y0386716D01*
X0012607Y0386716D01*
X0014389Y0387454D01*
X0015752Y0388818D01*
X0016491Y0390599D01*
X0016491Y0392528D01*
X0015995Y0393725D01*
X0026970Y0404700D01*
X0067705Y0404700D01*
X0067000Y0403995D01*
X0067000Y0399605D01*
X0069305Y0397300D01*
X0069022Y0397300D01*
X0065800Y0394078D01*
X0065800Y0392000D01*
X0071100Y0392000D01*
X0071100Y0391600D01*
X0065800Y0391600D01*
X0065800Y0389522D01*
X0069022Y0386300D01*
X0066800Y0384078D01*
X0066800Y0382000D01*
X0072100Y0382000D01*
X0072100Y0381600D01*
X0066800Y0381600D01*
X0066800Y0379522D01*
X0069022Y0377300D01*
X0069022Y0377300D01*
X0065800Y0374078D01*
X0065800Y0372000D01*
X0071100Y0372000D01*
X0071100Y0371600D01*
X0065800Y0371600D01*
X0065800Y0369522D01*
X0069022Y0366300D01*
X0069305Y0366300D01*
X0067205Y0364200D01*
X0066323Y0364200D01*
X0065441Y0363835D01*
X0060441Y0358835D01*
X0059765Y0358159D01*
X0059400Y0357277D01*
X0059400Y0350638D01*
X0059324Y0350606D01*
X0058094Y0349376D01*
X0057428Y0347770D01*
X0057428Y0346030D01*
X0058094Y0344424D01*
X0059324Y0343194D01*
X0060930Y0342528D01*
X0062670Y0342528D01*
X0064276Y0343194D01*
X0065506Y0344424D01*
X0066172Y0346030D01*
X0066172Y0347770D01*
X0065506Y0349376D01*
X0064276Y0350606D01*
X0064200Y0350638D01*
X0064200Y0355806D01*
X0067499Y0359105D01*
X0070105Y0356500D01*
X0074495Y0356500D01*
X0077300Y0359305D01*
X0080105Y0356500D01*
X0084495Y0356500D01*
X0087600Y0359605D01*
X0087600Y0363995D01*
X0084495Y0367100D01*
X0084378Y0367100D01*
X0086800Y0369522D01*
X0086800Y0371600D01*
X0081500Y0371600D01*
X0081500Y0372000D01*
X0086800Y0372000D01*
X0086800Y0374078D01*
X0084578Y0376300D01*
X0084578Y0376300D01*
X0087800Y0379522D01*
X0087800Y0381600D01*
X0082500Y0381600D01*
X0082500Y0382000D01*
X0087800Y0382000D01*
X0087800Y0384078D01*
X0084578Y0387300D01*
X0086800Y0389522D01*
X0086800Y0391600D01*
X0081500Y0391600D01*
X0081500Y0392000D01*
X0086800Y0392000D01*
X0086800Y0394078D01*
X0084378Y0396500D01*
X0084495Y0396500D01*
X0086601Y0398605D01*
X0089400Y0395806D01*
X0089400Y0350638D01*
X0089324Y0350606D01*
X0088094Y0349376D01*
X0087428Y0347770D01*
X0087428Y0346030D01*
X0088094Y0344424D01*
X0089324Y0343194D01*
X0090930Y0342528D01*
X0092670Y0342528D01*
X0094276Y0343194D01*
X0095506Y0344424D01*
X0096172Y0346030D01*
X0096172Y0347770D01*
X0095506Y0349376D01*
X0094276Y0350606D01*
X0094200Y0351874D02*
X0099114Y0351874D01*
X0099114Y0353472D02*
X0094200Y0353472D01*
X0094200Y0355071D02*
X0100082Y0355071D01*
X0099114Y0348677D02*
X0095796Y0348677D01*
X0096172Y0347078D02*
X0099114Y0347078D01*
X0099907Y0345480D02*
X0095944Y0345480D01*
X0094964Y0343881D02*
X0100805Y0343881D01*
X0099314Y0342283D02*
X0052187Y0342283D01*
X0050588Y0343881D02*
X0058636Y0343881D01*
X0057656Y0345480D02*
X0048990Y0345480D01*
X0047391Y0347078D02*
X0057428Y0347078D01*
X0057804Y0348677D02*
X0045793Y0348677D01*
X0044194Y0350275D02*
X0058993Y0350275D01*
X0059400Y0351874D02*
X0042596Y0351874D01*
X0040997Y0353472D02*
X0059400Y0353472D01*
X0059400Y0355071D02*
X0039399Y0355071D01*
X0037800Y0356670D02*
X0059400Y0356670D01*
X0059874Y0358268D02*
X0036202Y0358268D01*
X0036176Y0359867D02*
X0061472Y0359867D01*
X0063071Y0361465D02*
X0035996Y0361465D01*
X0035188Y0363064D02*
X0064669Y0363064D01*
X0065064Y0356670D02*
X0069935Y0356670D01*
X0068337Y0358268D02*
X0066662Y0358268D01*
X0066800Y0361800D02*
X0061800Y0356800D01*
X0061800Y0346900D01*
X0064964Y0343881D02*
X0088636Y0343881D01*
X0087656Y0345480D02*
X0065944Y0345480D01*
X0066172Y0347078D02*
X0087428Y0347078D01*
X0087804Y0348677D02*
X0065796Y0348677D01*
X0064607Y0350275D02*
X0088993Y0350275D01*
X0089400Y0351874D02*
X0064200Y0351874D01*
X0064200Y0353472D02*
X0089400Y0353472D01*
X0089400Y0355071D02*
X0064200Y0355071D01*
X0066800Y0361800D02*
X0072300Y0361800D01*
X0082300Y0361800D01*
X0079935Y0356670D02*
X0074665Y0356670D01*
X0076263Y0358268D02*
X0078337Y0358268D01*
X0076800Y0371600D02*
X0081100Y0371600D01*
X0081100Y0372000D01*
X0071500Y0372000D01*
X0071500Y0371600D01*
X0076800Y0371600D01*
X0077800Y0381600D02*
X0072500Y0381600D01*
X0072500Y0382000D01*
X0082100Y0382000D01*
X0082100Y0381600D01*
X0077800Y0381600D01*
X0076800Y0391600D02*
X0081100Y0391600D01*
X0081100Y0392000D01*
X0071500Y0392000D01*
X0071500Y0391600D01*
X0076800Y0391600D01*
X0081100Y0391837D02*
X0071500Y0391837D01*
X0071100Y0391837D02*
X0057201Y0391837D01*
X0057201Y0391846D02*
X0061966Y0391846D01*
X0061966Y0391961D01*
X0061842Y0392746D01*
X0061596Y0393502D01*
X0061236Y0394210D01*
X0060769Y0394852D01*
X0060207Y0395414D01*
X0059564Y0395881D01*
X0058856Y0396242D01*
X0058100Y0396487D01*
X0057315Y0396612D01*
X0057201Y0396612D01*
X0057201Y0391847D01*
X0056635Y0391847D01*
X0056635Y0396612D01*
X0056521Y0396612D01*
X0055736Y0396487D01*
X0054980Y0396242D01*
X0054272Y0395881D01*
X0053630Y0395414D01*
X0053068Y0394852D01*
X0052601Y0394210D01*
X0052240Y0393502D01*
X0051994Y0392746D01*
X0051870Y0391961D01*
X0051870Y0391846D01*
X0056635Y0391846D01*
X0056635Y0391281D01*
X0051870Y0391281D01*
X0051870Y0391166D01*
X0051994Y0390382D01*
X0052240Y0389626D01*
X0052601Y0388918D01*
X0053068Y0388275D01*
X0053630Y0387713D01*
X0054272Y0387246D01*
X0054980Y0386886D01*
X0055736Y0386640D01*
X0056521Y0386516D01*
X0056635Y0386516D01*
X0056635Y0391281D01*
X0057201Y0391281D01*
X0057201Y0391846D01*
X0057201Y0391281D02*
X0061966Y0391281D01*
X0061966Y0391166D01*
X0061842Y0390382D01*
X0061596Y0389626D01*
X0061236Y0388918D01*
X0060769Y0388275D01*
X0060207Y0387713D01*
X0059564Y0387246D01*
X0058856Y0386886D01*
X0058100Y0386640D01*
X0057315Y0386516D01*
X0057201Y0386516D01*
X0057201Y0391281D01*
X0056635Y0391837D02*
X0049955Y0391837D01*
X0049955Y0392528D02*
X0049217Y0394310D01*
X0047853Y0395674D01*
X0046071Y0396412D01*
X0044143Y0396412D01*
X0042361Y0395674D01*
X0040997Y0394310D01*
X0040259Y0392528D01*
X0040259Y0390599D01*
X0040997Y0388818D01*
X0042361Y0387454D01*
X0044143Y0386716D01*
X0046071Y0386716D01*
X0047853Y0387454D01*
X0049217Y0388818D01*
X0049955Y0390599D01*
X0049955Y0392528D01*
X0049579Y0393435D02*
X0052218Y0393435D01*
X0053249Y0395034D02*
X0048493Y0395034D01*
X0049805Y0390238D02*
X0052041Y0390238D01*
X0052803Y0388640D02*
X0049039Y0388640D01*
X0046857Y0387041D02*
X0054675Y0387041D01*
X0056635Y0387041D02*
X0057201Y0387041D01*
X0057201Y0388640D02*
X0056635Y0388640D01*
X0056635Y0390238D02*
X0057201Y0390238D01*
X0057201Y0393435D02*
X0056635Y0393435D01*
X0056635Y0395034D02*
X0057201Y0395034D01*
X0060587Y0395034D02*
X0066756Y0395034D01*
X0065800Y0393435D02*
X0061618Y0393435D01*
X0061795Y0390238D02*
X0065800Y0390238D01*
X0066682Y0388640D02*
X0061033Y0388640D01*
X0059161Y0387041D02*
X0068281Y0387041D01*
X0069022Y0386300D02*
X0069022Y0386300D01*
X0068165Y0385443D02*
X0006600Y0385443D01*
X0006600Y0387041D02*
X0009892Y0387041D01*
X0007710Y0388640D02*
X0006600Y0388640D01*
X0006600Y0390238D02*
X0006944Y0390238D01*
X0006794Y0391837D02*
X0006600Y0391837D01*
X0006600Y0393435D02*
X0007170Y0393435D01*
X0006600Y0395034D02*
X0008256Y0395034D01*
X0006600Y0396632D02*
X0012962Y0396632D01*
X0014561Y0398231D02*
X0006600Y0398231D01*
X0006600Y0399829D02*
X0016159Y0399829D01*
X0017758Y0401428D02*
X0006600Y0401428D01*
X0006600Y0403026D02*
X0019357Y0403026D01*
X0020955Y0404625D02*
X0006600Y0404625D01*
X0006600Y0406223D02*
X0022554Y0406223D01*
X0024152Y0407822D02*
X0006600Y0407822D01*
X0006600Y0409420D02*
X0123987Y0409420D01*
X0123987Y0407822D02*
X0087448Y0407822D01*
X0089046Y0406223D02*
X0100032Y0406223D01*
X0099114Y0404625D02*
X0090645Y0404625D01*
X0092243Y0403026D02*
X0099114Y0403026D01*
X0099114Y0399829D02*
X0095441Y0399829D01*
X0096600Y0398231D02*
X0099114Y0398231D01*
X0099957Y0396632D02*
X0096600Y0396632D01*
X0096636Y0395034D02*
X0100776Y0395034D01*
X0099314Y0393435D02*
X0098235Y0393435D01*
X0095492Y0390238D02*
X0094200Y0390238D01*
X0094200Y0388640D02*
X0097090Y0388640D01*
X0098689Y0387041D02*
X0094200Y0387041D01*
X0094200Y0385443D02*
X0100287Y0385443D01*
X0099429Y0383844D02*
X0094200Y0383844D01*
X0094200Y0382246D02*
X0099314Y0382246D01*
X0099314Y0380647D02*
X0094200Y0380647D01*
X0094200Y0379049D02*
X0099979Y0379049D01*
X0101577Y0377450D02*
X0094200Y0377450D01*
X0094200Y0375852D02*
X0123987Y0375852D01*
X0123987Y0377450D02*
X0106747Y0377450D01*
X0108346Y0379049D02*
X0123987Y0379049D01*
X0123987Y0380644D02*
X0124925Y0381581D01*
X0138518Y0381581D01*
X0139455Y0380644D01*
X0139455Y0367051D01*
X0138518Y0366113D01*
X0124925Y0366113D01*
X0123987Y0367051D01*
X0123987Y0380644D01*
X0123991Y0380647D02*
X0109010Y0380647D01*
X0109010Y0382246D02*
X0151724Y0382246D01*
X0151724Y0383844D02*
X0108895Y0383844D01*
X0107297Y0385443D02*
X0151724Y0385443D01*
X0151724Y0387041D02*
X0106496Y0387041D01*
X0108094Y0388640D02*
X0151724Y0388640D01*
X0151724Y0390238D02*
X0109010Y0390238D01*
X0109010Y0391837D02*
X0151724Y0391837D01*
X0151724Y0393435D02*
X0109010Y0393435D01*
X0107548Y0395034D02*
X0151724Y0395034D01*
X0151724Y0396632D02*
X0108367Y0396632D01*
X0109210Y0398231D02*
X0151724Y0398231D01*
X0151724Y0399829D02*
X0109210Y0399829D01*
X0109210Y0403026D02*
X0123987Y0403026D01*
X0123987Y0404625D02*
X0109210Y0404625D01*
X0108293Y0406223D02*
X0123987Y0406223D01*
X0123987Y0411019D02*
X0006600Y0411019D01*
X0006600Y0412617D02*
X0123987Y0412617D01*
X0123987Y0414216D02*
X0006600Y0414216D01*
X0006600Y0415814D02*
X0123987Y0415814D01*
X0139455Y0415814D02*
X0151724Y0415814D01*
X0151724Y0414216D02*
X0139455Y0414216D01*
X0139455Y0412617D02*
X0151724Y0412617D01*
X0151724Y0411019D02*
X0139455Y0411019D01*
X0139455Y0409420D02*
X0151724Y0409420D01*
X0151724Y0407822D02*
X0139455Y0407822D01*
X0139455Y0406223D02*
X0151724Y0406223D01*
X0151724Y0404625D02*
X0139455Y0404625D01*
X0139455Y0403026D02*
X0151724Y0403026D01*
X0151724Y0401428D02*
X0104445Y0401428D01*
X0103879Y0401428D02*
X0093842Y0401428D01*
X0091800Y0396800D02*
X0091800Y0346900D01*
X0089400Y0356670D02*
X0084665Y0356670D01*
X0086263Y0358268D02*
X0089400Y0358268D01*
X0089400Y0359867D02*
X0087600Y0359867D01*
X0087600Y0361465D02*
X0089400Y0361465D01*
X0089400Y0363064D02*
X0087600Y0363064D01*
X0086933Y0364662D02*
X0089400Y0364662D01*
X0089400Y0366261D02*
X0085335Y0366261D01*
X0085137Y0367859D02*
X0089400Y0367859D01*
X0089400Y0369458D02*
X0086736Y0369458D01*
X0086800Y0371056D02*
X0089400Y0371056D01*
X0089400Y0372655D02*
X0086800Y0372655D01*
X0086625Y0374253D02*
X0089400Y0374253D01*
X0089400Y0375852D02*
X0085027Y0375852D01*
X0085728Y0377450D02*
X0089400Y0377450D01*
X0089400Y0379049D02*
X0087327Y0379049D01*
X0087800Y0380647D02*
X0089400Y0380647D01*
X0089400Y0382246D02*
X0087800Y0382246D01*
X0087800Y0383844D02*
X0089400Y0383844D01*
X0089400Y0385443D02*
X0086435Y0385443D01*
X0084837Y0387041D02*
X0089400Y0387041D01*
X0089400Y0388640D02*
X0085918Y0388640D01*
X0086800Y0390238D02*
X0089400Y0390238D01*
X0089400Y0391837D02*
X0081500Y0391837D01*
X0084578Y0387300D02*
X0084578Y0387300D01*
X0086800Y0393435D02*
X0089400Y0393435D01*
X0089400Y0395034D02*
X0085844Y0395034D01*
X0084628Y0396632D02*
X0088574Y0396632D01*
X0086975Y0398231D02*
X0086226Y0398231D01*
X0086800Y0401800D02*
X0091800Y0396800D01*
X0086800Y0401800D02*
X0082300Y0401800D01*
X0072300Y0401800D01*
X0068374Y0398231D02*
X0020501Y0398231D01*
X0022099Y0399829D02*
X0067000Y0399829D01*
X0067000Y0401428D02*
X0023698Y0401428D01*
X0025296Y0403026D02*
X0067000Y0403026D01*
X0067630Y0404625D02*
X0026895Y0404625D01*
X0018902Y0396632D02*
X0068354Y0396632D01*
X0066800Y0383844D02*
X0006600Y0383844D01*
X0006600Y0382246D02*
X0066800Y0382246D01*
X0066800Y0380647D02*
X0006600Y0380647D01*
X0006600Y0379049D02*
X0067273Y0379049D01*
X0068872Y0377450D02*
X0006600Y0377450D01*
X0006600Y0375852D02*
X0067573Y0375852D01*
X0065975Y0374253D02*
X0006600Y0374253D01*
X0006600Y0372655D02*
X0065800Y0372655D01*
X0065800Y0371056D02*
X0006600Y0371056D01*
X0006600Y0369458D02*
X0065864Y0369458D01*
X0067463Y0367859D02*
X0006600Y0367859D01*
X0006600Y0366261D02*
X0069265Y0366261D01*
X0067667Y0364662D02*
X0032904Y0364662D01*
X0029751Y0364662D02*
X0006600Y0364662D01*
X0006600Y0363064D02*
X0027467Y0363064D01*
X0026659Y0361465D02*
X0006600Y0361465D01*
X0006600Y0359867D02*
X0026480Y0359867D01*
X0026826Y0358268D02*
X0006600Y0358268D01*
X0006600Y0356670D02*
X0027870Y0356670D01*
X0033459Y0355071D02*
X0006600Y0355071D01*
X0006600Y0353472D02*
X0035058Y0353472D01*
X0036656Y0351874D02*
X0006600Y0351874D01*
X0006600Y0350275D02*
X0038255Y0350275D01*
X0039853Y0348677D02*
X0006600Y0348677D01*
X0006600Y0347078D02*
X0041452Y0347078D01*
X0043050Y0345480D02*
X0006600Y0345480D01*
X0006600Y0343881D02*
X0044649Y0343881D01*
X0046247Y0342283D02*
X0006600Y0342283D01*
X0006600Y0340684D02*
X0047846Y0340684D01*
X0049444Y0339086D02*
X0006600Y0339086D01*
X0006600Y0337487D02*
X0051043Y0337487D01*
X0052641Y0335889D02*
X0006600Y0335889D01*
X0006600Y0334290D02*
X0054240Y0334290D01*
X0055838Y0332692D02*
X0006600Y0332692D01*
X0006600Y0331093D02*
X0029499Y0331093D01*
X0030363Y0331451D02*
X0028581Y0330713D01*
X0027218Y0329349D01*
X0026480Y0327567D01*
X0026480Y0325639D01*
X0027218Y0323857D01*
X0028581Y0322493D01*
X0030363Y0321755D01*
X0032292Y0321755D01*
X0034074Y0322493D01*
X0035438Y0323857D01*
X0036176Y0325639D01*
X0036176Y0327567D01*
X0035438Y0329349D01*
X0034074Y0330713D01*
X0032292Y0331451D01*
X0030363Y0331451D01*
X0033156Y0331093D02*
X0057437Y0331093D01*
X0059035Y0329495D02*
X0035292Y0329495D01*
X0036039Y0327896D02*
X0099950Y0327896D01*
X0101548Y0326298D02*
X0036176Y0326298D01*
X0035786Y0324699D02*
X0123987Y0324699D01*
X0123987Y0323101D02*
X0034681Y0323101D01*
X0034953Y0318305D02*
X0123987Y0318305D01*
X0123987Y0316707D02*
X0036013Y0316707D01*
X0036376Y0315108D02*
X0124749Y0315108D01*
X0123987Y0313510D02*
X0036219Y0313510D01*
X0035384Y0308714D02*
X0057902Y0308714D01*
X0057428Y0307116D02*
X0033785Y0307116D01*
X0032187Y0305517D02*
X0057558Y0305517D01*
X0058399Y0303919D02*
X0030588Y0303919D01*
X0028990Y0302320D02*
X0059400Y0302320D01*
X0059400Y0300722D02*
X0027391Y0300722D01*
X0025793Y0299123D02*
X0058030Y0299123D01*
X0057428Y0297525D02*
X0024194Y0297525D01*
X0022596Y0295926D02*
X0057430Y0295926D01*
X0058092Y0294328D02*
X0020997Y0294328D01*
X0019399Y0292729D02*
X0041778Y0292729D01*
X0042361Y0293312D02*
X0040997Y0291948D01*
X0040259Y0290166D01*
X0040259Y0288237D01*
X0040997Y0286455D01*
X0042361Y0285092D01*
X0044143Y0284354D01*
X0046071Y0284354D01*
X0047853Y0285092D01*
X0049217Y0286455D01*
X0049955Y0288237D01*
X0049955Y0290166D01*
X0049217Y0291948D01*
X0047853Y0293312D01*
X0046071Y0294050D01*
X0044143Y0294050D01*
X0042361Y0293312D01*
X0040659Y0291131D02*
X0017800Y0291131D01*
X0016491Y0289532D02*
X0040259Y0289532D01*
X0040385Y0287934D02*
X0016365Y0287934D01*
X0015632Y0286335D02*
X0041117Y0286335D01*
X0043218Y0284737D02*
X0013531Y0284737D01*
X0009754Y0284737D02*
X0006600Y0284737D01*
X0006600Y0286335D02*
X0007653Y0286335D01*
X0006920Y0287934D02*
X0006600Y0287934D01*
X0006600Y0289532D02*
X0006794Y0289532D01*
X0006600Y0291131D02*
X0007194Y0291131D01*
X0006600Y0292729D02*
X0008314Y0292729D01*
X0006600Y0294328D02*
X0015058Y0294328D01*
X0016656Y0295926D02*
X0006600Y0295926D01*
X0006600Y0297525D02*
X0018255Y0297525D01*
X0019853Y0299123D02*
X0006600Y0299123D01*
X0006600Y0300722D02*
X0021452Y0300722D01*
X0023050Y0302320D02*
X0006600Y0302320D01*
X0006600Y0303919D02*
X0024649Y0303919D01*
X0026247Y0305517D02*
X0006600Y0305517D01*
X0006600Y0307116D02*
X0027846Y0307116D01*
X0029444Y0308714D02*
X0006600Y0308714D01*
X0006600Y0310313D02*
X0029000Y0310313D01*
X0027181Y0311911D02*
X0006600Y0311911D01*
X0006600Y0313510D02*
X0026436Y0313510D01*
X0026280Y0315108D02*
X0006600Y0315108D01*
X0006600Y0316707D02*
X0026642Y0316707D01*
X0027702Y0318305D02*
X0006600Y0318305D01*
X0006600Y0319904D02*
X0123987Y0319904D01*
X0123987Y0321502D02*
X0006600Y0321502D01*
X0006600Y0323101D02*
X0027974Y0323101D01*
X0026869Y0324699D02*
X0006600Y0324699D01*
X0006600Y0326298D02*
X0026480Y0326298D01*
X0026616Y0327896D02*
X0006600Y0327896D01*
X0006600Y0329495D02*
X0027363Y0329495D01*
X0031045Y0318305D02*
X0031610Y0318305D01*
X0031610Y0316707D02*
X0031045Y0316707D01*
X0031045Y0315108D02*
X0031610Y0315108D01*
X0046996Y0284737D02*
X0054562Y0284737D01*
X0056635Y0284737D02*
X0057201Y0284737D01*
X0057201Y0286335D02*
X0056635Y0286335D01*
X0056635Y0287934D02*
X0057201Y0287934D01*
X0057201Y0289532D02*
X0056635Y0289532D01*
X0056635Y0291131D02*
X0057201Y0291131D01*
X0057201Y0292729D02*
X0056635Y0292729D01*
X0053307Y0292729D02*
X0048436Y0292729D01*
X0049556Y0291131D02*
X0052237Y0291131D01*
X0051870Y0289532D02*
X0049955Y0289532D01*
X0049829Y0287934D02*
X0052022Y0287934D01*
X0052761Y0286335D02*
X0049097Y0286335D01*
X0057428Y0280234D02*
X0057428Y0273366D01*
X0058366Y0272428D01*
X0065234Y0272428D01*
X0066172Y0273366D01*
X0066172Y0280234D01*
X0065234Y0281172D01*
X0058366Y0281172D01*
X0057428Y0280234D01*
X0057428Y0279941D02*
X0006600Y0279941D01*
X0006600Y0281539D02*
X0073666Y0281539D01*
X0075265Y0279941D02*
X0066172Y0279941D01*
X0066172Y0278342D02*
X0076863Y0278342D01*
X0078462Y0276744D02*
X0066172Y0276744D01*
X0066172Y0275145D02*
X0079400Y0275145D01*
X0079400Y0273547D02*
X0066172Y0273547D01*
X0070469Y0284737D02*
X0059274Y0284737D01*
X0061075Y0286335D02*
X0068871Y0286335D01*
X0067272Y0287934D02*
X0061814Y0287934D01*
X0061966Y0289532D02*
X0065674Y0289532D01*
X0064075Y0291131D02*
X0061599Y0291131D01*
X0061800Y0296800D02*
X0081800Y0276800D01*
X0081800Y0246800D01*
X0084200Y0251168D02*
X0099114Y0251168D01*
X0099114Y0249569D02*
X0085748Y0249569D01*
X0084200Y0252766D02*
X0100181Y0252766D01*
X0103880Y0252766D02*
X0104445Y0252766D01*
X0104445Y0252911D02*
X0104445Y0248146D01*
X0109210Y0248146D01*
X0109210Y0251348D01*
X0109088Y0251806D01*
X0108851Y0252216D01*
X0108515Y0252551D01*
X0108105Y0252788D01*
X0107647Y0252911D01*
X0104445Y0252911D01*
X0104445Y0251168D02*
X0103880Y0251168D01*
X0103880Y0249569D02*
X0104445Y0249569D01*
X0107462Y0241577D02*
X0151724Y0241577D01*
X0151724Y0243175D02*
X0108516Y0243175D01*
X0109210Y0244774D02*
X0151724Y0244774D01*
X0151724Y0246372D02*
X0109210Y0246372D01*
X0109210Y0249569D02*
X0123987Y0249569D01*
X0123987Y0251168D02*
X0109210Y0251168D01*
X0108143Y0252766D02*
X0123987Y0252766D01*
X0123987Y0254365D02*
X0084200Y0254365D01*
X0084200Y0255963D02*
X0123987Y0255963D01*
X0123987Y0257562D02*
X0084200Y0257562D01*
X0084200Y0259160D02*
X0123987Y0259160D01*
X0123987Y0260759D02*
X0084200Y0260759D01*
X0084200Y0262357D02*
X0123987Y0262357D01*
X0124720Y0263956D02*
X0084200Y0263956D01*
X0084200Y0265554D02*
X0123987Y0265554D01*
X0123987Y0267153D02*
X0084200Y0267153D01*
X0084200Y0268751D02*
X0123987Y0268751D01*
X0123987Y0270350D02*
X0084200Y0270350D01*
X0084200Y0271948D02*
X0123987Y0271948D01*
X0123987Y0273547D02*
X0095012Y0273547D01*
X0096069Y0275145D02*
X0101520Y0275145D01*
X0099921Y0276744D02*
X0091886Y0276744D01*
X0091714Y0276744D02*
X0084200Y0276744D01*
X0084200Y0275145D02*
X0087531Y0275145D01*
X0088588Y0273547D02*
X0084200Y0273547D01*
X0083652Y0278342D02*
X0087494Y0278342D01*
X0088476Y0279941D02*
X0082053Y0279941D01*
X0080455Y0281539D02*
X0089891Y0281539D01*
X0088292Y0283138D02*
X0078856Y0283138D01*
X0077258Y0284737D02*
X0086694Y0284737D01*
X0085095Y0286335D02*
X0075659Y0286335D01*
X0074061Y0287934D02*
X0083497Y0287934D01*
X0081898Y0289532D02*
X0072462Y0289532D01*
X0070864Y0291131D02*
X0080300Y0291131D01*
X0078701Y0292729D02*
X0069265Y0292729D01*
X0067667Y0294328D02*
X0077103Y0294328D01*
X0075504Y0295926D02*
X0066170Y0295926D01*
X0066172Y0297525D02*
X0073906Y0297525D01*
X0072307Y0299123D02*
X0065570Y0299123D01*
X0064200Y0300722D02*
X0070709Y0300722D01*
X0069110Y0302320D02*
X0064200Y0302320D01*
X0065201Y0303919D02*
X0067512Y0303919D01*
X0068656Y0308714D02*
X0087902Y0308714D01*
X0088094Y0309176D02*
X0087428Y0307570D01*
X0087428Y0305830D01*
X0088094Y0304224D01*
X0089324Y0302994D01*
X0090930Y0302328D01*
X0092670Y0302328D01*
X0094276Y0302994D01*
X0095506Y0304224D01*
X0096172Y0305830D01*
X0096172Y0307570D01*
X0095506Y0309176D01*
X0094276Y0310406D01*
X0092670Y0311072D01*
X0090930Y0311072D01*
X0089324Y0310406D01*
X0088094Y0309176D01*
X0089230Y0310313D02*
X0067057Y0310313D01*
X0065459Y0311911D02*
X0123987Y0311911D01*
X0123987Y0310313D02*
X0094370Y0310313D01*
X0095698Y0308714D02*
X0123987Y0308714D01*
X0123987Y0307116D02*
X0096172Y0307116D01*
X0096042Y0305517D02*
X0123987Y0305517D01*
X0123987Y0303919D02*
X0108193Y0303919D01*
X0108105Y0303969D02*
X0107647Y0304092D01*
X0104445Y0304092D01*
X0104445Y0299327D01*
X0103880Y0299327D01*
X0103880Y0304092D01*
X0100677Y0304092D01*
X0100219Y0303969D01*
X0099809Y0303732D01*
X0099474Y0303397D01*
X0099237Y0302987D01*
X0099114Y0302529D01*
X0099114Y0299327D01*
X0103879Y0299327D01*
X0103879Y0298761D01*
X0099114Y0298761D01*
X0099114Y0295559D01*
X0099237Y0295101D01*
X0099474Y0294691D01*
X0099809Y0294356D01*
X0100219Y0294119D01*
X0100677Y0293996D01*
X0102101Y0293996D01*
X0099314Y0291210D01*
X0099314Y0287193D01*
X0102154Y0284354D01*
X0106170Y0284354D01*
X0109010Y0287193D01*
X0109010Y0291210D01*
X0106224Y0293996D01*
X0107647Y0293996D01*
X0108105Y0294119D01*
X0108515Y0294356D01*
X0108851Y0294691D01*
X0109088Y0295101D01*
X0109210Y0295559D01*
X0109210Y0298761D01*
X0104445Y0298761D01*
X0104445Y0299327D01*
X0109210Y0299327D01*
X0109210Y0302529D01*
X0109088Y0302987D01*
X0108851Y0303397D01*
X0108515Y0303732D01*
X0108105Y0303969D01*
X0109210Y0302320D02*
X0123987Y0302320D01*
X0123987Y0300722D02*
X0109210Y0300722D01*
X0109210Y0297525D02*
X0151724Y0297525D01*
X0151724Y0299123D02*
X0104445Y0299123D01*
X0103879Y0299123D02*
X0096372Y0299123D01*
X0096372Y0299809D02*
X0096249Y0300266D01*
X0096012Y0300677D01*
X0095677Y0301012D01*
X0095266Y0301249D01*
X0094809Y0301372D01*
X0091886Y0301372D01*
X0091886Y0296886D01*
X0091714Y0296886D01*
X0091714Y0301372D01*
X0088791Y0301372D01*
X0088334Y0301249D01*
X0087923Y0301012D01*
X0087588Y0300677D01*
X0087351Y0300266D01*
X0087228Y0299809D01*
X0087228Y0296886D01*
X0091714Y0296886D01*
X0091714Y0296714D01*
X0087228Y0296714D01*
X0087228Y0293791D01*
X0087351Y0293334D01*
X0087588Y0292923D01*
X0087923Y0292588D01*
X0088334Y0292351D01*
X0088791Y0292228D01*
X0091714Y0292228D01*
X0091714Y0296714D01*
X0091886Y0296714D01*
X0091886Y0296886D01*
X0096372Y0296886D01*
X0096372Y0299809D01*
X0095967Y0300722D02*
X0099114Y0300722D01*
X0099114Y0302320D02*
X0075050Y0302320D01*
X0076648Y0300722D02*
X0087633Y0300722D01*
X0087228Y0299123D02*
X0078247Y0299123D01*
X0079845Y0297525D02*
X0087228Y0297525D01*
X0087228Y0295926D02*
X0081444Y0295926D01*
X0083042Y0294328D02*
X0087228Y0294328D01*
X0087782Y0292729D02*
X0084641Y0292729D01*
X0086239Y0291131D02*
X0099314Y0291131D01*
X0099314Y0289532D02*
X0087838Y0289532D01*
X0089436Y0287934D02*
X0099314Y0287934D01*
X0100173Y0286335D02*
X0091035Y0286335D01*
X0092633Y0284737D02*
X0101771Y0284737D01*
X0101085Y0283138D02*
X0094232Y0283138D01*
X0091886Y0275145D02*
X0091714Y0275145D01*
X0091714Y0273547D02*
X0091886Y0273547D01*
X0091886Y0292228D02*
X0094809Y0292228D01*
X0095266Y0292351D01*
X0095677Y0292588D01*
X0096012Y0292923D01*
X0096249Y0293334D01*
X0096372Y0293791D01*
X0096372Y0296714D01*
X0091886Y0296714D01*
X0091886Y0292228D01*
X0091886Y0292729D02*
X0091714Y0292729D01*
X0091714Y0294328D02*
X0091886Y0294328D01*
X0091886Y0295926D02*
X0091714Y0295926D01*
X0091714Y0297525D02*
X0091886Y0297525D01*
X0091886Y0299123D02*
X0091714Y0299123D01*
X0091714Y0300722D02*
X0091886Y0300722D01*
X0088399Y0303919D02*
X0073451Y0303919D01*
X0071853Y0305517D02*
X0087558Y0305517D01*
X0087428Y0307116D02*
X0070254Y0307116D01*
X0061800Y0306700D02*
X0061800Y0296800D01*
X0057428Y0278342D02*
X0006600Y0278342D01*
X0006600Y0276744D02*
X0057428Y0276744D01*
X0057428Y0275145D02*
X0006600Y0275145D01*
X0006600Y0273547D02*
X0057428Y0273547D01*
X0051892Y0239978D02*
X0099314Y0239978D01*
X0099314Y0238380D02*
X0053490Y0238380D01*
X0055089Y0236781D02*
X0099314Y0236781D01*
X0100144Y0235183D02*
X0056687Y0235183D01*
X0058286Y0233584D02*
X0101742Y0233584D01*
X0102154Y0233026D02*
X0099828Y0230700D01*
X0061170Y0230700D01*
X0035869Y0256001D01*
X0036176Y0256741D01*
X0036176Y0258670D01*
X0035438Y0260452D01*
X0034074Y0261815D01*
X0032292Y0262554D01*
X0030363Y0262554D01*
X0028581Y0261815D01*
X0027218Y0260452D01*
X0026480Y0258670D01*
X0026480Y0256741D01*
X0027218Y0254959D01*
X0028581Y0253596D01*
X0030363Y0252857D01*
X0032292Y0252857D01*
X0032844Y0253086D01*
X0059430Y0226500D01*
X0099314Y0226500D01*
X0099314Y0226170D01*
X0102154Y0223330D01*
X0106170Y0223330D01*
X0109010Y0226170D01*
X0109010Y0230186D01*
X0106170Y0233026D01*
X0102154Y0233026D01*
X0101114Y0231986D02*
X0059884Y0231986D01*
X0057142Y0228789D02*
X0033017Y0228789D01*
X0035235Y0227190D02*
X0058740Y0227190D01*
X0055543Y0230387D02*
X0006600Y0230387D01*
X0006600Y0228789D02*
X0029638Y0228789D01*
X0027421Y0227190D02*
X0006600Y0227190D01*
X0006600Y0225592D02*
X0026640Y0225592D01*
X0026480Y0223993D02*
X0006600Y0223993D01*
X0006600Y0222395D02*
X0026845Y0222395D01*
X0031045Y0216001D02*
X0031610Y0216001D01*
X0031610Y0214402D02*
X0031045Y0214402D01*
X0031045Y0212803D02*
X0031610Y0212803D01*
X0036176Y0223993D02*
X0101491Y0223993D01*
X0099892Y0225592D02*
X0036016Y0225592D01*
X0042755Y0243175D02*
X0006600Y0243175D01*
X0006600Y0241577D02*
X0044353Y0241577D01*
X0045952Y0239978D02*
X0006600Y0239978D01*
X0006600Y0238380D02*
X0047550Y0238380D01*
X0049149Y0236781D02*
X0006600Y0236781D01*
X0006600Y0235183D02*
X0050747Y0235183D01*
X0052346Y0233584D02*
X0006600Y0233584D01*
X0006600Y0231986D02*
X0053945Y0231986D01*
X0041156Y0244774D02*
X0006600Y0244774D01*
X0006600Y0246372D02*
X0039558Y0246372D01*
X0037959Y0247971D02*
X0006600Y0247971D01*
X0006600Y0249569D02*
X0036361Y0249569D01*
X0034762Y0251168D02*
X0006600Y0251168D01*
X0006600Y0252766D02*
X0033164Y0252766D01*
X0035907Y0255963D02*
X0079400Y0255963D01*
X0079400Y0254365D02*
X0037505Y0254365D01*
X0036176Y0257562D02*
X0079400Y0257562D01*
X0079400Y0259160D02*
X0035972Y0259160D01*
X0035130Y0260759D02*
X0079400Y0260759D01*
X0079400Y0262357D02*
X0032766Y0262357D01*
X0029890Y0262357D02*
X0006600Y0262357D01*
X0006600Y0260759D02*
X0027525Y0260759D01*
X0026683Y0259160D02*
X0006600Y0259160D01*
X0006600Y0257562D02*
X0026480Y0257562D01*
X0026802Y0255963D02*
X0006600Y0255963D01*
X0006600Y0254365D02*
X0027812Y0254365D01*
X0006600Y0263956D02*
X0079400Y0263956D01*
X0079400Y0265554D02*
X0006600Y0265554D01*
X0006600Y0267153D02*
X0079400Y0267153D01*
X0079400Y0268751D02*
X0006600Y0268751D01*
X0006600Y0270350D02*
X0079400Y0270350D01*
X0079400Y0271948D02*
X0006600Y0271948D01*
X0006600Y0283138D02*
X0072068Y0283138D01*
X0071800Y0251168D02*
X0071800Y0251168D01*
X0071800Y0249569D02*
X0071800Y0249569D01*
X0071800Y0247971D02*
X0071800Y0247971D01*
X0071800Y0246372D02*
X0071800Y0246372D01*
X0071800Y0244774D02*
X0071800Y0244774D01*
X0071800Y0243175D02*
X0071800Y0243175D01*
X0095818Y0292729D02*
X0100834Y0292729D01*
X0099858Y0294328D02*
X0096372Y0294328D01*
X0096372Y0295926D02*
X0099114Y0295926D01*
X0099114Y0297525D02*
X0096372Y0297525D01*
X0095201Y0303919D02*
X0100131Y0303919D01*
X0103880Y0303919D02*
X0104445Y0303919D01*
X0104445Y0302320D02*
X0103880Y0302320D01*
X0103880Y0300722D02*
X0104445Y0300722D01*
X0107491Y0292729D02*
X0151724Y0292729D01*
X0151724Y0291131D02*
X0109010Y0291131D01*
X0109010Y0289532D02*
X0151724Y0289532D01*
X0151724Y0287934D02*
X0109010Y0287934D01*
X0108152Y0286335D02*
X0151724Y0286335D01*
X0151724Y0284737D02*
X0106553Y0284737D01*
X0107239Y0283138D02*
X0151724Y0283138D01*
X0151724Y0281539D02*
X0108838Y0281539D01*
X0109010Y0279941D02*
X0151724Y0279941D01*
X0151724Y0294328D02*
X0108467Y0294328D01*
X0109210Y0295926D02*
X0151724Y0295926D01*
X0151724Y0239978D02*
X0109010Y0239978D01*
X0109010Y0238380D02*
X0151724Y0238380D01*
X0151724Y0236781D02*
X0109010Y0236781D01*
X0108181Y0235183D02*
X0151724Y0235183D01*
X0151724Y0233584D02*
X0106582Y0233584D01*
X0107211Y0231986D02*
X0151724Y0231986D01*
X0151724Y0230387D02*
X0108809Y0230387D01*
X0109010Y0228789D02*
X0151724Y0228789D01*
X0151724Y0227190D02*
X0139366Y0227190D01*
X0139455Y0225592D02*
X0151724Y0225592D01*
X0151724Y0223993D02*
X0139455Y0223993D01*
X0139455Y0222395D02*
X0151724Y0222395D01*
X0151724Y0220796D02*
X0139455Y0220796D01*
X0139455Y0219198D02*
X0151724Y0219198D01*
X0151724Y0217599D02*
X0139455Y0217599D01*
X0139455Y0216001D02*
X0151724Y0216001D01*
X0151724Y0214402D02*
X0139455Y0214402D01*
X0138751Y0212803D02*
X0151724Y0212803D01*
X0151724Y0211205D02*
X0139455Y0211205D01*
X0139455Y0209606D02*
X0151724Y0209606D01*
X0151724Y0208008D02*
X0139455Y0208008D01*
X0139455Y0206409D02*
X0151724Y0206409D01*
X0151724Y0204811D02*
X0139455Y0204811D01*
X0139455Y0203212D02*
X0151724Y0203212D01*
X0151724Y0201614D02*
X0139455Y0201614D01*
X0139455Y0200015D02*
X0151724Y0200015D01*
X0151724Y0198417D02*
X0139455Y0198417D01*
X0123987Y0198417D02*
X0109210Y0198417D01*
X0109210Y0200015D02*
X0123987Y0200015D01*
X0123987Y0223993D02*
X0106833Y0223993D01*
X0108432Y0225592D02*
X0123987Y0225592D01*
X0124077Y0227190D02*
X0109010Y0227190D01*
X0106805Y0275145D02*
X0123987Y0275145D01*
X0123987Y0276744D02*
X0108403Y0276744D01*
X0109010Y0278342D02*
X0124048Y0278342D01*
X0123987Y0326298D02*
X0106776Y0326298D01*
X0108374Y0327896D02*
X0123987Y0327896D01*
X0124019Y0329495D02*
X0109010Y0329495D01*
X0101800Y0335889D02*
X0058581Y0335889D01*
X0056982Y0337487D02*
X0100201Y0337487D01*
X0099314Y0339086D02*
X0055384Y0339086D01*
X0053785Y0340684D02*
X0099314Y0340684D01*
X0101056Y0334290D02*
X0060179Y0334290D01*
X0043357Y0387041D02*
X0013393Y0387041D01*
X0015575Y0388640D02*
X0041175Y0388640D01*
X0040409Y0390238D02*
X0016341Y0390238D01*
X0016491Y0391837D02*
X0040259Y0391837D01*
X0040635Y0393435D02*
X0016115Y0393435D01*
X0017304Y0395034D02*
X0041721Y0395034D01*
X0094200Y0374253D02*
X0123987Y0374253D01*
X0123987Y0372655D02*
X0094200Y0372655D01*
X0094200Y0371056D02*
X0123987Y0371056D01*
X0123987Y0369458D02*
X0094200Y0369458D01*
X0094200Y0367859D02*
X0123987Y0367859D01*
X0124777Y0366261D02*
X0094200Y0366261D01*
X0094200Y0364662D02*
X0123987Y0364662D01*
X0123987Y0364896D02*
X0124925Y0365833D01*
X0138518Y0365833D01*
X0139455Y0364896D01*
X0139455Y0351303D01*
X0138518Y0350365D01*
X0124925Y0350365D01*
X0123987Y0351303D01*
X0123987Y0364896D01*
X0123987Y0363064D02*
X0094200Y0363064D01*
X0094200Y0361465D02*
X0123987Y0361465D01*
X0123987Y0359867D02*
X0094200Y0359867D01*
X0094200Y0358268D02*
X0123987Y0358268D01*
X0123987Y0356670D02*
X0094200Y0356670D01*
X0103880Y0355071D02*
X0104445Y0355071D01*
X0104445Y0353472D02*
X0103880Y0353472D01*
X0103880Y0351874D02*
X0104445Y0351874D01*
X0109210Y0351874D02*
X0123987Y0351874D01*
X0123987Y0353472D02*
X0109210Y0353472D01*
X0108243Y0355071D02*
X0123987Y0355071D01*
X0139455Y0355071D02*
X0151724Y0355071D01*
X0151724Y0353472D02*
X0139455Y0353472D01*
X0139455Y0351874D02*
X0151724Y0351874D01*
X0151724Y0356670D02*
X0139455Y0356670D01*
X0139455Y0358268D02*
X0151724Y0358268D01*
X0151724Y0359867D02*
X0139455Y0359867D01*
X0139455Y0361465D02*
X0151724Y0361465D01*
X0151724Y0363064D02*
X0139455Y0363064D01*
X0139455Y0364662D02*
X0151724Y0364662D01*
X0151724Y0366261D02*
X0138665Y0366261D01*
X0139455Y0367859D02*
X0151724Y0367859D01*
X0151724Y0369458D02*
X0139455Y0369458D01*
X0139455Y0371056D02*
X0151724Y0371056D01*
X0151724Y0372655D02*
X0139455Y0372655D01*
X0139455Y0374253D02*
X0151724Y0374253D01*
X0151724Y0375852D02*
X0139455Y0375852D01*
X0139455Y0377450D02*
X0151724Y0377450D01*
X0151724Y0379049D02*
X0139455Y0379049D01*
X0139452Y0380647D02*
X0151724Y0380647D01*
X0104445Y0403026D02*
X0103880Y0403026D01*
X0103880Y0404625D02*
X0104445Y0404625D01*
X0104445Y0406223D02*
X0103880Y0406223D01*
X0088421Y0169644D02*
X0079200Y0169644D01*
X0079200Y0168045D02*
X0087400Y0168045D01*
X0087400Y0166447D02*
X0079200Y0166447D01*
X0079200Y0164848D02*
X0087529Y0164848D01*
X0089128Y0163250D02*
X0079200Y0163250D01*
X0079200Y0155257D02*
X0086717Y0155257D01*
X0085424Y0153659D02*
X0079200Y0153659D01*
X0079200Y0152060D02*
X0085000Y0152060D01*
X0085208Y0150462D02*
X0079200Y0150462D01*
X0079200Y0148863D02*
X0086197Y0148863D01*
X0084895Y0147265D02*
X0079200Y0147265D01*
X0079200Y0145666D02*
X0083296Y0145666D01*
X0081698Y0144068D02*
X0079200Y0144068D01*
X0079200Y0142469D02*
X0080099Y0142469D01*
X0082842Y0139272D02*
X0085788Y0139272D01*
X0085039Y0140870D02*
X0084440Y0140870D01*
X0091800Y0136075D02*
X0091800Y0136075D01*
X0091800Y0134476D02*
X0091800Y0134476D01*
X0091800Y0132878D02*
X0091800Y0132878D01*
X0091800Y0131279D02*
X0091800Y0131279D01*
X0091800Y0129681D02*
X0091800Y0129681D01*
X0091800Y0128082D02*
X0091800Y0128082D01*
X0086346Y0124885D02*
X0081300Y0124885D01*
X0081300Y0123287D02*
X0085270Y0123287D01*
X0085000Y0121688D02*
X0081300Y0121688D01*
X0081300Y0120090D02*
X0085362Y0120090D01*
X0086569Y0118491D02*
X0081300Y0118491D01*
X0081300Y0116893D02*
X0096900Y0116893D01*
X0096900Y0107302D02*
X0081300Y0107302D01*
X0081300Y0108900D02*
X0085877Y0108900D01*
X0085844Y0108934D02*
X0086334Y0108444D01*
X0086894Y0108037D01*
X0087511Y0107722D01*
X0088170Y0107508D01*
X0088854Y0107400D01*
X0091800Y0107400D01*
X0091800Y0111800D01*
X0091800Y0111800D01*
X0091800Y0111800D01*
X0084800Y0111800D01*
X0084800Y0112146D01*
X0084908Y0112830D01*
X0085122Y0113489D01*
X0085437Y0114106D01*
X0085844Y0114666D01*
X0086334Y0115156D01*
X0086894Y0115563D01*
X0087511Y0115878D01*
X0088170Y0116092D01*
X0088854Y0116200D01*
X0091800Y0116200D01*
X0091800Y0111800D01*
X0084800Y0111800D01*
X0084800Y0111454D01*
X0084908Y0110770D01*
X0085122Y0110111D01*
X0085437Y0109494D01*
X0085844Y0108934D01*
X0084996Y0110499D02*
X0081300Y0110499D01*
X0081300Y0112097D02*
X0084800Y0112097D01*
X0085228Y0113696D02*
X0081300Y0113696D01*
X0081300Y0115294D02*
X0086524Y0115294D01*
X0091800Y0115294D02*
X0091800Y0115294D01*
X0091800Y0113696D02*
X0091800Y0113696D01*
X0091800Y0112097D02*
X0091800Y0112097D01*
X0091800Y0110499D02*
X0091800Y0110499D01*
X0091800Y0108900D02*
X0091800Y0108900D01*
X0087648Y0105703D02*
X0081300Y0105703D01*
X0081300Y0104105D02*
X0085609Y0104105D01*
X0085000Y0102506D02*
X0081300Y0102506D01*
X0081300Y0100908D02*
X0085024Y0100908D01*
X0085751Y0099309D02*
X0081300Y0099309D01*
X0081300Y0097711D02*
X0088097Y0097711D01*
X0085974Y0094514D02*
X0081300Y0094514D01*
X0081300Y0096112D02*
X0096900Y0096112D01*
X0096900Y0097711D02*
X0095503Y0097711D01*
X0095952Y0105703D02*
X0096900Y0105703D01*
X0092551Y0086521D02*
X0080491Y0086521D01*
X0081300Y0088120D02*
X0087110Y0088120D01*
X0085516Y0089718D02*
X0081300Y0089718D01*
X0081300Y0091317D02*
X0085000Y0091317D01*
X0085116Y0092915D02*
X0081300Y0092915D01*
X0078892Y0084923D02*
X0090953Y0084923D01*
X0089354Y0083324D02*
X0077294Y0083324D01*
X0075695Y0081726D02*
X0087756Y0081726D01*
X0086157Y0080127D02*
X0074097Y0080127D01*
X0072498Y0078529D02*
X0084559Y0078529D01*
X0082960Y0076930D02*
X0070900Y0076930D01*
X0069301Y0075332D02*
X0081362Y0075332D01*
X0079800Y0073733D02*
X0067703Y0073733D01*
X0066104Y0072134D02*
X0079800Y0072134D01*
X0079800Y0070536D02*
X0064506Y0070536D01*
X0064667Y0060331D02*
X0062206Y0057870D01*
X0062206Y0054391D01*
X0064667Y0051931D01*
X0068146Y0051931D01*
X0070606Y0054391D01*
X0070606Y0057870D01*
X0068146Y0060331D01*
X0064667Y0060331D01*
X0063682Y0059346D02*
X0059445Y0059346D01*
X0060843Y0057748D02*
X0062206Y0057748D01*
X0062206Y0056149D02*
X0060843Y0056149D01*
X0060843Y0054551D02*
X0062206Y0054551D01*
X0063645Y0052952D02*
X0059325Y0052952D01*
X0054525Y0060945D02*
X0079800Y0060945D01*
X0079800Y0062543D02*
X0052926Y0062543D01*
X0051328Y0064142D02*
X0079800Y0064142D01*
X0079800Y0065740D02*
X0049729Y0065740D01*
X0048131Y0067339D02*
X0079800Y0067339D01*
X0079800Y0068937D02*
X0048381Y0068937D01*
X0043790Y0065740D02*
X0006600Y0065740D01*
X0006600Y0064142D02*
X0027758Y0064142D01*
X0026779Y0062543D02*
X0006600Y0062543D01*
X0006600Y0060945D02*
X0026480Y0060945D01*
X0026705Y0059346D02*
X0006600Y0059346D01*
X0006600Y0057748D02*
X0027579Y0057748D01*
X0018381Y0068937D02*
X0040593Y0068937D01*
X0042191Y0067339D02*
X0006600Y0067339D01*
X0006600Y0017785D02*
X0026786Y0017785D01*
X0026313Y0016187D02*
X0006600Y0016187D01*
X0006600Y0014588D02*
X0026374Y0014588D01*
X0026982Y0012990D02*
X0006600Y0012990D01*
X0043500Y0096112D02*
X0069400Y0096112D01*
X0069400Y0094514D02*
X0067626Y0094514D01*
X0068484Y0092915D02*
X0069400Y0092915D01*
X0069400Y0091317D02*
X0068600Y0091317D01*
X0068084Y0089718D02*
X0069400Y0089718D01*
X0069400Y0088120D02*
X0066490Y0088120D01*
X0065503Y0097711D02*
X0069400Y0097711D01*
X0069400Y0099309D02*
X0067849Y0099309D01*
X0068576Y0100908D02*
X0069400Y0100908D01*
X0069400Y0102506D02*
X0068600Y0102506D01*
X0067991Y0104105D02*
X0069400Y0104105D01*
X0069400Y0105703D02*
X0065952Y0105703D01*
X0068676Y0132878D02*
X0069484Y0132878D01*
X0067894Y0134476D02*
X0071082Y0134476D01*
X0072681Y0136075D02*
X0065482Y0136075D01*
X0065413Y0137673D02*
X0074279Y0137673D01*
X0074400Y0139272D02*
X0067812Y0139272D01*
X0068561Y0140870D02*
X0074400Y0140870D01*
X0074400Y0142469D02*
X0068600Y0142469D01*
X0068007Y0144068D02*
X0074400Y0144068D01*
X0074400Y0145666D02*
X0066042Y0145666D01*
X0043650Y0097711D02*
X0043500Y0097711D01*
X0069130Y0059346D02*
X0073485Y0059346D01*
X0072206Y0057748D02*
X0070606Y0057748D01*
X0070606Y0056149D02*
X0072206Y0056149D01*
X0072243Y0054551D02*
X0070606Y0054551D01*
X0069168Y0052952D02*
X0073842Y0052952D01*
X0079327Y0059346D02*
X0079800Y0059346D01*
X0090740Y0033770D02*
X0110000Y0033770D01*
X0108402Y0032172D02*
X0089142Y0032172D01*
X0088100Y0030573D02*
X0093964Y0030573D01*
X0094234Y0030843D02*
X0091773Y0028382D01*
X0091773Y0024903D01*
X0094234Y0022443D01*
X0097713Y0022443D01*
X0100173Y0024903D01*
X0100173Y0028382D01*
X0097713Y0030843D01*
X0094234Y0030843D01*
X0092366Y0028975D02*
X0089699Y0028975D01*
X0090409Y0027376D02*
X0091773Y0027376D01*
X0091773Y0025778D02*
X0090409Y0025778D01*
X0089804Y0024179D02*
X0092497Y0024179D01*
X0094095Y0022581D02*
X0088205Y0022581D01*
X0084214Y0022581D02*
X0082250Y0022581D01*
X0080652Y0020982D02*
X0151724Y0020982D01*
X0151724Y0019384D02*
X0135056Y0019384D01*
X0136263Y0017785D02*
X0151724Y0017785D01*
X0151724Y0016187D02*
X0136736Y0016187D01*
X0136769Y0015297D02*
X0132004Y0015297D01*
X0132004Y0010531D01*
X0132119Y0010531D01*
X0132903Y0010656D01*
X0133659Y0010901D01*
X0134367Y0011262D01*
X0135010Y0011729D01*
X0135572Y0012291D01*
X0136039Y0012934D01*
X0136399Y0013642D01*
X0136645Y0014397D01*
X0136769Y0015182D01*
X0136769Y0015297D01*
X0136675Y0014588D02*
X0151724Y0014588D01*
X0151724Y0012990D02*
X0136067Y0012990D01*
X0134545Y0011391D02*
X0151724Y0011391D01*
X0151724Y0022581D02*
X0132778Y0022581D01*
X0132686Y0022543D02*
X0134467Y0023281D01*
X0135831Y0024644D01*
X0136569Y0026426D01*
X0136569Y0028355D01*
X0135831Y0030137D01*
X0134467Y0031501D01*
X0132686Y0032239D01*
X0130757Y0032239D01*
X0128975Y0031501D01*
X0127611Y0030137D01*
X0126873Y0028355D01*
X0126873Y0026426D01*
X0127611Y0024644D01*
X0128975Y0023281D01*
X0130757Y0022543D01*
X0132686Y0022543D01*
X0130665Y0022581D02*
X0107457Y0022581D01*
X0107319Y0022443D02*
X0109780Y0024903D01*
X0109780Y0027610D01*
X0148800Y0066630D01*
X0148800Y0069750D01*
X0151197Y0072147D01*
X0151197Y0075626D01*
X0148737Y0078087D01*
X0145257Y0078087D01*
X0142797Y0075626D01*
X0142797Y0072147D01*
X0144600Y0070344D01*
X0144600Y0068370D01*
X0136569Y0060339D01*
X0136569Y0061819D01*
X0135831Y0063601D01*
X0134467Y0064965D01*
X0132686Y0065703D01*
X0130757Y0065703D01*
X0128975Y0064965D01*
X0127611Y0063601D01*
X0126873Y0061819D01*
X0126873Y0059891D01*
X0127611Y0058109D01*
X0128975Y0056745D01*
X0130757Y0056007D01*
X0132237Y0056007D01*
X0107073Y0030843D01*
X0103840Y0030843D01*
X0101380Y0028382D01*
X0101380Y0024903D01*
X0103840Y0022443D01*
X0107319Y0022443D01*
X0109056Y0024179D02*
X0128076Y0024179D01*
X0127142Y0025778D02*
X0109780Y0025778D01*
X0109780Y0027376D02*
X0126873Y0027376D01*
X0127130Y0028975D02*
X0111145Y0028975D01*
X0112743Y0030573D02*
X0128048Y0030573D01*
X0130596Y0032172D02*
X0114342Y0032172D01*
X0115940Y0033770D02*
X0151724Y0033770D01*
X0151724Y0032172D02*
X0132847Y0032172D01*
X0135395Y0030573D02*
X0151724Y0030573D01*
X0151724Y0028975D02*
X0136313Y0028975D01*
X0136569Y0027376D02*
X0151724Y0027376D01*
X0151724Y0025778D02*
X0136301Y0025778D01*
X0135366Y0024179D02*
X0151724Y0024179D01*
X0151724Y0035369D02*
X0117539Y0035369D01*
X0119137Y0036967D02*
X0151724Y0036967D01*
X0151724Y0038566D02*
X0120736Y0038566D01*
X0122334Y0040164D02*
X0151724Y0040164D01*
X0151724Y0041763D02*
X0123933Y0041763D01*
X0125531Y0043361D02*
X0151724Y0043361D01*
X0151724Y0044960D02*
X0127130Y0044960D01*
X0128728Y0046558D02*
X0151724Y0046558D01*
X0151724Y0048157D02*
X0130327Y0048157D01*
X0131925Y0049755D02*
X0151724Y0049755D01*
X0151724Y0051354D02*
X0133524Y0051354D01*
X0135122Y0052952D02*
X0151724Y0052952D01*
X0151724Y0054551D02*
X0136721Y0054551D01*
X0138319Y0056149D02*
X0151724Y0056149D01*
X0151724Y0057748D02*
X0139918Y0057748D01*
X0141516Y0059346D02*
X0151724Y0059346D01*
X0151724Y0060945D02*
X0143115Y0060945D01*
X0144713Y0062543D02*
X0151724Y0062543D01*
X0151724Y0064142D02*
X0146312Y0064142D01*
X0147910Y0065740D02*
X0151724Y0065740D01*
X0151724Y0067339D02*
X0148800Y0067339D01*
X0148800Y0068937D02*
X0151724Y0068937D01*
X0151724Y0070536D02*
X0149586Y0070536D01*
X0151184Y0072134D02*
X0151724Y0072134D01*
X0151724Y0073733D02*
X0151197Y0073733D01*
X0151197Y0075332D02*
X0151724Y0075332D01*
X0151724Y0076930D02*
X0149893Y0076930D01*
X0151724Y0078529D02*
X0136398Y0078529D01*
X0137997Y0080127D02*
X0144738Y0080127D01*
X0143139Y0081726D02*
X0139595Y0081726D01*
X0141194Y0083324D02*
X0142797Y0083324D01*
X0142792Y0084923D02*
X0142797Y0084923D01*
X0144300Y0088120D02*
X0151724Y0088120D01*
X0151724Y0089718D02*
X0148926Y0089718D01*
X0150524Y0091317D02*
X0151724Y0091317D01*
X0151724Y0092915D02*
X0151000Y0092915D01*
X0151000Y0094514D02*
X0151724Y0094514D01*
X0151724Y0096112D02*
X0150160Y0096112D01*
X0150181Y0097711D02*
X0151724Y0097711D01*
X0151724Y0086521D02*
X0150223Y0086521D01*
X0151197Y0084923D02*
X0151724Y0084923D01*
X0151724Y0083324D02*
X0151197Y0083324D01*
X0150854Y0081726D02*
X0151724Y0081726D01*
X0151724Y0080127D02*
X0149256Y0080127D01*
X0144674Y0089718D02*
X0144300Y0089718D01*
X0144101Y0076930D02*
X0134800Y0076930D01*
X0133201Y0075332D02*
X0142797Y0075332D01*
X0142797Y0073733D02*
X0131603Y0073733D01*
X0130004Y0072134D02*
X0142809Y0072134D01*
X0144408Y0070536D02*
X0128406Y0070536D01*
X0126807Y0068937D02*
X0144600Y0068937D01*
X0143569Y0067339D02*
X0125209Y0067339D01*
X0123610Y0065740D02*
X0141971Y0065740D01*
X0140372Y0064142D02*
X0135291Y0064142D01*
X0136269Y0062543D02*
X0138774Y0062543D01*
X0137175Y0060945D02*
X0136569Y0060945D01*
X0130413Y0056149D02*
X0114019Y0056149D01*
X0112421Y0054551D02*
X0130781Y0054551D01*
X0129183Y0052952D02*
X0110822Y0052952D01*
X0109224Y0051354D02*
X0127584Y0051354D01*
X0125986Y0049755D02*
X0106725Y0049755D01*
X0105127Y0048157D02*
X0124387Y0048157D01*
X0122788Y0046558D02*
X0103528Y0046558D01*
X0101930Y0044960D02*
X0121190Y0044960D01*
X0119591Y0043361D02*
X0100331Y0043361D01*
X0098733Y0041763D02*
X0117993Y0041763D01*
X0116394Y0040164D02*
X0097134Y0040164D01*
X0095536Y0038566D02*
X0114796Y0038566D01*
X0113197Y0036967D02*
X0093937Y0036967D01*
X0092339Y0035369D02*
X0111599Y0035369D01*
X0103571Y0030573D02*
X0097982Y0030573D01*
X0099581Y0028975D02*
X0101972Y0028975D01*
X0101380Y0027376D02*
X0100173Y0027376D01*
X0100173Y0025778D02*
X0101380Y0025778D01*
X0102103Y0024179D02*
X0099450Y0024179D01*
X0097851Y0022581D02*
X0103702Y0022581D01*
X0115618Y0057748D02*
X0127972Y0057748D01*
X0127099Y0059346D02*
X0117216Y0059346D01*
X0118815Y0060945D02*
X0126873Y0060945D01*
X0127173Y0062543D02*
X0120413Y0062543D01*
X0122012Y0064142D02*
X0128152Y0064142D01*
X0131439Y0019384D02*
X0132004Y0019384D01*
X0132004Y0017785D02*
X0131439Y0017785D01*
X0131439Y0016187D02*
X0132004Y0016187D01*
X0132004Y0014588D02*
X0131439Y0014588D01*
X0131439Y0012990D02*
X0132004Y0012990D01*
X0132004Y0011391D02*
X0131439Y0011391D01*
X0150583Y0123287D02*
X0151724Y0123287D01*
X0151724Y0124885D02*
X0148984Y0124885D01*
X0147386Y0126484D02*
X0151724Y0126484D01*
X0151724Y0128082D02*
X0145787Y0128082D01*
X0144189Y0129681D02*
X0151724Y0129681D01*
X0151724Y0131279D02*
X0142590Y0131279D01*
X0140992Y0132878D02*
X0151724Y0132878D01*
X0151724Y0134476D02*
X0139393Y0134476D01*
X0137795Y0136075D02*
X0151724Y0136075D01*
X0151724Y0137673D02*
X0136196Y0137673D01*
X0134598Y0139272D02*
X0151724Y0139272D01*
X0151724Y0140870D02*
X0132999Y0140870D01*
X0131401Y0142469D02*
X0151724Y0142469D01*
D23*
X0146700Y0121500D02*
X0082800Y0185400D01*
X0082800Y0197100D01*
X0082430Y0197115D01*
X0086400Y0198000D02*
X0086400Y0200700D01*
X0072000Y0215100D01*
X0072000Y0218700D01*
X0069300Y0221400D01*
X0046800Y0221400D01*
X0011700Y0186300D01*
X0011643Y0186839D01*
X0060300Y0228600D02*
X0031500Y0257400D01*
X0031328Y0257706D01*
X0013500Y0289800D02*
X0011700Y0289800D01*
X0011643Y0289202D01*
X0013500Y0289800D02*
X0035100Y0311400D01*
X0063000Y0311400D01*
X0094500Y0279900D01*
X0103500Y0279900D01*
X0104162Y0279359D01*
X0103500Y0228600D02*
X0104162Y0228178D01*
X0103500Y0228600D02*
X0060300Y0228600D01*
X0086400Y0198000D02*
X0103500Y0180900D01*
X0103500Y0177300D01*
X0104162Y0176997D01*
X0108900Y0181800D02*
X0104400Y0186300D01*
X0104162Y0186839D01*
X0108900Y0181800D02*
X0108900Y0162000D01*
X0151200Y0119700D01*
X0151200Y0101700D01*
X0148500Y0099000D01*
X0146700Y0099000D01*
X0142200Y0094500D01*
X0142200Y0087300D01*
X0107100Y0052200D01*
X0106200Y0052200D01*
X0081000Y0027000D01*
X0076500Y0027000D01*
X0076406Y0026328D01*
X0072000Y0025200D02*
X0075600Y0021600D01*
X0078300Y0021600D01*
X0082800Y0026100D01*
X0085500Y0026100D01*
X0086209Y0026524D01*
X0072000Y0036000D02*
X0091800Y0055800D01*
X0091800Y0070200D01*
X0108900Y0087300D01*
X0108900Y0153900D01*
X0104162Y0135658D02*
X0103500Y0135000D01*
X0099000Y0130500D01*
X0099000Y0090000D01*
X0081900Y0072900D01*
X0081900Y0055800D01*
X0066600Y0040500D01*
X0066600Y0027000D01*
X0066406Y0026131D01*
X0072000Y0025200D02*
X0072000Y0036000D01*
X0063000Y0072000D02*
X0045900Y0072000D01*
X0045816Y0072312D01*
X0041400Y0071100D02*
X0041400Y0121500D01*
X0061200Y0141300D01*
X0061800Y0141800D01*
X0079200Y0138600D02*
X0079200Y0088200D01*
X0063000Y0072000D01*
X0055800Y0056700D02*
X0056643Y0056209D01*
X0055800Y0056700D02*
X0041400Y0071100D01*
X0079200Y0138600D02*
X0091800Y0151200D01*
X0091800Y0151800D01*
X0146700Y0067500D02*
X0106200Y0027000D01*
X0105580Y0026643D01*
X0146700Y0067500D02*
X0146700Y0073800D01*
X0146997Y0073887D01*
X0146879Y0103650D02*
X0146700Y0104400D01*
X0146700Y0121500D01*
X0104162Y0330540D02*
X0103500Y0331200D01*
X0060300Y0331200D01*
X0031500Y0360000D01*
X0031328Y0360068D01*
X0011700Y0392400D02*
X0026100Y0406800D01*
X0085500Y0406800D01*
X0094500Y0397800D01*
X0094500Y0394200D01*
X0103500Y0385200D01*
X0103500Y0382500D01*
X0104162Y0381721D01*
X0011643Y0391564D02*
X0011700Y0392400D01*
D24*
X0108900Y0153900D03*
M02*
